<?xml version="1.0" encoding="utf-8"?>
<!-- Generator: Adobe Illustrator 21.0.2, SVG Export Plug-In . SVG Version: 6.00 Build 0)  -->
<!DOCTYPE svg PUBLIC "-//W3C//DTD SVG 1.1//EN" "http://www.w3.org/Graphics/SVG/1.1/DTD/svg11.dtd">
<svg version="1.1" id="Layer_1" xmlns="http://www.w3.org/2000/svg" xmlns:xlink="http://www.w3.org/1999/xlink" x="0px" y="0px"
	 viewBox="0 0 486 358.5" style="enable-background:new 0 0 486 358.5;" xml:space="preserve">
<style type="text/css">
	.st0{fill:#FFFFFF;}
	.st1{fill:#DA3644;}
	.st2{fill:#ADACAC;}
	.st3{fill:#D93644;}
	.st4{fill:#1C2C4D;}
	.st5{fill:none;}
	.st6{fill:#C9123F;}
	.st7{fill:#E00B1E;}
	.st8{fill:#153C66;}
	.st9{fill:#9F833A;}
</style>
<rect x="0" class="st0" width="486" height="358.5"/>
<g>
	<path class="st1" d="M22.7,29v2.6h-6.8v3.2h5.9v2.4h-5.9V43h-3.1V29H22.7z"/>
	<path class="st1" d="M27.5,29v14h-3.1V29H27.5z"/>
	<path class="st1" d="M33.3,29l5.9,9.4h0V29h2.9v14H39l-5.8-9.4h0V43h-2.9V29H33.3z"/>
	<path class="st1" d="M51.8,29L57,43h-3.2l-1.1-3.1h-5.2L46.4,43h-3.1l5.3-14H51.8z M52,37.6l-1.8-5.1h0l-1.8,5.1H52z"/>
	<path class="st1" d="M61.3,29v11.4h6.8V43h-9.9V29H61.3z"/>
	<path class="st1" d="M78.4,29v11.4h6.8V43h-9.9V29H78.4z"/>
	<path class="st1" d="M97.5,29v2.6h-7.4v3h6.8V37h-6.8v3.4h7.6V43H87V29H97.5z"/>
	<path class="st1" d="M106.7,29l5.2,14h-3.2l-1.1-3.1h-5.2l-1.1,3.1h-3.1l5.3-14H106.7z M106.9,37.6l-1.8-5.1h0l-1.8,5.1H106.9z"/>
	<path class="st1" d="M121.5,42.9c-0.7,0.3-1.3,0.4-2,0.4c-1.1,0-2-0.2-2.9-0.6c-0.9-0.4-1.6-0.9-2.2-1.5c-0.6-0.7-1-1.4-1.4-2.3
		c-0.3-0.9-0.5-1.8-0.5-2.9c0-1,0.2-2,0.5-2.9c0.3-0.9,0.8-1.7,1.4-2.3s1.3-1.2,2.2-1.6c0.9-0.4,1.8-0.6,2.9-0.6
		c0.7,0,1.4,0.1,2.1,0.3c0.7,0.2,1.3,0.5,1.8,1s1,0.9,1.3,1.6c0.4,0.6,0.6,1.3,0.6,2.1h-2.9c-0.2-0.8-0.5-1.4-1.1-1.8
		c-0.5-0.4-1.2-0.6-1.9-0.6c-0.7,0-1.3,0.1-1.8,0.4s-0.9,0.6-1.2,1.1c-0.3,0.5-0.5,1-0.7,1.5c-0.1,0.6-0.2,1.2-0.2,1.8
		c0,0.6,0.1,1.2,0.2,1.7c0.1,0.6,0.4,1.1,0.7,1.5c0.3,0.4,0.7,0.8,1.2,1.1c0.5,0.3,1.1,0.4,1.8,0.4c1,0,1.8-0.3,2.4-0.8
		s0.9-1.3,1-2.2h-3.1v-2.3h5.9V43h-2l-0.3-1.6C122.8,42.1,122.2,42.6,121.5,42.9z"/>
	<path class="st1" d="M138.4,41.9c-1.1,0.9-2.5,1.4-4.4,1.4c-1.9,0-3.4-0.5-4.4-1.4s-1.6-2.3-1.6-4.2V29h3.1v8.7
		c0,0.4,0,0.8,0.1,1.1c0.1,0.4,0.2,0.7,0.4,1s0.5,0.5,0.9,0.7s0.9,0.3,1.5,0.3c1.1,0,1.9-0.2,2.3-0.7c0.4-0.5,0.6-1.3,0.6-2.3V29
		h3.1v8.7C140,39.6,139.5,41,138.4,41.9z"/>
	<path class="st1" d="M153.1,29v2.6h-7.4v3h6.8V37h-6.8v3.4h7.6V43h-10.6V29H153.1z"/>
	<path class="st1" d="M19.1,51.2c0.9,0,1.6,0.1,2.2,0.4s1.1,0.6,1.5,1c0.4,0.4,0.7,0.9,0.8,1.4s0.3,1.1,0.3,1.7
		c0,0.6-0.1,1.1-0.3,1.7s-0.5,1-0.8,1.4c-0.4,0.4-0.9,0.8-1.5,1s-1.4,0.4-2.2,0.4h-3.2v5h-3.1v-14H19.1z M18.3,57.8
		c0.4,0,0.7,0,1-0.1s0.6-0.2,0.9-0.3c0.2-0.2,0.4-0.4,0.6-0.6s0.2-0.6,0.2-1.1c0-0.4-0.1-0.8-0.2-1.1c-0.2-0.3-0.4-0.5-0.6-0.6
		c-0.2-0.2-0.5-0.3-0.9-0.3s-0.7-0.1-1-0.1h-2.4v4.2H18.3z"/>
	<path class="st1" d="M29,51.2v11.4h6.8v2.6h-9.9v-14H29z"/>
	<path class="st1" d="M44.5,51.2l5.2,14h-3.2l-1.1-3.1h-5.2l-1.1,3.1h-3.1l5.3-14H44.5z M44.7,59.8l-1.8-5.1h0l-1.8,5.1H44.7z"/>
	<path class="st1" d="M60,55c-0.2-0.3-0.4-0.6-0.7-0.8c-0.3-0.2-0.6-0.4-0.9-0.5c-0.3-0.1-0.7-0.2-1.1-0.2c-0.7,0-1.3,0.1-1.8,0.4
		s-0.9,0.6-1.2,1.1c-0.3,0.5-0.5,1-0.7,1.5c-0.1,0.6-0.2,1.2-0.2,1.8c0,0.6,0.1,1.2,0.2,1.7c0.1,0.6,0.4,1.1,0.7,1.5
		c0.3,0.4,0.7,0.8,1.2,1.1c0.5,0.3,1.1,0.4,1.8,0.4c0.9,0,1.7-0.3,2.2-0.9c0.5-0.6,0.9-1.3,1-2.3h3c-0.1,0.9-0.3,1.7-0.6,2.4
		c-0.3,0.7-0.8,1.3-1.3,1.8c-0.5,0.5-1.2,0.9-1.9,1.1c-0.7,0.3-1.5,0.4-2.4,0.4c-1.1,0-2-0.2-2.9-0.6c-0.9-0.4-1.6-0.9-2.2-1.5
		c-0.6-0.7-1-1.4-1.4-2.3c-0.3-0.9-0.5-1.8-0.5-2.9c0-1,0.2-2,0.5-2.9c0.3-0.9,0.8-1.7,1.4-2.3s1.3-1.2,2.2-1.6
		c0.9-0.4,1.8-0.6,2.9-0.6c0.8,0,1.5,0.1,2.2,0.3s1.3,0.5,1.8,1c0.5,0.4,1,1,1.3,1.6c0.4,0.6,0.6,1.3,0.7,2.2h-3
		C60.3,55.6,60.2,55.3,60,55z"/>
	<path class="st1" d="M68.6,51.2v14h-3.1v-14H68.6z"/>
	<path class="st1" d="M74.4,51.2l5.9,9.4h0v-9.4h2.9v14h-3.1l-5.8-9.4h0v9.4h-2.9v-14H74.4z"/>
	<path class="st1" d="M94.2,65.2c-0.7,0.3-1.3,0.4-2,0.4c-1.1,0-2-0.2-2.9-0.6c-0.9-0.4-1.6-0.9-2.2-1.5c-0.6-0.7-1-1.4-1.4-2.3
		c-0.3-0.9-0.5-1.8-0.5-2.9c0-1,0.2-2,0.5-2.9c0.3-0.9,0.8-1.7,1.4-2.3s1.3-1.2,2.2-1.6c0.9-0.4,1.8-0.6,2.9-0.6
		c0.7,0,1.4,0.1,2.1,0.3c0.7,0.2,1.3,0.5,1.8,1s1,0.9,1.3,1.6c0.4,0.6,0.6,1.3,0.6,2.1h-2.9c-0.2-0.8-0.5-1.4-1.1-1.8
		c-0.5-0.4-1.2-0.6-1.9-0.6c-0.7,0-1.3,0.1-1.8,0.4s-0.9,0.6-1.2,1.1c-0.3,0.5-0.5,1-0.7,1.5c-0.1,0.6-0.2,1.2-0.2,1.8
		c0,0.6,0.1,1.2,0.2,1.7c0.1,0.6,0.4,1.1,0.7,1.5c0.3,0.4,0.7,0.8,1.2,1.1c0.5,0.3,1.1,0.4,1.8,0.4c1,0,1.8-0.3,2.4-0.8
		s0.9-1.3,1-2.2h-3.1v-2.3h5.9v7.6h-2L96,63.7C95.5,64.4,94.9,64.9,94.2,65.2z"/>
	<path class="st1" d="M103.2,61.8c0.2,0.3,0.4,0.6,0.7,0.8c0.3,0.2,0.6,0.4,1,0.5c0.4,0.1,0.8,0.1,1.2,0.1c0.3,0,0.6,0,0.9-0.1
		c0.3,0,0.6-0.1,0.9-0.3c0.3-0.1,0.5-0.3,0.7-0.5c0.2-0.2,0.3-0.5,0.3-0.9c0-0.4-0.1-0.7-0.4-0.9c-0.2-0.2-0.6-0.4-1-0.6
		c-0.4-0.2-0.8-0.3-1.3-0.4c-0.5-0.1-1-0.2-1.5-0.4c-0.5-0.1-1-0.3-1.5-0.5c-0.5-0.2-0.9-0.4-1.3-0.7c-0.4-0.3-0.7-0.7-1-1.1
		c-0.2-0.5-0.4-1-0.4-1.6c0-0.7,0.2-1.3,0.5-1.9c0.3-0.5,0.7-1,1.2-1.3s1.1-0.6,1.7-0.8c0.6-0.2,1.3-0.3,1.9-0.3
		c0.7,0,1.4,0.1,2.1,0.2c0.7,0.2,1.3,0.4,1.8,0.8c0.5,0.4,0.9,0.8,1.2,1.4c0.3,0.6,0.5,1.3,0.5,2.1h-3c0-0.4-0.1-0.8-0.3-1
		c-0.2-0.3-0.4-0.5-0.6-0.6c-0.2-0.2-0.5-0.3-0.9-0.3c-0.3-0.1-0.7-0.1-1.1-0.1c-0.2,0-0.5,0-0.7,0.1c-0.2,0.1-0.5,0.1-0.7,0.3
		c-0.2,0.1-0.4,0.3-0.5,0.5c-0.1,0.2-0.2,0.4-0.2,0.7c0,0.3,0.1,0.5,0.2,0.7c0.1,0.2,0.3,0.3,0.6,0.5c0.3,0.1,0.7,0.3,1.3,0.4
		c0.5,0.1,1.3,0.3,2.1,0.5c0.3,0.1,0.6,0.1,1.1,0.3c0.5,0.1,0.9,0.4,1.4,0.7s0.9,0.7,1.2,1.2c0.3,0.5,0.5,1.1,0.5,1.9
		c0,0.6-0.1,1.2-0.4,1.8c-0.2,0.6-0.6,1-1.1,1.4c-0.5,0.4-1.1,0.7-1.8,0.9c-0.7,0.2-1.6,0.3-2.5,0.3c-0.8,0-1.5-0.1-2.2-0.3
		c-0.7-0.2-1.4-0.5-1.9-0.9c-0.6-0.4-1-0.9-1.3-1.6c-0.3-0.6-0.5-1.4-0.5-2.2h3C102.9,61.1,103,61.5,103.2,61.8z"/>
</g>
<g>
	<g>
		<path class="st2" d="M15,100.8c0.1,0.6,0.3,1.1,0.7,1.5c0.4,0.4,0.9,0.6,1.6,0.6c0.7,0,1.2-0.2,1.6-0.5c0.4-0.4,0.7-0.8,0.9-1.3
			c0.2-0.5,0.4-1.1,0.5-1.7c0.1-0.6,0.1-1.2,0.2-1.7l0,0c-0.3,0.6-0.8,1.1-1.4,1.4c-0.6,0.3-1.2,0.5-1.9,0.5c-0.7,0-1.4-0.1-2-0.4
			c-0.6-0.2-1.1-0.6-1.5-1c-0.4-0.4-0.8-1-1-1.6c-0.2-0.6-0.4-1.4-0.4-2.1c0-0.7,0.1-1.4,0.4-2.1c0.2-0.6,0.6-1.2,1-1.7
			c0.5-0.5,1-0.8,1.7-1.1s1.4-0.4,2.2-0.4c1.1,0,2,0.2,2.7,0.6c0.7,0.4,1.3,1,1.7,1.7c0.4,0.7,0.7,1.6,0.8,2.6c0.2,1,0.2,2,0.2,3.1
			c0,0.9-0.1,1.9-0.3,2.8c-0.2,0.9-0.5,1.8-1,2.6c-0.5,0.8-1.1,1.4-1.8,1.9c-0.7,0.5-1.7,0.7-2.7,0.7c-0.6,0-1.2-0.1-1.7-0.3
			s-1-0.5-1.4-0.9c-0.4-0.4-0.8-0.8-1-1.3s-0.4-1.1-0.4-1.7H15z M17.4,91c-0.5,0-0.9,0.1-1.2,0.3c-0.3,0.2-0.6,0.4-0.8,0.7
			c-0.2,0.3-0.4,0.6-0.5,1c-0.1,0.4-0.2,0.8-0.2,1.2c0,0.4,0.1,0.8,0.2,1.2s0.3,0.7,0.5,1c0.2,0.3,0.5,0.5,0.8,0.7
			c0.3,0.2,0.7,0.3,1.2,0.3c0.5,0,0.9-0.1,1.2-0.3c0.4-0.2,0.6-0.4,0.9-0.7c0.2-0.3,0.4-0.6,0.5-1c0.1-0.4,0.2-0.8,0.2-1.2
			c0-0.4-0.1-0.8-0.2-1.2c-0.1-0.4-0.3-0.7-0.5-1c-0.2-0.3-0.5-0.5-0.9-0.7C18.3,91.1,17.8,91,17.4,91z"/>
		<path class="st2" d="M32.4,93.1c-0.1-0.6-0.3-1.1-0.7-1.5c-0.4-0.4-0.9-0.6-1.6-0.6c-0.5,0-0.8,0.1-1.2,0.3
			c-0.3,0.2-0.6,0.4-0.8,0.7c-0.2,0.3-0.4,0.6-0.6,1c-0.1,0.4-0.3,0.7-0.3,1.1s-0.2,0.8-0.2,1.2S27,96,26.9,96.3l0,0
			c0.3-0.6,0.8-1.1,1.4-1.4s1.2-0.5,1.9-0.5c0.8,0,1.4,0.1,2,0.4c0.6,0.3,1.1,0.6,1.5,1.1s0.7,1,1,1.6s0.3,1.3,0.3,2
			c0,0.7-0.1,1.4-0.4,2.1c-0.2,0.6-0.6,1.2-1,1.7c-0.5,0.5-1,0.8-1.6,1.1c-0.6,0.3-1.3,0.4-2.1,0.4c-1.1,0-2.1-0.2-2.8-0.6
			c-0.7-0.4-1.3-1-1.7-1.7c-0.4-0.7-0.7-1.6-0.9-2.6s-0.2-2-0.2-3.2c0-0.9,0.1-1.9,0.3-2.8c0.2-0.9,0.5-1.8,1-2.6
			c0.5-0.8,1.1-1.4,1.8-1.9s1.7-0.7,2.7-0.7c0.6,0,1.2,0.1,1.7,0.3c0.5,0.2,1,0.5,1.4,0.9c0.4,0.4,0.8,0.8,1,1.3
			c0.3,0.5,0.4,1.1,0.4,1.7H32.4z M29.9,102.9c0.5,0,0.9-0.1,1.2-0.3s0.6-0.4,0.8-0.7c0.2-0.3,0.4-0.6,0.5-1
			c0.1-0.4,0.2-0.8,0.2-1.2c0-0.4-0.1-0.8-0.2-1.2c-0.1-0.4-0.3-0.7-0.5-1c-0.2-0.3-0.5-0.5-0.8-0.7c-0.3-0.2-0.7-0.3-1.2-0.3
			c-0.5,0-0.9,0.1-1.2,0.3c-0.3,0.2-0.6,0.4-0.9,0.7s-0.4,0.6-0.5,1c-0.1,0.4-0.2,0.8-0.2,1.2s0.1,0.8,0.2,1.2
			c0.1,0.4,0.3,0.7,0.5,1s0.5,0.5,0.9,0.7C29.1,102.8,29.5,102.9,29.9,102.9z"/>
	</g>
</g>
<g>
	<g>
		<path class="st2" d="M15,130.6c0.1,0.6,0.3,1.1,0.7,1.5c0.4,0.4,0.9,0.6,1.6,0.6c0.7,0,1.2-0.2,1.6-0.5c0.4-0.4,0.7-0.8,0.9-1.3
			c0.2-0.5,0.4-1.1,0.5-1.7c0.1-0.6,0.1-1.2,0.2-1.7l0,0c-0.3,0.6-0.8,1.1-1.4,1.4c-0.6,0.3-1.2,0.5-1.9,0.5c-0.7,0-1.4-0.1-2-0.4
			c-0.6-0.2-1.1-0.6-1.5-1c-0.4-0.4-0.8-1-1-1.6c-0.2-0.6-0.4-1.4-0.4-2.1c0-0.7,0.1-1.4,0.4-2.1c0.2-0.6,0.6-1.2,1-1.7
			c0.5-0.5,1-0.8,1.7-1.1s1.4-0.4,2.2-0.4c1.1,0,2,0.2,2.7,0.6c0.7,0.4,1.3,1,1.7,1.7c0.4,0.7,0.7,1.6,0.8,2.6c0.2,1,0.2,2,0.2,3.1
			c0,0.9-0.1,1.9-0.3,2.8c-0.2,0.9-0.5,1.8-1,2.6c-0.5,0.8-1.1,1.4-1.8,1.9c-0.7,0.5-1.7,0.7-2.7,0.7c-0.6,0-1.2-0.1-1.7-0.3
			s-1-0.5-1.4-0.9c-0.4-0.4-0.8-0.8-1-1.3s-0.4-1.1-0.4-1.7H15z M17.4,120.8c-0.5,0-0.9,0.1-1.2,0.3c-0.3,0.2-0.6,0.4-0.8,0.7
			c-0.2,0.3-0.4,0.6-0.5,1c-0.1,0.4-0.2,0.8-0.2,1.2c0,0.4,0.1,0.8,0.2,1.2s0.3,0.7,0.5,1c0.2,0.3,0.5,0.5,0.8,0.7
			c0.3,0.2,0.7,0.3,1.2,0.3c0.5,0,0.9-0.1,1.2-0.3c0.4-0.2,0.6-0.4,0.9-0.7c0.2-0.3,0.4-0.6,0.5-1c0.1-0.4,0.2-0.8,0.2-1.2
			c0-0.4-0.1-0.8-0.2-1.2c-0.1-0.4-0.3-0.7-0.5-1c-0.2-0.3-0.5-0.5-0.9-0.7C18.3,120.9,17.8,120.8,17.4,120.8z"/>
		<path class="st2" d="M24.4,119.1H35v2.1c-0.8,0.9-1.5,1.9-2.2,2.8s-1.2,2-1.7,3.1c-0.5,1.1-0.9,2.2-1.2,3.5
			c-0.3,1.2-0.5,2.5-0.6,3.9h-2.8c0.1-1.2,0.3-2.4,0.6-3.6s0.8-2.3,1.3-3.5c0.5-1.1,1.1-2.2,1.8-3.2c0.7-1,1.4-2,2.2-2.9h-8V119.1z"
			/>
	</g>
</g>
<g>
	<g>
		<path class="st2" d="M15,160.4c0.1,0.6,0.3,1.1,0.7,1.5c0.4,0.4,0.9,0.6,1.6,0.6c0.7,0,1.2-0.2,1.6-0.5c0.4-0.4,0.7-0.8,0.9-1.3
			c0.2-0.5,0.4-1.1,0.5-1.7c0.1-0.6,0.1-1.2,0.2-1.7l0,0c-0.3,0.6-0.8,1.1-1.4,1.4c-0.6,0.3-1.2,0.5-1.9,0.5c-0.7,0-1.4-0.1-2-0.4
			c-0.6-0.2-1.1-0.6-1.5-1c-0.4-0.4-0.8-1-1-1.6c-0.2-0.6-0.4-1.4-0.4-2.1c0-0.7,0.1-1.4,0.4-2.1c0.2-0.6,0.6-1.2,1-1.7
			c0.5-0.5,1-0.8,1.7-1.1s1.4-0.4,2.2-0.4c1.1,0,2,0.2,2.7,0.6c0.7,0.4,1.3,1,1.7,1.7c0.4,0.7,0.7,1.6,0.8,2.6c0.2,1,0.2,2,0.2,3.1
			c0,0.9-0.1,1.9-0.3,2.8c-0.2,0.9-0.5,1.8-1,2.6c-0.5,0.8-1.1,1.4-1.8,1.9c-0.7,0.5-1.7,0.7-2.7,0.7c-0.6,0-1.2-0.1-1.7-0.3
			s-1-0.5-1.4-0.9c-0.4-0.4-0.8-0.8-1-1.3s-0.4-1.1-0.4-1.7H15z M17.4,150.6c-0.5,0-0.9,0.1-1.2,0.3c-0.3,0.2-0.6,0.4-0.8,0.7
			c-0.2,0.3-0.4,0.6-0.5,1c-0.1,0.4-0.2,0.8-0.2,1.2c0,0.4,0.1,0.8,0.2,1.2s0.3,0.7,0.5,1c0.2,0.3,0.5,0.5,0.8,0.7
			c0.3,0.2,0.7,0.3,1.2,0.3c0.5,0,0.9-0.1,1.2-0.3c0.4-0.2,0.6-0.4,0.9-0.7c0.2-0.3,0.4-0.6,0.5-1c0.1-0.4,0.2-0.8,0.2-1.2
			c0-0.4-0.1-0.8-0.2-1.2c-0.1-0.4-0.3-0.7-0.5-1c-0.2-0.3-0.5-0.5-0.9-0.7C18.3,150.7,17.8,150.6,17.4,150.6z"/>
		<path class="st2" d="M29.8,164.6c-0.8,0-1.5-0.1-2.2-0.3c-0.7-0.2-1.2-0.5-1.7-1c-0.5-0.4-0.9-0.9-1.1-1.5s-0.4-1.3-0.4-2
			c0-1,0.3-1.8,0.8-2.4c0.5-0.7,1.2-1.1,2.1-1.3v0c-0.7-0.3-1.2-0.7-1.6-1.2c-0.4-0.6-0.6-1.2-0.6-1.9c0-1.3,0.4-2.4,1.2-3.1
			c0.8-0.7,2-1.1,3.6-1.1s2.7,0.4,3.6,1.1c0.8,0.7,1.2,1.8,1.2,3.1c0,0.7-0.2,1.4-0.6,1.9c-0.4,0.5-0.9,1-1.6,1.2v0
			c0.9,0.2,1.6,0.7,2.1,1.3s0.8,1.5,0.8,2.4c0,0.7-0.1,1.4-0.4,2s-0.6,1.1-1.1,1.5s-1.1,0.7-1.7,1C31.3,164.5,30.6,164.6,29.8,164.6
			z M29.8,162.6c0.8,0,1.5-0.2,2.1-0.7c0.6-0.5,0.8-1.2,0.8-2.1c0-0.9-0.3-1.5-0.8-2c-0.6-0.5-1.3-0.7-2.1-0.7s-1.5,0.2-2.1,0.7
			c-0.6,0.5-0.8,1.1-0.8,2c0,0.9,0.3,1.6,0.8,2.1C28.3,162.3,29,162.6,29.8,162.6z M29.8,150.5c-0.7,0-1.2,0.2-1.7,0.6
			c-0.5,0.4-0.7,1-0.7,1.8c0,0.7,0.2,1.3,0.7,1.7c0.5,0.4,1,0.6,1.7,0.6c0.7,0,1.3-0.2,1.7-0.6c0.5-0.4,0.7-0.9,0.7-1.7
			c0-0.8-0.2-1.3-0.7-1.8C31,150.7,30.5,150.5,29.8,150.5z"/>
	</g>
</g>
<g>
	<path class="st2" d="M15,190.2c0.1,0.6,0.3,1.1,0.7,1.5c0.4,0.4,0.9,0.6,1.6,0.6c0.7,0,1.2-0.2,1.6-0.5c0.4-0.4,0.7-0.8,0.9-1.3
		c0.2-0.5,0.4-1.1,0.5-1.7c0.1-0.6,0.1-1.2,0.2-1.7l0,0c-0.3,0.6-0.8,1.1-1.4,1.4c-0.6,0.3-1.2,0.5-1.9,0.5c-0.7,0-1.4-0.1-2-0.4
		c-0.6-0.2-1.1-0.6-1.5-1c-0.4-0.4-0.8-1-1-1.6c-0.2-0.6-0.4-1.4-0.4-2.1c0-0.7,0.1-1.4,0.4-2.1c0.2-0.6,0.6-1.2,1-1.7
		c0.5-0.5,1-0.8,1.7-1.1s1.4-0.4,2.2-0.4c1.1,0,2,0.2,2.7,0.6c0.7,0.4,1.3,1,1.7,1.7c0.4,0.7,0.7,1.6,0.8,2.6c0.2,1,0.2,2,0.2,3.1
		c0,0.9-0.1,1.9-0.3,2.8c-0.2,0.9-0.5,1.8-1,2.6c-0.5,0.8-1.1,1.4-1.8,1.9c-0.7,0.5-1.7,0.7-2.7,0.7c-0.6,0-1.2-0.1-1.7-0.3
		s-1-0.5-1.4-0.9c-0.4-0.4-0.8-0.8-1-1.3s-0.4-1.1-0.4-1.7H15z M17.4,180.4c-0.5,0-0.9,0.1-1.2,0.3c-0.3,0.2-0.6,0.4-0.8,0.7
		c-0.2,0.3-0.4,0.6-0.5,1c-0.1,0.4-0.2,0.8-0.2,1.2c0,0.4,0.1,0.8,0.2,1.2s0.3,0.7,0.5,1c0.2,0.3,0.5,0.5,0.8,0.7
		c0.3,0.2,0.7,0.3,1.2,0.3c0.5,0,0.9-0.1,1.2-0.3c0.4-0.2,0.6-0.4,0.9-0.7c0.2-0.3,0.4-0.6,0.5-1c0.1-0.4,0.2-0.8,0.2-1.2
		c0-0.4-0.1-0.8-0.2-1.2c-0.1-0.4-0.3-0.7-0.5-1c-0.2-0.3-0.5-0.5-0.9-0.7C18.3,180.5,17.8,180.4,17.4,180.4z"/>
	<path class="st2" d="M27.2,190.2c0.1,0.6,0.3,1.1,0.7,1.5c0.4,0.4,0.9,0.6,1.6,0.6c0.7,0,1.2-0.2,1.6-0.5c0.4-0.4,0.7-0.8,0.9-1.3
		c0.2-0.5,0.4-1.1,0.5-1.7c0.1-0.6,0.1-1.2,0.2-1.7l0,0c-0.3,0.6-0.8,1.1-1.4,1.4c-0.6,0.3-1.2,0.5-1.9,0.5c-0.7,0-1.4-0.1-2-0.4
		c-0.6-0.2-1.1-0.6-1.5-1c-0.4-0.4-0.8-1-1-1.6c-0.2-0.6-0.4-1.4-0.4-2.1c0-0.7,0.1-1.4,0.4-2.1c0.2-0.6,0.6-1.2,1-1.7
		c0.5-0.5,1-0.8,1.7-1.1s1.4-0.4,2.2-0.4c1.1,0,2,0.2,2.7,0.6c0.7,0.4,1.3,1,1.7,1.7c0.4,0.7,0.7,1.6,0.8,2.6c0.2,1,0.2,2,0.2,3.1
		c0,0.9-0.1,1.9-0.3,2.8c-0.2,0.9-0.5,1.8-1,2.6c-0.5,0.8-1.1,1.4-1.8,1.9c-0.7,0.5-1.7,0.7-2.7,0.7c-0.6,0-1.2-0.1-1.7-0.3
		s-1-0.5-1.4-0.9c-0.4-0.4-0.8-0.8-1-1.3s-0.4-1.1-0.4-1.7H27.2z M29.6,180.4c-0.5,0-0.9,0.1-1.2,0.3c-0.3,0.2-0.6,0.4-0.8,0.7
		c-0.2,0.3-0.4,0.6-0.5,1c-0.1,0.4-0.2,0.8-0.2,1.2c0,0.4,0.1,0.8,0.2,1.2s0.3,0.7,0.5,1c0.2,0.3,0.5,0.5,0.8,0.7s0.7,0.3,1.2,0.3
		c0.5,0,0.9-0.1,1.2-0.3c0.4-0.2,0.6-0.4,0.9-0.7c0.2-0.3,0.4-0.6,0.5-1c0.1-0.4,0.2-0.8,0.2-1.2c0-0.4-0.1-0.8-0.2-1.2
		c-0.1-0.4-0.3-0.7-0.5-1c-0.2-0.3-0.5-0.5-0.9-0.7C30.5,180.5,30.1,180.4,29.6,180.4z"/>
</g>
<g>
	<path class="st2" d="M17.6,208.2c1.1,0,2,0.3,2.7,0.8s1.2,1.2,1.6,1.9c0.4,0.8,0.7,1.6,0.8,2.6c0.1,0.9,0.2,1.8,0.2,2.7
		c0,0.9-0.1,1.8-0.2,2.7c-0.1,0.9-0.4,1.8-0.8,2.6c-0.4,0.8-0.9,1.4-1.6,1.9s-1.6,0.8-2.7,0.8c-1.1,0-2-0.3-2.7-0.8
		s-1.2-1.2-1.6-1.9c-0.4-0.8-0.7-1.6-0.8-2.6c-0.1-0.9-0.2-1.8-0.2-2.7c0-0.9,0.1-1.8,0.2-2.7c0.1-0.9,0.4-1.8,0.8-2.6
		c0.4-0.8,0.9-1.4,1.6-1.9S16.5,208.2,17.6,208.2z M17.6,222.1c0.5,0,1-0.2,1.4-0.5s0.7-0.7,0.9-1.3c0.2-0.5,0.4-1.2,0.5-1.9
		s0.1-1.5,0.1-2.3s0-1.6-0.1-2.3c-0.1-0.7-0.2-1.3-0.5-1.9c-0.2-0.5-0.5-1-0.9-1.3s-0.8-0.5-1.4-0.5c-0.6,0-1,0.2-1.4,0.5
		c-0.4,0.3-0.6,0.7-0.9,1.3c-0.2,0.5-0.4,1.2-0.5,1.9c-0.1,0.7-0.1,1.5-0.1,2.3s0,1.6,0.1,2.3c0.1,0.7,0.2,1.3,0.5,1.9
		c0.2,0.5,0.5,1,0.9,1.3C16.5,221.9,17,222.1,17.6,222.1z"/>
	<path class="st2" d="M29.8,208.2c1.1,0,2,0.3,2.7,0.8c0.7,0.5,1.2,1.2,1.6,1.9c0.4,0.8,0.7,1.6,0.8,2.6c0.1,0.9,0.2,1.8,0.2,2.7
		c0,0.9-0.1,1.8-0.2,2.7c-0.1,0.9-0.4,1.8-0.8,2.6c-0.4,0.8-0.9,1.4-1.6,1.9c-0.7,0.5-1.6,0.8-2.7,0.8c-1.1,0-2-0.3-2.7-0.8
		s-1.2-1.2-1.6-1.9c-0.4-0.8-0.7-1.6-0.8-2.6c-0.1-0.9-0.2-1.8-0.2-2.7c0-0.9,0.1-1.8,0.2-2.7c0.1-0.9,0.4-1.8,0.8-2.6
		c0.4-0.8,0.9-1.4,1.6-1.9S28.7,208.2,29.8,208.2z M29.8,222.1c0.5,0,1-0.2,1.4-0.5s0.7-0.7,0.9-1.3c0.2-0.5,0.4-1.2,0.5-1.9
		s0.1-1.5,0.1-2.3s0-1.6-0.1-2.3c-0.1-0.7-0.2-1.3-0.5-1.9c-0.2-0.5-0.5-1-0.9-1.3s-0.8-0.5-1.4-0.5c-0.6,0-1,0.2-1.4,0.5
		c-0.4,0.3-0.6,0.7-0.9,1.3c-0.2,0.5-0.4,1.2-0.5,1.9c-0.1,0.7-0.1,1.5-0.1,2.3s0,1.6,0.1,2.3c0.1,0.7,0.2,1.3,0.5,1.9
		c0.2,0.5,0.5,1,0.9,1.3C28.8,221.9,29.2,222.1,29.8,222.1z"/>
</g>
<g>
	<path class="st2" d="M17.6,238c1.1,0,2,0.3,2.7,0.8s1.2,1.2,1.6,1.9c0.4,0.8,0.7,1.6,0.8,2.6c0.1,0.9,0.2,1.8,0.2,2.7
		c0,0.9-0.1,1.8-0.2,2.7c-0.1,0.9-0.4,1.8-0.8,2.6c-0.4,0.8-0.9,1.4-1.6,1.9s-1.6,0.8-2.7,0.8c-1.1,0-2-0.3-2.7-0.8
		s-1.2-1.2-1.6-1.9c-0.4-0.8-0.7-1.6-0.8-2.6c-0.1-0.9-0.2-1.8-0.2-2.7c0-0.9,0.1-1.8,0.2-2.7c0.1-0.9,0.4-1.8,0.8-2.6
		c0.4-0.8,0.9-1.4,1.6-1.9S16.5,238,17.6,238z M17.6,251.9c0.5,0,1-0.2,1.4-0.5s0.7-0.7,0.9-1.3c0.2-0.5,0.4-1.2,0.5-1.9
		s0.1-1.5,0.1-2.3s0-1.6-0.1-2.3c-0.1-0.7-0.2-1.3-0.5-1.9c-0.2-0.5-0.5-1-0.9-1.3s-0.8-0.5-1.4-0.5c-0.6,0-1,0.2-1.4,0.5
		c-0.4,0.3-0.6,0.7-0.9,1.3c-0.2,0.5-0.4,1.2-0.5,1.9c-0.1,0.7-0.1,1.5-0.1,2.3s0,1.6,0.1,2.3c0.1,0.7,0.2,1.3,0.5,1.9
		c0.2,0.5,0.5,1,0.9,1.3C16.5,251.7,17,251.9,17.6,251.9z"/>
	<path class="st2" d="M24.8,240.8c0.5,0,1,0,1.5-0.1c0.5-0.1,0.9-0.2,1.4-0.4c0.4-0.2,0.7-0.5,1-0.8c0.3-0.3,0.5-0.7,0.6-1.2h2v15.4
		h-2.8v-10.9h-3.8V240.8z"/>
</g>
<g>
	<g>
		<path class="st3" d="M12.3,271.9c0.3-1,0.7-1.8,1.2-2.5s1.1-1.1,1.8-1.3c0.7-0.3,1.4-0.4,2.2-0.4c0.8,0,1.5,0.1,2.2,0.4
			c0.7,0.3,1.3,0.7,1.8,1.3c0.5,0.6,0.9,1.4,1.2,2.5c0.3,1,0.5,2.3,0.5,3.8c0,1.5-0.2,2.8-0.5,3.9c-0.3,1-0.7,1.9-1.2,2.5
			c-0.5,0.6-1.1,1.1-1.8,1.3c-0.7,0.3-1.4,0.4-2.2,0.4c-0.8,0-1.5-0.1-2.2-0.4c-0.7-0.3-1.3-0.7-1.8-1.3s-0.9-1.4-1.2-2.5
			c-0.3-1-0.5-2.3-0.5-3.9C11.9,274.2,12,273,12.3,271.9z M15.1,277.3c0,0.6,0.1,1.2,0.3,1.8c0.2,0.6,0.4,1.1,0.7,1.5
			c0.3,0.4,0.8,0.6,1.5,0.6c0.6,0,1.1-0.2,1.5-0.6c0.3-0.4,0.6-0.9,0.7-1.5c0.2-0.6,0.2-1.2,0.3-1.8c0-0.6,0-1.2,0-1.6
			c0-0.3,0-0.6,0-1c0-0.4,0-0.8-0.1-1.2c-0.1-0.4-0.1-0.8-0.2-1.2c-0.1-0.4-0.2-0.7-0.4-1c-0.2-0.3-0.4-0.6-0.7-0.7
			c-0.3-0.2-0.7-0.3-1.1-0.3c-0.4,0-0.8,0.1-1.1,0.3c-0.3,0.2-0.5,0.4-0.7,0.7c-0.2,0.3-0.3,0.7-0.4,1s-0.2,0.8-0.2,1.2
			c0,0.4-0.1,0.8-0.1,1.2c0,0.4,0,0.7,0,1C15,276.2,15,276.7,15.1,277.3z"/>
		<path class="st3" d="M24.8,271.5c0.2-0.8,0.6-1.4,1.1-2c0.5-0.6,1.1-1,1.8-1.3c0.7-0.3,1.5-0.5,2.5-0.5c0.7,0,1.4,0.1,2,0.3
			c0.6,0.2,1.2,0.5,1.7,0.9c0.5,0.4,0.9,0.9,1.2,1.5s0.4,1.3,0.4,2c0,0.8-0.1,1.4-0.4,2s-0.6,1.1-1,1.5c-0.4,0.4-0.9,0.8-1.4,1.2
			c-0.5,0.4-1,0.7-1.6,1c-0.5,0.3-1,0.7-1.5,1.1c-0.5,0.4-0.9,0.9-1.3,1.4h7.3v2.7H24.1c0-0.9,0.1-1.7,0.4-2.3s0.6-1.3,1-1.8
			c0.4-0.5,1-1,1.6-1.4c0.6-0.4,1.2-0.9,1.9-1.3c0.3-0.2,0.7-0.5,1.1-0.7c0.4-0.2,0.7-0.5,1-0.8c0.3-0.3,0.6-0.6,0.8-1
			c0.2-0.4,0.3-0.8,0.3-1.3c0-0.7-0.2-1.3-0.6-1.8c-0.4-0.4-1-0.6-1.7-0.6c-0.5,0-0.8,0.1-1.2,0.3c-0.3,0.2-0.6,0.5-0.8,0.8
			c-0.2,0.3-0.3,0.7-0.4,1.1c-0.1,0.4-0.1,0.8-0.1,1.2h-3C24.5,273.1,24.6,272.3,24.8,271.5z"/>
	</g>
</g>
<g>
	<path class="st2" d="M55.8,88.9c1.1,0,2,0.3,2.7,0.8s1.2,1.2,1.6,1.9c0.4,0.8,0.7,1.6,0.8,2.6c0.1,0.9,0.2,1.8,0.2,2.7
		c0,0.9-0.1,1.8-0.2,2.7c-0.1,0.9-0.4,1.8-0.8,2.6c-0.4,0.8-0.9,1.4-1.6,1.9s-1.6,0.8-2.7,0.8c-1.1,0-2-0.3-2.7-0.8
		s-1.2-1.2-1.6-1.9c-0.4-0.8-0.7-1.6-0.8-2.6c-0.1-0.9-0.2-1.8-0.2-2.7c0-0.9,0.1-1.8,0.2-2.7c0.1-0.9,0.4-1.8,0.8-2.6
		c0.4-0.8,0.9-1.4,1.6-1.9S54.7,88.9,55.8,88.9z M55.8,102.9c0.5,0,1-0.2,1.4-0.5s0.7-0.7,0.9-1.3c0.2-0.5,0.4-1.2,0.5-1.9
		s0.1-1.5,0.1-2.3s0-1.6-0.1-2.3c-0.1-0.7-0.2-1.3-0.5-1.9c-0.2-0.5-0.5-1-0.9-1.3S56.3,91,55.8,91c-0.6,0-1,0.2-1.4,0.5
		c-0.4,0.3-0.6,0.7-0.9,1.3c-0.2,0.5-0.4,1.2-0.5,1.9C53,95.4,53,96.1,53,96.9s0,1.6,0.1,2.3c0.1,0.7,0.2,1.3,0.5,1.9
		c0.2,0.5,0.5,1,0.9,1.3C54.8,102.7,55.2,102.9,55.8,102.9z"/>
	<path class="st2" d="M66.9,95.6c0.4,0,0.8,0,1.2-0.1s0.8-0.2,1.1-0.4s0.6-0.4,0.8-0.8c0.2-0.3,0.3-0.7,0.3-1.2
		c0-0.7-0.2-1.2-0.7-1.6c-0.4-0.4-1-0.6-1.7-0.6c-0.4,0-0.8,0.1-1.1,0.3c-0.3,0.2-0.6,0.4-0.8,0.7c-0.2,0.3-0.4,0.6-0.5,1
		s-0.1,0.8-0.1,1.2h-2.5c0-0.7,0.2-1.4,0.4-2.1c0.2-0.6,0.6-1.2,1-1.7c0.4-0.5,1-0.8,1.6-1.1c0.6-0.3,1.3-0.4,2.1-0.4
		c0.6,0,1.2,0.1,1.8,0.3s1.1,0.4,1.6,0.8c0.5,0.3,0.8,0.8,1.1,1.3c0.3,0.5,0.4,1.1,0.4,1.8c0,0.8-0.2,1.5-0.5,2
		c-0.4,0.6-0.9,1-1.7,1.3v0c0.9,0.2,1.6,0.6,2.1,1.3c0.5,0.7,0.7,1.5,0.7,2.5c0,0.7-0.1,1.4-0.4,2c-0.3,0.6-0.7,1.1-1.2,1.5
		c-0.5,0.4-1.1,0.7-1.7,0.9c-0.7,0.2-1.4,0.3-2.1,0.3c-0.9,0-1.7-0.1-2.3-0.4c-0.7-0.3-1.2-0.6-1.7-1.1c-0.4-0.5-0.8-1-1-1.7
		c-0.2-0.7-0.4-1.4-0.4-2.2h2.5c0,0.9,0.2,1.7,0.7,2.3c0.5,0.6,1.2,0.9,2.2,0.9c0.8,0,1.5-0.2,2.1-0.7s0.8-1.2,0.8-2
		c0-0.6-0.1-1.1-0.4-1.4c-0.2-0.4-0.5-0.6-0.9-0.8s-0.8-0.3-1.3-0.3c-0.5,0-1-0.1-1.5,0V95.6z"/>
</g>
<g>
	<path class="st2" d="M55.8,118.7c1.1,0,2,0.3,2.7,0.8s1.2,1.2,1.6,1.9c0.4,0.8,0.7,1.6,0.8,2.6c0.1,0.9,0.2,1.8,0.2,2.7
		c0,0.9-0.1,1.8-0.2,2.7c-0.1,0.9-0.4,1.8-0.8,2.6c-0.4,0.8-0.9,1.4-1.6,1.9s-1.6,0.8-2.7,0.8c-1.1,0-2-0.3-2.7-0.8
		s-1.2-1.2-1.6-1.9c-0.4-0.8-0.7-1.6-0.8-2.6c-0.1-0.9-0.2-1.8-0.2-2.7c0-0.9,0.1-1.8,0.2-2.7c0.1-0.9,0.4-1.8,0.8-2.6
		c0.4-0.8,0.9-1.4,1.6-1.9S54.7,118.7,55.8,118.7z M55.8,132.7c0.5,0,1-0.2,1.4-0.5s0.7-0.7,0.9-1.3c0.2-0.5,0.4-1.2,0.5-1.9
		s0.1-1.5,0.1-2.3s0-1.6-0.1-2.3c-0.1-0.7-0.2-1.3-0.5-1.9c-0.2-0.5-0.5-1-0.9-1.3s-0.8-0.5-1.4-0.5c-0.6,0-1,0.2-1.4,0.5
		c-0.4,0.3-0.6,0.7-0.9,1.3c-0.2,0.5-0.4,1.2-0.5,1.9c-0.1,0.7-0.1,1.5-0.1,2.3s0,1.6,0.1,2.3c0.1,0.7,0.2,1.3,0.5,1.9
		c0.2,0.5,0.5,1,0.9,1.3C54.8,132.5,55.2,132.7,55.8,132.7z"/>
	<path class="st2" d="M73.4,130.8h-2v3.7H69v-3.7h-6.6v-2.5l6.6-9.3h2.4v9.8h2V130.8z M64.4,128.8H69V122h0L64.4,128.8z"/>
</g>
<g>
	<path class="st2" d="M55.8,148.6c1.1,0,2,0.3,2.7,0.8s1.2,1.2,1.6,1.9c0.4,0.8,0.7,1.6,0.8,2.6c0.1,0.9,0.2,1.8,0.2,2.7
		c0,0.9-0.1,1.8-0.2,2.7c-0.1,0.9-0.4,1.8-0.8,2.6c-0.4,0.8-0.9,1.4-1.6,1.9s-1.6,0.8-2.7,0.8c-1.1,0-2-0.3-2.7-0.8
		s-1.2-1.2-1.6-1.9c-0.4-0.8-0.7-1.6-0.8-2.6c-0.1-0.9-0.2-1.8-0.2-2.7c0-0.9,0.1-1.8,0.2-2.7c0.1-0.9,0.4-1.8,0.8-2.6
		c0.4-0.8,0.9-1.4,1.6-1.9S54.7,148.6,55.8,148.6z M55.8,162.5c0.5,0,1-0.2,1.4-0.5s0.7-0.7,0.9-1.3c0.2-0.5,0.4-1.2,0.5-1.9
		s0.1-1.5,0.1-2.3s0-1.6-0.1-2.3c-0.1-0.7-0.2-1.3-0.5-1.9c-0.2-0.5-0.5-1-0.9-1.3s-0.8-0.5-1.4-0.5c-0.6,0-1,0.2-1.4,0.5
		c-0.4,0.3-0.6,0.7-0.9,1.3c-0.2,0.5-0.4,1.2-0.5,1.9c-0.1,0.7-0.1,1.5-0.1,2.3s0,1.6,0.1,2.3c0.1,0.7,0.2,1.3,0.5,1.9
		c0.2,0.5,0.5,1,0.9,1.3C54.8,162.3,55.2,162.5,55.8,162.5z"/>
	<path class="st2" d="M64.6,148.9h8v2.2h-6.1l-0.8,3.9l0,0c0.3-0.4,0.8-0.7,1.3-0.9c0.5-0.2,1-0.3,1.6-0.3c0.8,0,1.4,0.1,2,0.4
		c0.6,0.3,1.1,0.6,1.5,1.1c0.4,0.5,0.7,1,0.9,1.6s0.3,1.3,0.3,2c0,0.6-0.1,1.3-0.3,1.9c-0.2,0.7-0.5,1.2-0.9,1.8
		c-0.4,0.5-1,1-1.7,1.3s-1.5,0.5-2.4,0.5c-0.7,0-1.4-0.1-2.1-0.3c-0.6-0.2-1.2-0.5-1.7-0.9c-0.5-0.4-0.9-0.9-1.2-1.5
		c-0.3-0.6-0.4-1.3-0.5-2h2.5c0.1,0.8,0.4,1.5,0.9,1.9c0.5,0.4,1.2,0.7,2,0.7c0.5,0,1-0.1,1.3-0.3s0.7-0.4,0.9-0.7
		c0.2-0.3,0.4-0.7,0.5-1.1c0.1-0.4,0.1-0.9,0.1-1.3c0-0.4-0.1-0.8-0.2-1.2c-0.1-0.4-0.3-0.7-0.5-1c-0.2-0.3-0.5-0.5-0.9-0.7
		c-0.4-0.2-0.8-0.3-1.3-0.3c-0.5,0-1,0.1-1.5,0.3c-0.5,0.2-0.8,0.6-1,1.1h-2.5L64.6,148.9z"/>
</g>
<g>
	<path class="st2" d="M55.8,178.4c1.1,0,2,0.3,2.7,0.8s1.2,1.2,1.6,1.9c0.4,0.8,0.7,1.6,0.8,2.6c0.1,0.9,0.2,1.8,0.2,2.7
		c0,0.9-0.1,1.8-0.2,2.7c-0.1,0.9-0.4,1.8-0.8,2.6c-0.4,0.8-0.9,1.4-1.6,1.9s-1.6,0.8-2.7,0.8c-1.1,0-2-0.3-2.7-0.8
		s-1.2-1.2-1.6-1.9c-0.4-0.8-0.7-1.6-0.8-2.6c-0.1-0.9-0.2-1.8-0.2-2.7c0-0.9,0.1-1.8,0.2-2.7c0.1-0.9,0.4-1.8,0.8-2.6
		c0.4-0.8,0.9-1.4,1.6-1.9S54.7,178.4,55.8,178.4z M55.8,192.3c0.5,0,1-0.2,1.4-0.5s0.7-0.7,0.9-1.3c0.2-0.5,0.4-1.2,0.5-1.9
		s0.1-1.5,0.1-2.3s0-1.6-0.1-2.3c-0.1-0.7-0.2-1.3-0.5-1.9c-0.2-0.5-0.5-1-0.9-1.3s-0.8-0.5-1.4-0.5c-0.6,0-1,0.2-1.4,0.5
		c-0.4,0.3-0.6,0.7-0.9,1.3c-0.2,0.5-0.4,1.2-0.5,1.9c-0.1,0.7-0.1,1.5-0.1,2.3s0,1.6,0.1,2.3c0.1,0.7,0.2,1.3,0.5,1.9
		c0.2,0.5,0.5,1,0.9,1.3C54.8,192.1,55.2,192.3,55.8,192.3z"/>
	<path class="st2" d="M70.6,182.6c-0.1-0.6-0.3-1.1-0.7-1.5c-0.4-0.4-0.9-0.6-1.6-0.6c-0.5,0-0.8,0.1-1.2,0.3
		c-0.3,0.2-0.6,0.4-0.8,0.7c-0.2,0.3-0.4,0.6-0.6,1c-0.1,0.4-0.3,0.7-0.3,1.1s-0.2,0.8-0.2,1.2s-0.1,0.8-0.1,1.1l0,0
		c0.3-0.6,0.8-1.1,1.4-1.4s1.2-0.5,1.9-0.5c0.8,0,1.4,0.1,2,0.4c0.6,0.3,1.1,0.6,1.5,1.1s0.7,1,1,1.6s0.3,1.3,0.3,2
		c0,0.7-0.1,1.4-0.4,2.1c-0.2,0.6-0.6,1.2-1,1.7c-0.5,0.5-1,0.8-1.6,1.1c-0.6,0.3-1.3,0.4-2.1,0.4c-1.1,0-2.1-0.2-2.8-0.6
		c-0.7-0.4-1.3-1-1.7-1.7c-0.4-0.7-0.7-1.6-0.9-2.6s-0.2-2-0.2-3.2c0-0.9,0.1-1.9,0.3-2.8c0.2-0.9,0.5-1.8,1-2.6
		c0.5-0.8,1.1-1.4,1.8-1.9s1.7-0.7,2.7-0.7c0.6,0,1.2,0.1,1.7,0.3c0.5,0.2,1,0.5,1.4,0.9c0.4,0.4,0.8,0.8,1,1.3
		c0.3,0.5,0.4,1.1,0.4,1.7H70.6z M68.2,192.3c0.5,0,0.9-0.1,1.2-0.3s0.6-0.4,0.8-0.7c0.2-0.3,0.4-0.6,0.5-1c0.1-0.4,0.2-0.8,0.2-1.2
		c0-0.4-0.1-0.8-0.2-1.2c-0.1-0.4-0.3-0.7-0.5-1c-0.2-0.3-0.5-0.5-0.8-0.7c-0.3-0.2-0.7-0.3-1.2-0.3c-0.5,0-0.9,0.1-1.2,0.3
		c-0.3,0.2-0.6,0.4-0.9,0.7s-0.4,0.6-0.5,1c-0.1,0.4-0.2,0.8-0.2,1.2s0.1,0.8,0.2,1.2c0.1,0.4,0.3,0.7,0.5,1s0.5,0.5,0.9,0.7
		C67.3,192.2,67.7,192.3,68.2,192.3z"/>
</g>
<g>
	<path class="st2" d="M55.8,208.2c1.1,0,2,0.3,2.7,0.8s1.2,1.2,1.6,1.9c0.4,0.8,0.7,1.6,0.8,2.6c0.1,0.9,0.2,1.8,0.2,2.7
		c0,0.9-0.1,1.8-0.2,2.7c-0.1,0.9-0.4,1.8-0.8,2.6c-0.4,0.8-0.9,1.4-1.6,1.9s-1.6,0.8-2.7,0.8c-1.1,0-2-0.3-2.7-0.8
		s-1.2-1.2-1.6-1.9c-0.4-0.8-0.7-1.6-0.8-2.6c-0.1-0.9-0.2-1.8-0.2-2.7c0-0.9,0.1-1.8,0.2-2.7c0.1-0.9,0.4-1.8,0.8-2.6
		c0.4-0.8,0.9-1.4,1.6-1.9S54.7,208.2,55.8,208.2z M55.8,222.1c0.5,0,1-0.2,1.4-0.5s0.7-0.7,0.9-1.3c0.2-0.5,0.4-1.2,0.5-1.9
		s0.1-1.5,0.1-2.3s0-1.6-0.1-2.3c-0.1-0.7-0.2-1.3-0.5-1.9c-0.2-0.5-0.5-1-0.9-1.3s-0.8-0.5-1.4-0.5c-0.6,0-1,0.2-1.4,0.5
		c-0.4,0.3-0.6,0.7-0.9,1.3c-0.2,0.5-0.4,1.2-0.5,1.9c-0.1,0.7-0.1,1.5-0.1,2.3s0,1.6,0.1,2.3c0.1,0.7,0.2,1.3,0.5,1.9
		c0.2,0.5,0.5,1,0.9,1.3C54.8,221.9,55.2,222.1,55.8,222.1z"/>
	<path class="st2" d="M62.7,208.5h10.5v2.1c-0.8,0.9-1.5,1.9-2.2,2.8s-1.2,2-1.7,3.1c-0.5,1.1-0.9,2.2-1.2,3.5
		c-0.3,1.2-0.5,2.5-0.6,3.9h-2.8c0.1-1.2,0.3-2.4,0.6-3.6s0.8-2.3,1.3-3.5c0.5-1.1,1.1-2.2,1.8-3.2c0.7-1,1.4-2,2.2-2.9h-8V208.5z"
		/>
</g>
<g>
	<path class="st2" d="M55.8,238c1.1,0,2,0.3,2.7,0.8s1.2,1.2,1.6,1.9c0.4,0.8,0.7,1.6,0.8,2.6c0.1,0.9,0.2,1.8,0.2,2.7
		c0,0.9-0.1,1.8-0.2,2.7c-0.1,0.9-0.4,1.8-0.8,2.6c-0.4,0.8-0.9,1.4-1.6,1.9s-1.6,0.8-2.7,0.8c-1.1,0-2-0.3-2.7-0.8
		s-1.2-1.2-1.6-1.9c-0.4-0.8-0.7-1.6-0.8-2.6c-0.1-0.9-0.2-1.8-0.2-2.7c0-0.9,0.1-1.8,0.2-2.7c0.1-0.9,0.4-1.8,0.8-2.6
		c0.4-0.8,0.9-1.4,1.6-1.9S54.7,238,55.8,238z M55.8,251.9c0.5,0,1-0.2,1.4-0.5s0.7-0.7,0.9-1.3c0.2-0.5,0.4-1.2,0.5-1.9
		s0.1-1.5,0.1-2.3s0-1.6-0.1-2.3c-0.1-0.7-0.2-1.3-0.5-1.9c-0.2-0.5-0.5-1-0.9-1.3s-0.8-0.5-1.4-0.5c-0.6,0-1,0.2-1.4,0.5
		c-0.4,0.3-0.6,0.7-0.9,1.3c-0.2,0.5-0.4,1.2-0.5,1.9c-0.1,0.7-0.1,1.5-0.1,2.3s0,1.6,0.1,2.3c0.1,0.7,0.2,1.3,0.5,1.9
		c0.2,0.5,0.5,1,0.9,1.3C54.8,251.7,55.2,251.9,55.8,251.9z"/>
	<path class="st2" d="M68,254c-0.8,0-1.5-0.1-2.2-0.3c-0.7-0.2-1.2-0.5-1.7-1c-0.5-0.4-0.9-0.9-1.1-1.5s-0.4-1.3-0.4-2
		c0-1,0.3-1.8,0.8-2.4c0.5-0.7,1.2-1.1,2.1-1.3v0c-0.7-0.3-1.2-0.7-1.6-1.2c-0.4-0.6-0.6-1.2-0.6-1.9c0-1.3,0.4-2.4,1.2-3.1
		c0.8-0.7,2-1.1,3.6-1.1s2.7,0.4,3.6,1.1c0.8,0.7,1.2,1.8,1.2,3.1c0,0.7-0.2,1.4-0.6,1.9c-0.4,0.5-0.9,1-1.6,1.2v0
		c0.9,0.2,1.6,0.7,2.1,1.3s0.8,1.5,0.8,2.4c0,0.7-0.1,1.4-0.4,2s-0.6,1.1-1.1,1.5s-1.1,0.7-1.7,1C69.5,253.9,68.8,254,68,254z
		 M68,252c0.8,0,1.5-0.2,2.1-0.7c0.6-0.5,0.8-1.2,0.8-2.1c0-0.9-0.3-1.5-0.8-2c-0.6-0.5-1.3-0.7-2.1-0.7s-1.5,0.2-2.1,0.7
		c-0.6,0.5-0.8,1.1-0.8,2c0,0.9,0.3,1.6,0.8,2.1C66.5,251.8,67.2,252,68,252z M68,240c-0.7,0-1.2,0.2-1.7,0.6
		c-0.5,0.4-0.7,1-0.7,1.8c0,0.7,0.2,1.3,0.7,1.7c0.5,0.4,1,0.6,1.7,0.6c0.7,0,1.3-0.2,1.7-0.6c0.5-0.4,0.7-0.9,0.7-1.7
		c0-0.8-0.2-1.3-0.7-1.8C69.3,240.2,68.7,240,68,240z"/>
</g>
<g>
	<path class="st2" d="M55.8,267.8c1.1,0,2,0.3,2.7,0.8s1.2,1.2,1.6,1.9c0.4,0.8,0.7,1.6,0.8,2.6c0.1,0.9,0.2,1.8,0.2,2.7
		c0,0.9-0.1,1.8-0.2,2.7c-0.1,0.9-0.4,1.8-0.8,2.6c-0.4,0.8-0.9,1.4-1.6,1.9s-1.6,0.8-2.7,0.8c-1.1,0-2-0.3-2.7-0.8
		s-1.2-1.2-1.6-1.9c-0.4-0.8-0.7-1.6-0.8-2.6c-0.1-0.9-0.2-1.8-0.2-2.7c0-0.9,0.1-1.8,0.2-2.7c0.1-0.9,0.4-1.8,0.8-2.6
		c0.4-0.8,0.9-1.4,1.6-1.9S54.7,267.8,55.8,267.8z M55.8,281.7c0.5,0,1-0.2,1.4-0.5s0.7-0.7,0.9-1.3c0.2-0.5,0.4-1.2,0.5-1.9
		s0.1-1.5,0.1-2.3s0-1.6-0.1-2.3c-0.1-0.7-0.2-1.3-0.5-1.9c-0.2-0.5-0.5-1-0.9-1.3s-0.8-0.5-1.4-0.5c-0.6,0-1,0.2-1.4,0.5
		c-0.4,0.3-0.6,0.7-0.9,1.3c-0.2,0.5-0.4,1.2-0.5,1.9c-0.1,0.7-0.1,1.5-0.1,2.3s0,1.6,0.1,2.3c0.1,0.7,0.2,1.3,0.5,1.9
		c0.2,0.5,0.5,1,0.9,1.3C54.8,281.5,55.2,281.7,55.8,281.7z"/>
	<path class="st2" d="M65.4,279.6c0.1,0.6,0.3,1.1,0.7,1.5c0.4,0.4,0.9,0.6,1.6,0.6c0.7,0,1.2-0.2,1.6-0.5c0.4-0.4,0.7-0.8,0.9-1.3
		c0.2-0.5,0.4-1.1,0.5-1.7c0.1-0.6,0.1-1.2,0.2-1.7l0,0c-0.3,0.6-0.8,1.1-1.4,1.4c-0.6,0.3-1.2,0.5-1.9,0.5c-0.7,0-1.4-0.1-2-0.4
		c-0.6-0.2-1.1-0.6-1.5-1c-0.4-0.4-0.8-1-1-1.6c-0.2-0.6-0.4-1.4-0.4-2.1c0-0.7,0.1-1.4,0.4-2.1c0.2-0.6,0.6-1.2,1-1.7
		c0.5-0.5,1-0.8,1.7-1.1s1.4-0.4,2.2-0.4c1.1,0,2,0.2,2.7,0.6c0.7,0.4,1.3,1,1.7,1.7c0.4,0.7,0.7,1.6,0.8,2.6c0.2,1,0.2,2,0.2,3.1
		c0,0.9-0.1,1.9-0.3,2.8c-0.2,0.9-0.5,1.8-1,2.6c-0.5,0.8-1.1,1.4-1.8,1.9c-0.7,0.5-1.7,0.7-2.7,0.7c-0.6,0-1.2-0.1-1.7-0.3
		s-1-0.5-1.4-0.9c-0.4-0.4-0.8-0.8-1-1.3s-0.4-1.1-0.4-1.7H65.4z M67.8,269.9c-0.5,0-0.9,0.1-1.2,0.3c-0.3,0.2-0.6,0.4-0.8,0.7
		c-0.2,0.3-0.4,0.6-0.5,1c-0.1,0.4-0.2,0.8-0.2,1.2c0,0.4,0.1,0.8,0.2,1.2s0.3,0.7,0.5,1c0.2,0.3,0.5,0.5,0.8,0.7s0.7,0.3,1.2,0.3
		c0.5,0,0.9-0.1,1.2-0.3c0.4-0.2,0.6-0.4,0.9-0.7c0.2-0.3,0.4-0.6,0.5-1c0.1-0.4,0.2-0.8,0.2-1.2c0-0.4-0.1-0.8-0.2-1.2
		c-0.1-0.4-0.3-0.7-0.5-1c-0.2-0.3-0.5-0.5-0.9-0.7C68.7,270,68.3,269.9,67.8,269.9z"/>
</g>
<g>
	<path class="st2" d="M87.9,91.8c0.5,0,1,0,1.5-0.1c0.5-0.1,0.9-0.2,1.4-0.4c0.4-0.2,0.7-0.5,1-0.8c0.3-0.3,0.5-0.7,0.6-1.2h2v15.4
		h-2.8V93.8h-3.8V91.8z"/>
	<path class="st2" d="M105,88.9c1.1,0,2,0.3,2.7,0.8s1.2,1.2,1.6,1.9c0.4,0.8,0.7,1.6,0.8,2.6c0.1,0.9,0.2,1.8,0.2,2.7
		c0,0.9-0.1,1.8-0.2,2.7c-0.1,0.9-0.4,1.8-0.8,2.6c-0.4,0.8-0.9,1.4-1.6,1.9s-1.6,0.8-2.7,0.8c-1.1,0-2-0.3-2.7-0.8
		s-1.2-1.2-1.6-1.9c-0.4-0.8-0.7-1.6-0.8-2.6c-0.1-0.9-0.2-1.8-0.2-2.7c0-0.9,0.1-1.8,0.2-2.7c0.1-0.9,0.4-1.8,0.8-2.6
		c0.4-0.8,0.9-1.4,1.6-1.9S103.9,88.9,105,88.9z M105,102.9c0.5,0,1-0.2,1.4-0.5s0.7-0.7,0.9-1.3c0.2-0.5,0.4-1.2,0.5-1.9
		s0.1-1.5,0.1-2.3s0-1.6-0.1-2.3c-0.1-0.7-0.2-1.3-0.5-1.9c-0.2-0.5-0.5-1-0.9-1.3S105.6,91,105,91c-0.6,0-1,0.2-1.4,0.5
		c-0.4,0.3-0.6,0.7-0.9,1.3c-0.2,0.5-0.4,1.2-0.5,1.9c-0.1,0.7-0.1,1.5-0.1,2.3s0,1.6,0.1,2.3c0.1,0.7,0.2,1.3,0.5,1.9
		c0.2,0.5,0.5,1,0.9,1.3C104,102.7,104.5,102.9,105,102.9z"/>
</g>
<g>
	<path class="st2" d="M87.9,121.6c0.5,0,1,0,1.5-0.1c0.5-0.1,0.9-0.2,1.4-0.4c0.4-0.2,0.7-0.5,1-0.8c0.3-0.3,0.5-0.7,0.6-1.2h2v15.4
		h-2.8v-10.9h-3.8V121.6z"/>
	<path class="st2" d="M100.1,121.6c0.5,0,1,0,1.5-0.1c0.5-0.1,0.9-0.2,1.4-0.4c0.4-0.2,0.7-0.5,1-0.8c0.3-0.3,0.5-0.7,0.6-1.2h2
		v15.4h-2.8v-10.9h-3.8V121.6z"/>
</g>
<g>
	<path class="st2" d="M87.9,151.4c0.5,0,1,0,1.5-0.1c0.5-0.1,0.9-0.2,1.4-0.4c0.4-0.2,0.7-0.5,1-0.8c0.3-0.3,0.5-0.7,0.6-1.2h2v15.4
		h-2.8v-10.9h-3.8V151.4z"/>
	<path class="st2" d="M110.3,164.3H99.8c0-1.3,0.3-2.4,0.9-3.3c0.6-1,1.4-1.8,2.5-2.5c0.5-0.4,1-0.7,1.6-1.1c0.5-0.3,1-0.7,1.5-1.1
		c0.5-0.4,0.8-0.8,1.1-1.3c0.3-0.5,0.4-1,0.5-1.6c0-0.3,0-0.6-0.1-0.9c-0.1-0.3-0.2-0.6-0.4-0.9c-0.2-0.3-0.5-0.5-0.8-0.7
		c-0.3-0.2-0.8-0.3-1.3-0.3c-0.5,0-0.9,0.1-1.2,0.3c-0.3,0.2-0.6,0.5-0.8,0.8s-0.3,0.8-0.4,1.2c-0.1,0.5-0.2,1-0.2,1.5h-2.5
		c0-0.9,0.1-1.6,0.3-2.4c0.2-0.7,0.6-1.4,1-1.9c0.5-0.5,1-0.9,1.7-1.2c0.7-0.3,1.4-0.5,2.3-0.5c0.9,0,1.7,0.2,2.4,0.5
		c0.6,0.3,1.1,0.7,1.5,1.2c0.4,0.5,0.7,1,0.8,1.5c0.2,0.6,0.2,1.1,0.2,1.6c0,0.6-0.1,1.2-0.3,1.7c-0.2,0.5-0.4,1-0.8,1.4
		c-0.3,0.4-0.7,0.8-1.1,1.2c-0.4,0.4-0.8,0.7-1.3,1c-0.4,0.3-0.9,0.6-1.3,0.9c-0.4,0.3-0.8,0.6-1.2,0.8c-0.4,0.3-0.7,0.6-1,0.9
		s-0.5,0.6-0.6,1h7.5V164.3z"/>
</g>
<g>
	<path class="st2" d="M87.9,181.2c0.5,0,1,0,1.5-0.1c0.5-0.1,0.9-0.2,1.4-0.4c0.4-0.2,0.7-0.5,1-0.8c0.3-0.3,0.5-0.7,0.6-1.2h2v15.4
		h-2.8v-10.9h-3.8V181.2z"/>
	<path class="st2" d="M103.9,185c0.4,0,0.8,0,1.2-0.1s0.8-0.2,1.1-0.4s0.6-0.4,0.8-0.8c0.2-0.3,0.3-0.7,0.3-1.2
		c0-0.7-0.2-1.2-0.7-1.6c-0.4-0.4-1-0.6-1.7-0.6c-0.4,0-0.8,0.1-1.1,0.3c-0.3,0.2-0.6,0.4-0.8,0.7c-0.2,0.3-0.4,0.6-0.5,1
		s-0.1,0.8-0.1,1.2h-2.5c0-0.7,0.2-1.4,0.4-2.1c0.2-0.6,0.6-1.2,1-1.7c0.4-0.5,1-0.8,1.6-1.1c0.6-0.3,1.3-0.4,2.1-0.4
		c0.6,0,1.2,0.1,1.8,0.3s1.1,0.4,1.6,0.8c0.5,0.3,0.8,0.8,1.1,1.3c0.3,0.5,0.4,1.1,0.4,1.8c0,0.8-0.2,1.5-0.5,2
		c-0.4,0.6-0.9,1-1.7,1.3v0c0.9,0.2,1.6,0.6,2.1,1.3c0.5,0.7,0.7,1.5,0.7,2.5c0,0.7-0.1,1.4-0.4,2c-0.3,0.6-0.7,1.1-1.2,1.5
		c-0.5,0.4-1.1,0.7-1.7,0.9c-0.7,0.2-1.4,0.3-2.1,0.3c-0.9,0-1.7-0.1-2.3-0.4c-0.7-0.3-1.2-0.6-1.7-1.1c-0.4-0.5-0.8-1-1-1.7
		c-0.2-0.7-0.4-1.4-0.4-2.2h2.5c0,0.9,0.2,1.7,0.7,2.3c0.5,0.6,1.2,0.9,2.2,0.9c0.8,0,1.5-0.2,2.1-0.7s0.8-1.2,0.8-2
		c0-0.6-0.1-1.1-0.4-1.4c-0.2-0.4-0.5-0.6-0.9-0.8s-0.8-0.3-1.3-0.3c-0.5,0-1-0.1-1.5,0V185z"/>
</g>
<g>
	<path class="st2" d="M87.9,211c0.5,0,1,0,1.5-0.1c0.5-0.1,0.9-0.2,1.4-0.4c0.4-0.2,0.7-0.5,1-0.8c0.3-0.3,0.5-0.7,0.6-1.2h2v15.4
		h-2.8V213h-3.8V211z"/>
	<path class="st2" d="M110.4,220.2h-2v3.7h-2.4v-3.7h-6.6v-2.5l6.6-9.3h2.4v9.8h2V220.2z M101.4,218.2h4.7v-6.8h0L101.4,218.2z"/>
</g>
<g>
	<path class="st2" d="M87.9,240.8c0.5,0,1,0,1.5-0.1c0.5-0.1,0.9-0.2,1.4-0.4c0.4-0.2,0.7-0.5,1-0.8c0.3-0.3,0.5-0.7,0.6-1.2h2v15.4
		h-2.8v-10.9h-3.8V240.8z"/>
	<path class="st2" d="M101.6,238.3h8v2.2h-6.1l-0.8,3.9l0,0c0.3-0.4,0.8-0.7,1.3-0.9c0.5-0.2,1-0.3,1.6-0.3c0.8,0,1.4,0.1,2,0.4
		c0.6,0.3,1.1,0.6,1.5,1.1c0.4,0.5,0.7,1,0.9,1.6s0.3,1.3,0.3,2c0,0.6-0.1,1.3-0.3,1.9c-0.2,0.7-0.5,1.2-0.9,1.8
		c-0.4,0.5-1,1-1.7,1.3s-1.5,0.5-2.4,0.5c-0.7,0-1.4-0.1-2.1-0.3c-0.6-0.2-1.2-0.5-1.7-0.9c-0.5-0.4-0.9-0.9-1.2-1.5
		c-0.3-0.6-0.4-1.3-0.5-2h2.5c0.1,0.8,0.4,1.5,0.9,1.9c0.5,0.4,1.2,0.7,2,0.7c0.5,0,1-0.1,1.3-0.3s0.7-0.4,0.9-0.7
		c0.2-0.3,0.4-0.7,0.5-1.1c0.1-0.4,0.1-0.9,0.1-1.3c0-0.4-0.1-0.8-0.2-1.2c-0.1-0.4-0.3-0.7-0.5-1c-0.2-0.3-0.5-0.5-0.9-0.7
		c-0.4-0.2-0.8-0.3-1.3-0.3c-0.5,0-1,0.1-1.5,0.3c-0.5,0.2-0.8,0.6-1,1.1H100L101.6,238.3z"/>
</g>
<g>
	<path class="st2" d="M87.9,270.6c0.5,0,1,0,1.5-0.1c0.5-0.1,0.9-0.2,1.4-0.4c0.4-0.2,0.7-0.5,1-0.8c0.3-0.3,0.5-0.7,0.6-1.2h2v15.4
		h-2.8v-10.9h-3.8V270.6z"/>
	<path class="st2" d="M107.6,272c-0.1-0.6-0.3-1.1-0.7-1.5c-0.4-0.4-0.9-0.6-1.6-0.6c-0.5,0-0.8,0.1-1.2,0.3
		c-0.3,0.2-0.6,0.4-0.8,0.7c-0.2,0.3-0.4,0.6-0.6,1c-0.1,0.4-0.3,0.7-0.3,1.1s-0.2,0.8-0.2,1.2s-0.1,0.8-0.1,1.1l0,0
		c0.3-0.6,0.8-1.1,1.4-1.4s1.2-0.5,1.9-0.5c0.8,0,1.4,0.1,2,0.4c0.6,0.3,1.1,0.6,1.5,1.1s0.7,1,1,1.6s0.3,1.3,0.3,2
		c0,0.7-0.1,1.4-0.4,2.1c-0.2,0.6-0.6,1.2-1,1.7c-0.5,0.5-1,0.8-1.6,1.1c-0.6,0.3-1.3,0.4-2.1,0.4c-1.1,0-2.1-0.2-2.8-0.6
		c-0.7-0.4-1.3-1-1.7-1.7c-0.4-0.7-0.7-1.6-0.9-2.6s-0.2-2-0.2-3.2c0-0.9,0.1-1.9,0.3-2.8c0.2-0.9,0.5-1.8,1-2.6
		c0.5-0.8,1.1-1.4,1.8-1.9s1.7-0.7,2.7-0.7c0.6,0,1.2,0.1,1.7,0.3c0.5,0.2,1,0.5,1.4,0.9c0.4,0.4,0.8,0.8,1,1.3
		c0.3,0.5,0.4,1.1,0.4,1.7H107.6z M105.2,281.7c0.5,0,0.9-0.1,1.2-0.3s0.6-0.4,0.8-0.7c0.2-0.3,0.4-0.6,0.5-1
		c0.1-0.4,0.2-0.8,0.2-1.2c0-0.4-0.1-0.8-0.2-1.2c-0.1-0.4-0.3-0.7-0.5-1c-0.2-0.3-0.5-0.5-0.8-0.7c-0.3-0.2-0.7-0.3-1.2-0.3
		c-0.5,0-0.9,0.1-1.2,0.3c-0.3,0.2-0.6,0.4-0.9,0.7s-0.4,0.6-0.5,1c-0.1,0.4-0.2,0.8-0.2,1.2s0.1,0.8,0.2,1.2c0.1,0.4,0.3,0.7,0.5,1
		s0.5,0.5,0.9,0.7C104.3,281.6,104.7,281.7,105.2,281.7z"/>
</g>
<g>
	<path class="st4" d="M261.7,296.2c-0.4-0.1-0.7-0.3-0.9-0.7c-1.2,1.9-1.7,3.6-1.3,5.1c1.9,6.4,7.5,11.1,14.3,11.7
		C267.3,310.5,262.6,303.7,261.7,296.2 M260.4,292.4c-0.4-0.3-0.8-0.5-1-0.8c-0.4,1.6-0.6,3.3-0.6,5c0,0.4,0,0.7,0.1,1
		c0.3-1,0.7-2.1,1.5-3.2C260.2,293.9,260.2,293.2,260.4,292.4 M260.7,291.5c0.2-0.4,0.4-0.7,0.6-1c0.2-0.2,0.4-0.4,0.6-0.6
		c0.6-2.9,1.9-5.4,3.8-7.3c-2.8,2-4.9,4.8-6.1,8.1C259.9,290.8,260.2,291.2,260.7,291.5 M284.9,306.2c-1.4-0.1-3.3-0.5-4.1-0.8
		c-0.9-0.3-1.7-1.1-2.2-2c-0.2-0.4-0.4-0.9-0.4-1.6c0-0.4,0-0.8,0.1-1.3c-5.1-1.6-10.6-3.7-14.3-5.8c-0.1,0.2-0.3,0.5-0.5,0.7
		c-0.3,0.3-0.6,0.6-0.9,0.7c0.4,3.1,1.4,6.2,3.2,8.9c2.3,3.6,5.4,6,8.8,6.8c1.2,0.3,2.8,0.6,4.2,0.3c5.2-1.2,9.5-4.8,11.5-9.5
		c-0.2,0-0.5,0.1-0.8,0.1C288.5,306.2,286,306.3,284.9,306.2 M291.8,295.3c-0.1-1.8-0.5-3.6-1.1-5.2c-0.8-2-3.3-3.4-6.7-4.2
		c-6.2-1.4-14.3,0.9-19.5,5.3c0.2,0.8,0.1,1.7-0.1,2.6c3.7,2,9.2,4.2,14.3,5.7c1.2-2.8,3.5-3.3,5.3-2.9c1.3,0.3,2.1,0.5,2.7,0.6
		l0.7,0.1c0.9,0.2,1.6,0.8,2,1.6c0.3,0.6,0.6,1.4,0.4,2.7c0.6,0,0.9-0.1,1-0.2C291.6,299.5,291.9,297.5,291.8,295.3 M288.9,301.7
		c0.2-1,0-1.7-0.3-2.2c-0.3-0.5-0.8-0.9-1.4-1.1l-0.6-0.1c-0.6-0.1-1.4-0.3-2.8-0.6c-1.8-0.4-3.3,0.4-4.1,2.2
		c0.9,0.2,1.7,0.5,2.5,0.7c0.1-0.6,0.2-1.1,0.2-1.1c0-0.3,0.3-0.5,0.5-0.5c0.3,0,0.5,0.2,0.5,0.5c0,0,0,0.5-0.2,1.3
		c0.2,0,0.3,0.1,0.5,0.1c0.2,0,0.3,0.1,0.5,0.1c0.1-0.7,0.2-1.3,0.2-1.3c0-0.3,0.3-0.5,0.6-0.4c0.3,0,0.5,0.3,0.4,0.6
		c0,0-0.1,0.7-0.2,1.4c0.3,0.1,0.7,0.1,1,0.2c0.1-0.6,0.1-1.1,0.1-1.1c0-0.3,0.3-0.5,0.5-0.5c0.3,0,0.5,0.3,0.5,0.5
		c0,0,0,0.5-0.1,1.2C287.8,301.6,288.4,301.6,288.9,301.7 M279.6,302.9c0.4,0.8,1.1,1.3,1.6,1.5c0.7,0.2,2.4,0.6,3.9,0.8
		c1.6,0.2,2.8-0.7,3.5-2.5c-0.5,0-1.1-0.1-1.7-0.2c-0.1,0.4-0.3,0.7-0.4,1c-0.1,0.2-0.4,0.3-0.7,0.2c-0.2-0.1-0.3-0.4-0.2-0.7
		c0.1-0.2,0.2-0.5,0.3-0.7c-0.3,0-0.6-0.1-0.9-0.2c-0.1,0.4-0.2,0.8-0.4,1.1c-0.1,0.3-0.4,0.4-0.7,0.3c-0.3-0.1-0.4-0.4-0.3-0.7
		c0.1-0.2,0.2-0.6,0.3-0.9c-0.2,0-0.3-0.1-0.5-0.1c-0.2,0-0.3-0.1-0.5-0.1c-0.1,0.3-0.2,0.6-0.3,0.9c-0.1,0.3-0.4,0.4-0.6,0.3
		c-0.3-0.1-0.4-0.4-0.3-0.7c0.1-0.3,0.2-0.5,0.3-0.8c-0.9-0.2-1.7-0.5-2.6-0.7C279.2,301.7,279.4,302.4,279.6,302.9 M263.1,290.4
		c-0.2,0-0.7,0-1.1,0.4c-0.7,0.8-1,1.8-1,3.1c0,0.3,0.1,0.5,0.1,0.8c0.2,0.5,0.6,0.8,0.8,0.8c0.3,0.1,0.7-0.1,1.1-0.6
		c0.8-0.9,1.1-2.6,0.7-3.7C263.6,290.7,263.4,290.4,263.1,290.4"/>
	<path class="st4" d="M278.7,265.2c0,5.6-2.4,10.1-3.8,11.5c-4.3,4.3-7.8,1.2-7.8,5.4c-1.9,1.8-3.3,4.4-4,7.5c0,0,0.1,0,0.1,0
		c0.4,0.1,0.7,0.3,1,0.7c5.4-4.4,13.8-6.7,20.1-5.3c2,0.5,3.8,1.2,5,2.4c-1.9-3.2-4.9-5.6-8.5-6.9c-0.8-0.3-2.3-0.6-2.3-3.4
		c0-5.1,5.6-1.1,9.2-6.7c0.2-0.3-0.1-0.5-0.3-0.3c-1.1,1.1-3.8,1.9-5.3,1.9c-1.4,0-2-0.3-2-0.3c1.4-2.7,3.1-5,3.1-5
		c-3.4-3.4,2.3-22.1,17.5-22.1c0-4.4-0.5-7.7-1-10.2c-0.4,0.1-3.2,0.8-3.3,0.1c-0.1-0.5,2.1-1.7,2.9-2.1c-0.7-2.6-1.5-3.8-1.5-3.8
		c-13,4.1-10.4,14.9-13.6,14.9c-2.1,0-3.7-1.6-4.3-2.2c-7.8-7.8-4.1-12.9-4.1-23.2c0-6.9-2.7-9.5-7.7-9.5s-6.8,2.1-6.8,2.1
		s6.8,0.2,6.8,7.4c0,7.5-8.4,9.6-8.4,19.1C259.8,253,278.7,252.7,278.7,265.2 M269.7,218c0-0.9-0.1-1.8-0.3-2.5c0,0,1.5-0.1,1.5-1.9
		c0-1.5-1-2.5-1.3-2.5c-0.2,0-0.3,0.2-0.7,0.2c-1.1,0-1.2-1.4-1.2-1.4c0.2,0,0.3,0,0.5,0c3.2,0,6.3,1,6.3,8.1c0,2.6-0.2,5-0.5,7.1
		c-0.2,2-0.4,4-0.4,5.8c0,0-5.7-0.7-5.7-4.9C267.9,223.2,269.7,222.5,269.7,218 M261.7,296.2c-0.4-0.1-0.7-0.3-0.9-0.7
		c-1.2,1.9-1.7,3.6-1.3,5.1c1.9,6.4,7.5,11.1,14.3,11.7C267.3,310.5,262.6,303.7,261.7,296.2 M260.4,292.4c-0.4-0.3-0.8-0.5-1-0.8
		c-0.4,1.6-0.6,3.3-0.6,5c0,0.4,0,0.7,0.1,1c0.3-1,0.7-2.1,1.5-3.2C260.2,293.9,260.2,293.2,260.4,292.4 M260.7,291.5
		c0.2-0.4,0.4-0.7,0.6-1c0.2-0.2,0.4-0.4,0.6-0.6c0.6-2.9,1.9-5.4,3.8-7.3c-2.8,2-4.9,4.8-6.1,8.1
		C259.9,290.8,260.2,291.2,260.7,291.5 M284.9,306.2c-1.4-0.1-3.3-0.5-4.1-0.8c-0.9-0.3-1.7-1.1-2.2-2c-0.2-0.4-0.4-0.9-0.4-1.6
		c0-0.4,0-0.8,0.1-1.3c-5.1-1.6-10.6-3.7-14.3-5.8c-0.1,0.2-0.3,0.5-0.5,0.7c-0.3,0.3-0.6,0.6-0.9,0.7c0.4,3.1,1.4,6.2,3.2,8.9
		c2.3,3.6,5.4,6,8.8,6.8c1.2,0.3,2.8,0.6,4.2,0.3c5.2-1.2,9.5-4.8,11.5-9.5c-0.2,0-0.5,0.1-0.8,0.1
		C288.5,306.2,286,306.3,284.9,306.2 M290.8,290.1c-0.8-2-3.3-3.4-6.7-4.2c-6.2-1.4-14.3,0.9-19.5,5.3c0.2,0.8,0.1,1.7-0.1,2.6
		c3.7,2,9.2,4.2,14.3,5.7c1.2-2.8,3.5-3.3,5.3-2.9c1.3,0.3,2.1,0.5,2.7,0.6l0.7,0.1c0.9,0.2,1.6,0.8,2,1.6c0.3,0.6,0.6,1.4,0.4,2.7
		c0.6,0,0.9-0.1,1-0.2c0.7-1.9,1-4,0.9-6.1C291.8,293.5,291.4,291.7,290.8,290.1 M279.6,302.9c0.4,0.8,1.1,1.3,1.6,1.5
		c0.7,0.2,2.4,0.6,3.9,0.8c1.6,0.2,2.8-0.7,3.5-2.5c-0.5,0-1.1-0.1-1.7-0.2c-0.1,0.4-0.3,0.7-0.4,1c-0.1,0.2-0.4,0.3-0.7,0.2
		c-0.2-0.1-0.3-0.4-0.2-0.7c0.1-0.2,0.2-0.5,0.3-0.7c-0.3,0-0.6-0.1-0.9-0.2c-0.1,0.4-0.2,0.8-0.4,1.1c-0.1,0.3-0.4,0.4-0.7,0.3
		c-0.3-0.1-0.4-0.4-0.3-0.7c0.1-0.2,0.2-0.6,0.3-0.9c-0.2,0-0.3-0.1-0.5-0.1c-0.2,0-0.3-0.1-0.5-0.1c-0.1,0.3-0.2,0.6-0.3,0.9
		c-0.1,0.3-0.4,0.4-0.6,0.3c-0.3-0.1-0.4-0.4-0.3-0.7c0.1-0.3,0.2-0.5,0.3-0.8c-0.9-0.2-1.7-0.5-2.6-0.7
		C279.2,301.7,279.4,302.4,279.6,302.9 M288.9,301.7c0.2-1,0-1.7-0.3-2.2c-0.3-0.5-0.8-0.9-1.4-1.1l-0.6-0.1
		c-0.6-0.1-1.4-0.3-2.8-0.6c-1.8-0.4-3.3,0.4-4.1,2.2c0.9,0.2,1.7,0.5,2.5,0.7c0.1-0.6,0.2-1.1,0.2-1.1c0-0.3,0.3-0.5,0.5-0.5
		c0.3,0,0.5,0.2,0.5,0.5c0,0,0,0.5-0.2,1.3c0.2,0,0.3,0.1,0.5,0.1c0.2,0,0.3,0.1,0.5,0.1c0.1-0.7,0.2-1.3,0.2-1.3
		c0-0.3,0.3-0.5,0.6-0.4c0.3,0,0.5,0.3,0.4,0.6c0,0-0.1,0.7-0.2,1.4c0.3,0.1,0.7,0.1,1,0.2c0.1-0.6,0.1-1.1,0.1-1.1
		c0-0.3,0.3-0.5,0.5-0.5c0.3,0,0.5,0.3,0.5,0.5c0,0,0,0.5-0.1,1.2C287.8,301.6,288.4,301.6,288.9,301.7 M263.1,290.4
		c-0.2,0-0.7,0-1.1,0.4c-0.7,0.8-1,1.8-1,3.1c0,0.3,0.1,0.5,0.1,0.8c0.2,0.5,0.6,0.8,0.8,0.8c0.3,0.1,0.7-0.1,1.1-0.6
		c0.8-0.9,1.1-2.6,0.7-3.7C263.6,290.7,263.4,290.4,263.1,290.4"/>
	<path class="st4" d="M250.1,310.4c1.3,0.8,2.6,1.6,2.6,1.6l-0.5,1.2c-0.2-0.7-0.9-1.1-1.8-1.7l-3.1,4.5c-0.4,0.5-1.1,1.7-1.2,2.2
		c0,0-0.5-0.3-1-0.7c-0.5-0.4-0.9-0.7-0.9-0.7c0.5-0.1,1.3-1.3,1.7-1.9l3-4.3c-1.1-0.9-1.6-1-2.4-1.1l1.1-0.8
		C247.6,308.7,248.6,309.5,250.1,310.4"/>
	<path class="st4" d="M252.1,321.5c-2.2-1-2.4-3.4-1.4-5.6c1.1-2.2,3.1-3.5,5.2-2.4c2.1,1,2.4,3.4,1.4,5.6
		C256.2,321.3,254.2,322.5,252.1,321.5 M255.6,314.1c-1.4-0.7-2.4,0.9-3.3,2.6c-0.8,1.7-1.3,3.5,0,4.2c1.4,0.6,2.5-0.9,3.3-2.6
		C256.4,316.6,257,314.7,255.6,314.1"/>
	<path class="st4" d="M261.7,315.7c1.4,0.4,2.6,0.7,2.6,0.7l-0.1,1.3c-0.4-0.6-0.6-0.7-1.8-1l-1.5,5c-0.1,0.5-0.7,2.2-0.5,2.5
		c0,0-0.4-0.1-1.1-0.3c-0.8-0.2-1.1-0.4-1.1-0.4c0.4-0.3,0.9-1.8,1-2.4l1.5-5.1c-1.3-0.4-1.6-0.5-2.2-0.2l0.7-1.1
		C259.2,315,260.1,315.3,261.7,315.7"/>
	<path class="st4" d="M267.7,317.1c1.4,0.2,2.8,0.3,2.8,0.3l0,1.3c-0.5-0.5-0.7-0.6-2.1-0.8l-0.8,5.2c-0.1,0.5-0.4,2.3-0.1,2.6
		c0,0-0.5,0-1.2-0.1c-0.7-0.1-1.1-0.2-1.1-0.2c0.3-0.3,0.6-2,0.7-2.4l0.8-5.3c-1.2-0.2-1.5-0.1-2.1,0.2l0.5-1.2
		C265.1,316.6,266.2,316.9,267.7,317.1"/>
	<path class="st4" d="M273,322l-0.1,3.5c1.8,0,3.1-0.1,3.6-0.9l-0.3,1.6c0,0-1,0-2.5,0c-1.6,0-2.9-0.1-2.9-0.1
		c0.3-0.3,0.3-2,0.3-2.4l0.1-3.4c0-0.9,0.1-2.4-0.2-2.7c1.3,0.1,1.2,0.1,2.4,0.1c1.6,0.1,2.5,0,2.5,0l0.2,1.3
		c-0.6-0.5-1.5-0.6-3.1-0.6l-0.1,2.9l2.3,0c0.2,0,0.2,0.1,0.2,0.4c0,0.2,0,0.4-0.2,0.4L273,322z"/>
	<path class="st4" d="M283.2,323.1c0.1,1.3,0.3,2.2,0.6,2.4c-0.1,0.1-0.3,0.3-0.6,0.3c-0.4,0-0.6-0.1-0.9-0.4l-4.1-4.8l0.1,3
		c0,0.5,0.1,2.3,0.4,2.5l-1.4,0.1c0.2-0.3,0.2-2,0.1-2.5l-0.2-3.4c0-0.5-0.1-2.4-0.4-2.6l1.3,0l4.2,5l-0.3-2.9
		c-0.1-0.5-0.3-2.2-0.6-2.4c0,0,0.1,0,0.7-0.1c0.5-0.1,0.7-0.1,0.7-0.1c-0.2,0.3,0,2.1,0.1,2.5L283.2,323.1z"/>
	<path class="st4" d="M290.9,321.3c0.1,0.6,0.4,2.1,0.9,2.4c0,0-0.6,0.2-1,0.3c-0.4,0.1-1.1,0.3-1.1,0.3c0.2-0.3-0.2-2.2-0.3-2.6
		l-0.4-1.6l-2.6,0.6l0.3,1.6c0.1,0.5,0.4,2.3,0.7,2.5c0,0-0.4,0.1-1.1,0.2c-0.6,0.1-1.1,0.2-1.1,0.2c0.2-0.3-0.1-1.9-0.1-2.5
		l-0.6-3.4c-0.1-0.6-0.4-2.2-0.8-2.4c0,0,0.3-0.1,1.1-0.2c0.8-0.1,1.1-0.2,1.1-0.2c-0.2,0.4,0.1,1.9,0.2,2.4l0.2,1.1l2.6-0.6
		l-0.3-1.1c-0.2-0.6-0.5-2-0.8-2.3c0,0,0.4-0.1,1.1-0.3c0.7-0.2,1-0.3,1-0.3c-0.1,0.4,0.3,1.8,0.4,2.5L290.9,321.3z"/>
	<path class="st4" d="M295.8,319.2l-2.6,1l0.1,1.4c0.1,0.5,0.1,0.9,0.2,1.2c0.1,0.1,0.1,0.2,0.2,0.2c0,0-0.3,0.1-0.7,0.2
		c-0.5,0.1-0.7,0.2-0.7,0.2c0.2-0.3,0.2-0.6,0.2-1.1l-0.2-6.7c0-0.2,0-0.5-0.1-0.7c-0.1-0.2-0.2-0.3-0.3-0.3c0.3-0.2,0.7-0.4,1-0.6
		c0.6-0.2,0.8-0.2,1.3,0.3l3.8,4.7c0.7,0.9,1.3,1.5,1.7,1.6c0,0-0.4,0.2-1.1,0.5c-0.7,0.3-1.2,0.5-1.2,0.5c0-0.1,0.1-0.3,0-0.5
		c-0.1-0.3-0.5-0.7-0.7-1L295.8,319.2z M295.3,318.7l-2.3-3.2l0.2,4L295.3,318.7z"/>
	<path class="st4" d="M306.5,316.8c-0.5,0.4-0.9,0.6-0.9,0.6c0-0.5-1-1.8-1.3-2.1l-2.2-2.9l1.8,5.7c-0.1,0.1-0.2,0.3-0.3,0.4
		c-0.4,0.3-0.7,0.2-1,0l-4.2-3.5l1.5,2.7c0.4,0.7,1.1,2.1,1.5,2.3c0,0-0.3,0.1-0.7,0.3c-0.4,0.2-0.6,0.3-0.6,0.3
		c0.1-0.4-0.6-1.6-1-2.4l-1.6-3.1c-0.5-0.9-1-1.9-1.5-2.1c0.4-0.2,0.5-0.2,1-0.5c0.4-0.2,0.8-0.4,0.8-0.4l4.7,4l-1.9-5.7
		c0,0,0.3-0.2,0.7-0.5s0.9-0.6,0.9-0.6c0,0.5,1,1.8,1.4,2.3l2,2.6c0.4,0.5,1.2,1.7,1.8,1.9C307.5,316.1,307,316.5,306.5,316.8"/>
	<path class="st4" d="M257.9,327.2c0.4,0.2,1,0.4,1,0.4c-0.5,0.4-0.9,1.7-1.2,2.5l-1.1,3.1c-0.3,0.8-0.8,2-0.6,2.5
		c0,0-0.6-0.2-1.1-0.4c-0.4-0.2-0.7-0.2-1.1-0.4c0.5-0.1,1.1-1.9,1.2-2.4l0.5-1.4l-2.7-1.1l-0.8,1.6c-0.2,0.6-0.8,1.9-0.7,2.2
		c0,0-0.5-0.2-1.1-0.5c-0.8-0.4-1-0.5-1-0.5c0.6-0.3,0.9-1.2,1.3-2.1l1.4-3.1c0.5-1,0.9-2,0.9-2.6c0,0,0.2,0.1,0.9,0.5
		c0.5,0.2,0.8,0.4,1.1,0.5c-0.4,0.2-1,1.7-1.4,2.4l-0.4,0.9l2.6,1.1l0.4-1c0.2-0.5,0.8-2,0.7-2.5C256.8,326.8,257.4,327,257.9,327.2
		"/>
	<path class="st4" d="M260.9,337.1c-2.3-0.6-3-2.8-2.4-5.2c0.6-2.3,2.4-3.9,4.7-3.3c2.3,0.6,3,2.8,2.4,5.2
		C265,336.2,263.2,337.8,260.9,337.1 M263,329.4c-1.5-0.4-2.2,1.3-2.7,3.1c-0.5,1.8-0.6,3.6,0.8,4c1.5,0.4,2.2-1.3,2.7-3.1
		C264.3,331.6,264.4,329.8,263,329.4"/>
	<path class="st4" d="M267.2,338c0,0,0.1-0.2,0.2-0.5c0.1-0.5,0.2-1.3,0.3-2l0.6-5c-1.4-0.2-1.7-0.1-2.3,0.3l0.6-1.3
		c0.4,0.1,1.4,0.2,2.5,0.3c0.8,0.1,3.1,0.3,3.1,0.3l0.1,1.3c-0.5-0.6-1-0.6-2.2-0.7l-0.6,5c-0.1,0.5-0.3,2.1-0.1,2.6
		c-0.3,0-0.7-0.1-1.1-0.1C267.9,338.1,267.4,338,267.2,338"/>
	<path class="st4" d="M278.1,336.2c0,1.5-1.2,2.6-3.1,2.6c-1.4,0-2.2-0.6-2.5-0.9l0.3-1.4c0.5,0.9,1.2,1.6,2,1.6
		c0.9,0,1.6-0.5,1.6-1.4c0-0.6-0.3-1-1.8-1.8c-1.4-0.7-1.9-1.5-1.9-2.5c0-1.5,1.3-2.2,2.8-2.2c1.1,0,1.9,0.3,2.4,0.6l-0.3,1.3
		c-0.7-0.9-1.3-1.2-2-1.2c-0.7,0-1.2,0.4-1.2,1.1c0,0.8,0.9,1.3,2.1,1.9C277.8,334.6,278.1,335.4,278.1,336.2"/>
	<path class="st4" d="M284.9,331.6c0,0.2,0.1,0.4,0.1,0.6c0,0.1,0,0.4,0,0.5c0,0.5-0.3,1-0.7,1.5c-0.6,0.6-1.3,0.9-2.4,1
		c-0.4,0-0.5-0.1-0.5-0.4v-0.1c0,0,0-0.1,0.1-0.1h0.1c0.3,0,0.7-0.1,1.1-0.6c0.3-0.5,0.5-1,0.4-1.7c-0.1-0.7-0.3-1.1-0.7-1.5
		c-0.4-0.3-0.8-0.4-1.3-0.4c0,0-0.2,0-0.4,0c0,0-0.1,0-0.1,0.1l0.5,5.2c0,0.5,0.2,2,0.5,2.4c0,0-0.4,0-1.2,0.1
		c-0.6,0-1.1,0.1-1.1,0.1c0.2-0.4,0.1-1,0.1-1.7l-0.4-4.1c0-0.5-0.1-2.1-0.5-2.4c0,0,1-0.2,2.9-0.3c1-0.1,1.8,0,2.5,0.5
		C284.5,330.7,284.8,331.2,284.9,331.6"/>
	<path class="st4" d="M292.7,333.3c0.4,1.8-0.4,3.3-2.3,3.8c-1.3,0.3-3.2-0.1-3.7-2.4l-0.6-2.7c-0.2-0.8-0.5-2.1-0.9-2.4
		c0,0,0.5-0.1,1.3-0.2c0.8-0.1,1.1-0.2,1.1-0.2c-0.2,0.3,0,1.6,0.2,2.5l0.8,3.4c0.1,0.6,0.3,1.1,0.7,1.3c0.3,0.2,0.6,0.2,1,0.2
		c0.3,0,0.7-0.2,0.9-0.6c0.2-0.4,0.2-0.9,0-1.5l-0.9-3.4c-0.2-1-0.5-2.1-0.8-2.3c0,0,0.4-0.1,1.1-0.3c0.5-0.1,0.9-0.2,1.1-0.3
		c-0.2,0.5,0.3,2.1,0.4,2.6L292.7,333.3z"/>
	<path class="st4" d="M301,332.6c0.2,0.1,0.4,0.1,0.5,0c0,0.1-0.1,0.3-0.3,0.5c-0.7,0.8-1.4,0.6-1.7,0.5c-1.3-0.5-3.5-2.4-3.6-2.6
		c0,0,0-0.1,0-0.1l0.1,0c0.3-0.1,0.7-0.5,0.9-0.9c0.2-0.5,0.2-1,0-1.6c-0.3-0.6-0.7-1-1-1.1c-0.5-0.1-0.9,0-1.1,0.1
		c0,0-0.3,0.1-0.4,0.2c0,0-0.1,0,0,0.3l1.6,4.7c0.2,0.7,0.7,2,1.1,2.3c0,0-0.4,0.2-1.1,0.4c-0.7,0.2-1.1,0.4-1.1,0.4
		c0.1-0.5-0.4-1.9-0.5-2.3l-1.1-3.2c-0.3-0.8-0.8-2.1-1.1-2.4c0,0,0.8-0.2,2.5-1c0.9-0.4,1.8-0.5,2.6-0.3c0.5,0.1,0.8,0.4,1.1,0.8
		c0.1,0.1,0.2,0.3,0.2,0.5c0.1,0.1,0.1,0.3,0.1,0.5c0.1,0.5,0,1-0.3,1.5c0,0-0.3,0.5-0.8,0.9C297.7,330.6,299.4,332,301,332.6"/>
	<rect x="217.9" y="204.3" class="st5" width="118.6" height="141.3"/>
</g>
<g>
	<path class="st1" d="M369.8,85.6c1.7,0,3.4-0.1,5.1-0.4c1.6-0.3,3.1-0.8,4.5-1.4c1.3-0.7,2.5-1.5,3.4-2.6c0.9-1.1,1.6-2.4,1.8-3.9
		h6.7V128h-9.1V92.2h-12.5V85.6z"/>
	<path class="st1" d="M408.7,119c0.2,1.8,0.9,3.1,2.1,3.8c1.2,0.7,2.6,1.1,4.3,1.1c0.6,0,1.2,0,2-0.1c0.7-0.1,1.4-0.3,2.1-0.5
		c0.7-0.3,1.2-0.6,1.6-1.1c0.4-0.5,0.6-1.1,0.6-1.9c0-0.8-0.3-1.4-0.9-2c-0.5-0.5-1.2-0.9-2.1-1.2c-0.9-0.3-1.8-0.6-2.9-0.8
		c-1.1-0.2-2.2-0.5-3.3-0.7c-1.2-0.3-2.3-0.6-3.3-0.9s-2-0.8-2.9-1.5c-0.8-0.6-1.5-1.4-2-2.4c-0.5-1-0.8-2.1-0.8-3.6
		c0-1.5,0.4-2.8,1.1-3.8s1.7-1.9,2.8-2.5c1.1-0.6,2.4-1.1,3.8-1.3c1.4-0.3,2.7-0.4,4-0.4c1.4,0,2.8,0.2,4.1,0.5
		c1.3,0.3,2.5,0.8,3.6,1.5c1.1,0.7,2,1.6,2.7,2.7c0.7,1.1,1.1,2.4,1.3,4h-6.5c-0.3-1.5-1-2.5-2-3c-1.1-0.5-2.3-0.8-3.7-0.8
		c-0.4,0-0.9,0-1.5,0.1c-0.6,0.1-1.2,0.2-1.7,0.4c-0.5,0.2-1,0.5-1.3,0.9c-0.4,0.4-0.5,0.9-0.5,1.5c0,0.8,0.3,1.4,0.8,1.8
		c0.5,0.5,1.2,0.9,2.1,1.2c0.8,0.3,1.8,0.6,2.9,0.8c1.1,0.2,2.2,0.5,3.4,0.7c1.1,0.3,2.2,0.6,3.3,0.9c1.1,0.4,2.1,0.8,2.9,1.5
		c0.8,0.6,1.5,1.4,2.1,2.3c0.5,0.9,0.8,2.1,0.8,3.5c0,1.7-0.4,3.1-1.1,4.2c-0.8,1.2-1.7,2.1-3,2.8c-1.2,0.7-2.6,1.2-4,1.6
		c-1.5,0.3-2.9,0.5-4.4,0.5c-1.8,0-3.4-0.2-4.9-0.6c-1.5-0.4-2.8-1-3.9-1.8c-1.1-0.8-2-1.8-2.6-3c-0.6-1.2-1-2.6-1-4.3H408.7z"/>
	<path class="st1" d="M429.4,99.9h4.7v-8.4h6.2v8.4h5.6v4.6h-5.6v15c0,0.7,0,1.2,0.1,1.7c0.1,0.5,0.2,0.9,0.4,1.2
		c0.2,0.3,0.5,0.6,0.9,0.7c0.4,0.2,0.9,0.2,1.6,0.2c0.4,0,0.9,0,1.3,0c0.4,0,0.9-0.1,1.3-0.2v4.8c-0.7,0.1-1.4,0.1-2,0.2
		c-0.7,0.1-1.3,0.1-2,0.1c-1.6,0-2.9-0.2-3.9-0.5c-1-0.3-1.8-0.8-2.3-1.4s-0.9-1.3-1.1-2.2c-0.2-0.9-0.3-1.9-0.4-3.1v-16.5h-4.7
		V99.9z"/>
</g>
<g>
	<path class="st2" d="M328.9,282.5c0.1,1.4,0.6,2.6,1.5,3.5c0.9,0.9,2.1,1.3,3.5,1.3c1.5,0,2.7-0.4,3.6-1.2s1.6-1.8,2.1-3
		s0.8-2.5,1-3.9c0.2-1.4,0.3-2.6,0.4-3.8l-0.1-0.1c-0.8,1.4-1.8,2.4-3.1,3.1c-1.3,0.7-2.8,1.1-4.4,1.1c-1.7,0-3.2-0.3-4.5-0.8
		c-1.3-0.6-2.5-1.3-3.4-2.4c-1-1-1.7-2.2-2.2-3.7s-0.8-3.1-0.8-4.8c0-1.7,0.3-3.3,0.8-4.7s1.3-2.7,2.3-3.8s2.3-1.9,3.8-2.5
		c1.5-0.6,3.2-0.9,5.1-0.9c2.4,0,4.5,0.5,6.1,1.4c1.6,0.9,2.8,2.2,3.7,3.9c0.9,1.6,1.5,3.6,1.9,5.8c0.4,2.2,0.5,4.6,0.5,7.1
		c0,2.1-0.2,4.2-0.7,6.3c-0.4,2.1-1.2,4-2.2,5.8c-1,1.7-2.4,3.2-4,4.2s-3.7,1.6-6.2,1.6c-1.4,0-2.7-0.2-3.9-0.7s-2.3-1.1-3.3-1.9
		s-1.7-1.8-2.3-3c-0.6-1.2-0.9-2.4-1-3.9H328.9z M334.4,260.6c-1,0-1.9,0.2-2.7,0.6c-0.8,0.4-1.4,0.9-1.9,1.6
		c-0.5,0.7-0.9,1.4-1.1,2.3s-0.4,1.8-0.4,2.7c0,1,0.1,1.9,0.4,2.8c0.2,0.9,0.6,1.6,1.1,2.3c0.5,0.7,1.1,1.2,1.9,1.6
		c0.8,0.4,1.7,0.6,2.7,0.6c1.1,0,2-0.2,2.8-0.6c0.8-0.4,1.4-0.9,2-1.6c0.5-0.7,0.9-1.5,1.2-2.3c0.3-0.9,0.4-1.8,0.4-2.8
		c0-0.9-0.1-1.8-0.4-2.7s-0.7-1.6-1.2-2.3c-0.5-0.6-1.2-1.2-2-1.6C336.3,260.8,335.4,260.6,334.4,260.6z"/>
	<path class="st2" d="M351.4,270.8h3.4v-6.1h4.5v6.1h4.1v3.4h-4.1v10.9c0,0.5,0,0.9,0.1,1.2c0,0.3,0.1,0.6,0.3,0.9
		c0.1,0.2,0.4,0.4,0.7,0.5c0.3,0.1,0.7,0.2,1.2,0.2c0.3,0,0.6,0,1,0s0.6-0.1,1-0.1v3.5c-0.5,0.1-1,0.1-1.5,0.2
		c-0.5,0.1-1,0.1-1.5,0.1c-1.2,0-2.1-0.1-2.9-0.3c-0.7-0.2-1.3-0.6-1.7-1c-0.4-0.4-0.7-1-0.8-1.6s-0.2-1.4-0.3-2.3v-12.1h-3.4V270.8
		z"/>
	<path class="st2" d="M366.6,263h4.5v10.5h0.1c0.6-0.9,1.4-1.7,2.5-2.3c1.1-0.6,2.3-0.9,3.7-0.9c2.2,0,4,0.6,5.3,1.7
		c1.3,1.2,1.9,2.9,1.9,5.2v14.1h-4.5v-12.9c-0.1-1.6-0.4-2.8-1-3.5c-0.6-0.7-1.6-1.1-3-1.1c-0.8,0-1.5,0.1-2.1,0.4
		c-0.6,0.3-1.1,0.7-1.5,1.2c-0.4,0.5-0.8,1.1-1,1.7c-0.2,0.7-0.4,1.4-0.4,2.1v12.1h-4.5V263z"/>
</g>
<g>
	<path class="st0" d="M277.1,21.8c20.5,0,40.3,4.2,58.9,12.5c3.9,15.8,6.3,32.2,6.4,43c0,0.2,0,0.4,0,0.6c0,10.6-1.5,21-4.5,30.9
		c-3,9.7-7.4,18.9-13.1,27.3c-5.6,8.3-12.6,15.9-20.7,22.6c-8.6,7.1-18.6,13.5-27,17.2c-8.4-3.7-18.4-10-27-17.2
		c-8.1-6.7-15-14.3-20.7-22.6c-5.7-8.4-10.1-17.6-13.1-27.3c-3-9.9-4.5-20.2-4.5-30.9c0-0.2,0-0.4,0-0.6c0.1-10.8,2.5-27.2,6.4-43
		C236.8,26,256.7,21.8,277.1,21.8"/>
	<path class="st6" d="M277.1,82.5c4.5,0,8.8,1.2,12.5,3.2h38.1c0.1-2.7,0-5.7,0-8.5c-0.2-11.7-3.6-31.3-6.9-45
		c-13.5-4.4-28-6.9-43.6-6.9L277.1,82.5z"/>
	<path class="st7" d="M277.1,25.4c-15.3,0-29.3,2.3-43.6,6.9c-3.5,14.1-6.4,32.9-6.8,41.8c-0.6,13.2,0.3,22.7,3,33.1
		c1.5,5.8,3.4,11.4,5.9,16.9c2.7-1.4,5.5-3.2,8.3-5.3c3-2.2,5.6-5.1,7.7-7.8c-0.1-1-0.2-2-0.2-3c0-1.5,0.1-3.1,0.4-4.5
		c-5.3,0.2-8.3,0.3-10.6,0.3c-2.8,0-5.4-2-6.7-5h-1.3c-1,0-2.7-0.9-2.7-4.1c0-3.2,1.7-4.1,2.7-4.1h1.3c1.3-3,3.8-5,6.7-5h23.3
		c3.7-2.1,8-3.3,12.5-3.3L277.1,25.4z"/>
	<path class="st8" d="M254,153.6c-7.2-7.2-13.1-15.1-17.8-23.5c-4.8-8.6-8.2-18.1-10.2-27.7c-2.1-9.8-2.7-19.8-2-30.3
		c0.6-9.9,3.3-24.9,6.5-38.8c-3.1,1.1-6.2,2.3-9.2,3.6c-3.4,13.6-5.8,30.9-5.8,40.4c-0.1,10.5,1.4,20.7,4.4,30.4
		c3.1,10.1,7.2,18.3,12.6,26.3c5.5,8,12.2,15.3,20,21.8c7.3,6.1,15.6,11.4,24.7,15.9l0,0C268.5,166.4,260.7,160.3,254,153.6"/>
	<path class="st8" d="M300.3,153.6c7.2-7.2,13.1-15.1,17.8-23.5c4.8-8.6,8.2-18.1,10.2-27.7c2.1-9.8,2.7-19.8,2-30.3
		c-0.6-9.9-3.3-24.9-6.5-38.8c3.1,1.1,6.2,2.3,9.2,3.6c3.4,13.6,5.8,30.9,5.8,40.4c0.1,10.5-1.4,20.7-4.4,30.4
		c-2.9,9.3-7.1,18.2-12.6,26.3c-5.4,8-12.2,15.3-20,21.8c-7.3,6.1-15.6,11.4-24.7,15.9l0,0C285.7,166.4,293.6,160.3,300.3,153.6"/>
	<path class="st9" d="M277.1,83.8c-13.4,0-24.4,10.9-24.4,24.3c0,13.4,10.9,24.3,24.4,24.3c13.4,0,24.3-10.9,24.3-24.3
		C301.5,94.7,290.6,83.8,277.1,83.8"/>
	<path class="st7" d="M277.1,133.7c-8.3,0-15.6-3.9-20.3-10c-5.7,3.3-11.7,5.8-17.5,7.6c4.5,8,10.2,15.4,17,22.3
		c6.1,6.2,13.1,11.8,20.8,16.8V133.7z"/>
	<path class="st9" d="M241.3,102.6c-2.6,0-4.9-2.1-5.8-5h-2.2c-0.6,0-1.4-0.7-1.4-2.8c0-2.1,0.9-2.8,1.4-2.8h2.2
		c0.9-2.9,3.1-5,5.8-5h21.3c-5.2,3.6-9,9-10.4,15.3C247.4,102.5,243.8,102.6,241.3,102.6"/>
	<path class="st9" d="M336.6,33.8c-18.1-8.1-38-12.7-59.5-12.7c-21.5,0-41.4,4.6-59.5,12.7c-4.2,16.9-6.4,33.2-6.5,43.4
		c-0.1,10.9,1.5,21.5,4.6,31.6c3,9.7,7.4,19,13.2,27.4c5.7,8.3,12.7,16,20.8,22.7c7.6,6.3,18,13.3,27.4,17.4
		c9.4-4.1,19.8-11,27.4-17.4c8.1-6.7,15.1-14.4,20.8-22.7c5.8-8.5,10.2-17.7,13.2-27.4c3.1-10.1,4.6-20.7,4.6-31.6
		C343,67.1,340.8,50.7,336.6,33.8 M321.8,133.9c-5.4,8-12.2,15.3-20,21.8c-7.3,6.1-15.6,11.4-24.7,15.9c-9.1-4.5-17.4-9.8-24.7-15.9
		c-7.8-6.5-14.5-13.8-20-21.8c-0.4-0.6-0.9-1.3-1.3-1.9c7.9-1.4,16.7-4.7,24.9-9.4c-2-2.9-3.5-6.3-4.1-9.9c-2,2.5-4.5,5-7.2,7.1
		c-4.5,3.4-9.9,6.7-15.8,8.5c-3.8-6.5-6.9-13.5-9.1-20.7c-2.9-9.6-4.4-19.8-4.4-30.4c0.1-9.5,2.4-26.8,5.8-40.4
		c17.7-7.6,36.5-11.5,55.9-11.5c19.4,0,38.2,3.9,55.9,11.5c3.4,13.6,5.8,30.9,5.8,40.4c0,3.3-0.1,6.5-0.4,9.7h-46.8
		c5.8,4,9.9,10.3,10.9,17.6l8.9-2.1c2-0.5,2.8-1.8,3-3l22.4-1.5c-0.6,3.3-1.5,6.5-2.4,9.7C331.6,117,327.3,125.8,321.8,133.9"/>
	<path class="st0" d="M278.7,114.8V128c6.1-0.5,11.5-3.7,14.8-8.5l-11.4-6.6C281.2,113.8,280.1,114.5,278.7,114.8"/>
	<path class="st0" d="M275.5,88.3c-6.1,0.5-11.5,3.8-14.8,8.5l11.3,6.5c0.9-1,2.1-1.7,3.4-2V88.3z"/>
	<path class="st0" d="M277.1,104.6c-2,0-3.5,1.6-3.5,3.5c0,2,1.6,3.5,3.5,3.5c2,0,3.5-1.6,3.5-3.5
		C280.6,106.2,279.1,104.6,277.1,104.6"/>
	<path class="st0" d="M278.7,88.3v13.1c1.3,0.3,2.5,1,3.4,2l11.3-6.5C290.2,92,284.8,88.8,278.7,88.3"/>
	<path class="st0" d="M275.5,114.8c-1.1-0.3-2.1-0.8-2.9-1.5c-0.2-0.2-0.4-0.3-0.5-0.5l-11.4,6.6c0.3,0.4,0.5,0.7,0.8,1.1
		c3.3,4.2,8.3,7,13.9,7.4V114.8z"/>
	<path class="st0" d="M283.8,110.1l11.4,6.6c2.2-4.6,2.9-11.1,0-17.1l-11.3,6.5C284.1,107.3,284.2,108.7,283.8,110.1"/>
	<path class="st9" d="M262.6,96.4l9.3,5.3c0.7-0.6,1.5-1,2.4-1.4V89.7C269.6,90.4,265.5,92.8,262.6,96.4"/>
	<path class="st9" d="M280,89.7l0,10.7c0.9,0.3,1.6,0.7,2.3,1.3l9.3-5.3C288.7,92.8,284.6,90.4,280,89.7"/>
	<path class="st9" d="M295.7,106.2c-0.2-1.6-0.6-3.2-1.2-4.8l-9.3,5.3c0.1,0.4,0.1,0.9,0.1,1.3c0,0.2,0,0.4,0,0.5
		c2.6-0.7,5.4-1.4,8.2-2C294.2,106.5,294.9,106.3,295.7,106.2"/>
	<path class="st6" d="M277.1,170.4c7.7-5,14.7-10.6,20.9-16.8c7.2-7.2,13.1-15.2,17.7-23.7c4.7-8.6,8.1-18.2,10-27.8
		c0.2-0.7,0.3-1.4,0.4-2.2l-10.8,0.8c-0.6,1.5-1.9,2.6-3.7,3l0,0c-0.1,0-4,1-9.1,2.2c0.1,0.7,0.1,1.5,0.1,2.2
		c0,14.2-11.4,25.6-25.6,25.6V170.4z"/>
	<path class="st9" d="M279.4,108.1c0-1.3-1-2.3-2.3-2.3c-1.3,0-2.3,1-2.3,2.3c0,1.3,1,2.3,2.3,2.3
		C278.4,110.4,279.4,109.4,279.4,108.1"/>
	<path class="st6" d="M280,126.5c4.6-0.7,8.7-3.1,11.6-6.7l-9.3-5.4c-0.7,0.6-1.5,1-2.3,1.3C280,115.8,280,126.5,280,126.5"/>
	<path class="st7" d="M262.6,119.8l9.3-5.4c0.7,0.6,1.5,1,2.3,1.3l0,10.7C269.6,125.8,265.5,123.4,262.6,119.8"/>
	<path class="st6" d="M295.8,108.1c0-0.2,0-0.5,0-0.8c-0.7,0.2-1.4,0.3-2,0.4c-2.8,0.6-5.6,1.3-8,2l8.8,5.1
		C295.3,112.7,295.8,110.4,295.8,108.1"/>
	<path class="st0" d="M259.1,99.6c-2.6,5.6-2.5,11.8,0,17.1l11.3-6.6c-0.4-1.3-0.4-2.7,0-4L259.1,99.6z"/>
	<path class="st9" d="M259.8,114.8l9.2-5.4c-0.2-0.9-0.2-1.8,0-2.7l-9.3-5.3C258,105.8,258.1,110.5,259.8,114.8"/>
	<path class="st9" d="M286.4,66.4c0,0.5-0.2,2.2-0.2,2.7h7.4c-0.4-2-0.6-4.7-0.7-6.7l-0.1-4.3c0-0.4,0.1-0.7,0.3-1
		c0.2-0.2,0.5-0.3,0.8-0.3c0.3,0,0.9,0,1,1.2l0.2,4.5c0.1,2,0.1,4.9-0.2,6.6h7.2c-0.1-0.6-0.3-2.1-0.4-2.5c0.9,1.9,2.8,2.9,5.4,2.9
		c1.5,0,2.7-0.5,3.6-1.1c0,0.1,0.4,0.7,0.4,0.7h13.3c-0.6-2-1-4.8-1.2-6.8l-1.8-14.9l-6.9-1.1c0.6,1.9,1,4.7,1.2,6.7
		c0,0,1,9.5,1,9.5c0.2,1.7,0.4,3.6,0.4,5.5v0.2l-0.3-0.7c-0.5-1.2-0.8-2.8-0.9-5c0,0-0.3-3.1-0.3-3.1c-0.4-4.8-3-7-8.8-7
		c-1,0-3.4,0.2-4.9,0.7l0.4,5.5l1.5-0.9c1.3-0.8,2.3-1.1,3.4-1.1c0.9,0,1.5,0.3,1.8,1c-1.1,0.2-2.3,0.5-3.7,1.1
		c-2,0.9-3.4,2.2-3.9,3.8c0,0,0-0.1,0-0.1c0,0-0.2-5-0.2-5c-0.1-3.3-2.2-5.3-5.3-5.3c-1.5,0-2.7,0.4-3.9,1.2
		c-0.1-0.2-0.1-0.4-0.2-0.5l-0.3-0.6l-5.9-0.3c0.3,1.1,0.6,4,0.7,5.2c-0.3-1.6-1.1-3.3-2.7-4.4c-1.2-0.8-2.7-1.3-4.4-1.3
		c-2.2,0-4.4,0.9-5.9,2.5c-1.5,1.5-2.3,3.6-2.4,6.1c-0.6-0.6-1.3-1.1-2.2-1.6L266,57l-0.1-0.1c-0.7-0.3-0.7-0.4-0.7-0.6
		c0-0.3,0.7-0.6,1.5-0.6c1.1,0,2.7,0.6,4,1.4l0.1-4.9c-1-0.4-2.3-0.8-4.2-0.8c-1,0-2.9,0.1-4.6,1.1c-0.5,0.3-0.9,0.6-1.2,0.9
		l0.1-1.4c-1.6-0.2-3.3-0.2-5.3,1.7c0-0.1-0.2-0.8-0.3-1.2l-6.4,0.4c0.5,1.7,0.5,4.3,0.4,6.6l-0.1,2.4l0,0.3
		c-0.1,1.3-0.1,2.6-0.3,3.8c-0.5-1.7-1.1-3.9-1.5-5.8l-3.2-14.2l-9,1.3c0.1,0.2,0.2,0.6,0.3,1.1c0.1,0.6,0.1,1.8-0.8,4.3
		c-1.4,4.2-3.5,10.4-5.5,14.7c-0.3,0.6-0.7,1.6-0.7,1.6h7c0.1-1.1,0.6-2.9,1-4.2c1,0,3.5-0.1,4.7-0.1c0.2,1,0.5,2.5,0.6,3.3l0.1,1.1
		h14.1c-0.3-2.2-0.2-5.3-0.1-7c0.1-2,0.5-3.2,1.3-4.1c0.6-0.7,1.4-0.8,1.9-0.8c-0.1,2.6,1.7,3.9,3.2,4.6l2.8,1.4c1,0.5,1,0.8,1,1
		c0,0.5-0.8,0.7-1.6,0.7c-1.4,0-3.4-1-5.7-3.3l-0.1,6.3c1.8,1,3.9,1.4,5.9,1.4c3.2,0,6.6-1.4,7.6-4.4c1.6,3,4.7,4.4,7.8,4.4
		C282.5,69.2,284.6,68.3,286.4,66.4 M238,60.1c0.4-1,0.7-1.9,1.3-3.7c0.4,1.8,0.6,2.7,0.8,3.6C239.3,60.1,238.9,60.1,238,60.1
		 M277.4,58.5L277.4,58.5c0-2.2,0.8-3,1.5-3.1c0.2,0,0.8-0.1,1.1,0.9c0.1,0.4,0.2,0.7,0.2,0.9c0,0.6-0.3,0.7-0.7,0.8l0,0
		c0,0-1.1,0.4-2.1,0.8C277.4,58.8,277.4,58.7,277.4,58.5 M284.8,62.9c-1.3,1.1-2.3,1.9-3.9,1.8c-1.3,0-2.1-0.9-2.5-1.8
		c1.4-0.5,6.6-2.5,8.1-3c0,1.1,0,2.5,0,2.5v0c0,0.9,0,1.7,0,2.5c0,0,0,0,0,0L284.8,62.9z M308.8,64.9c-1.2,0.1-1.5-0.8-1.5-1.4
		c0-0.6,0.2-1.6,2.2-2.1c0.1,0.7,0.1,1.3,0.1,1.3l0,0.6c0,0.4,0.1,0.8,0.1,1.3C309.4,64.8,309.1,64.9,308.8,64.9"/>
	<path class="st0" d="M269.7,53.1c-0.6-0.2-1.6-0.5-3.1-0.5c-1.2,0-2.8,0.2-4.1,0.9c-1.4,0.8-2.4,2.1-2.5,3.5c-0.1,2,1,3,2.6,3.8
		c1.1,0.5,2.1,1.1,2.8,1.4c0.9,0.5,1.6,1,1.5,2c-0.1,1-1,1.7-2.7,1.7c-1.3,0-3.3-0.8-4.6-2l-0.1,3.2c1.1,0.6,3,0.9,4.8,0.9
		c3,0,6.6-1.4,6.7-4.8c0.1-2.5-1.8-3.5-2.8-4c-1.1-0.5-2.2-1-2.7-1.3c-0.5-0.2-1.5-0.6-1.4-1.7c0.1-1.1,1.3-1.6,2.6-1.6
		c1.1,0,2.2,0.3,3,0.8L269.7,53.1z"/>
	<path class="st0" d="M243.3,47.4l-6.8,1c0.2,1-0.1,2.7-0.8,4.8c-1.4,4.2-3.7,10.9-5.5,14.8h4.3c0.2-1.3,0.6-2.6,1.2-4.2l6.3-0.2
		c0.3,1.3,0.7,3.2,0.8,4.4h5.7c-0.7-1.6-1.6-5.1-2.2-7.5L243.3,47.4z M236.5,61.3l3.1-9l1.8,8.8L236.5,61.3z"/>
	<path class="st0" d="M259.7,53.1l-0.1,3c-1-0.1-2.3,0.1-3.3,1.1c-0.9,1-1.5,2.4-1.7,4.8c-0.1,2-0.2,4.1,0,6h-4.9
		c0.3-1.8,0.4-3.9,0.5-5.9l0.1-2.4c0.1-2,0.1-3.8-0.2-5.7l4.2-0.3c0.2,0.7,0.3,1.7,0.3,2.7C256.5,53.7,258.3,53,259.7,53.1"/>
	<path class="st0" d="M320.4,48.3l-4.4-0.7c0.4,1.8,0.6,3.3,0.8,5.3l1,9.5c0.2,2,0.4,3.8,0.4,5.6h4.7c-0.4-1.8-0.6-3.6-0.9-5.6
		L320.4,48.3z"/>
	<path class="st0" d="M300.8,68c-0.3-1.8-0.4-3.6-0.5-5.6l-0.2-5c-0.1-2.7-1.6-4.3-4.2-4.3c-1.4,0-3.1,0.5-4.5,2.3
		c0-0.4-0.3-1.7-0.5-2.2l-3.9-0.2c0.3,1.9,0.4,3.7,0.5,5.7l0.1,3.7c0.1,2,0,3.8-0.1,5.6h4.9c-0.3-1.8-0.4-3.6-0.5-5.6l-0.1-4.3
		c-0.1-1.5,1.1-2.5,2.2-2.5c1.3,0,2,0.9,2.1,2.2l0.2,4.5c0.1,2,0.1,3.8,0,5.6H300.8z"/>
	<path class="st0" d="M315.8,68c-0.6-1.4-0.9-3.3-1-5.3l-0.3-3c-0.3-3.6-1.8-6.1-7.7-6.1c-1,0-2.5,0.2-3.7,0.4l0.2,2.7
		c1.2-0.7,2.5-1.3,4-1.3c1.6,0,2.9,0.6,3.1,3c-1.5,0.2-3,0.4-4.6,1.2c-1.8,0.8-3.7,2.3-3.5,4.7c0.2,2.7,2.3,3.9,4.9,3.9
		c2,0,3.3-1,4.1-1.8c0.1,0.5,0.3,1,0.6,1.4H315.8z M308.8,66c-1.4,0.1-2.6-0.7-2.6-2.4c0-1.6,1-3,4.3-3.5l0.2,2.6
		c0.1,0.9,0.1,1.5,0.2,2.4C310.4,65.6,309.6,66,308.8,66"/>
	<path class="st0" d="M283,53.5c-1.1-0.7-2.4-1.1-3.7-1.1c-3.1,0-7.3,2.2-7.2,8.1c0.1,5.8,4.6,7.6,7.7,7.6c2.8,0,4.5-1,5.8-2.4
		l-1-1.2c-0.7,0.6-1.9,1.4-3.8,1.4c-2,0-3.3-1.5-3.9-3.6l8.7-3.3C285.3,56.1,284.3,54.5,283,53.5 M279.9,59.2l-3.5,1.3
		c-0.1-0.6-0.1-1.3-0.1-1.9c0-3.6,1.9-4.1,2.6-4.2c1.1-0.1,1.9,0.5,2.3,1.7C281.5,57.5,281.4,58.6,279.9,59.2"/>
</g>
<g>
</g>
<g>
</g>
<g>
</g>
<g>
</g>
<g>
</g>
<g>
</g>
</svg>
