<?xml version="1.0" encoding="utf-8"?>
<!-- Generator: Adobe Illustrator 21.0.2, SVG Export Plug-In . SVG Version: 6.00 Build 0)  -->
<!DOCTYPE svg PUBLIC "-//W3C//DTD SVG 1.1//EN" "http://www.w3.org/Graphics/SVG/1.1/DTD/svg11.dtd">
<svg version="1.1" id="Layer_1" xmlns="http://www.w3.org/2000/svg" xmlns:xlink="http://www.w3.org/1999/xlink" x="0px" y="0px"
	 viewBox="0 0 486 285" style="enable-background:new 0 0 486 285;" xml:space="preserve">
<style type="text/css">
	.st0{fill:#FFFFFF;}
	.st1{fill:#DA3644;}
	.st2{fill:#ADACAC;}
	.st3{fill:#D93644;}
	.st4{fill:#1C2C4D;}
	.st5{fill:none;}
	.st6{fill:#C9123F;}
	.st7{fill:#E00B1E;}
	.st8{fill:#153C66;}
	.st9{fill:#9F833A;}
</style>
<rect x="0" y="0" class="st0" width="486" height="285"/>
<g>
	<path class="st1" d="M49.4,34.5h7.6v1.9h-5.4v2.4h4.7v1.8h-4.7v4.5h-2.2V34.5z"/>
	<path class="st1" d="M60.4,45.1h-2.2V34.4h2.2V45.1z"/>
	<path class="st1" d="M62.4,34.4h2.3l4.2,7.4v-7.4H71v10.6h-2.2l-4.3-7.5v7.5h-2.1V34.4z"/>
	<path class="st1" d="M76.2,34.4h2.5l3.8,10.6H80l-0.7-2.2h-3.9l-0.7,2.2h-2.3L76.2,34.4z M76,41.1h2.7l-1.3-4.2L76,41.1z"/>
	<path class="st1" d="M83.8,34.4H86v8.7h5.3v1.9h-7.5V34.4z"/>
	<path class="st1" d="M96.6,34.4h2.2v8.7h5.3v1.9h-7.5V34.4z"/>
	<path class="st1" d="M113.5,36.3h-5.6v2.3h5.2v1.8h-5.2v2.7h5.9v1.9h-8V34.4h7.8V36.3z"/>
	<path class="st1" d="M118.5,34.4h2.5l3.8,10.6h-2.4l-0.7-2.2h-3.9l-0.7,2.2h-2.3L118.5,34.4z M118.4,41.1h2.7l-1.3-4.2L118.4,41.1z
		"/>
	<path class="st1" d="M133.3,37.8c-0.2-0.7-0.6-1.2-1.2-1.5c-0.4-0.2-0.8-0.2-1.2-0.2c-0.9,0-1.6,0.3-2.1,1
		c-0.5,0.6-0.8,1.6-0.8,2.9c0,1.3,0.3,2.2,0.9,2.8c0.6,0.5,1.3,0.8,2,0.8c0.7,0,1.4-0.2,1.8-0.6c0.5-0.4,0.8-1,0.9-1.7h-2.5v-1.8
		h4.4v5.7h-1.5l-0.2-1.3c-0.4,0.5-0.8,0.9-1.2,1.1c-0.6,0.4-1.3,0.5-2.2,0.5c-1.4,0-2.6-0.5-3.5-1.5c-0.9-1-1.4-2.3-1.4-4
		c0-1.7,0.5-3.1,1.4-4.1c0.9-1,2.2-1.6,3.8-1.6c1.4,0,2.4,0.3,3.3,1c0.8,0.7,1.3,1.5,1.4,2.6H133.3z"/>
	<path class="st1" d="M137.6,34.4h2.3V41c0,0.7,0.1,1.3,0.3,1.6c0.3,0.6,0.9,0.9,1.8,0.9c0.9,0,1.5-0.3,1.7-0.9
		c0.2-0.3,0.3-0.9,0.3-1.6v-6.5h2.3V41c0,1.1-0.2,2-0.5,2.6c-0.7,1.2-1.9,1.7-3.7,1.7c-1.8,0-3.1-0.6-3.7-1.7
		c-0.4-0.6-0.5-1.5-0.5-2.6V34.4z"/>
	<path class="st1" d="M156.2,36.3h-5.6v2.3h5.2v1.8h-5.2v2.7h5.9v1.9h-8V34.4h7.8V36.3z"/>
	<path class="st1" d="M56.5,56.5c-0.6,0.5-1.5,0.8-2.7,0.8h-2.2v3.8h-2.2V50.4H54c1.1,0,1.9,0.3,2.5,0.8s0.9,1.4,0.9,2.5
		C57.4,55.1,57.1,56,56.5,56.5z M54.8,52.6c-0.3-0.2-0.7-0.4-1.2-0.4h-2v3.1h2c0.5,0,0.9-0.1,1.2-0.4c0.3-0.3,0.4-0.7,0.4-1.2
		C55.2,53.3,55.1,52.9,54.8,52.6z"/>
	<path class="st1" d="M59.2,50.4h2.2v8.7h5.3v1.9h-7.5V50.4z"/>
	<path class="st1" d="M71.3,50.4h2.5l3.8,10.6h-2.4l-0.7-2.2h-3.9l-0.7,2.2h-2.3L71.3,50.4z M71.1,57.1h2.7l-1.3-4.2L71.1,57.1z"/>
	<path class="st1" d="M79.9,51.6c0.9-0.9,1.9-1.3,3.3-1.3c1.8,0,3.1,0.6,3.9,1.8c0.5,0.7,0.7,1.3,0.7,2h-2.2
		c-0.1-0.5-0.3-0.9-0.5-1.2c-0.4-0.5-1-0.7-1.8-0.7c-0.8,0-1.4,0.3-1.9,1c-0.5,0.7-0.7,1.6-0.7,2.8s0.2,2.1,0.7,2.7
		c0.5,0.6,1.1,0.9,1.8,0.9c0.8,0,1.3-0.3,1.7-0.8c0.2-0.3,0.4-0.7,0.5-1.2h2.2c-0.2,1.2-0.7,2.1-1.5,2.8s-1.8,1.1-3,1.1
		c-1.5,0-2.7-0.5-3.6-1.5c-0.9-1-1.3-2.3-1.3-4C78.4,54,78.9,52.6,79.9,51.6z"/>
	<path class="st1" d="M91.6,61.1h-2.2V50.4h2.2V61.1z"/>
	<path class="st1" d="M93.6,50.4h2.3l4.2,7.4v-7.4h2.1v10.6H100l-4.3-7.5v7.5h-2.1V50.4z"/>
	<path class="st1" d="M111.4,53.8c-0.2-0.7-0.6-1.2-1.2-1.5c-0.4-0.2-0.8-0.2-1.2-0.2c-0.9,0-1.6,0.3-2.1,1
		c-0.5,0.6-0.8,1.6-0.8,2.9c0,1.3,0.3,2.2,0.9,2.8c0.6,0.5,1.3,0.8,2,0.8c0.7,0,1.4-0.2,1.8-0.6c0.5-0.4,0.8-1,0.9-1.7h-2.5v-1.8
		h4.4v5.7h-1.5l-0.2-1.3c-0.4,0.5-0.8,0.9-1.2,1.1c-0.6,0.4-1.3,0.5-2.2,0.5c-1.4,0-2.6-0.5-3.5-1.5c-0.9-1-1.4-2.3-1.4-4
		c0-1.7,0.5-3.1,1.4-4.1s2.2-1.6,3.8-1.6c1.4,0,2.4,0.3,3.3,1c0.8,0.7,1.3,1.5,1.4,2.6H111.4z"/>
	<path class="st1" d="M117.4,57.8c0.1,0.5,0.2,0.8,0.4,1.1c0.4,0.4,1,0.7,1.9,0.7c0.5,0,1-0.1,1.3-0.2c0.6-0.2,0.9-0.6,0.9-1.2
		c0-0.4-0.2-0.6-0.5-0.8c-0.3-0.2-0.8-0.4-1.5-0.5l-1.1-0.3c-1.1-0.2-1.9-0.5-2.3-0.8c-0.7-0.5-1.1-1.3-1.1-2.3c0-1,0.4-1.7,1.1-2.4
		c0.7-0.6,1.7-0.9,3.1-0.9c1.1,0,2.1,0.3,2.9,0.9c0.8,0.6,1.2,1.5,1.3,2.6h-2.1c0-0.6-0.3-1.1-0.9-1.4c-0.4-0.2-0.8-0.3-1.3-0.3
		c-0.6,0-1.1,0.1-1.4,0.3c-0.3,0.2-0.5,0.6-0.5,1c0,0.4,0.2,0.7,0.5,0.8c0.2,0.1,0.7,0.3,1.4,0.4l1.9,0.4c0.8,0.2,1.4,0.4,1.8,0.8
		c0.6,0.5,0.9,1.2,0.9,2.2c0,1-0.4,1.8-1.1,2.4c-0.8,0.6-1.8,1-3.2,1c-1.4,0-2.5-0.3-3.3-0.9s-1.2-1.5-1.2-2.6H117.4z"/>
</g>
<g>
	<g>
		<path class="st2" d="M50.8,102.1c0,0.9,0.4,1.6,1.1,1.9c0.3,0.2,0.7,0.3,1.2,0.3c0.8,0,1.5-0.3,2-1c0.6-0.7,1-2,1.2-4.1
			c-0.4,0.6-0.8,1-1.4,1.2c-0.5,0.2-1.1,0.4-1.8,0.4c-1.3,0-2.3-0.4-3-1.2s-1.1-1.8-1.1-3.1c0-1.2,0.4-2.3,1.1-3.2
			c0.7-0.9,1.8-1.4,3.3-1.4c1.9,0,3.3,0.9,4,2.6c0.4,1,0.6,2.2,0.6,3.6c0,1.6-0.2,3.1-0.7,4.3c-0.8,2.1-2.2,3.1-4.1,3.1
			c-1.3,0-2.3-0.3-3-1c-0.7-0.7-1-1.5-1-2.6H50.8z M55.1,98.8c0.5-0.4,0.8-1.2,0.8-2.3c0-1-0.2-1.7-0.7-2.2
			c-0.5-0.5-1.1-0.7-1.9-0.7c-0.8,0-1.5,0.3-2,0.8c-0.5,0.5-0.7,1.3-0.7,2.2c0,0.9,0.2,1.6,0.6,2.1c0.4,0.5,1.1,0.8,2,0.8
			C54,99.4,54.6,99.2,55.1,98.8z"/>
		<path class="st2" d="M67.5,93.1c0.6,0.8,0.9,1.6,0.9,2.4h-1.7c-0.1-0.5-0.3-0.9-0.5-1.2c-0.4-0.6-1-0.8-1.8-0.8
			c-0.9,0-1.7,0.4-2.2,1.3c-0.6,0.9-0.9,2.1-0.9,3.7c0.4-0.6,0.9-1,1.5-1.3c0.5-0.2,1.1-0.4,1.8-0.4c1.1,0,2.1,0.4,2.9,1.1
			c0.8,0.7,1.2,1.8,1.2,3.2c0,1.2-0.4,2.3-1.2,3.2c-0.8,0.9-1.9,1.4-3.4,1.4c-1.2,0-2.3-0.5-3.2-1.4s-1.4-2.5-1.4-4.8
			c0-1.7,0.2-3.1,0.6-4.2c0.8-2.2,2.2-3.3,4.3-3.3C65.9,92,66.9,92.4,67.5,93.1z M66.3,103.3c0.4-0.6,0.7-1.3,0.7-2.1
			c0-0.7-0.2-1.3-0.6-2c-0.4-0.6-1.1-0.9-2.1-0.9c-0.7,0-1.4,0.2-1.9,0.7c-0.5,0.5-0.8,1.2-0.8,2.2c0,0.8,0.2,1.6,0.7,2.1
			c0.5,0.6,1.2,0.9,2.1,0.9C65.2,104.2,65.8,103.9,66.3,103.3z"/>
	</g>
</g>
<g>
	<g>
		<path class="st2" d="M50.6,127.2c0,0.8,0.4,1.4,1,1.8c0.3,0.2,0.7,0.3,1.1,0.3c0.7,0,1.4-0.3,1.9-0.9c0.5-0.6,0.9-1.9,1.1-3.7
			c-0.3,0.5-0.8,0.9-1.3,1.1c-0.5,0.2-1,0.3-1.6,0.3c-1.2,0-2.1-0.4-2.8-1.1c-0.7-0.7-1-1.7-1-2.8c0-1.1,0.3-2.1,1-2.9
			c0.7-0.8,1.7-1.3,3-1.3c1.8,0,3,0.8,3.7,2.4c0.4,0.9,0.6,2,0.6,3.3c0,1.5-0.2,2.8-0.7,4c-0.7,1.9-2,2.9-3.8,2.9
			c-1.2,0-2.1-0.3-2.7-0.9c-0.6-0.6-0.9-1.4-0.9-2.4H50.6z M54.6,124.1c0.5-0.4,0.8-1.1,0.8-2.1c0-0.9-0.2-1.6-0.7-2
			c-0.5-0.4-1-0.7-1.7-0.7c-0.8,0-1.3,0.3-1.8,0.8c-0.4,0.5-0.7,1.2-0.7,2c0,0.8,0.2,1.4,0.6,1.9c0.4,0.5,1,0.7,1.9,0.7
			C53.5,124.7,54.1,124.5,54.6,124.1z"/>
		<path class="st2" d="M67.1,118.2v1.3c-0.4,0.4-0.9,1-1.6,2c-0.7,0.9-1.2,2-1.7,3.1c-0.5,1.1-0.9,2-1.1,2.9
			c-0.2,0.6-0.4,1.5-0.6,2.7h-1.7c0.4-2.3,1.2-4.7,2.6-7c0.8-1.4,1.6-2.5,2.5-3.5h-6.8v-1.5H67.1z"/>
	</g>
</g>
<g>
	<g>
		<path class="st2" d="M50.8,151.8c0,0.9,0.4,1.6,1.1,1.9c0.3,0.2,0.7,0.3,1.2,0.3c0.8,0,1.5-0.3,2-1c0.6-0.7,1-2,1.2-4.1
			c-0.4,0.6-0.8,1-1.4,1.2c-0.5,0.2-1.1,0.4-1.8,0.4c-1.3,0-2.3-0.4-3-1.2s-1.1-1.8-1.1-3.1c0-1.2,0.4-2.3,1.1-3.2
			c0.7-0.9,1.8-1.4,3.3-1.4c1.9,0,3.3,0.9,4,2.6c0.4,1,0.6,2.2,0.6,3.6c0,1.6-0.2,3.1-0.7,4.3c-0.8,2.1-2.2,3.1-4.1,3.1
			c-1.3,0-2.3-0.3-3-1c-0.7-0.7-1-1.5-1-2.6H50.8z M55.1,148.4c0.5-0.4,0.8-1.2,0.8-2.3c0-1-0.2-1.7-0.7-2.2
			c-0.5-0.5-1.1-0.7-1.9-0.7c-0.8,0-1.5,0.3-2,0.8c-0.5,0.5-0.7,1.3-0.7,2.2c0,0.9,0.2,1.6,0.6,2.1c0.4,0.5,1.1,0.8,2,0.8
			C54,149.1,54.6,148.9,55.1,148.4z"/>
		<path class="st2" d="M60.7,147.3c-0.5-0.5-0.7-1.1-0.7-1.9c0-1,0.4-1.8,1.1-2.6s1.7-1.1,3.1-1.1c1.3,0,2.3,0.3,3,1
			c0.7,0.7,1.1,1.5,1.1,2.4c0,0.8-0.2,1.5-0.6,2c-0.2,0.3-0.6,0.6-1.1,0.9c0.6,0.3,1,0.5,1.3,0.9c0.6,0.6,0.9,1.4,0.9,2.4
			c0,1.2-0.4,2.2-1.2,3c-0.8,0.8-1.9,1.2-3.3,1.2c-1.3,0-2.4-0.4-3.3-1.1c-0.9-0.7-1.3-1.7-1.3-3.1c0-0.8,0.2-1.5,0.6-2s1-1,1.7-1.3
			C61.3,147.8,60.9,147.5,60.7,147.3z M66.1,153.3c0.5-0.4,0.8-1,0.8-1.9c0-0.9-0.3-1.5-0.8-2c-0.5-0.4-1.2-0.7-2-0.7
			c-0.8,0-1.5,0.2-2,0.7s-0.8,1.1-0.8,1.9c0,0.7,0.2,1.3,0.7,1.8c0.5,0.5,1.2,0.8,2.1,0.8C64.9,153.9,65.5,153.7,66.1,153.3z
			 M65.7,146.7c0.4-0.4,0.6-0.9,0.6-1.5c0-0.5-0.2-1-0.6-1.4s-1-0.6-1.8-0.6c-0.8,0-1.4,0.2-1.7,0.6s-0.5,0.9-0.5,1.5
			c0,0.6,0.2,1.1,0.7,1.5c0.5,0.4,1,0.5,1.6,0.5C64.8,147.3,65.3,147.1,65.7,146.7z"/>
	</g>
</g>
<g>
	<g>
		<path class="st2" d="M50.6,176.9c0,0.8,0.4,1.4,1,1.8c0.3,0.2,0.7,0.3,1.1,0.3c0.7,0,1.4-0.3,1.9-0.9c0.5-0.6,0.9-1.9,1.1-3.7
			c-0.3,0.5-0.8,0.9-1.3,1.1c-0.5,0.2-1,0.3-1.6,0.3c-1.2,0-2.1-0.4-2.8-1.1c-0.7-0.7-1-1.7-1-2.8c0-1.1,0.3-2.1,1-2.9
			c0.7-0.8,1.7-1.3,3-1.3c1.8,0,3,0.8,3.7,2.4c0.4,0.9,0.6,2,0.6,3.3c0,1.5-0.2,2.8-0.7,4c-0.7,1.9-2,2.9-3.8,2.9
			c-1.2,0-2.1-0.3-2.7-0.9c-0.6-0.6-0.9-1.4-0.9-2.4H50.6z M54.6,173.8c0.5-0.4,0.8-1.1,0.8-2.1c0-0.9-0.2-1.6-0.7-2
			c-0.5-0.4-1-0.7-1.7-0.7c-0.8,0-1.3,0.3-1.8,0.8c-0.4,0.5-0.7,1.2-0.7,2c0,0.8,0.2,1.4,0.6,1.9c0.4,0.5,1,0.7,1.9,0.7
			C53.5,174.4,54.1,174.2,54.6,173.8z"/>
		<path class="st2" d="M60.3,176.9c0,0.8,0.4,1.4,1,1.8c0.3,0.2,0.7,0.3,1.1,0.3c0.7,0,1.4-0.3,1.9-0.9c0.5-0.6,0.9-1.9,1.1-3.7
			c-0.3,0.5-0.8,0.9-1.3,1.1c-0.5,0.2-1,0.3-1.6,0.3c-1.2,0-2.1-0.4-2.8-1.1c-0.7-0.7-1-1.7-1-2.8c0-1.1,0.3-2.1,1-2.9
			c0.7-0.8,1.7-1.3,3-1.3c1.8,0,3,0.8,3.7,2.4c0.4,0.9,0.6,2,0.6,3.3c0,1.5-0.2,2.8-0.7,4c-0.7,1.9-2,2.9-3.8,2.9
			c-1.2,0-2.1-0.3-2.7-0.9c-0.6-0.6-0.9-1.4-0.9-2.4H60.3z M64.3,173.8c0.5-0.4,0.8-1.1,0.8-2.1c0-0.9-0.2-1.6-0.7-2
			c-0.5-0.4-1-0.7-1.7-0.7c-0.8,0-1.3,0.3-1.8,0.8c-0.4,0.5-0.7,1.2-0.7,2c0,0.8,0.2,1.4,0.6,1.9c0.4,0.5,1,0.7,1.9,0.7
			C63.2,174.4,63.8,174.2,64.3,173.8z"/>
	</g>
</g>
<g>
	<g>
		<path class="st2" d="M56.4,194.4c0.5,1,0.8,2.4,0.8,4.1c0,1.7-0.2,3-0.7,4.1c-0.7,1.6-1.9,2.3-3.5,2.3c-1.5,0-2.6-0.6-3.3-1.9
			c-0.6-1.1-0.9-2.5-0.9-4.3c0-1.4,0.2-2.6,0.5-3.6c0.7-1.9,1.9-2.8,3.6-2.8C54.6,192.5,55.7,193.1,56.4,194.4z M54.9,202.6
			c0.5-0.7,0.7-2,0.7-3.9c0-1.4-0.2-2.5-0.5-3.4c-0.3-0.9-1-1.3-2-1.3c-0.9,0-1.6,0.4-2,1.3c-0.4,0.9-0.6,2.1-0.6,3.8
			c0,1.2,0.1,2.3,0.4,3c0.4,1.2,1.1,1.7,2.1,1.7C53.7,203.7,54.4,203.3,54.9,202.6z"/>
		<path class="st2" d="M66.1,194.4c0.5,1,0.8,2.4,0.8,4.1c0,1.7-0.2,3-0.7,4.1c-0.7,1.6-1.9,2.3-3.5,2.3c-1.5,0-2.6-0.6-3.3-1.9
			c-0.6-1.1-0.9-2.5-0.9-4.3c0-1.4,0.2-2.6,0.5-3.6c0.7-1.9,1.9-2.8,3.6-2.8C64.3,192.5,65.4,193.1,66.1,194.4z M64.6,202.6
			c0.5-0.7,0.7-2,0.7-3.9c0-1.4-0.2-2.5-0.5-3.4c-0.3-0.9-1-1.3-2-1.3c-0.9,0-1.6,0.4-2,1.3c-0.4,0.9-0.6,2.1-0.6,3.8
			c0,1.2,0.1,2.3,0.4,3c0.4,1.2,1.1,1.7,2.1,1.7C63.5,203.7,64.1,203.3,64.6,202.6z"/>
	</g>
</g>
<g>
	<g>
		<path class="st2" d="M56.4,219.3c0.5,1,0.8,2.4,0.8,4.1c0,1.7-0.2,3-0.7,4.1c-0.7,1.6-1.9,2.3-3.5,2.3c-1.5,0-2.6-0.6-3.3-1.9
			c-0.6-1.1-0.9-2.5-0.9-4.3c0-1.4,0.2-2.6,0.5-3.6c0.7-1.9,1.9-2.8,3.6-2.8C54.6,217.3,55.7,218,56.4,219.3z M54.9,227.4
			c0.5-0.7,0.7-2,0.7-3.9c0-1.4-0.2-2.5-0.5-3.4c-0.3-0.9-1-1.3-2-1.3c-0.9,0-1.6,0.4-2,1.3c-0.4,0.9-0.6,2.1-0.6,3.8
			c0,1.2,0.1,2.3,0.4,3c0.4,1.2,1.1,1.7,2.1,1.7C53.7,228.5,54.4,228.2,54.9,227.4z"/>
		<path class="st2" d="M59.6,220.9v-1.2c1.1-0.1,1.9-0.3,2.3-0.5c0.4-0.3,0.8-0.9,1-1.8h1.2v12.2h-1.6v-8.7H59.6z"/>
	</g>
</g>
<g>
	<g>
		<path class="st3" d="M56.4,243.6c0.6,1.1,1,2.7,1,4.7s-0.3,3.6-1,4.7s-1.7,1.7-3.3,1.7s-2.7-0.6-3.3-1.7s-1-2.7-1-4.7
			s0.3-3.6,1-4.7c0.6-1.1,1.7-1.7,3.3-1.7S55.7,242.5,56.4,243.6z M51.6,251.6c0.2,0.8,0.7,1.1,1.4,1.1s1.2-0.4,1.4-1.1
			s0.3-1.8,0.3-3.3c0-1.5-0.1-2.6-0.3-3.3c-0.2-0.7-0.7-1.1-1.4-1.1s-1.2,0.4-1.4,1.1c-0.2,0.7-0.4,1.8-0.4,3.3
			C51.3,249.8,51.4,250.8,51.6,251.6z"/>
		<path class="st3" d="M59.1,252c0.3-0.8,1.2-1.7,2.5-2.6c1.1-0.8,1.8-1.4,2.2-1.7c0.5-0.5,0.8-1.1,0.8-1.8c0-0.5-0.1-1-0.4-1.3
			c-0.3-0.3-0.7-0.5-1.2-0.5c-0.7,0-1.2,0.3-1.5,0.8c-0.2,0.3-0.2,0.8-0.3,1.5h-2.4c0-1.1,0.2-1.9,0.6-2.6c0.7-1.2,1.8-1.9,3.5-1.9
			c1.3,0,2.4,0.4,3.1,1.1s1.2,1.7,1.2,2.9c0,0.9-0.3,1.7-0.8,2.4c-0.4,0.5-1,1-1.8,1.6l-1,0.7c-0.6,0.4-1,0.7-1.3,0.9
			c-0.2,0.2-0.4,0.4-0.6,0.7H67v2.1h-8.5C58.5,253.5,58.7,252.7,59.1,252z"/>
	</g>
</g>
<g>
	<path class="st2" d="M89,94.2c0.6,1.1,0.9,2.6,0.9,4.5c0,1.8-0.3,3.3-0.8,4.5c-0.8,1.7-2.1,2.6-3.8,2.6c-1.6,0-2.8-0.7-3.6-2.1
		c-0.7-1.2-1-2.7-1-4.7c0-1.5,0.2-2.8,0.6-3.9c0.7-2,2.1-3,4-3C87,92,88.2,92.8,89,94.2z M87.3,103.1c0.5-0.8,0.8-2.2,0.8-4.3
		c0-1.5-0.2-2.8-0.6-3.7s-1.1-1.5-2.2-1.5c-1,0-1.7,0.5-2.2,1.4s-0.7,2.3-0.7,4.1c0,1.4,0.1,2.5,0.4,3.3c0.4,1.3,1.2,1.9,2.3,1.9
		C86.1,104.2,86.8,103.8,87.3,103.1z"/>
	<path class="st2" d="M92.2,104.4c-0.7-0.9-1.1-1.9-1.1-3.2h1.8c0.1,0.9,0.2,1.5,0.5,1.9c0.4,0.7,1.2,1.1,2.4,1.1
		c0.9,0,1.6-0.2,2.1-0.7s0.8-1.1,0.8-1.8c0-0.9-0.3-1.6-0.8-1.9c-0.6-0.4-1.3-0.5-2.3-0.5c-0.1,0-0.2,0-0.3,0c-0.1,0-0.2,0-0.3,0
		v-1.5c0.2,0,0.3,0,0.4,0c0.1,0,0.2,0,0.4,0c0.6,0,1.1-0.1,1.5-0.3c0.7-0.3,1.1-1,1.1-1.9c0-0.7-0.2-1.2-0.7-1.5
		c-0.5-0.4-1-0.5-1.6-0.5c-1.1,0-1.9,0.4-2.3,1.1c-0.2,0.4-0.4,1-0.4,1.8h-1.7c0-1,0.2-1.8,0.6-2.5c0.7-1.2,1.9-1.9,3.6-1.9
		c1.4,0,2.4,0.3,3.2,0.9s1.1,1.5,1.1,2.6c0,0.8-0.2,1.5-0.7,2c-0.3,0.3-0.6,0.6-1.1,0.7c0.7,0.2,1.2,0.6,1.6,1.1s0.6,1.2,0.6,2
		c0,1.3-0.4,2.3-1.3,3.1s-2,1.2-3.6,1.2C94.1,105.7,92.9,105.3,92.2,104.4z"/>
</g>
<g>
	<path class="st2" d="M89,119c0.6,1.1,0.9,2.6,0.9,4.5c0,1.8-0.3,3.3-0.8,4.5c-0.8,1.7-2.1,2.6-3.8,2.6c-1.6,0-2.8-0.7-3.6-2.1
		c-0.7-1.2-1-2.7-1-4.7c0-1.5,0.2-2.8,0.6-3.9c0.7-2,2.1-3,4-3C87,116.9,88.2,117.6,89,119z M87.3,127.9c0.5-0.8,0.8-2.2,0.8-4.3
		c0-1.5-0.2-2.8-0.6-3.7s-1.1-1.5-2.2-1.5c-1,0-1.7,0.5-2.2,1.4s-0.7,2.3-0.7,4.1c0,1.4,0.1,2.5,0.4,3.3c0.4,1.3,1.2,1.9,2.3,1.9
		C86.1,129.1,86.8,128.7,87.3,127.9z"/>
	<path class="st2" d="M97,130.2V127h-5.8v-1.6l6.1-8.5h1.4v8.6h2v1.5h-2v3.3H97z M97,125.5v-6.1l-4.3,6.1H97z"/>
</g>
<g>
	<path class="st2" d="M89,143.9c0.6,1.1,0.9,2.6,0.9,4.5c0,1.8-0.3,3.3-0.8,4.5c-0.8,1.7-2.1,2.6-3.8,2.6c-1.6,0-2.8-0.7-3.6-2.1
		c-0.7-1.2-1-2.7-1-4.7c0-1.5,0.2-2.8,0.6-3.9c0.7-2,2.1-3,4-3C87,141.7,88.2,142.4,89,143.9z M87.3,152.7c0.5-0.8,0.8-2.2,0.8-4.3
		c0-1.5-0.2-2.8-0.6-3.7s-1.1-1.5-2.2-1.5c-1,0-1.7,0.5-2.2,1.4s-0.7,2.3-0.7,4.1c0,1.4,0.1,2.5,0.4,3.3c0.4,1.3,1.2,1.9,2.3,1.9
		C86.1,153.9,86.8,153.5,87.3,152.7z"/>
	<path class="st2" d="M93,151.7c0.1,1,0.6,1.6,1.3,2c0.4,0.2,0.9,0.3,1.4,0.3c1,0,1.7-0.3,2.2-0.9c0.5-0.6,0.7-1.3,0.7-2.1
		c0-0.9-0.3-1.7-0.9-2.2c-0.6-0.5-1.2-0.8-2-0.8c-0.6,0-1.1,0.1-1.5,0.3s-0.8,0.5-1.1,0.9l-1.5-0.1l1-7.2h6.9v1.6h-5.7l-0.6,3.7
		c0.3-0.2,0.6-0.4,0.9-0.5c0.5-0.2,1.1-0.3,1.7-0.3c1.2,0,2.3,0.4,3.1,1.2c0.9,0.8,1.3,1.8,1.3,3c0,1.3-0.4,2.4-1.2,3.3
		c-0.8,1-2,1.4-3.7,1.4c-1.1,0-2-0.3-2.9-0.9c-0.8-0.6-1.3-1.5-1.4-2.8H93z"/>
</g>
<g>
	<path class="st2" d="M89,168.7c0.6,1.1,0.9,2.6,0.9,4.5c0,1.8-0.3,3.3-0.8,4.5c-0.8,1.7-2.1,2.6-3.8,2.6c-1.6,0-2.8-0.7-3.6-2.1
		c-0.7-1.2-1-2.7-1-4.7c0-1.5,0.2-2.8,0.6-3.9c0.7-2,2.1-3,4-3C87,166.6,88.2,167.3,89,168.7z M87.3,177.6c0.5-0.8,0.8-2.2,0.8-4.3
		c0-1.5-0.2-2.8-0.6-3.7s-1.1-1.5-2.2-1.5c-1,0-1.7,0.5-2.2,1.4s-0.7,2.3-0.7,4.1c0,1.4,0.1,2.5,0.4,3.3c0.4,1.3,1.2,1.9,2.3,1.9
		C86.1,178.7,86.8,178.3,87.3,177.6z"/>
	<path class="st2" d="M99.4,167.7c0.6,0.8,0.9,1.6,0.9,2.4h-1.7c-0.1-0.5-0.3-0.9-0.5-1.2c-0.4-0.6-1-0.8-1.8-0.8
		c-0.9,0-1.7,0.4-2.2,1.3c-0.6,0.9-0.9,2.1-0.9,3.7c0.4-0.6,0.9-1,1.5-1.3c0.5-0.2,1.1-0.4,1.8-0.4c1.1,0,2.1,0.4,2.9,1.1
		c0.8,0.7,1.2,1.8,1.2,3.2c0,1.2-0.4,2.3-1.2,3.2c-0.8,0.9-1.9,1.4-3.4,1.4c-1.2,0-2.3-0.5-3.2-1.4s-1.4-2.5-1.4-4.8
		c0-1.7,0.2-3.1,0.6-4.2c0.8-2.2,2.2-3.3,4.3-3.3C97.7,166.5,98.8,166.9,99.4,167.7z M98.1,177.9c0.4-0.6,0.7-1.3,0.7-2.1
		c0-0.7-0.2-1.3-0.6-2c-0.4-0.6-1.1-0.9-2.1-0.9c-0.7,0-1.4,0.2-1.9,0.7c-0.5,0.5-0.8,1.2-0.8,2.2c0,0.8,0.2,1.6,0.7,2.1
		c0.5,0.6,1.2,0.9,2.1,0.9C97,178.7,97.7,178.5,98.1,177.9z"/>
</g>
<g>
	<path class="st2" d="M89,193.5c0.6,1.1,0.9,2.6,0.9,4.5c0,1.8-0.3,3.3-0.8,4.5c-0.8,1.7-2.1,2.6-3.8,2.6c-1.6,0-2.8-0.7-3.6-2.1
		c-0.7-1.2-1-2.7-1-4.7c0-1.5,0.2-2.8,0.6-3.9c0.7-2,2.1-3,4-3C87,191.4,88.2,192.1,89,193.5z M87.3,202.4c0.5-0.8,0.8-2.2,0.8-4.3
		c0-1.5-0.2-2.8-0.6-3.7s-1.1-1.5-2.2-1.5c-1,0-1.7,0.5-2.2,1.4s-0.7,2.3-0.7,4.1c0,1.4,0.1,2.5,0.4,3.3c0.4,1.3,1.2,1.9,2.3,1.9
		C86.1,203.6,86.8,203.2,87.3,202.4z"/>
	<path class="st2" d="M100.7,191.6v1.5c-0.4,0.4-1,1.1-1.7,2.2c-0.7,1-1.3,2.1-1.9,3.3c-0.5,1.2-0.9,2.2-1.2,3.2
		c-0.2,0.6-0.4,1.6-0.7,3h-1.9c0.4-2.5,1.4-5.1,2.8-7.6c0.9-1.5,1.7-2.8,2.7-3.8h-7.4v-1.7H100.7z"/>
</g>
<g>
	<path class="st2" d="M89,218.4c0.6,1.1,0.9,2.6,0.9,4.5c0,1.8-0.3,3.3-0.8,4.5c-0.8,1.7-2.1,2.6-3.8,2.6c-1.6,0-2.8-0.7-3.6-2.1
		c-0.7-1.2-1-2.7-1-4.7c0-1.5,0.2-2.8,0.6-3.9c0.7-2,2.1-3,4-3C87,216.2,88.2,217,89,218.4z M87.3,227.3c0.5-0.8,0.8-2.2,0.8-4.3
		c0-1.5-0.2-2.8-0.6-3.7s-1.1-1.5-2.2-1.5c-1,0-1.7,0.5-2.2,1.4s-0.7,2.3-0.7,4.1c0,1.4,0.1,2.5,0.4,3.3c0.4,1.3,1.2,1.9,2.3,1.9
		C86.1,228.4,86.8,228,87.3,227.3z"/>
	<path class="st2" d="M92.5,221.8c-0.5-0.5-0.7-1.1-0.7-1.9c0-1,0.4-1.8,1.1-2.6s1.7-1.1,3.1-1.1c1.3,0,2.3,0.3,3,1
		c0.7,0.7,1.1,1.5,1.1,2.4c0,0.8-0.2,1.5-0.6,2c-0.2,0.3-0.6,0.6-1.1,0.9c0.6,0.3,1,0.5,1.3,0.9c0.6,0.6,0.9,1.4,0.9,2.4
		c0,1.2-0.4,2.2-1.2,3c-0.8,0.8-1.9,1.2-3.3,1.2c-1.3,0-2.4-0.4-3.3-1.1c-0.9-0.7-1.3-1.7-1.3-3.1c0-0.8,0.2-1.5,0.6-2s1-1,1.7-1.3
		C93.1,222.3,92.8,222,92.5,221.8z M97.9,227.8c0.5-0.4,0.8-1,0.8-1.9c0-0.9-0.3-1.5-0.8-2c-0.5-0.4-1.2-0.7-2-0.7
		c-0.8,0-1.5,0.2-2,0.7s-0.8,1.1-0.8,1.9c0,0.7,0.2,1.3,0.7,1.8c0.5,0.5,1.2,0.8,2.1,0.8C96.7,228.4,97.4,228.2,97.9,227.8z
		 M97.6,221.2c0.4-0.4,0.6-0.9,0.6-1.5c0-0.5-0.2-1-0.6-1.4s-1-0.6-1.8-0.6c-0.8,0-1.4,0.2-1.7,0.6s-0.5,0.9-0.5,1.5
		c0,0.6,0.2,1.1,0.7,1.5c0.5,0.4,1,0.5,1.6,0.5C96.6,221.8,97.2,221.6,97.6,221.2z"/>
</g>
<g>
	<path class="st2" d="M89,243.2c0.6,1.1,0.9,2.6,0.9,4.5c0,1.8-0.3,3.3-0.8,4.5c-0.8,1.7-2.1,2.6-3.8,2.6c-1.6,0-2.8-0.7-3.6-2.1
		c-0.7-1.2-1-2.7-1-4.7c0-1.5,0.2-2.8,0.6-3.9c0.7-2,2.1-3,4-3C87,241.1,88.2,241.8,89,243.2z M87.3,252.1c0.5-0.8,0.8-2.2,0.8-4.3
		c0-1.5-0.2-2.8-0.6-3.7s-1.1-1.5-2.2-1.5c-1,0-1.7,0.5-2.2,1.4s-0.7,2.3-0.7,4.1c0,1.4,0.1,2.5,0.4,3.3c0.4,1.3,1.2,1.9,2.3,1.9
		C86.1,253.2,86.8,252.9,87.3,252.1z"/>
	<path class="st2" d="M93.2,251.2c0,0.9,0.4,1.6,1.1,1.9c0.3,0.2,0.7,0.3,1.2,0.3c0.8,0,1.5-0.3,2-1c0.6-0.7,1-2,1.2-4.1
		c-0.4,0.6-0.8,1-1.4,1.2c-0.5,0.2-1.1,0.4-1.8,0.4c-1.3,0-2.3-0.4-3-1.2s-1.1-1.8-1.1-3.1c0-1.2,0.4-2.3,1.1-3.2
		c0.7-0.9,1.8-1.4,3.3-1.4c1.9,0,3.3,0.9,4,2.6c0.4,1,0.6,2.2,0.6,3.6c0,1.6-0.2,3.1-0.7,4.3c-0.8,2.1-2.2,3.1-4.1,3.1
		c-1.3,0-2.3-0.3-3-1c-0.7-0.7-1-1.5-1-2.6H93.2z M97.6,247.8c0.5-0.4,0.8-1.2,0.8-2.3c0-1-0.2-1.7-0.7-2.2
		c-0.5-0.5-1.1-0.7-1.9-0.7c-0.8,0-1.5,0.3-2,0.8c-0.5,0.5-0.7,1.3-0.7,2.2c0,0.9,0.2,1.6,0.6,2.1c0.4,0.5,1.1,0.8,2,0.8
		C96.4,248.4,97,248.2,97.6,247.8z"/>
</g>
<g>
	<path class="st2" d="M112.8,95.9v-1.3c1.2-0.1,2.1-0.3,2.5-0.6c0.5-0.3,0.8-0.9,1.1-2h1.3v13.3h-1.8v-9.4H112.8z"/>
	<path class="st2" d="M130.4,94.2c0.6,1.1,0.9,2.6,0.9,4.5c0,1.8-0.3,3.3-0.8,4.5c-0.8,1.7-2.1,2.6-3.8,2.6c-1.6,0-2.8-0.7-3.6-2.1
		c-0.7-1.2-1-2.7-1-4.7c0-1.5,0.2-2.8,0.6-3.9c0.7-2,2.1-3,4-3C128.4,92,129.7,92.8,130.4,94.2z M128.8,103.1
		c0.5-0.8,0.8-2.2,0.8-4.3c0-1.5-0.2-2.8-0.6-3.7s-1.1-1.5-2.2-1.5c-1,0-1.7,0.5-2.2,1.4s-0.7,2.3-0.7,4.1c0,1.4,0.1,2.5,0.4,3.3
		c0.4,1.3,1.2,1.9,2.3,1.9C127.6,104.2,128.2,103.8,128.8,103.1z"/>
</g>
<g>
	<path class="st2" d="M112.8,120.8v-1.3c1.2-0.1,2.1-0.3,2.5-0.6c0.5-0.3,0.8-0.9,1.1-2h1.3v13.3h-1.8v-9.4H112.8z"/>
	<path class="st2" d="M122,120.8v-1.3c1.2-0.1,2.1-0.3,2.5-0.6c0.5-0.3,0.8-0.9,1.1-2h1.3v13.3h-1.8v-9.4H122z"/>
</g>
<g>
	<path class="st2" d="M112.8,145.6v-1.3c1.2-0.1,2.1-0.3,2.5-0.6c0.5-0.3,0.8-0.9,1.1-2h1.3v13.3h-1.8v-9.4H112.8z"/>
	<path class="st2" d="M122.9,152.1c0.4-0.8,1.2-1.6,2.4-2.3l1.8-1c0.8-0.5,1.4-0.9,1.7-1.2c0.5-0.5,0.8-1.1,0.8-1.8
		c0-0.8-0.2-1.4-0.7-1.9s-1.1-0.7-1.9-0.7c-1.1,0-1.9,0.4-2.4,1.3c-0.2,0.5-0.4,1.1-0.4,1.9h-1.7c0-1.2,0.2-2.1,0.6-2.8
		c0.7-1.3,2-1.9,3.8-1.9c1.5,0,2.6,0.4,3.3,1.2c0.7,0.8,1.1,1.7,1.1,2.8c0,1.1-0.4,2-1.1,2.7c-0.4,0.4-1.2,1-2.3,1.6l-1.3,0.7
		c-0.6,0.3-1.1,0.7-1.4,1c-0.6,0.5-1,1.1-1.2,1.8h7.3v1.6h-9.2C122.2,153.9,122.4,152.9,122.9,152.1z"/>
</g>
<g>
	<path class="st2" d="M112.8,170.5v-1.3c1.2-0.1,2.1-0.3,2.5-0.6c0.5-0.3,0.8-0.9,1.1-2h1.3v13.3h-1.8v-9.4H112.8z"/>
	<path class="st2" d="M123.1,179c-0.7-0.9-1.1-1.9-1.1-3.2h1.8c0.1,0.9,0.2,1.5,0.5,1.9c0.4,0.7,1.2,1.1,2.4,1.1
		c0.9,0,1.6-0.2,2.1-0.7s0.8-1.1,0.8-1.8c0-0.9-0.3-1.6-0.8-1.9c-0.6-0.4-1.3-0.5-2.3-0.5c-0.1,0-0.2,0-0.3,0c-0.1,0-0.2,0-0.3,0
		v-1.5c0.2,0,0.3,0,0.4,0c0.1,0,0.2,0,0.4,0c0.6,0,1.1-0.1,1.5-0.3c0.7-0.3,1.1-1,1.1-1.9c0-0.7-0.2-1.2-0.7-1.5
		c-0.5-0.4-1-0.5-1.6-0.5c-1.1,0-1.9,0.4-2.3,1.1c-0.2,0.4-0.4,1-0.4,1.8h-1.7c0-1,0.2-1.8,0.6-2.5c0.7-1.2,1.9-1.9,3.6-1.9
		c1.4,0,2.4,0.3,3.2,0.9s1.1,1.5,1.1,2.6c0,0.8-0.2,1.5-0.7,2c-0.3,0.3-0.6,0.6-1.1,0.7c0.7,0.2,1.2,0.6,1.6,1.1s0.6,1.2,0.6,2
		c0,1.3-0.4,2.3-1.3,3.1s-2,1.2-3.6,1.2C124.9,180.3,123.8,179.8,123.1,179z"/>
</g>
<g>
	<path class="st2" d="M112.8,195.3V194c1.2-0.1,2.1-0.3,2.5-0.6c0.5-0.3,0.8-0.9,1.1-2h1.3v13.3h-1.8v-9.4H112.8z"/>
	<path class="st2" d="M127.9,204.7v-3.3H122v-1.6l6.1-8.5h1.4v8.6h2v1.5h-2v3.3H127.9z M127.9,200V194l-4.3,6.1H127.9z"/>
</g>
<g>
	<path class="st2" d="M112.8,220.1v-1.3c1.2-0.1,2.1-0.3,2.5-0.6c0.5-0.3,0.8-0.9,1.1-2h1.3v13.3h-1.8v-9.4H112.8z"/>
	<path class="st2" d="M123.9,226.2c0.1,1,0.6,1.6,1.3,2c0.4,0.2,0.9,0.3,1.4,0.3c1,0,1.7-0.3,2.2-0.9c0.5-0.6,0.7-1.3,0.7-2.1
		c0-0.9-0.3-1.7-0.9-2.2c-0.6-0.5-1.2-0.8-2-0.8c-0.6,0-1.1,0.1-1.5,0.3s-0.8,0.5-1.1,0.9l-1.5-0.1l1-7.2h6.9v1.6h-5.7l-0.6,3.7
		c0.3-0.2,0.6-0.4,0.9-0.5c0.5-0.2,1.1-0.3,1.7-0.3c1.2,0,2.3,0.4,3.1,1.2c0.9,0.8,1.3,1.8,1.3,3c0,1.3-0.4,2.4-1.2,3.3
		c-0.8,1-2,1.4-3.7,1.4c-1.1,0-2-0.3-2.9-0.9c-0.8-0.6-1.3-1.5-1.4-2.8H123.9z"/>
</g>
<g>
	<path class="st2" d="M112.8,245v-1.3c1.2-0.1,2.1-0.3,2.5-0.6c0.5-0.3,0.8-0.9,1.1-2h1.3v13.3h-1.8V245H112.8z"/>
	<path class="st2" d="M130.2,242.2c0.6,0.8,0.9,1.6,0.9,2.4h-1.7c-0.1-0.5-0.3-0.9-0.5-1.2c-0.4-0.6-1-0.8-1.8-0.8
		c-0.9,0-1.7,0.4-2.2,1.3c-0.6,0.9-0.9,2.1-0.9,3.7c0.4-0.6,0.9-1,1.5-1.3c0.5-0.2,1.1-0.4,1.8-0.4c1.1,0,2.1,0.4,2.9,1.1
		c0.8,0.7,1.2,1.8,1.2,3.2c0,1.2-0.4,2.3-1.2,3.2c-0.8,0.9-1.9,1.4-3.4,1.4c-1.2,0-2.3-0.5-3.2-1.4s-1.4-2.5-1.4-4.8
		c0-1.7,0.2-3.1,0.6-4.2c0.8-2.2,2.2-3.3,4.3-3.3C128.6,241,129.7,241.4,130.2,242.2z M129,252.4c0.4-0.6,0.7-1.3,0.7-2.1
		c0-0.7-0.2-1.3-0.6-2c-0.4-0.6-1.1-0.9-2.1-0.9c-0.7,0-1.4,0.2-1.9,0.7c-0.5,0.5-0.8,1.2-0.8,2.2c0,0.8,0.2,1.6,0.7,2.1
		c0.5,0.6,1.2,0.9,2.1,0.9C127.9,253.3,128.5,253,129,252.4z"/>
</g>
<g>
	<path class="st4" d="M270.6,232.2c-0.3-0.1-0.5-0.2-0.7-0.5c-0.9,1.4-1.3,2.6-0.9,3.7c1.4,4.6,5.5,8,10.3,8.5
		C274.6,242.6,271.2,237.7,270.6,232.2 M269.6,229.5c-0.3-0.2-0.5-0.4-0.7-0.6c-0.3,1.2-0.5,2.4-0.4,3.6c0,0.3,0,0.5,0.1,0.7
		c0.2-0.7,0.5-1.5,1-2.3C269.5,230.5,269.5,230,269.6,229.5 M269.8,228.8c0.1-0.3,0.3-0.5,0.5-0.7c0.1-0.2,0.3-0.3,0.5-0.4
		c0.5-2.1,1.4-3.9,2.7-5.3c-2,1.4-3.6,3.5-4.4,5.9C269.2,228.3,269.5,228.6,269.8,228.8 M287.4,239.4c-1-0.1-2.4-0.4-3-0.6
		c-0.7-0.2-1.2-0.8-1.6-1.5c-0.1-0.3-0.3-0.7-0.3-1.1c0-0.3,0-0.6,0.1-0.9c-3.7-1.1-7.6-2.7-10.4-4.2c-0.1,0.2-0.2,0.3-0.3,0.5
		c-0.2,0.2-0.4,0.4-0.7,0.5c0.3,2.3,1,4.5,2.3,6.4c1.7,2.6,3.9,4.3,6.4,4.9c0.9,0.2,2,0.4,3,0.2c3.8-0.8,6.9-3.4,8.4-6.9
		c-0.2,0-0.4,0-0.6,0.1C289.9,239.4,288.1,239.5,287.4,239.4 M292.4,231.6c-0.1-1.3-0.3-2.6-0.8-3.8c-0.6-1.4-2.4-2.5-4.8-3
		c-4.5-1-10.4,0.7-14.1,3.8c0.1,0.6,0.1,1.3-0.1,1.9c2.7,1.5,6.6,3,10.3,4.2c0.9-2,2.5-2.4,3.8-2.1c0.9,0.2,1.5,0.4,2,0.4l0.5,0.1
		c0.6,0.1,1.2,0.6,1.5,1.1c0.2,0.4,0.4,1,0.3,1.9c0.5,0,0.7-0.1,0.7-0.2C292.2,234.6,292.4,233.1,292.4,231.6 M290.2,236.2
		c0.1-0.7,0-1.3-0.2-1.6c-0.2-0.4-0.6-0.7-1-0.8l-0.5-0.1c-0.4-0.1-1-0.2-2-0.4c-1.3-0.3-2.4,0.3-3,1.6c0.6,0.2,1.2,0.3,1.8,0.5
		c0.1-0.5,0.1-0.8,0.1-0.8c0-0.2,0.2-0.4,0.4-0.3c0.2,0,0.4,0.2,0.3,0.4c0,0,0,0.4-0.1,0.9c0.1,0,0.2,0.1,0.3,0.1
		c0.1,0,0.2,0.1,0.4,0.1c0.1-0.5,0.2-0.9,0.2-1c0-0.2,0.2-0.3,0.4-0.3c0.2,0,0.3,0.2,0.3,0.4c0,0-0.1,0.5-0.2,1
		c0.2,0,0.5,0.1,0.7,0.1c0.1-0.4,0.1-0.8,0.1-0.8c0-0.2,0.2-0.4,0.4-0.4c0.2,0,0.4,0.2,0.3,0.4c0,0,0,0.4-0.1,0.9
		C289.5,236.1,289.9,236.2,290.2,236.2 M283.5,237.1c0.3,0.6,0.8,1,1.1,1.1c0.5,0.2,1.8,0.4,2.8,0.6c1.1,0.1,2.1-0.5,2.6-1.8
		c-0.4,0-0.8-0.1-1.2-0.1c-0.1,0.3-0.2,0.5-0.3,0.7c-0.1,0.2-0.3,0.2-0.5,0.1c-0.2-0.1-0.2-0.3-0.1-0.5c0.1-0.1,0.2-0.3,0.2-0.5
		c-0.2,0-0.4-0.1-0.7-0.1c-0.1,0.3-0.2,0.6-0.3,0.8c-0.1,0.2-0.3,0.3-0.5,0.2c-0.2-0.1-0.3-0.3-0.2-0.5c0.1-0.2,0.1-0.4,0.2-0.7
		c-0.1,0-0.2-0.1-0.4-0.1c-0.1,0-0.2-0.1-0.4-0.1c-0.1,0.2-0.1,0.4-0.2,0.7c-0.1,0.2-0.3,0.3-0.5,0.2c-0.2-0.1-0.3-0.3-0.2-0.5
		c0.1-0.2,0.1-0.4,0.2-0.5c-0.6-0.1-1.2-0.3-1.9-0.5C283.2,236.2,283.4,236.7,283.5,237.1 M271.5,228c-0.2,0-0.5,0-0.8,0.3
		c-0.5,0.6-0.7,1.3-0.7,2.2c0,0.2,0,0.4,0.1,0.5c0.1,0.3,0.4,0.6,0.6,0.6c0.2,0,0.5-0.1,0.8-0.4c0.6-0.7,0.8-1.9,0.5-2.7
		C271.9,228.3,271.8,228.1,271.5,228"/>
	<path class="st4" d="M282.8,209.8c0,4-1.7,7.3-2.7,8.3c-3.1,3.1-5.6,0.8-5.7,3.9c-1.4,1.3-2.4,3.2-2.9,5.4c0,0,0.1,0,0.1,0
		c0.3,0.1,0.5,0.2,0.7,0.5c3.9-3.2,10-4.9,14.6-3.8c1.5,0.3,2.7,0.9,3.7,1.7c-1.4-2.3-3.6-4.1-6.1-5c-0.6-0.2-1.7-0.5-1.7-2.4
		c0-3.7,4-0.8,6.7-4.8c0.1-0.2-0.1-0.4-0.2-0.2c-0.8,0.8-2.8,1.4-3.8,1.4c-1,0-1.4-0.2-1.4-0.2c1-2,2.2-3.6,2.2-3.6
		c-2.5-2.5,1.7-16,12.6-16c0-3.1-0.3-5.6-0.7-7.4c-0.3,0.1-2.3,0.5-2.4,0.1c-0.1-0.4,1.5-1.2,2.1-1.5c-0.5-1.9-1.1-2.8-1.1-2.8
		c-9.4,3-7.5,10.8-9.8,10.8c-1.5,0-2.7-1.2-3.1-1.6c-5.6-5.6-3-9.3-3-16.8c0-5-1.9-6.9-5.6-6.9s-4.9,1.6-4.9,1.6s4.9,0.2,4.9,5.4
		c0,5.4-6.1,6.9-6.1,13.8C269.2,200.9,282.8,200.7,282.8,209.8 M276.3,175.6c0-0.7-0.1-1.3-0.2-1.8c0,0,1.1-0.1,1.1-1.4
		c0-1.1-0.7-1.8-0.9-1.8c-0.1,0-0.2,0.2-0.5,0.2c-0.8,0-0.9-1-0.9-1c0.1,0,0.2,0,0.4,0c2.3,0,4.5,0.7,4.5,5.9c0,1.9-0.2,3.6-0.3,5.1
		c-0.1,1.5-0.3,2.9-0.3,4.2c0,0-4.1-0.5-4.1-3.6C275.1,179.4,276.3,178.9,276.3,175.6 M270.6,232.2c-0.3-0.1-0.5-0.2-0.7-0.5
		c-0.9,1.4-1.3,2.6-0.9,3.7c1.4,4.6,5.5,8,10.3,8.5C274.6,242.6,271.2,237.7,270.6,232.2 M269.6,229.5c-0.3-0.2-0.5-0.4-0.7-0.6
		c-0.3,1.2-0.5,2.4-0.4,3.6c0,0.3,0,0.5,0.1,0.7c0.2-0.7,0.5-1.5,1-2.3C269.5,230.5,269.5,230,269.6,229.5 M269.8,228.8
		c0.1-0.3,0.3-0.5,0.5-0.7c0.1-0.2,0.3-0.3,0.5-0.4c0.5-2.1,1.4-3.9,2.7-5.3c-2,1.4-3.6,3.5-4.4,5.9
		C269.2,228.3,269.5,228.6,269.8,228.8 M287.4,239.4c-1-0.1-2.4-0.4-3-0.6c-0.7-0.2-1.2-0.8-1.6-1.5c-0.1-0.3-0.3-0.7-0.3-1.1
		c0-0.3,0-0.6,0.1-0.9c-3.7-1.1-7.6-2.7-10.4-4.2c-0.1,0.2-0.2,0.3-0.3,0.5c-0.2,0.2-0.4,0.4-0.7,0.5c0.3,2.3,1,4.5,2.3,6.4
		c1.7,2.6,3.9,4.3,6.4,4.9c0.9,0.2,2,0.4,3,0.2c3.8-0.8,6.9-3.4,8.4-6.9c-0.2,0-0.4,0-0.6,0.1C289.9,239.4,288.1,239.5,287.4,239.4
		 M291.6,227.8c-0.6-1.4-2.4-2.5-4.8-3c-4.5-1-10.4,0.7-14.1,3.8c0.1,0.6,0.1,1.3-0.1,1.9c2.7,1.5,6.6,3,10.3,4.2
		c0.9-2,2.5-2.4,3.8-2.1c0.9,0.2,1.5,0.4,2,0.4l0.5,0.1c0.6,0.1,1.2,0.6,1.5,1.1c0.2,0.4,0.4,1,0.3,1.9c0.5,0,0.7-0.1,0.7-0.2
		c0.5-1.4,0.7-2.9,0.7-4.4C292.3,230.3,292,229,291.6,227.8 M283.5,237.1c0.3,0.6,0.8,1,1.1,1.1c0.5,0.2,1.8,0.4,2.8,0.6
		c1.1,0.1,2.1-0.5,2.6-1.8c-0.4,0-0.8-0.1-1.2-0.1c-0.1,0.3-0.2,0.5-0.3,0.7c-0.1,0.2-0.3,0.2-0.5,0.1c-0.2-0.1-0.2-0.3-0.1-0.5
		c0.1-0.1,0.2-0.3,0.2-0.5c-0.2,0-0.4-0.1-0.7-0.1c-0.1,0.3-0.2,0.6-0.3,0.8c-0.1,0.2-0.3,0.3-0.5,0.2c-0.2-0.1-0.3-0.3-0.2-0.5
		c0.1-0.2,0.1-0.4,0.2-0.7c-0.1,0-0.2-0.1-0.4-0.1c-0.1,0-0.2-0.1-0.4-0.1c-0.1,0.2-0.1,0.4-0.2,0.7c-0.1,0.2-0.3,0.3-0.5,0.2
		c-0.2-0.1-0.3-0.3-0.2-0.5c0.1-0.2,0.1-0.4,0.2-0.5c-0.6-0.1-1.2-0.3-1.9-0.5C283.2,236.2,283.4,236.7,283.5,237.1 M290.2,236.2
		c0.1-0.7,0-1.3-0.2-1.6c-0.2-0.4-0.6-0.7-1-0.8l-0.5-0.1c-0.4-0.1-1-0.2-2-0.4c-1.3-0.3-2.4,0.3-3,1.6c0.6,0.2,1.2,0.3,1.8,0.5
		c0.1-0.5,0.1-0.8,0.1-0.8c0-0.2,0.2-0.4,0.4-0.3c0.2,0,0.4,0.2,0.3,0.4c0,0,0,0.4-0.1,0.9c0.1,0,0.2,0.1,0.3,0.1
		c0.1,0,0.2,0.1,0.4,0.1c0.1-0.5,0.2-0.9,0.2-1c0-0.2,0.2-0.3,0.4-0.3c0.2,0,0.3,0.2,0.3,0.4c0,0-0.1,0.5-0.2,1
		c0.2,0,0.5,0.1,0.7,0.1c0.1-0.4,0.1-0.8,0.1-0.8c0-0.2,0.2-0.4,0.4-0.4c0.2,0,0.4,0.2,0.3,0.4c0,0,0,0.4-0.1,0.9
		C289.5,236.1,289.9,236.2,290.2,236.2 M271.5,228c-0.2,0-0.5,0-0.8,0.3c-0.5,0.6-0.7,1.3-0.7,2.2c0,0.2,0,0.4,0.1,0.5
		c0.1,0.3,0.4,0.6,0.6,0.6c0.2,0,0.5-0.1,0.8-0.4c0.6-0.7,0.8-1.9,0.5-2.7C271.9,228.3,271.8,228.1,271.5,228"/>
	<path class="st4" d="M262.1,242.5c0.9,0.6,1.9,1.2,1.9,1.2l-0.3,0.9c-0.1-0.5-0.7-0.8-1.3-1.2l-2.2,3.2c-0.3,0.4-0.8,1.2-0.8,1.6
		c0,0-0.4-0.2-0.7-0.5c-0.4-0.3-0.7-0.5-0.7-0.5c0.3-0.1,0.9-0.9,1.3-1.4l2.2-3.1c-0.8-0.6-1.1-0.8-1.7-0.8l0.8-0.6
		C260.4,241.3,261.1,241.9,262.1,242.5"/>
	<path class="st4" d="M263.6,250.5c-1.6-0.7-1.8-2.5-1-4c0.8-1.6,2.2-2.5,3.8-1.8c1.5,0.7,1.8,2.4,1,4
		C266.6,250.4,265.1,251.3,263.6,250.5 M266.1,245.2c-1-0.5-1.8,0.6-2.4,1.9c-0.6,1.2-1,2.5,0,3c1,0.5,1.8-0.7,2.4-1.9
		C266.8,247,267.1,245.6,266.1,245.2"/>
	<path class="st4" d="M270.5,246.4c1,0.3,1.9,0.5,1.9,0.5l-0.1,0.9c-0.3-0.4-0.4-0.5-1.3-0.7l-1.1,3.7c-0.1,0.3-0.5,1.6-0.4,1.8
		c0,0-0.3-0.1-0.8-0.2c-0.5-0.1-0.8-0.3-0.8-0.3c0.3-0.2,0.6-1.3,0.7-1.7l1.1-3.7c-0.9-0.3-1.1-0.3-1.6-0.1l0.5-0.8
		C268.8,245.8,269.4,246,270.5,246.4"/>
	<path class="st4" d="M274.9,247.3c1,0.2,2,0.2,2,0.2l0,0.9c-0.4-0.3-0.5-0.5-1.6-0.6l-0.6,3.8c0,0.3-0.3,1.6-0.1,1.9
		c0,0-0.4,0-0.9-0.1s-0.8-0.1-0.8-0.1c0.2-0.2,0.4-1.4,0.5-1.8l0.6-3.8c-0.9-0.2-1.1-0.1-1.5,0.1l0.4-0.9
		C273,247,273.8,247.2,274.9,247.3"/>
	<path class="st4" d="M278.7,250.9l-0.1,2.5c1.3,0,2.2-0.1,2.6-0.6l-0.2,1.1c0,0-0.7,0-1.8,0c-1.2,0-2.1-0.1-2.1-0.1
		c0.2-0.2,0.2-1.4,0.2-1.8l0.1-2.5c0-0.7,0.1-1.7-0.1-1.9c1,0.1,0.8,0.1,1.7,0.1c1.2,0,1.8,0,1.8,0l0.1,0.9
		c-0.4-0.4-1.1-0.4-2.2-0.4l-0.1,2.1l1.7,0c0.2,0,0.2,0.1,0.2,0.3c0,0.2,0,0.3-0.2,0.3L278.7,250.9z"/>
	<path class="st4" d="M286.1,251.7c0.1,0.9,0.2,1.6,0.4,1.7c-0.1,0.1-0.2,0.2-0.4,0.2c-0.3,0-0.5-0.1-0.7-0.3l-3-3.4l0.1,2.2
		c0,0.3,0.1,1.6,0.3,1.8l-1,0c0.2-0.2,0.1-1.5,0.1-1.8l-0.1-2.5c0-0.3-0.1-1.7-0.3-1.9l0.9,0l3.1,3.6l-0.2-2.1
		c0-0.3-0.2-1.6-0.4-1.8c0,0,0.1,0,0.5-0.1c0.4-0.1,0.5-0.1,0.5-0.1c-0.2,0.2,0,1.5,0.1,1.8L286.1,251.7z"/>
	<path class="st4" d="M291.7,250.4c0.1,0.4,0.3,1.5,0.6,1.7c0,0-0.5,0.1-0.8,0.2c-0.3,0.1-0.8,0.2-0.8,0.2c0.1-0.2-0.2-1.6-0.2-1.9
		l-0.3-1.1l-1.9,0.5l0.2,1.2c0.1,0.4,0.3,1.6,0.5,1.8c0,0-0.3,0.1-0.8,0.2c-0.5,0.1-0.8,0.1-0.8,0.1c0.1-0.2,0-1.4-0.1-1.8l-0.5-2.5
		c-0.1-0.5-0.3-1.6-0.6-1.8c0,0,0.2,0,0.8-0.1c0.5-0.1,0.8-0.2,0.8-0.2c-0.1,0.3,0.1,1.4,0.2,1.8l0.1,0.8l1.9-0.5l-0.2-0.8
		c-0.1-0.4-0.3-1.4-0.6-1.6c0,0,0.3-0.1,0.8-0.2c0.5-0.1,0.7-0.2,0.7-0.2c-0.1,0.3,0.2,1.3,0.3,1.8L291.7,250.4z"/>
	<path class="st4" d="M295.2,248.9l-1.9,0.7l0.1,1c0,0.3,0,0.7,0.1,0.8c0,0.1,0.1,0.1,0.2,0.2c0,0-0.2,0.1-0.5,0.2
		c-0.3,0.1-0.5,0.2-0.5,0.2c0.1-0.2,0.1-0.5,0.1-0.8l-0.2-4.8c0-0.2,0-0.3-0.1-0.5c-0.1-0.1-0.1-0.2-0.2-0.2
		c0.2-0.1,0.5-0.3,0.7-0.4c0.4-0.2,0.6-0.2,0.9,0.2l2.7,3.4c0.5,0.6,0.9,1.1,1.2,1.2c0,0-0.3,0.1-0.8,0.4c-0.5,0.2-0.9,0.4-0.9,0.4
		c0-0.1,0-0.2,0-0.4c-0.1-0.2-0.3-0.5-0.5-0.7L295.2,248.9z M294.9,248.5l-1.6-2.3l0.1,2.9L294.9,248.5z"/>
	<path class="st4" d="M303,247.2c-0.4,0.3-0.7,0.5-0.7,0.5c0-0.4-0.7-1.3-1-1.6l-1.6-2.1l1.3,4.1c-0.1,0.1-0.1,0.2-0.2,0.3
		c-0.3,0.2-0.5,0.2-0.7,0l-3.1-2.5l1.1,2c0.3,0.5,0.8,1.5,1.1,1.6c0,0-0.2,0.1-0.5,0.2c-0.3,0.1-0.4,0.2-0.4,0.2
		c0.1-0.3-0.4-1.1-0.7-1.7l-1.2-2.2c-0.4-0.7-0.8-1.4-1.1-1.5c0.3-0.1,0.3-0.2,0.7-0.4c0.3-0.1,0.6-0.3,0.6-0.3l3.4,2.9l-1.3-4.1
		c0,0,0.2-0.1,0.5-0.4c0.3-0.2,0.7-0.5,0.7-0.5c0,0.4,0.7,1.3,1,1.6l1.5,1.9c0.3,0.4,0.9,1.3,1.3,1.4
		C303.7,246.6,303.4,246.9,303,247.2"/>
	<path class="st4" d="M267.8,254.7c0.3,0.1,0.7,0.3,0.7,0.3c-0.4,0.3-0.7,1.3-0.9,1.8l-0.8,2.2c-0.2,0.6-0.6,1.5-0.5,1.8
		c0,0-0.4-0.1-0.8-0.3c-0.3-0.1-0.5-0.2-0.8-0.3c0.4-0.1,0.8-1.4,0.9-1.7l0.4-1l-1.9-0.8l-0.5,1.2c-0.2,0.4-0.6,1.3-0.5,1.6
		c0,0-0.3-0.1-0.8-0.4c-0.6-0.3-0.7-0.3-0.7-0.3c0.4-0.2,0.7-0.9,1-1.5l1-2.2c0.3-0.8,0.6-1.4,0.6-1.9c0,0,0.2,0.1,0.7,0.3
		c0.4,0.2,0.6,0.3,0.8,0.4c-0.3,0.1-0.7,1.2-1,1.7l-0.3,0.6l1.9,0.8l0.3-0.7c0.1-0.4,0.6-1.4,0.5-1.8
		C267,254.4,267.4,254.5,267.8,254.7"/>
	<path class="st4" d="M270,261.9c-1.7-0.4-2.2-2-1.8-3.7c0.4-1.7,1.7-2.8,3.4-2.4c1.6,0.4,2.2,2,1.8,3.7
		C272.9,261.2,271.7,262.3,270,261.9 M271.5,256.2c-1.1-0.3-1.6,0.9-2,2.2c-0.3,1.3-0.5,2.6,0.6,2.9c1.1,0.3,1.6-1,2-2.2
		C272.4,257.8,272.6,256.5,271.5,256.2"/>
	<path class="st4" d="M274.5,262.5c0,0,0.1-0.1,0.2-0.3c0.1-0.3,0.2-1,0.2-1.5l0.5-3.6c-1-0.1-1.2,0-1.7,0.2l0.4-0.9
		c0.3,0.1,1,0.1,1.8,0.2c0.6,0.1,2.2,0.2,2.2,0.2l0.1,0.9c-0.4-0.4-0.7-0.5-1.6-0.5l-0.5,3.6c0,0.3-0.2,1.5,0,1.9
		c-0.2,0-0.5-0.1-0.8-0.1C275.1,262.6,274.7,262.5,274.5,262.5"/>
	<path class="st4" d="M282.4,261.2c0,1.1-0.9,1.9-2.2,1.9c-1,0-1.6-0.4-1.8-0.6l0.2-1c0.3,0.7,0.9,1.1,1.5,1.1c0.6,0,1.1-0.4,1.2-1
		c0-0.5-0.2-0.7-1.3-1.3c-1-0.5-1.4-1.1-1.4-1.8c0-1.1,0.9-1.6,2-1.6c0.8,0,1.4,0.2,1.7,0.4l-0.2,0.9c-0.5-0.7-0.9-0.9-1.5-0.9
		c-0.5,0-0.9,0.3-0.9,0.8c0,0.6,0.7,0.9,1.5,1.4C282.2,260,282.4,260.6,282.4,261.2"/>
	<path class="st4" d="M287.4,257.9c0,0.1,0.1,0.3,0.1,0.4c0,0.1,0,0.3,0,0.4c0,0.4-0.2,0.8-0.5,1c-0.4,0.4-1,0.7-1.7,0.7
		c-0.3,0-0.3-0.1-0.4-0.3v0c0,0,0-0.1,0.1-0.1h0.1c0.2,0,0.5-0.1,0.8-0.4c0.2-0.3,0.3-0.7,0.3-1.2c0-0.5-0.2-0.8-0.5-1.1
		c-0.3-0.2-0.6-0.3-0.9-0.3c0,0-0.1,0-0.3,0c0,0-0.1,0-0.1,0.1l0.4,3.7c0,0.3,0.1,1.5,0.4,1.7c0,0-0.3,0-0.9,0.1
		c-0.4,0-0.8,0.1-0.8,0.1c0.1-0.3,0.1-0.7,0.1-1.2l-0.3-3c0-0.3-0.1-1.5-0.4-1.8c0,0,0.7-0.1,2.1-0.2c0.7-0.1,1.3,0,1.8,0.4
		C287.1,257.2,287.3,257.5,287.4,257.9"/>
	<path class="st4" d="M293,259.1c0.3,1.3-0.3,2.4-1.7,2.7c-1,0.2-2.3-0.1-2.7-1.8l-0.5-2c-0.1-0.6-0.3-1.5-0.6-1.8
		c0,0,0.4-0.1,0.9-0.2c0.6-0.1,0.8-0.2,0.8-0.2c-0.1,0.2,0,1.1,0.1,1.8l0.6,2.5c0.1,0.5,0.2,0.8,0.5,1c0.2,0.1,0.4,0.2,0.7,0.1
		c0.2,0,0.5-0.2,0.6-0.4c0.1-0.3,0.1-0.6,0-1.1l-0.7-2.5c-0.2-0.7-0.4-1.5-0.6-1.7c0,0,0.3-0.1,0.8-0.2c0.4-0.1,0.6-0.2,0.8-0.2
		c-0.1,0.4,0.2,1.5,0.3,1.9L293,259.1z"/>
	<path class="st4" d="M299,258.6c0.1,0,0.3,0.1,0.4,0c0,0.1-0.1,0.2-0.2,0.4c-0.5,0.6-1,0.5-1.2,0.4c-0.9-0.4-2.5-1.8-2.6-1.9
		c0,0,0,0,0-0.1l0.1,0c0.2-0.1,0.5-0.4,0.6-0.6c0.2-0.4,0.1-0.7,0-1.2c-0.2-0.4-0.5-0.7-0.8-0.8c-0.4-0.1-0.7,0-0.8,0.1
		c0,0-0.2,0.1-0.3,0.1c0,0,0,0,0,0.2l1.2,3.4c0.2,0.5,0.5,1.5,0.8,1.6c0,0-0.3,0.1-0.8,0.3c-0.5,0.2-0.8,0.3-0.8,0.3
		c0.1-0.4-0.3-1.4-0.4-1.7l-0.8-2.3c-0.2-0.6-0.5-1.5-0.8-1.7c0,0,0.6-0.2,1.8-0.7c0.7-0.3,1.3-0.4,1.9-0.2c0.4,0.1,0.6,0.3,0.8,0.6
		c0.1,0.1,0.1,0.2,0.2,0.3c0,0.1,0.1,0.2,0.1,0.3c0.1,0.3,0,0.7-0.2,1.1c0,0-0.2,0.4-0.6,0.6C296.7,257.1,297.9,258.1,299,258.6"/>
	<rect x="238.8" y="165.7" class="st5" width="85.8" height="102.3"/>
</g>
<g>
	<path class="st1" d="M363.9,107.6h10.7V76.8c0-1.2,0-2.4,0.1-3.8l-7.6,6.4c-0.4,0.3-0.9,0.6-1.3,0.6c-0.4,0.1-0.8,0.1-1.2,0
		c-0.4-0.1-0.7-0.2-1-0.4c-0.3-0.2-0.5-0.4-0.7-0.6l-2.9-3.9l16.1-13.7h7.4v46.2h9.5v6.8h-29.2V107.6z"/>
	<path class="st1" d="M416.9,92.2c-0.2,0.4-0.5,0.6-1,0.6c-0.3,0-0.6-0.1-0.9-0.3s-0.7-0.4-1.2-0.6c-0.5-0.2-1.1-0.5-1.7-0.7
		s-1.5-0.3-2.4-0.3c-0.8,0-1.5,0.1-2.1,0.3c-0.6,0.2-1.2,0.5-1.6,0.8c-0.4,0.3-0.8,0.8-1,1.2c-0.2,0.5-0.4,1-0.4,1.5
		c0,0.7,0.2,1.2,0.6,1.7c0.4,0.5,0.9,0.8,1.6,1.2s1.4,0.6,2.2,0.9c0.8,0.3,1.7,0.5,2.5,0.8c0.9,0.3,1.7,0.6,2.5,1
		c0.8,0.3,1.6,0.8,2.2,1.3s1.2,1.2,1.6,1.9c0.4,0.8,0.6,1.7,0.6,2.7c0,1.2-0.2,2.4-0.7,3.4c-0.4,1-1.1,1.9-1.9,2.7s-1.9,1.4-3.1,1.8
		c-1.2,0.4-2.7,0.7-4.3,0.7c-1.9,0-3.5-0.3-5-0.9c-1.5-0.6-2.8-1.4-3.8-2.3l1.1-1.8c0.1-0.2,0.3-0.4,0.5-0.5
		c0.2-0.1,0.4-0.2,0.7-0.2c0.3,0,0.6,0.1,1,0.4c0.3,0.2,0.8,0.5,1.3,0.8c0.5,0.3,1.1,0.6,1.8,0.8s1.6,0.4,2.7,0.4
		c0.9,0,1.7-0.1,2.4-0.4c0.7-0.2,1.2-0.6,1.7-1c0.5-0.4,0.8-0.9,1-1.4s0.3-1.1,0.3-1.7c0-0.7-0.2-1.3-0.6-1.8s-0.9-0.9-1.6-1.2
		s-1.4-0.6-2.2-0.9c-0.8-0.3-1.7-0.5-2.5-0.8s-1.7-0.6-2.5-1c-0.8-0.4-1.6-0.8-2.2-1.4c-0.6-0.5-1.2-1.2-1.6-2
		c-0.4-0.8-0.6-1.8-0.6-2.9c0-1,0.2-2,0.6-2.9c0.4-0.9,1-1.8,1.8-2.5c0.8-0.7,1.8-1.3,3-1.7c1.2-0.4,2.5-0.6,4-0.6
		c1.7,0,3.3,0.3,4.7,0.8s2.6,1.3,3.6,2.3L416.9,92.2z"/>
	<path class="st1" d="M432.3,114.8c-2.1,0-3.7-0.6-4.8-1.8c-1.1-1.2-1.7-2.9-1.7-5.1V91.7h-3.2c-0.3,0-0.5-0.1-0.7-0.2
		c-0.2-0.2-0.3-0.4-0.3-0.8v-1.9l4.4-0.6l1.1-8.2c0.1-0.3,0.2-0.5,0.4-0.6s0.4-0.2,0.7-0.2h2.4v9.2h7.7v3.4h-7.7v15.9
		c0,1.1,0.3,1.9,0.8,2.5s1.2,0.8,2.1,0.8c0.5,0,0.9-0.1,1.3-0.2c0.4-0.1,0.7-0.3,0.9-0.4c0.3-0.2,0.5-0.3,0.7-0.4
		c0.2-0.1,0.3-0.2,0.5-0.2c0.2,0,0.5,0.1,0.7,0.4l1.4,2.2c-0.8,0.8-1.8,1.3-2.9,1.8C434.6,114.6,433.5,114.8,432.3,114.8z"/>
</g>
<g>
	<path class="st2" d="M333,222.3c0.2-0.3,0.5-0.6,0.7-0.9c0.2-0.3,0.4-0.6,0.6-0.8c-0.7,0.4-1.5,0.8-2.3,1c-0.8,0.2-1.7,0.3-2.6,0.3
		c-1,0-2.1-0.2-3.1-0.5c-1-0.4-1.9-0.9-2.7-1.6c-0.8-0.7-1.4-1.6-1.9-2.7c-0.5-1.1-0.7-2.3-0.7-3.8c0-1.3,0.2-2.6,0.8-3.8
		s1.2-2.2,2.1-3.1c0.9-0.9,2-1.6,3.2-2.1c1.3-0.5,2.7-0.8,4.2-0.8c1.5,0,2.9,0.2,4.2,0.7c1.2,0.5,2.3,1.2,3.1,2
		c0.9,0.9,1.5,1.9,2,3.1s0.7,2.6,0.7,4c0,0.9-0.1,1.8-0.2,2.6c-0.2,0.8-0.4,1.6-0.7,2.4c-0.3,0.8-0.6,1.5-1.1,2.3
		c-0.4,0.7-0.9,1.5-1.4,2.2l-6.9,9.8c-0.2,0.3-0.6,0.6-1.1,0.8c-0.5,0.2-1,0.3-1.6,0.3h-4.7L333,222.3z M336.4,213
		c0-0.8-0.1-1.6-0.4-2.2s-0.6-1.2-1.1-1.6s-1-0.8-1.6-1c-0.6-0.2-1.3-0.4-2.1-0.4c-0.8,0-1.5,0.1-2.1,0.4c-0.6,0.3-1.2,0.6-1.6,1.1
		s-0.8,1-1,1.6c-0.2,0.6-0.4,1.3-0.4,2.1c0,1.7,0.4,3,1.3,3.8c0.9,0.9,2.1,1.3,3.7,1.3c0.8,0,1.6-0.1,2.2-0.4
		c0.7-0.3,1.2-0.6,1.6-1.1c0.4-0.5,0.8-1,1-1.6C336.3,214.4,336.4,213.7,336.4,213z"/>
	<path class="st2" d="M350.6,234.3c-1.3,0-2.2-0.4-2.9-1.1c-0.7-0.7-1-1.7-1-3.1v-9.8h-1.9c-0.2,0-0.3,0-0.4-0.1
		c-0.1-0.1-0.2-0.3-0.2-0.5v-1.1l2.6-0.3l0.6-5c0-0.2,0.1-0.3,0.2-0.4c0.1-0.1,0.3-0.2,0.4-0.2h1.4v5.5h4.6v2h-4.6v9.6
		c0,0.7,0.2,1.2,0.5,1.5c0.3,0.3,0.7,0.5,1.3,0.5c0.3,0,0.6,0,0.8-0.1s0.4-0.2,0.6-0.3c0.2-0.1,0.3-0.2,0.4-0.3
		c0.1-0.1,0.2-0.1,0.3-0.1c0.1,0,0.3,0.1,0.4,0.3l0.8,1.3c-0.5,0.5-1.1,0.8-1.8,1.1C352,234.1,351.3,234.3,350.6,234.3z"/>
	<path class="st2" d="M357,234v-23.3h2.8v9.4c0.7-0.7,1.4-1.3,2.3-1.7s1.8-0.7,2.9-0.7c0.9,0,1.6,0.1,2.3,0.4s1.2,0.7,1.7,1.2
		s0.8,1.2,1,1.9s0.3,1.6,0.3,2.5V234h-2.8v-10.2c0-1.2-0.3-2.2-0.8-2.8c-0.6-0.7-1.4-1-2.5-1c-0.8,0-1.6,0.2-2.3,0.6
		c-0.7,0.4-1.4,0.9-2,1.6V234H357z"/>
</g>
<g>
	<path class="st0" d="M281.4,14.3c17.7,0,34.9,3.6,51,10.8c3.3,13.6,5.5,27.9,5.5,37.2c0,0.2,0,0.3,0,0.5c0,9.2-1.3,18.2-3.9,26.7
		c-2.6,8.4-6.4,16.3-11.3,23.6c-4.9,7.2-10.9,13.7-17.9,19.5c-7.4,6.2-16.1,11.7-23.4,14.9c-7.2-3.2-16-8.7-23.4-14.9
		c-7-5.8-13-12.4-17.9-19.5c-5-7.3-8.8-15.2-11.3-23.6c-2.6-8.5-3.9-17.5-3.9-26.7c0-0.2,0-0.3,0-0.5c0-9.3,2.2-23.5,5.5-37.2
		C246.5,18,263.7,14.3,281.4,14.3"/>
	<path class="st6" d="M281.4,66.8c3.9,0,7.6,1,10.8,2.8h32.9c0.1-2.3,0-4.9,0-7.3c-0.2-10.1-3.1-27.1-6-38.9
		c-11.7-3.8-24.2-6-37.7-6L281.4,66.8z"/>
	<path class="st7" d="M281.4,17.4c-13.2,0-25.4,2-37.7,5.9c-3,12.2-5.5,28.4-5.9,36.2c-0.6,11.4,0.3,19.6,2.6,28.7
		c1.3,5.1,3,9.8,5.1,14.6c2.3-1.2,4.8-2.8,7.2-4.6c2.6-1.9,4.8-4.4,6.7-6.7c-0.1-0.8-0.1-1.7-0.1-2.6c0-1.3,0.1-2.6,0.3-3.9
		c-4.6,0.2-7.1,0.2-9.2,0.2c-2.5,0-4.7-1.7-5.8-4.3h-1.2c-0.9,0-2.3-0.7-2.3-3.5c0-2.8,1.5-3.5,2.3-3.5h1.2c1.1-2.6,3.3-4.3,5.8-4.3
		h20.2c3.2-1.8,6.9-2.8,10.8-2.8L281.4,17.4z"/>
	<path class="st8" d="M261.4,128.3c-6.2-6.2-11.4-13.1-15.4-20.4c-4.1-7.4-7.1-15.7-8.8-24c-1.8-8.5-2.3-17.1-1.7-26.2
		c0.6-8.6,2.8-21.5,5.6-33.6c-2.7,0.9-5.3,2-7.9,3.1c-2.9,11.8-5,26.8-5,35c0,9.1,1.3,18,3.8,26.3c2.7,8.7,6.2,15.8,10.9,22.7
		c4.7,6.9,10.5,13.3,17.3,18.9c6.3,5.2,13.5,9.9,21.4,13.7l0,0C273.9,139.4,267.2,134.1,261.4,128.3"/>
	<path class="st8" d="M301.5,128.3c6.2-6.2,11.4-13.1,15.4-20.4c4.1-7.4,7.1-15.7,8.8-24c1.8-8.5,2.3-17.1,1.8-26.2
		c-0.6-8.6-2.8-21.6-5.6-33.6c2.7,0.9,5.3,2,8,3.1c2.9,11.8,5,26.8,5,35c0,9.1-1.3,18-3.8,26.3c-2.5,8.1-6.2,15.7-10.9,22.7
		c-4.7,6.9-10.5,13.3-17.3,18.9c-6.3,5.2-13.5,9.9-21.4,13.7l0,0C288.9,139.4,295.6,134.1,301.5,128.3"/>
	<path class="st9" d="M281.4,67.9c-11.6,0-21.1,9.4-21.1,21.1c0,11.6,9.4,21.1,21.1,21.1c11.6,0,21.1-9.4,21.1-21.1
		C302.5,77.3,293,67.9,281.4,67.9"/>
	<path class="st7" d="M281.4,111.1c-7.2,0-13.5-3.4-17.6-8.7c-5,2.8-10.1,5.1-15.1,6.6c3.9,6.9,8.8,13.4,14.7,19.3
		c5.3,5.3,11.3,10.2,18,14.5V111.1z"/>
	<path class="st9" d="M250.4,84.2c-2.3,0-4.2-1.8-5-4.3h-1.9c-0.5,0-1.2-0.6-1.2-2.4c0-1.8,0.7-2.4,1.2-2.4h1.9
		c0.8-2.5,2.7-4.3,5-4.3h18.4c-4.5,3.1-7.8,7.8-9,13.2C255.7,84.1,252.6,84.2,250.4,84.2"/>
	<path class="st9" d="M332.9,24.7c-15.6-7-32.9-11-51.5-11c-18.6,0-35.8,4-51.5,11c-3.6,14.6-5.5,28.8-5.6,37.6
		c0,9.4,1.3,18.6,4,27.4c2.6,8.4,6.4,16.4,11.4,23.7c4.9,7.2,11,13.8,18,19.6c6.6,5.5,15.6,11.5,23.7,15c8.2-3.5,17.1-9.5,23.7-15
		c7-5.8,13.1-12.4,18-19.6c5-7.3,8.8-15.3,11.4-23.7c2.7-8.7,4-17.9,4-27.4C338.4,53.5,336.5,39.3,332.9,24.7 M320.1,111.3
		c-4.7,6.9-10.5,13.3-17.3,18.9c-6.3,5.2-13.5,9.9-21.4,13.7c-7.8-3.9-15.1-8.5-21.4-13.7c-6.8-5.6-12.6-12-17.3-18.9
		c-0.4-0.5-0.7-1.1-1.1-1.7c6.9-1.2,14.5-4.1,21.5-8.1c-1.8-2.5-3-5.4-3.6-8.6c-1.8,2.2-3.9,4.4-6.3,6.1c-3.9,2.9-8.6,5.8-13.6,7.3
		c-3.3-5.6-6-11.7-7.9-17.9c-2.5-8.3-3.8-17.1-3.8-26.3c0-8.2,2.1-23.1,5-34.9c15.3-6.6,31.6-10,48.3-10c16.8,0,33.1,3.4,48.3,10
		c2.9,11.8,5,26.8,5,34.9c0,2.8-0.1,5.6-0.3,8.4H294c5,3.5,8.5,8.9,9.4,15.2l7.7-1.8c1.7-0.4,2.4-1.6,2.6-2.6l19.4-1.3
		c-0.6,2.9-1.3,5.7-2.1,8.4C328.5,96.6,324.9,104.3,320.1,111.3"/>
	<path class="st0" d="M282.8,94.8v11.3c5.3-0.4,9.9-3.2,12.8-7.4l-9.8-5.7C285,93.9,283.9,94.5,282.8,94.8"/>
	<path class="st0" d="M280,71.8c-5.3,0.4-9.9,3.2-12.8,7.4l9.8,5.7c0.8-0.8,1.8-1.4,3-1.7V71.8z"/>
	<path class="st0" d="M281.4,85.9c-1.7,0-3.1,1.4-3.1,3.1c0,1.7,1.4,3.1,3.1,3.1c1.7,0,3.1-1.4,3.1-3.1
		C284.5,87.3,283.1,85.9,281.4,85.9"/>
	<path class="st0" d="M282.8,71.8v11.3c1.2,0.3,2.2,0.9,3,1.7l9.8-5.7C292.7,75,288.1,72.2,282.8,71.8"/>
	<path class="st0" d="M280,94.8c-0.9-0.2-1.8-0.7-2.5-1.3c-0.2-0.1-0.3-0.3-0.5-0.4l-9.8,5.7c0.2,0.3,0.5,0.6,0.7,0.9
		c2.9,3.6,7.2,6,12.1,6.4V94.8z"/>
	<path class="st0" d="M287.2,90.7l9.8,5.7c1.9-4,2.5-9.6,0-14.8l-9.8,5.7C287.5,88.3,287.5,89.5,287.2,90.7"/>
	<path class="st9" d="M268.9,78.8l8,4.6c0.6-0.5,1.3-0.9,2-1.2V73C274.9,73.6,271.4,75.7,268.9,78.8"/>
	<path class="st9" d="M283.9,73.1l0,9.3c0.7,0.3,1.4,0.6,2,1.1l8-4.6C291.4,75.7,287.9,73.6,283.9,73.1"/>
	<path class="st9" d="M297.5,87.3c-0.1-1.4-0.5-2.8-1-4.1l-8,4.6c0.1,0.4,0.1,0.8,0.1,1.2c0,0.1,0,0.3,0,0.5
		c2.3-0.6,4.7-1.2,7.1-1.7C296.2,87.6,296.8,87.4,297.5,87.3"/>
	<path class="st6" d="M281.4,142.8c6.7-4.3,12.8-9.2,18.1-14.5c6.2-6.2,11.3-13.1,15.4-20.5c4.1-7.5,7-15.8,8.7-24.1
		c0.1-0.6,0.3-1.3,0.4-1.9l-9.3,0.7c-0.5,1.3-1.6,2.3-3.2,2.6l0,0c-0.1,0-3.5,0.9-7.9,1.9c0.1,0.6,0.1,1.3,0.1,1.9
		c0,12.2-9.9,22.2-22.1,22.2V142.8z"/>
	<path class="st9" d="M283.4,89c0-1.1-0.9-2-2-2c-1.1,0-2,0.9-2,2c0,1.1,0.9,2,2,2C282.5,90.9,283.4,90.1,283.4,89"/>
	<path class="st6" d="M283.9,104.9c4-0.6,7.5-2.7,10.1-5.8l-8.1-4.6c-0.6,0.5-1.3,0.9-2,1.2C283.9,95.6,283.9,104.9,283.9,104.9"/>
	<path class="st7" d="M268.9,99.1l8-4.6c0.6,0.5,1.3,0.9,2,1.2l0,9.3C274.9,104.3,271.4,102.2,268.9,99.1"/>
	<path class="st6" d="M297.5,89c0-0.2,0-0.4,0-0.7c-0.6,0.1-1.2,0.3-1.7,0.4c-2.4,0.5-4.8,1.1-6.9,1.7l7.6,4.4
		C297.2,92.9,297.5,91,297.5,89"/>
	<path class="st0" d="M265.8,81.6c-2.3,4.8-2.1,10.2,0,14.8l9.8-5.7c-0.3-1.1-0.3-2.3,0-3.4L265.8,81.6z"/>
	<path class="st9" d="M266.4,94.8l8-4.6c-0.1-0.8-0.1-1.6,0-2.4l-8-4.6C264.9,86.9,264.9,91.1,266.4,94.8"/>
	<path class="st9" d="M289.4,52.9c0,0.4-0.1,1.9-0.2,2.3h6.4c-0.4-1.7-0.5-4.1-0.6-5.8l-0.1-3.7c0-0.4,0.1-0.6,0.3-0.9
		c0.2-0.2,0.4-0.3,0.7-0.3c0.3,0,0.8,0,0.8,1l0.1,3.9c0.1,1.8,0.1,4.2-0.1,5.7h6.2c-0.1-0.5-0.3-1.8-0.3-2.2
		c0.8,1.7,2.5,2.5,4.7,2.5c1.3,0,2.4-0.5,3.1-0.9c0,0.1,0.3,0.6,0.3,0.6h11.5c-0.5-1.7-0.8-4.1-1-5.9l-1.6-12.9l-5.9-0.9
		c0.5,1.6,0.8,4.1,1,5.8c0,0,0.9,8.2,0.9,8.2c0.2,1.5,0.3,3.1,0.3,4.7v0.2l-0.2-0.6c-0.4-1-0.7-2.4-0.8-4.3c0,0-0.2-2.6-0.2-2.6
		c-0.3-4.2-2.6-6.1-7.6-6.1c-0.9,0-3,0.2-4.3,0.6l0.3,4.8l1.3-0.8c1.1-0.7,2-0.9,2.9-0.9c0.8,0,1.3,0.3,1.5,0.8
		c-1,0.2-2,0.4-3.2,0.9c-1.8,0.8-2.9,1.9-3.4,3.3c0,0,0-0.1,0-0.1c0,0-0.2-4.4-0.2-4.4c-0.1-2.8-1.9-4.6-4.6-4.6
		c-1.3,0-2.4,0.4-3.3,1c-0.1-0.2-0.1-0.3-0.2-0.5l-0.2-0.5l-5.1-0.2c0.2,0.9,0.5,3.5,0.6,4.5c-0.3-1.4-1-2.9-2.4-3.8
		c-1-0.7-2.4-1.1-3.8-1.1c-1.9,0-3.8,0.8-5.1,2.1c-1.3,1.3-2,3.1-2.1,5.2c-0.5-0.5-1.1-1-1.9-1.4l-2.4-1.1l-0.1-0.1
		c-0.6-0.3-0.6-0.3-0.6-0.5c0-0.2,0.6-0.5,1.3-0.5c1,0,2.4,0.5,3.5,1.2l0.1-4.2c-0.8-0.4-2-0.7-3.7-0.7c-0.9,0-2.5,0.1-4,0.9
		c-0.4,0.2-0.7,0.5-1.1,0.8l0.1-1.2c-1.4-0.2-2.8-0.2-4.6,1.5c0-0.1-0.1-0.7-0.2-1l-5.5,0.3c0.4,1.5,0.5,3.7,0.3,5.7l-0.1,2.1l0,0.2
		c-0.1,1.1-0.1,2.2-0.2,3.3c-0.5-1.4-1-3.4-1.3-5l-2.7-12.3l-7.8,1.1c0.1,0.2,0.2,0.6,0.2,0.9c0.1,0.5,0,1.6-0.7,3.7
		c-1.3,3.6-3,9-4.8,12.7c-0.2,0.5-0.6,1.4-0.6,1.4h6.1c0.1-0.9,0.5-2.5,0.9-3.7c0.8,0,3-0.1,4.1-0.1c0.2,0.9,0.4,2.1,0.5,2.9
		l0.1,0.9h12.2c-0.3-1.9-0.2-4.6-0.1-6.1c0.1-1.7,0.4-2.8,1.2-3.5c0.5-0.6,1.2-0.7,1.7-0.7c-0.1,2.3,1.4,3.3,2.8,4l2.4,1.2
		c0.9,0.4,0.8,0.7,0.8,0.8c0,0.5-0.7,0.6-1.4,0.6c-1.3,0-3-0.9-4.9-2.9l-0.1,5.4c1.5,0.9,3.4,1.2,5.1,1.2c2.8,0,5.7-1.2,6.5-3.8
		c1.4,2.6,4.1,3.8,6.8,3.8C286.1,55.3,287.9,54.5,289.4,52.9 M247.6,47.4c0.3-0.9,0.6-1.6,1.1-3.2c0.3,1.5,0.5,2.3,0.7,3.1
		C248.7,47.4,248.4,47.4,247.6,47.4 M281.7,46.1L281.7,46.1c0-1.9,0.7-2.6,1.3-2.7c0.2,0,0.7-0.1,1,0.8c0.1,0.3,0.1,0.6,0.1,0.8
		c0,0.5-0.3,0.6-0.6,0.7l0,0c0,0-0.9,0.4-1.8,0.7C281.7,46.3,281.7,46.2,281.7,46.1 M288,49.9c-1.1,1-2,1.6-3.4,1.6
		c-1.1,0-1.8-0.7-2.2-1.6c1.2-0.4,5.7-2.1,7-2.6c0,0.9,0,2.2,0,2.2v0c0,0.7,0,1.5,0,2.2c0,0,0,0,0,0L288,49.9z M308.8,51.6
		c-1.1,0-1.3-0.7-1.3-1.2c0-0.5,0.2-1.4,1.9-1.8c0,0.6,0.1,1.2,0.1,1.2l0,0.5c0,0.4,0,0.7,0.1,1.1C309.4,51.5,309.1,51.6,308.8,51.6
		"/>
	<path class="st0" d="M275,41.3c-0.5-0.2-1.4-0.4-2.7-0.4c-1.1,0-2.4,0.2-3.5,0.8c-1.2,0.7-2.1,1.8-2.2,3c-0.1,1.8,0.9,2.6,2.2,3.3
		c0.9,0.5,1.8,0.9,2.4,1.2c0.8,0.4,1.4,0.9,1.3,1.8c-0.1,0.9-0.9,1.5-2.3,1.5c-1.2,0-2.8-0.7-4-1.7l-0.1,2.7c1,0.5,2.6,0.8,4.1,0.8
		c2.6,0,5.7-1.2,5.8-4.2c0-2.1-1.5-3-2.5-3.5c-0.9-0.4-1.9-0.9-2.4-1.1c-0.4-0.2-1.3-0.5-1.2-1.5c0.1-0.9,1.1-1.4,2.3-1.4
		c1,0,1.9,0.3,2.6,0.7L275,41.3z"/>
	<path class="st0" d="M252.1,36.4l-5.9,0.8c0.1,0.8-0.1,2.3-0.7,4.2c-1.2,3.6-3.2,9.4-4.8,12.8h3.7c0.2-1.1,0.5-2.2,1-3.7l5.5-0.1
		c0.2,1.1,0.6,2.8,0.7,3.8h4.9c-0.6-1.4-1.4-4.4-1.9-6.5L252.1,36.4z M246.2,48.4l2.7-7.7l1.6,7.6L246.2,48.4z"/>
	<path class="st0" d="M266.3,41.4l-0.1,2.6c-0.9-0.1-2,0.1-2.9,1c-0.8,0.8-1.3,2-1.4,4.1c-0.1,1.7-0.2,3.6,0,5.2h-4.2
		c0.3-1.6,0.4-3.4,0.5-5.1l0.1-2.1c0.1-1.7,0.1-3.3-0.2-4.9l3.7-0.2c0.2,0.6,0.3,1.4,0.2,2.4C263.6,41.8,265.1,41.3,266.3,41.4"/>
	<path class="st0" d="M318.8,37.2l-3.8-0.6c0.4,1.6,0.5,2.8,0.7,4.6l0.9,8.2c0.2,1.7,0.3,3.3,0.3,4.8h4.1c-0.4-1.6-0.5-3.1-0.7-4.8
		L318.8,37.2z"/>
	<path class="st0" d="M301.9,54.2c-0.2-1.6-0.3-3.1-0.4-4.8l-0.2-4.4c-0.1-2.3-1.4-3.7-3.6-3.7c-1.2,0-2.7,0.4-3.9,2
		c0-0.3-0.2-1.4-0.5-1.9l-3.3-0.2c0.3,1.6,0.4,3.2,0.4,4.9l0,3.2c0.1,1.7,0,3.3-0.1,4.8h4.2c-0.2-1.6-0.3-3.1-0.4-4.8l-0.1-3.7
		c-0.1-1.3,0.9-2.1,1.9-2.2c1.2,0,1.7,0.8,1.8,1.9l0.1,3.9c0.1,1.7,0.1,3.3,0,4.8H301.9z"/>
	<path class="st0" d="M314.9,54.3c-0.5-1.2-0.8-2.9-0.9-4.6l-0.2-2.6c-0.2-3.1-1.5-5.2-6.7-5.2c-0.9,0-2.2,0.1-3.2,0.4l0.2,2.4
		c1-0.6,2.1-1.1,3.5-1.1c1.4,0,2.5,0.6,2.7,2.6c-1.3,0.1-2.6,0.4-4,1c-1.6,0.7-3.2,2-3,4.1c0.2,2.4,2,3.4,4.2,3.4
		c1.7,0,2.9-0.9,3.5-1.5c0.1,0.4,0.3,0.9,0.5,1.2H314.9z M308.8,52.5c-1.2,0.1-2.2-0.6-2.3-2.1c0-1.4,0.9-2.6,3.7-3l0.2,2.2
		c0.1,0.8,0.1,1.3,0.2,2.1C310.2,52.2,309.5,52.5,308.8,52.5"/>
	<path class="st0" d="M286.5,41.7c-0.9-0.6-2.1-0.9-3.2-0.9c-2.7,0-6.4,1.9-6.3,7c0.1,5.1,4,6.6,6.7,6.6c2.4,0,3.9-0.8,5-2.1
		l-0.8-1.1c-0.6,0.5-1.6,1.3-3.3,1.2c-1.7,0-2.8-1.3-3.4-3.1l7.5-2.8C288.5,44,287.6,42.5,286.5,41.7 M283.8,46.6l-3,1.2
		c-0.1-0.5-0.1-1.1-0.1-1.7c0-3.1,1.7-3.6,2.2-3.6c0.9-0.1,1.7,0.4,2,1.5C285.2,45.2,285.1,46.1,283.8,46.6"/>
</g>
<g>
</g>
<g>
</g>
<g>
</g>
<g>
</g>
<g>
</g>
<g>
</g>
</svg>
