<?xml version="1.0" encoding="utf-8"?>
<!-- Generator: Adobe Illustrator 21.0.2, SVG Export Plug-In . SVG Version: 6.00 Build 0)  -->
<!DOCTYPE svg PUBLIC "-//W3C//DTD SVG 1.1//EN" "http://www.w3.org/Graphics/SVG/1.1/DTD/svg11.dtd">
<svg version="1.1" xmlns="http://www.w3.org/2000/svg" xmlns:xlink="http://www.w3.org/1999/xlink" x="0px" y="0px"
	 viewBox="0 0 487.1 429.2" style="enable-background:new 0 0 487.1 429.2;" xml:space="preserve">
<style type="text/css">
	.st0{fill:#FFFFFF;}
	.st1{fill:#5EA9DE;}
	.st2{fill:#ADADAD;}
	.st3{fill:#1D2C4D;}
	.st4{fill:none;}
	.st5{fill:#CA123F;}
	.st6{fill:#E10F1E;}
	.st7{fill:#163C66;}
	.st8{fill:#A0853B;}
</style>
<g id="Stats">
</g>
<g id="_x39_6">
	<rect x="0.1" class="st0" width="486" height="428.7"/>
	<g>
		<g>
			<path class="st1" d="M17.3,177.3c0.5,0.5,1.1,0.8,1.8,0.8c0.7,0,1.4-0.2,1.8-0.6c0.5-0.4,0.9-1,1.2-1.6c0.3-0.6,0.5-1.3,0.6-2
				c0.1-0.7,0.2-1.3,0.2-1.9l-0.1-0.1c-0.6,0.8-1.2,1.4-2,1.7c-0.8,0.3-1.6,0.5-2.6,0.5c-0.9,0-1.7-0.2-2.5-0.6
				c-0.8-0.4-1.5-0.9-2.1-1.5c-0.5-0.6-0.9-1.3-1.2-2.1s-0.4-1.6-0.4-2.4c0-1,0.2-2,0.5-2.9c0.3-0.9,0.8-1.7,1.4-2.3
				s1.4-1.2,2.2-1.6s1.8-0.6,2.9-0.6c1.5,0,2.8,0.3,3.8,0.9s1.8,1.4,2.4,2.4c0.6,1,1,2.1,1.2,3.4c0.2,1.2,0.3,2.5,0.3,3.8
				c0,1.2-0.1,2.5-0.4,3.7c-0.3,1.3-0.8,2.4-1.4,3.4c-0.6,1-1.5,1.8-2.5,2.5c-1,0.6-2.2,0.9-3.7,0.9c-0.9,0-1.7-0.1-2.4-0.4
				s-1.4-0.6-2-1.1c-0.6-0.5-1-1.1-1.4-1.8c-0.4-0.7-0.6-1.5-0.7-2.4h3.9C16.5,176.2,16.8,176.8,17.3,177.3z M20.8,170.7
				c0.4-0.2,0.7-0.5,1-0.8c0.3-0.3,0.5-0.7,0.6-1.2c0.1-0.5,0.2-0.9,0.2-1.4c0-0.5-0.1-0.9-0.2-1.4s-0.4-0.9-0.6-1.2
				c-0.3-0.4-0.6-0.6-1-0.9c-0.4-0.2-0.9-0.3-1.4-0.3c-0.5,0-0.9,0.1-1.3,0.3c-0.4,0.2-0.7,0.5-1,0.8c-0.3,0.3-0.5,0.7-0.6,1.2
				c-0.1,0.4-0.2,0.9-0.2,1.4c0,0.5,0.1,0.9,0.2,1.4c0.1,0.5,0.3,0.9,0.6,1.2c0.2,0.4,0.6,0.6,1,0.9c0.4,0.2,0.9,0.3,1.4,0.3
				C19.9,171,20.4,170.9,20.8,170.7z"/>
			<path class="st1" d="M37.8,163.9c-0.5-0.5-1.1-0.8-1.8-0.8c-0.7,0-1.3,0.2-1.8,0.6c-0.5,0.4-0.9,1-1.2,1.6s-0.5,1.3-0.6,2
				c-0.1,0.7-0.2,1.3-0.2,1.9l0.1,0.1c0.6-0.8,1.2-1.4,2-1.7c0.7-0.3,1.6-0.5,2.6-0.5c0.9,0,1.7,0.2,2.5,0.6
				c0.8,0.4,1.5,0.9,2.1,1.5c0.5,0.6,0.9,1.3,1.2,2.1c0.2,0.8,0.4,1.6,0.4,2.4c0,1-0.2,2-0.5,2.9s-0.8,1.7-1.4,2.3
				c-0.6,0.7-1.4,1.2-2.2,1.6s-1.8,0.6-2.9,0.6c-1.5,0-2.8-0.3-3.8-0.9c-1-0.6-1.8-1.4-2.4-2.4c-0.6-1-1-2.1-1.2-3.3
				c-0.2-1.2-0.3-2.5-0.3-3.8c0-1.2,0.1-2.5,0.4-3.7c0.3-1.2,0.8-2.4,1.4-3.4c0.6-1,1.5-1.8,2.5-2.5c1-0.6,2.2-1,3.7-1
				c0.9,0,1.7,0.1,2.4,0.4c0.7,0.2,1.4,0.6,2,1.1c0.6,0.5,1,1.1,1.4,1.7c0.4,0.7,0.6,1.5,0.7,2.4h-3.9
				C38.6,165,38.3,164.4,37.8,163.9z M34.4,170.5c-0.4,0.2-0.8,0.5-1,0.8c-0.3,0.3-0.5,0.7-0.6,1.2c-0.1,0.5-0.2,0.9-0.2,1.4
				c0,0.5,0.1,0.9,0.2,1.4c0.1,0.5,0.4,0.9,0.6,1.2s0.6,0.6,1,0.9c0.4,0.2,0.9,0.3,1.4,0.3c0.5,0,0.9-0.1,1.3-0.3
				c0.4-0.2,0.7-0.5,1-0.8c0.3-0.3,0.5-0.7,0.6-1.2c0.1-0.4,0.2-0.9,0.2-1.4c0-0.5-0.1-0.9-0.2-1.4c-0.1-0.5-0.3-0.9-0.6-1.2
				c-0.2-0.4-0.6-0.6-1-0.9c-0.4-0.2-0.9-0.3-1.4-0.3C35.3,170.2,34.8,170.3,34.4,170.5z"/>
		</g>
	</g>
	<g>
		<g>
			<path class="st2" d="M16.2,214.7c0.1,0.8,0.4,1.5,0.9,2c0.5,0.5,1.2,0.8,2.1,0.8c0.9,0,1.6-0.2,2.1-0.7c0.5-0.5,0.9-1.1,1.2-1.8
				c0.3-0.7,0.5-1.5,0.6-2.2s0.2-1.5,0.2-2.2l-0.1-0.1c-0.4,0.8-1,1.4-1.8,1.8c-0.8,0.4-1.6,0.6-2.5,0.6c-1,0-1.8-0.2-2.6-0.5
				c-0.8-0.3-1.4-0.8-2-1.4c-0.6-0.6-1-1.3-1.3-2.1s-0.5-1.8-0.5-2.8c0-1,0.2-1.9,0.5-2.7c0.3-0.8,0.8-1.6,1.4-2.2
				c0.6-0.6,1.3-1.1,2.2-1.5c0.9-0.3,1.8-0.5,2.9-0.5c1.4,0,2.6,0.3,3.5,0.8c0.9,0.5,1.6,1.3,2.2,2.2c0.5,1,0.9,2.1,1.1,3.4
				c0.2,1.3,0.3,2.7,0.3,4.1c0,1.2-0.1,2.4-0.4,3.7c-0.3,1.2-0.7,2.4-1.3,3.4c-0.6,1-1.4,1.8-2.4,2.5c-1,0.6-2.2,1-3.6,1
				c-0.8,0-1.6-0.1-2.3-0.4c-0.7-0.3-1.3-0.6-1.9-1.1c-0.5-0.5-1-1.1-1.3-1.7c-0.3-0.7-0.5-1.4-0.6-2.2H16.2z M19.3,201.9
				c-0.6,0-1.1,0.1-1.6,0.3c-0.4,0.2-0.8,0.5-1.1,0.9s-0.5,0.8-0.6,1.3s-0.2,1-0.2,1.6c0,0.6,0.1,1.1,0.2,1.6c0.1,0.5,0.4,1,0.6,1.3
				c0.3,0.4,0.7,0.7,1.1,0.9c0.4,0.2,1,0.4,1.6,0.4c0.6,0,1.2-0.1,1.6-0.3s0.8-0.5,1.1-0.9c0.3-0.4,0.5-0.8,0.7-1.4
				c0.2-0.5,0.2-1,0.2-1.6c0-0.5-0.1-1.1-0.2-1.6s-0.4-0.9-0.7-1.3c-0.3-0.4-0.7-0.7-1.1-0.9S19.9,201.9,19.3,201.9z"/>
			<path class="st2" d="M28.6,199.6h13.8v2.7c-1.1,1.2-2,2.4-2.9,3.7c-0.9,1.3-1.6,2.6-2.3,4.1c-0.6,1.4-1.2,2.9-1.6,4.5
				s-0.7,3.3-0.8,5.1h-3.6c0.1-1.6,0.4-3.2,0.8-4.7c0.4-1.6,1-3.1,1.7-4.5c0.7-1.5,1.5-2.9,2.4-4.2s1.9-2.6,2.9-3.8H28.6V199.6z"/>
		</g>
	</g>
	<g>
		<g>
			<path class="st2" d="M16.2,253.7c0.1,0.8,0.4,1.5,0.9,2c0.5,0.5,1.2,0.8,2.1,0.8c0.9,0,1.6-0.2,2.1-0.7c0.5-0.5,0.9-1.1,1.2-1.8
				c0.3-0.7,0.5-1.5,0.6-2.2s0.2-1.5,0.2-2.2l-0.1-0.1c-0.4,0.8-1,1.4-1.8,1.8c-0.8,0.4-1.6,0.6-2.5,0.6c-1,0-1.8-0.2-2.6-0.5
				c-0.8-0.3-1.4-0.8-2-1.4c-0.6-0.6-1-1.3-1.3-2.1s-0.5-1.8-0.5-2.8c0-1,0.2-1.9,0.5-2.7c0.3-0.8,0.8-1.6,1.4-2.2
				c0.6-0.6,1.3-1.1,2.2-1.5c0.9-0.3,1.8-0.5,2.9-0.5c1.4,0,2.6,0.3,3.5,0.8c0.9,0.5,1.6,1.3,2.2,2.2c0.5,1,0.9,2.1,1.1,3.4
				c0.2,1.3,0.3,2.7,0.3,4.1c0,1.2-0.1,2.4-0.4,3.7c-0.3,1.2-0.7,2.4-1.3,3.4c-0.6,1-1.4,1.8-2.4,2.5c-1,0.6-2.2,1-3.6,1
				c-0.8,0-1.6-0.1-2.3-0.4c-0.7-0.3-1.3-0.6-1.9-1.1c-0.5-0.5-1-1.1-1.3-1.7c-0.3-0.7-0.5-1.4-0.6-2.2H16.2z M19.3,241
				c-0.6,0-1.1,0.1-1.6,0.3c-0.4,0.2-0.8,0.5-1.1,0.9s-0.5,0.8-0.6,1.3s-0.2,1-0.2,1.6c0,0.6,0.1,1.1,0.2,1.6c0.1,0.5,0.4,1,0.6,1.3
				c0.3,0.4,0.7,0.7,1.1,0.9c0.4,0.2,1,0.4,1.6,0.4c0.6,0,1.2-0.1,1.6-0.3s0.8-0.5,1.1-0.9c0.3-0.4,0.5-0.8,0.7-1.4
				c0.2-0.5,0.2-1,0.2-1.6c0-0.5-0.1-1.1-0.2-1.6s-0.4-0.9-0.7-1.3c-0.3-0.4-0.7-0.7-1.1-0.9S19.9,241,19.3,241z"/>
			<path class="st2" d="M35.6,259.2c-1,0-2-0.1-2.8-0.4c-0.9-0.3-1.6-0.7-2.3-1.3c-0.6-0.5-1.1-1.2-1.5-2c-0.4-0.8-0.5-1.7-0.5-2.7
				c0-1.3,0.3-2.3,1-3.2c0.7-0.9,1.6-1.4,2.7-1.7v-0.1c-0.9-0.3-1.6-0.9-2.1-1.6c-0.5-0.7-0.7-1.6-0.7-2.6c0-1.7,0.5-3.1,1.6-4.1
				c1.1-1,2.6-1.5,4.7-1.5s3.6,0.5,4.7,1.5c1.1,1,1.6,2.3,1.6,4.1c0,1-0.2,1.8-0.7,2.6c-0.5,0.7-1.2,1.3-2.1,1.6v0.1
				c1.1,0.3,2,0.9,2.7,1.7c0.7,0.9,1,1.9,1,3.2c0,1-0.2,1.9-0.5,2.7c-0.4,0.8-0.9,1.5-1.5,2c-0.6,0.5-1.4,1-2.3,1.3
				C37.5,259.1,36.6,259.2,35.6,259.2z M35.6,256.6c1.1,0,2-0.3,2.7-1c0.7-0.7,1.1-1.6,1.1-2.8c0-1.1-0.4-2-1.1-2.6
				c-0.7-0.6-1.6-0.9-2.7-0.9c-1.1,0-2,0.3-2.7,0.9c-0.7,0.6-1.1,1.5-1.1,2.6c0,1.2,0.4,2.1,1.1,2.8
				C33.6,256.3,34.5,256.6,35.6,256.6z M35.6,240.8c-0.9,0-1.6,0.3-2.2,0.8c-0.6,0.5-0.9,1.3-0.9,2.3c0,1,0.3,1.7,0.9,2.2
				c0.6,0.5,1.4,0.8,2.3,0.8s1.7-0.3,2.3-0.8c0.6-0.5,0.9-1.2,0.9-2.2c0-1-0.3-1.8-0.9-2.3C37.2,241.1,36.5,240.8,35.6,240.8z"/>
		</g>
	</g>
	<g>
		<path class="st2" d="M16.2,292.8c0.1,0.8,0.4,1.5,0.9,2c0.5,0.5,1.2,0.8,2.1,0.8c0.9,0,1.6-0.2,2.1-0.7c0.5-0.5,0.9-1.1,1.2-1.8
			c0.3-0.7,0.5-1.5,0.6-2.2s0.2-1.5,0.2-2.2l-0.1-0.1c-0.4,0.8-1,1.4-1.8,1.8c-0.8,0.4-1.6,0.6-2.5,0.6c-1,0-1.8-0.2-2.6-0.5
			c-0.8-0.3-1.4-0.8-2-1.4c-0.6-0.6-1-1.3-1.3-2.1s-0.5-1.8-0.5-2.8c0-1,0.2-1.9,0.5-2.7c0.3-0.8,0.8-1.6,1.4-2.2
			c0.6-0.6,1.3-1.1,2.2-1.5c0.9-0.3,1.8-0.5,2.9-0.5c1.4,0,2.6,0.3,3.5,0.8c0.9,0.5,1.6,1.3,2.2,2.2c0.5,1,0.9,2.1,1.1,3.4
			c0.2,1.3,0.3,2.7,0.3,4.1c0,1.2-0.1,2.4-0.4,3.7c-0.3,1.2-0.7,2.4-1.3,3.4c-0.6,1-1.4,1.8-2.4,2.5c-1,0.6-2.2,1-3.6,1
			c-0.8,0-1.6-0.1-2.3-0.4c-0.7-0.3-1.3-0.6-1.9-1.1c-0.5-0.5-1-1.1-1.3-1.7c-0.3-0.7-0.5-1.4-0.6-2.2H16.2z M19.3,280
			c-0.6,0-1.1,0.1-1.6,0.3c-0.4,0.2-0.8,0.5-1.1,0.9s-0.5,0.8-0.6,1.3s-0.2,1-0.2,1.6c0,0.6,0.1,1.1,0.2,1.6c0.1,0.5,0.4,1,0.6,1.3
			c0.3,0.4,0.7,0.7,1.1,0.9c0.4,0.2,1,0.4,1.6,0.4c0.6,0,1.2-0.1,1.6-0.3s0.8-0.5,1.1-0.9c0.3-0.4,0.5-0.8,0.7-1.4
			c0.2-0.5,0.2-1,0.2-1.6c0-0.5-0.1-1.1-0.2-1.6s-0.4-0.9-0.7-1.3c-0.3-0.4-0.7-0.7-1.1-0.9S19.9,280,19.3,280z"/>
		<path class="st2" d="M32.2,292.8c0.1,0.8,0.4,1.5,0.9,2c0.5,0.5,1.2,0.8,2.1,0.8c0.9,0,1.6-0.2,2.1-0.7c0.5-0.5,0.9-1.1,1.2-1.8
			c0.3-0.7,0.5-1.5,0.6-2.2s0.2-1.5,0.2-2.2l-0.1-0.1c-0.4,0.8-1,1.4-1.8,1.8c-0.8,0.4-1.6,0.6-2.5,0.6c-1,0-1.8-0.2-2.6-0.5
			c-0.8-0.3-1.4-0.8-2-1.4c-0.6-0.6-1-1.3-1.3-2.1s-0.5-1.8-0.5-2.8c0-1,0.2-1.9,0.5-2.7c0.3-0.8,0.8-1.6,1.4-2.2
			c0.6-0.6,1.3-1.1,2.2-1.5c0.9-0.3,1.8-0.5,2.9-0.5c1.4,0,2.6,0.3,3.5,0.8c0.9,0.5,1.6,1.3,2.2,2.2c0.5,1,0.9,2.1,1.1,3.4
			c0.2,1.3,0.3,2.7,0.3,4.1c0,1.2-0.1,2.4-0.4,3.7c-0.3,1.2-0.7,2.4-1.3,3.4c-0.6,1-1.4,1.8-2.4,2.5c-1,0.6-2.2,1-3.6,1
			c-0.8,0-1.6-0.1-2.3-0.4c-0.7-0.3-1.3-0.6-1.9-1.1c-0.5-0.5-1-1.1-1.3-1.7c-0.3-0.7-0.5-1.4-0.6-2.2H32.2z M35.4,280
			c-0.6,0-1.1,0.1-1.6,0.3c-0.4,0.2-0.8,0.5-1.1,0.9s-0.5,0.8-0.6,1.3s-0.2,1-0.2,1.6c0,0.6,0.1,1.1,0.2,1.6c0.1,0.5,0.4,1,0.6,1.3
			c0.3,0.4,0.7,0.7,1.1,0.9c0.4,0.2,1,0.4,1.6,0.4c0.6,0,1.2-0.1,1.6-0.3s0.8-0.5,1.1-0.9c0.3-0.4,0.5-0.8,0.7-1.4
			c0.2-0.5,0.2-1,0.2-1.6c0-0.5-0.1-1.1-0.2-1.6s-0.4-0.9-0.7-1.3c-0.3-0.4-0.7-0.7-1.1-0.9S36,280,35.4,280z"/>
	</g>
	<g>
		<path class="st2" d="M19.5,316.3c1.4,0,2.6,0.3,3.5,1c0.9,0.7,1.6,1.5,2.1,2.5c0.5,1,0.9,2.2,1,3.4c0.2,1.2,0.3,2.4,0.3,3.6
			c0,1.2-0.1,2.3-0.3,3.6c-0.2,1.2-0.5,2.4-1,3.4c-0.5,1-1.2,1.9-2.1,2.5c-0.9,0.7-2.1,1-3.5,1c-1.4,0-2.6-0.3-3.5-1
			c-0.9-0.7-1.6-1.5-2.1-2.5c-0.5-1-0.9-2.2-1-3.4c-0.2-1.2-0.3-2.4-0.3-3.6c0-1.2,0.1-2.3,0.3-3.6c0.2-1.2,0.5-2.4,1-3.4
			c0.5-1,1.2-1.9,2.1-2.5C16.9,316.7,18.1,316.3,19.5,316.3z M19.5,334.6c0.7,0,1.3-0.2,1.8-0.6c0.5-0.4,0.9-1,1.1-1.7
			s0.5-1.5,0.6-2.5s0.2-1.9,0.2-3c0-1.1-0.1-2.1-0.2-3c-0.1-0.9-0.3-1.8-0.6-2.5c-0.3-0.7-0.7-1.3-1.1-1.7c-0.5-0.4-1.1-0.6-1.8-0.6
			c-0.7,0-1.3,0.2-1.8,0.6c-0.5,0.4-0.8,1-1.1,1.7c-0.3,0.7-0.5,1.5-0.6,2.5c-0.1,0.9-0.2,1.9-0.2,3c0,1.1,0.1,2.1,0.2,3
			c0.1,0.9,0.3,1.8,0.6,2.5s0.7,1.3,1.1,1.7S18.8,334.6,19.5,334.6z"/>
		<path class="st2" d="M35.6,316.3c1.4,0,2.6,0.3,3.5,1c0.9,0.7,1.6,1.5,2.1,2.5c0.5,1,0.9,2.2,1,3.4c0.2,1.2,0.3,2.4,0.3,3.6
			c0,1.2-0.1,2.3-0.3,3.6c-0.2,1.2-0.5,2.4-1,3.4c-0.5,1-1.2,1.9-2.1,2.5c-0.9,0.7-2.1,1-3.5,1c-1.4,0-2.6-0.3-3.5-1
			c-0.9-0.7-1.6-1.5-2.1-2.5c-0.5-1-0.9-2.2-1-3.4c-0.2-1.2-0.3-2.4-0.3-3.6c0-1.2,0.1-2.3,0.3-3.6c0.2-1.2,0.5-2.4,1-3.4
			c0.5-1,1.2-1.9,2.1-2.5C33,316.7,34.1,316.3,35.6,316.3z M35.6,334.6c0.7,0,1.3-0.2,1.8-0.6c0.5-0.4,0.9-1,1.1-1.7
			s0.5-1.5,0.6-2.5s0.2-1.9,0.2-3c0-1.1-0.1-2.1-0.2-3c-0.1-0.9-0.3-1.8-0.6-2.5c-0.3-0.7-0.7-1.3-1.1-1.7c-0.5-0.4-1.1-0.6-1.8-0.6
			c-0.7,0-1.3,0.2-1.8,0.6c-0.5,0.4-0.8,1-1.1,1.7c-0.3,0.7-0.5,1.5-0.6,2.5c-0.1,0.9-0.2,1.9-0.2,3c0,1.1,0.1,2.1,0.2,3
			c0.1,0.9,0.3,1.8,0.6,2.5s0.7,1.3,1.1,1.7S34.9,334.6,35.6,334.6z"/>
	</g>
	<g>
		<path class="st2" d="M19.5,355.4c1.4,0,2.6,0.3,3.5,1c0.9,0.7,1.6,1.5,2.1,2.5c0.5,1,0.9,2.2,1,3.4c0.2,1.2,0.3,2.4,0.3,3.6
			c0,1.2-0.1,2.3-0.3,3.6c-0.2,1.2-0.5,2.4-1,3.4c-0.5,1-1.2,1.9-2.1,2.5c-0.9,0.7-2.1,1-3.5,1c-1.4,0-2.6-0.3-3.5-1
			c-0.9-0.7-1.6-1.5-2.1-2.5c-0.5-1-0.9-2.2-1-3.4c-0.2-1.2-0.3-2.4-0.3-3.6c0-1.2,0.1-2.3,0.3-3.6c0.2-1.2,0.5-2.4,1-3.4
			c0.5-1,1.2-1.9,2.1-2.5C16.9,355.7,18.1,355.4,19.5,355.4z M19.5,373.7c0.7,0,1.3-0.2,1.8-0.6c0.5-0.4,0.9-1,1.1-1.7
			s0.5-1.5,0.6-2.5s0.2-1.9,0.2-3c0-1.1-0.1-2.1-0.2-3c-0.1-0.9-0.3-1.8-0.6-2.5c-0.3-0.7-0.7-1.3-1.1-1.7c-0.5-0.4-1.1-0.6-1.8-0.6
			c-0.7,0-1.3,0.2-1.8,0.6c-0.5,0.4-0.8,1-1.1,1.7c-0.3,0.7-0.5,1.5-0.6,2.5c-0.1,0.9-0.2,1.9-0.2,3c0,1.1,0.1,2.1,0.2,3
			c0.1,0.9,0.3,1.8,0.6,2.5s0.7,1.3,1.1,1.7S18.8,373.7,19.5,373.7z"/>
		<path class="st2" d="M29.1,359.2c0.7,0,1.4-0.1,2-0.2s1.2-0.3,1.8-0.6c0.5-0.3,1-0.6,1.4-1s0.6-0.9,0.7-1.6h2.7V376h-3.6v-14.2h-5
			V359.2z"/>
	</g>
	<g>
		<path class="st2" d="M19.5,394.5c1.4,0,2.6,0.3,3.5,1c0.9,0.7,1.6,1.5,2.1,2.5c0.5,1,0.9,2.2,1,3.4c0.2,1.2,0.3,2.4,0.3,3.6
			c0,1.2-0.1,2.3-0.3,3.6c-0.2,1.2-0.5,2.4-1,3.4c-0.5,1-1.2,1.9-2.1,2.5c-0.9,0.7-2.1,1-3.5,1c-1.4,0-2.6-0.3-3.5-1
			c-0.9-0.7-1.6-1.5-2.1-2.5c-0.5-1-0.9-2.2-1-3.4c-0.2-1.2-0.3-2.4-0.3-3.6c0-1.2,0.1-2.3,0.3-3.6c0.2-1.2,0.5-2.4,1-3.4
			c0.5-1,1.2-1.9,2.1-2.5C16.9,394.8,18.1,394.5,19.5,394.5z M19.5,412.7c0.7,0,1.3-0.2,1.8-0.6c0.5-0.4,0.9-1,1.1-1.7
			s0.5-1.5,0.6-2.5s0.2-1.9,0.2-3c0-1.1-0.1-2.1-0.2-3c-0.1-0.9-0.3-1.8-0.6-2.5c-0.3-0.7-0.7-1.3-1.1-1.7c-0.5-0.4-1.1-0.6-1.8-0.6
			c-0.7,0-1.3,0.2-1.8,0.6c-0.5,0.4-0.8,1-1.1,1.7c-0.3,0.7-0.5,1.5-0.6,2.5c-0.1,0.9-0.2,1.9-0.2,3c0,1.1,0.1,2.1,0.2,3
			c0.1,0.9,0.3,1.8,0.6,2.5s0.7,1.3,1.1,1.7S18.8,412.7,19.5,412.7z"/>
		<path class="st2" d="M42.5,415.1H28.7c0-1.7,0.4-3.1,1.2-4.4s1.9-2.3,3.2-3.3c0.7-0.5,1.3-0.9,2-1.4c0.7-0.5,1.4-0.9,2-1.5
			c0.6-0.5,1.1-1.1,1.5-1.7c0.4-0.6,0.6-1.3,0.6-2.1c0-0.4,0-0.8-0.1-1.2c-0.1-0.4-0.3-0.8-0.5-1.2c-0.2-0.4-0.6-0.7-1-0.9
			s-1-0.4-1.7-0.4c-0.7,0-1.2,0.1-1.6,0.4s-0.8,0.6-1,1.1c-0.3,0.5-0.5,1-0.6,1.6c-0.1,0.6-0.2,1.3-0.2,2h-3.3
			c0-1.1,0.1-2.1,0.4-3.1c0.3-1,0.7-1.8,1.3-2.5c0.6-0.7,1.3-1.2,2.2-1.6c0.9-0.4,1.9-0.6,3-0.6c1.2,0,2.3,0.2,3.1,0.6
			c0.8,0.4,1.5,0.9,2,1.5c0.5,0.6,0.9,1.3,1.1,2c0.2,0.7,0.3,1.4,0.3,2.1c0,0.8-0.1,1.5-0.4,2.2c-0.2,0.7-0.6,1.3-1,1.8
			c-0.4,0.5-0.9,1.1-1.4,1.5c-0.5,0.5-1.1,0.9-1.7,1.3c-0.6,0.4-1.2,0.8-1.7,1.2c-0.6,0.4-1.1,0.7-1.6,1.1s-0.9,0.7-1.3,1.1
			c-0.4,0.4-0.6,0.8-0.8,1.3h9.8V415.1z"/>
	</g>
	<g>
		<path class="st2" d="M69.6,160.1c1.4,0,2.6,0.3,3.5,1c0.9,0.7,1.6,1.5,2.1,2.5c0.5,1,0.9,2.2,1,3.4c0.2,1.2,0.3,2.4,0.3,3.6
			c0,1.2-0.1,2.3-0.3,3.6c-0.2,1.2-0.5,2.4-1,3.4c-0.5,1-1.2,1.9-2.1,2.5c-0.9,0.7-2.1,1-3.5,1c-1.4,0-2.6-0.3-3.5-1
			c-0.9-0.7-1.6-1.5-2.1-2.5c-0.5-1-0.9-2.2-1-3.4c-0.2-1.2-0.3-2.4-0.3-3.6c0-1.2,0.1-2.3,0.3-3.6c0.2-1.2,0.5-2.4,1-3.4
			c0.5-1,1.2-1.9,2.1-2.5C67,160.4,68.2,160.1,69.6,160.1z M69.6,178.4c0.7,0,1.3-0.2,1.8-0.6c0.5-0.4,0.9-1,1.1-1.7
			s0.5-1.5,0.6-2.5s0.2-1.9,0.2-3c0-1.1-0.1-2.1-0.2-3c-0.1-0.9-0.3-1.8-0.6-2.5c-0.3-0.7-0.7-1.3-1.1-1.7c-0.5-0.4-1.1-0.6-1.8-0.6
			c-0.7,0-1.3,0.2-1.8,0.6c-0.5,0.4-0.8,1-1.1,1.7c-0.3,0.7-0.5,1.5-0.6,2.5c-0.1,0.9-0.2,1.9-0.2,3c0,1.1,0.1,2.1,0.2,3
			c0.1,0.9,0.3,1.8,0.6,2.5s0.7,1.3,1.1,1.7S68.9,178.4,69.6,178.4z"/>
		<path class="st2" d="M84.2,168.9c0.5,0,1.1,0,1.6-0.1c0.5-0.1,1-0.3,1.4-0.5c0.4-0.2,0.8-0.6,1-1c0.3-0.4,0.4-0.9,0.4-1.6
			c0-0.9-0.3-1.6-0.9-2.1s-1.3-0.8-2.3-0.8c-0.6,0-1.1,0.1-1.5,0.3c-0.4,0.2-0.8,0.5-1.1,0.9c-0.3,0.4-0.5,0.8-0.6,1.3
			c-0.1,0.5-0.2,1-0.2,1.5h-3.3c0-1,0.2-1.9,0.5-2.7c0.3-0.8,0.8-1.6,1.3-2.2c0.6-0.6,1.3-1.1,2.1-1.4c0.8-0.3,1.7-0.5,2.7-0.5
			c0.8,0,1.6,0.1,2.3,0.3c0.8,0.2,1.4,0.6,2,1c0.6,0.4,1.1,1,1.5,1.7s0.5,1.5,0.5,2.4c0,1-0.2,1.9-0.7,2.7s-1.2,1.3-2.2,1.7v0.1
			c1.2,0.2,2.1,0.8,2.7,1.7c0.6,0.9,1,2,1,3.3c0,1-0.2,1.8-0.6,2.6c-0.4,0.8-0.9,1.4-1.6,1.9c-0.7,0.5-1.4,0.9-2.3,1.2
			c-0.9,0.3-1.8,0.4-2.7,0.4c-1.2,0-2.2-0.2-3.1-0.5c-0.9-0.3-1.6-0.8-2.2-1.4c-0.6-0.6-1-1.4-1.3-2.2s-0.5-1.8-0.5-2.9h3.3
			c0,1.2,0.3,2.3,0.9,3.1s1.6,1.2,2.9,1.2c1.1,0,2-0.3,2.8-0.9c0.7-0.6,1.1-1.5,1.1-2.7c0-0.8-0.2-1.4-0.5-1.9
			c-0.3-0.5-0.7-0.8-1.2-1.1c-0.5-0.2-1.1-0.4-1.7-0.4s-1.3-0.1-1.9-0.1V168.9z"/>
	</g>
	<g>
		<path class="st2" d="M69.6,199.2c1.4,0,2.6,0.3,3.5,1c0.9,0.7,1.6,1.5,2.1,2.5c0.5,1,0.9,2.2,1,3.4c0.2,1.2,0.3,2.4,0.3,3.6
			c0,1.2-0.1,2.3-0.3,3.6c-0.2,1.2-0.5,2.4-1,3.4c-0.5,1-1.2,1.9-2.1,2.5c-0.9,0.7-2.1,1-3.5,1c-1.4,0-2.6-0.3-3.5-1
			c-0.9-0.7-1.6-1.5-2.1-2.5c-0.5-1-0.9-2.2-1-3.4c-0.2-1.2-0.3-2.4-0.3-3.6c0-1.2,0.1-2.3,0.3-3.6c0.2-1.2,0.5-2.4,1-3.4
			c0.5-1,1.2-1.9,2.1-2.5C67,199.5,68.2,199.2,69.6,199.2z M69.6,217.4c0.7,0,1.3-0.2,1.8-0.6c0.5-0.4,0.9-1,1.1-1.7
			s0.5-1.5,0.6-2.5s0.2-1.9,0.2-3c0-1.1-0.1-2.1-0.2-3c-0.1-0.9-0.3-1.8-0.6-2.5c-0.3-0.7-0.7-1.3-1.1-1.7c-0.5-0.4-1.1-0.6-1.8-0.6
			c-0.7,0-1.3,0.2-1.8,0.6c-0.5,0.4-0.8,1-1.1,1.7c-0.3,0.7-0.5,1.5-0.6,2.5c-0.1,0.9-0.2,1.9-0.2,3c0,1.1,0.1,2.1,0.2,3
			c0.1,0.9,0.3,1.8,0.6,2.5s0.7,1.3,1.1,1.7S68.9,217.4,69.6,217.4z"/>
		<path class="st2" d="M92.7,215h-2.6v4.8H87V215h-8.7v-3.3l8.7-12.1h3.1v12.8h2.6V215z M80.9,212.4H87v-8.9h-0.1L80.9,212.4z"/>
	</g>
	<g>
		<path class="st2" d="M69.6,238.2c1.4,0,2.6,0.3,3.5,1c0.9,0.7,1.6,1.5,2.1,2.5c0.5,1,0.9,2.2,1,3.4c0.2,1.2,0.3,2.4,0.3,3.6
			c0,1.2-0.1,2.3-0.3,3.6c-0.2,1.2-0.5,2.4-1,3.4c-0.5,1-1.2,1.9-2.1,2.5c-0.9,0.7-2.1,1-3.5,1c-1.4,0-2.6-0.3-3.5-1
			c-0.9-0.7-1.6-1.5-2.1-2.5c-0.5-1-0.9-2.2-1-3.4c-0.2-1.2-0.3-2.4-0.3-3.6c0-1.2,0.1-2.3,0.3-3.6c0.2-1.2,0.5-2.4,1-3.4
			c0.5-1,1.2-1.9,2.1-2.5C67,238.6,68.2,238.2,69.6,238.2z M69.6,256.5c0.7,0,1.3-0.2,1.8-0.6c0.5-0.4,0.9-1,1.1-1.7
			s0.5-1.5,0.6-2.5s0.2-1.9,0.2-3c0-1.1-0.1-2.1-0.2-3c-0.1-0.9-0.3-1.8-0.6-2.5c-0.3-0.7-0.7-1.3-1.1-1.7c-0.5-0.4-1.1-0.6-1.8-0.6
			c-0.7,0-1.3,0.2-1.8,0.6c-0.5,0.4-0.8,1-1.1,1.7c-0.3,0.7-0.5,1.5-0.6,2.5c-0.1,0.9-0.2,1.9-0.2,3c0,1.1,0.1,2.1,0.2,3
			c0.1,0.9,0.3,1.8,0.6,2.5s0.7,1.3,1.1,1.7C68.3,256.3,68.9,256.5,69.6,256.5z"/>
		<path class="st2" d="M81.2,238.6h10.4v2.9h-8l-1,5.1l0.1,0.1c0.4-0.5,1-0.9,1.7-1.1s1.4-0.4,2-0.4c1,0,1.9,0.2,2.7,0.5
			c0.8,0.3,1.5,0.8,2,1.4c0.5,0.6,0.9,1.3,1.2,2.1c0.3,0.8,0.4,1.7,0.4,2.7c0,0.8-0.1,1.6-0.4,2.5c-0.3,0.9-0.7,1.6-1.2,2.3
			c-0.6,0.7-1.3,1.3-2.2,1.7c-0.9,0.5-1.9,0.7-3.2,0.7c-1,0-1.9-0.1-2.7-0.4s-1.6-0.6-2.2-1.2c-0.6-0.5-1.1-1.2-1.5-1.9
			c-0.4-0.8-0.6-1.6-0.6-2.7h3.3c0.1,1.1,0.5,1.9,1.1,2.5c0.7,0.6,1.5,0.9,2.6,0.9c0.7,0,1.3-0.1,1.8-0.3c0.5-0.2,0.9-0.5,1.2-1
			c0.3-0.4,0.5-0.9,0.6-1.4c0.1-0.5,0.2-1.1,0.2-1.7c0-0.6-0.1-1.1-0.2-1.6c-0.2-0.5-0.4-1-0.7-1.3s-0.7-0.7-1.2-0.9
			s-1.1-0.3-1.7-0.3c-0.7,0-1.3,0.1-1.9,0.4c-0.6,0.3-1,0.7-1.3,1.5H79L81.2,238.6z"/>
	</g>
	<g>
		<path class="st2" d="M69.6,277.3c1.4,0,2.6,0.3,3.5,1c0.9,0.7,1.6,1.5,2.1,2.5c0.5,1,0.9,2.2,1,3.4c0.2,1.2,0.3,2.4,0.3,3.6
			c0,1.2-0.1,2.3-0.3,3.6c-0.2,1.2-0.5,2.4-1,3.4c-0.5,1-1.2,1.9-2.1,2.5c-0.9,0.7-2.1,1-3.5,1c-1.4,0-2.6-0.3-3.5-1
			c-0.9-0.7-1.6-1.5-2.1-2.5c-0.5-1-0.9-2.2-1-3.4c-0.2-1.2-0.3-2.4-0.3-3.6c0-1.2,0.1-2.3,0.3-3.6c0.2-1.2,0.5-2.4,1-3.4
			c0.5-1,1.2-1.9,2.1-2.5C67,277.6,68.2,277.3,69.6,277.3z M69.6,295.5c0.7,0,1.3-0.2,1.8-0.6c0.5-0.4,0.9-1,1.1-1.7
			s0.5-1.5,0.6-2.5s0.2-1.9,0.2-3c0-1.1-0.1-2.1-0.2-3c-0.1-0.9-0.3-1.8-0.6-2.5c-0.3-0.7-0.7-1.3-1.1-1.7c-0.5-0.4-1.1-0.6-1.8-0.6
			c-0.7,0-1.3,0.2-1.8,0.6c-0.5,0.4-0.8,1-1.1,1.7c-0.3,0.7-0.5,1.5-0.6,2.5c-0.1,0.9-0.2,1.9-0.2,3c0,1.1,0.1,2.1,0.2,3
			c0.1,0.9,0.3,1.8,0.6,2.5s0.7,1.3,1.1,1.7S68.9,295.5,69.6,295.5z"/>
		<path class="st2" d="M89,282.8c-0.1-0.8-0.4-1.5-0.9-2c-0.5-0.5-1.2-0.8-2.1-0.8c-0.6,0-1.1,0.1-1.5,0.3c-0.4,0.2-0.8,0.5-1.1,0.9
			c-0.3,0.4-0.5,0.8-0.7,1.3c-0.2,0.5-0.3,1-0.4,1.5c-0.1,0.5-0.2,1-0.2,1.5c0,0.5-0.1,1-0.1,1.4L82,287c0.4-0.8,1.1-1.4,1.8-1.8
			c0.8-0.4,1.6-0.6,2.5-0.6c1,0,1.9,0.2,2.7,0.5c0.8,0.3,1.5,0.8,2,1.4s1,1.3,1.3,2.1c0.3,0.8,0.4,1.7,0.4,2.7c0,1-0.2,1.9-0.5,2.7
			c-0.3,0.8-0.8,1.6-1.4,2.2c-0.6,0.6-1.3,1.1-2.1,1.5c-0.8,0.3-1.7,0.5-2.7,0.5c-1.5,0-2.7-0.3-3.6-0.8c-1-0.5-1.7-1.3-2.2-2.2
			c-0.5-1-0.9-2.1-1.1-3.3c-0.2-1.3-0.3-2.7-0.3-4.1c0-1.2,0.1-2.4,0.4-3.7c0.3-1.2,0.7-2.4,1.3-3.4c0.6-1,1.4-1.8,2.4-2.5
			c1-0.6,2.2-1,3.6-1c0.8,0,1.6,0.1,2.3,0.4c0.7,0.3,1.3,0.6,1.9,1.1c0.5,0.5,1,1.1,1.3,1.7c0.3,0.7,0.5,1.4,0.6,2.2H89z
			 M85.9,295.5c0.6,0,1.1-0.1,1.6-0.4c0.4-0.2,0.8-0.6,1.1-0.9c0.3-0.4,0.5-0.8,0.7-1.3c0.1-0.5,0.2-1,0.2-1.6s-0.1-1.1-0.2-1.6
			c-0.1-0.5-0.4-0.9-0.7-1.3c-0.3-0.4-0.7-0.7-1.1-0.9c-0.4-0.2-1-0.3-1.6-0.3c-0.6,0-1.1,0.1-1.6,0.3c-0.5,0.2-0.8,0.5-1.1,0.9
			c-0.3,0.4-0.5,0.8-0.7,1.3c-0.2,0.5-0.2,1-0.2,1.6s0.1,1.1,0.2,1.6s0.4,0.9,0.7,1.3c0.3,0.4,0.7,0.7,1.1,0.9
			C84.7,295.4,85.3,295.5,85.9,295.5z"/>
	</g>
	<g>
		<path class="st2" d="M69.6,316.3c1.4,0,2.6,0.3,3.5,1c0.9,0.7,1.6,1.5,2.1,2.5c0.5,1,0.9,2.2,1,3.4c0.2,1.2,0.3,2.4,0.3,3.6
			c0,1.2-0.1,2.3-0.3,3.6c-0.2,1.2-0.5,2.4-1,3.4c-0.5,1-1.2,1.9-2.1,2.5c-0.9,0.7-2.1,1-3.5,1c-1.4,0-2.6-0.3-3.5-1
			c-0.9-0.7-1.6-1.5-2.1-2.5c-0.5-1-0.9-2.2-1-3.4c-0.2-1.2-0.3-2.4-0.3-3.6c0-1.2,0.1-2.3,0.3-3.6c0.2-1.2,0.5-2.4,1-3.4
			c0.5-1,1.2-1.9,2.1-2.5C67,316.7,68.2,316.3,69.6,316.3z M69.6,334.6c0.7,0,1.3-0.2,1.8-0.6c0.5-0.4,0.9-1,1.1-1.7
			s0.5-1.5,0.6-2.5s0.2-1.9,0.2-3c0-1.1-0.1-2.1-0.2-3c-0.1-0.9-0.3-1.8-0.6-2.5c-0.3-0.7-0.7-1.3-1.1-1.7c-0.5-0.4-1.1-0.6-1.8-0.6
			c-0.7,0-1.3,0.2-1.8,0.6c-0.5,0.4-0.8,1-1.1,1.7c-0.3,0.7-0.5,1.5-0.6,2.5c-0.1,0.9-0.2,1.9-0.2,3c0,1.1,0.1,2.1,0.2,3
			c0.1,0.9,0.3,1.8,0.6,2.5s0.7,1.3,1.1,1.7S68.9,334.6,69.6,334.6z"/>
		<path class="st2" d="M78.7,316.8h13.8v2.7c-1.1,1.2-2,2.4-2.9,3.7c-0.9,1.3-1.6,2.6-2.3,4.1c-0.6,1.4-1.2,2.9-1.6,4.5
			s-0.7,3.3-0.8,5.1h-3.6c0.1-1.6,0.4-3.2,0.8-4.7c0.4-1.6,1-3.1,1.7-4.5c0.7-1.5,1.5-2.9,2.4-4.2s1.9-2.6,2.9-3.8H78.7V316.8z"/>
	</g>
	<g>
		<path class="st2" d="M69.6,355.4c1.4,0,2.6,0.3,3.5,1c0.9,0.7,1.6,1.5,2.1,2.5c0.5,1,0.9,2.2,1,3.4c0.2,1.2,0.3,2.4,0.3,3.6
			c0,1.2-0.1,2.3-0.3,3.6c-0.2,1.2-0.5,2.4-1,3.4c-0.5,1-1.2,1.9-2.1,2.5c-0.9,0.7-2.1,1-3.5,1c-1.4,0-2.6-0.3-3.5-1
			c-0.9-0.7-1.6-1.5-2.1-2.5c-0.5-1-0.9-2.2-1-3.4c-0.2-1.2-0.3-2.4-0.3-3.6c0-1.2,0.1-2.3,0.3-3.6c0.2-1.2,0.5-2.4,1-3.4
			c0.5-1,1.2-1.9,2.1-2.5C67,355.7,68.2,355.4,69.6,355.4z M69.6,373.7c0.7,0,1.3-0.2,1.8-0.6c0.5-0.4,0.9-1,1.1-1.7
			s0.5-1.5,0.6-2.5s0.2-1.9,0.2-3c0-1.1-0.1-2.1-0.2-3c-0.1-0.9-0.3-1.8-0.6-2.5c-0.3-0.7-0.7-1.3-1.1-1.7c-0.5-0.4-1.1-0.6-1.8-0.6
			c-0.7,0-1.3,0.2-1.8,0.6c-0.5,0.4-0.8,1-1.1,1.7c-0.3,0.7-0.5,1.5-0.6,2.5c-0.1,0.9-0.2,1.9-0.2,3c0,1.1,0.1,2.1,0.2,3
			c0.1,0.9,0.3,1.8,0.6,2.5s0.7,1.3,1.1,1.7S68.9,373.7,69.6,373.7z"/>
		<path class="st2" d="M85.7,376.4c-1,0-2-0.1-2.8-0.4c-0.9-0.3-1.6-0.7-2.3-1.3c-0.6-0.5-1.1-1.2-1.5-2c-0.4-0.8-0.5-1.7-0.5-2.7
			c0-1.3,0.3-2.3,1-3.2c0.7-0.9,1.6-1.4,2.7-1.7v-0.1c-0.9-0.3-1.6-0.9-2.1-1.6c-0.5-0.7-0.7-1.6-0.7-2.6c0-1.7,0.5-3.1,1.6-4.1
			c1.1-1,2.6-1.5,4.7-1.5s3.6,0.5,4.7,1.5c1.1,1,1.6,2.3,1.6,4.1c0,1-0.2,1.8-0.7,2.6c-0.5,0.7-1.2,1.3-2.1,1.6v0.1
			c1.1,0.3,2,0.9,2.7,1.7c0.7,0.9,1,1.9,1,3.2c0,1-0.2,1.9-0.5,2.7c-0.4,0.8-0.9,1.5-1.5,2c-0.6,0.5-1.4,1-2.3,1.3
			C87.6,376.3,86.7,376.4,85.7,376.4z M85.7,373.8c1.1,0,2-0.3,2.7-1c0.7-0.7,1.1-1.6,1.1-2.8c0-1.1-0.4-2-1.1-2.6
			c-0.7-0.6-1.6-0.9-2.7-0.9c-1.1,0-2,0.3-2.7,0.9c-0.7,0.6-1.1,1.5-1.1,2.6c0,1.2,0.4,2.1,1.1,2.8
			C83.7,373.5,84.6,373.8,85.7,373.8z M85.7,358c-0.9,0-1.6,0.3-2.2,0.8c-0.6,0.5-0.9,1.3-0.9,2.3c0,1,0.3,1.7,0.9,2.2
			c0.6,0.5,1.4,0.8,2.3,0.8s1.7-0.3,2.3-0.8c0.6-0.5,0.9-1.2,0.9-2.2c0-1-0.3-1.8-0.9-2.3C87.3,358.3,86.5,358,85.7,358z"/>
	</g>
	<g>
		<path class="st2" d="M69.6,394.5c1.4,0,2.6,0.3,3.5,1c0.9,0.7,1.6,1.5,2.1,2.5c0.5,1,0.9,2.2,1,3.4c0.2,1.2,0.3,2.4,0.3,3.6
			c0,1.2-0.1,2.3-0.3,3.6c-0.2,1.2-0.5,2.4-1,3.4c-0.5,1-1.2,1.9-2.1,2.5c-0.9,0.7-2.1,1-3.5,1c-1.4,0-2.6-0.3-3.5-1
			c-0.9-0.7-1.6-1.5-2.1-2.5c-0.5-1-0.9-2.2-1-3.4c-0.2-1.2-0.3-2.4-0.3-3.6c0-1.2,0.1-2.3,0.3-3.6c0.2-1.2,0.5-2.4,1-3.4
			c0.5-1,1.2-1.9,2.1-2.5C67,394.8,68.2,394.5,69.6,394.5z M69.6,412.7c0.7,0,1.3-0.2,1.8-0.6c0.5-0.4,0.9-1,1.1-1.7
			s0.5-1.5,0.6-2.5s0.2-1.9,0.2-3c0-1.1-0.1-2.1-0.2-3c-0.1-0.9-0.3-1.8-0.6-2.5c-0.3-0.7-0.7-1.3-1.1-1.7c-0.5-0.4-1.1-0.6-1.8-0.6
			c-0.7,0-1.3,0.2-1.8,0.6c-0.5,0.4-0.8,1-1.1,1.7c-0.3,0.7-0.5,1.5-0.6,2.5c-0.1,0.9-0.2,1.9-0.2,3c0,1.1,0.1,2.1,0.2,3
			c0.1,0.9,0.3,1.8,0.6,2.5s0.7,1.3,1.1,1.7S68.9,412.7,69.6,412.7z"/>
		<path class="st2" d="M82.3,410c0.1,0.8,0.4,1.5,0.9,2c0.5,0.5,1.2,0.8,2.1,0.8c0.9,0,1.6-0.2,2.1-0.7c0.5-0.5,0.9-1.1,1.2-1.8
			c0.3-0.7,0.5-1.5,0.6-2.2s0.2-1.5,0.2-2.2l-0.1-0.1c-0.4,0.8-1,1.4-1.8,1.8c-0.8,0.4-1.6,0.6-2.5,0.6c-1,0-1.8-0.2-2.6-0.5
			c-0.8-0.3-1.4-0.8-2-1.4c-0.6-0.6-1-1.3-1.3-2.1s-0.5-1.8-0.5-2.8c0-1,0.2-1.9,0.5-2.7c0.3-0.8,0.8-1.6,1.4-2.2
			c0.6-0.6,1.3-1.1,2.2-1.5c0.9-0.3,1.8-0.5,2.9-0.5c1.4,0,2.6,0.3,3.5,0.8c0.9,0.5,1.6,1.3,2.2,2.2c0.5,1,0.9,2.1,1.1,3.4
			c0.2,1.3,0.3,2.7,0.3,4.1c0,1.2-0.1,2.4-0.4,3.7c-0.3,1.2-0.7,2.4-1.3,3.4c-0.6,1-1.4,1.8-2.4,2.5c-1,0.6-2.2,1-3.6,1
			c-0.8,0-1.6-0.1-2.3-0.4c-0.7-0.3-1.3-0.6-1.9-1.1c-0.5-0.5-1-1.1-1.3-1.7c-0.3-0.7-0.5-1.4-0.6-2.2H82.3z M85.4,397.2
			c-0.6,0-1.1,0.1-1.6,0.3c-0.4,0.2-0.8,0.5-1.1,0.9s-0.5,0.8-0.6,1.3s-0.2,1-0.2,1.6c0,0.6,0.1,1.1,0.2,1.6c0.1,0.5,0.4,1,0.6,1.3
			c0.3,0.4,0.7,0.7,1.1,0.9c0.4,0.2,1,0.4,1.6,0.4c0.6,0,1.2-0.1,1.6-0.3s0.8-0.5,1.1-0.9c0.3-0.4,0.5-0.8,0.7-1.4
			c0.2-0.5,0.2-1,0.2-1.6c0-0.5-0.1-1.1-0.2-1.6s-0.4-0.9-0.7-1.3c-0.3-0.4-0.7-0.7-1.1-0.9S86,397.2,85.4,397.2z"/>
	</g>
	<g>
		<path class="st2" d="M111.7,163.9c0.7,0,1.4-0.1,2-0.2s1.2-0.3,1.8-0.6c0.5-0.3,1-0.6,1.4-1s0.6-0.9,0.7-1.6h2.7v20.2h-3.6v-14.2
			h-5V163.9z"/>
		<path class="st2" d="M134.2,160.1c1.4,0,2.6,0.3,3.5,1c0.9,0.7,1.6,1.5,2.1,2.5c0.5,1,0.9,2.2,1,3.4c0.2,1.2,0.3,2.4,0.3,3.6
			c0,1.2-0.1,2.3-0.3,3.6c-0.2,1.2-0.5,2.4-1,3.4c-0.5,1-1.2,1.9-2.1,2.5c-0.9,0.7-2.1,1-3.5,1c-1.4,0-2.6-0.3-3.5-1
			c-0.9-0.7-1.6-1.5-2.1-2.5c-0.5-1-0.9-2.2-1-3.4c-0.2-1.2-0.3-2.4-0.3-3.6c0-1.2,0.1-2.3,0.3-3.6c0.2-1.2,0.5-2.4,1-3.4
			c0.5-1,1.2-1.9,2.1-2.5C131.6,160.4,132.8,160.1,134.2,160.1z M134.2,178.4c0.7,0,1.3-0.2,1.8-0.6c0.5-0.4,0.9-1,1.1-1.7
			s0.5-1.5,0.6-2.5s0.2-1.9,0.2-3c0-1.1-0.1-2.1-0.2-3c-0.1-0.9-0.3-1.8-0.6-2.5c-0.3-0.7-0.7-1.3-1.1-1.7c-0.5-0.4-1.1-0.6-1.8-0.6
			c-0.7,0-1.3,0.2-1.8,0.6c-0.5,0.4-0.8,1-1.1,1.7c-0.3,0.7-0.5,1.5-0.6,2.5c-0.1,0.9-0.2,1.9-0.2,3c0,1.1,0.1,2.1,0.2,3
			c0.1,0.9,0.3,1.8,0.6,2.5s0.7,1.3,1.1,1.7S133.5,178.4,134.2,178.4z"/>
	</g>
	<g>
		<path class="st2" d="M111.7,202.9c0.7,0,1.4-0.1,2-0.2s1.2-0.3,1.8-0.6c0.5-0.3,1-0.6,1.4-1s0.6-0.9,0.7-1.6h2.7v20.2h-3.6v-14.2
			h-5V202.9z"/>
		<path class="st2" d="M127.7,202.9c0.7,0,1.4-0.1,2-0.2s1.2-0.3,1.8-0.6c0.5-0.3,1-0.6,1.4-1s0.6-0.9,0.7-1.6h2.7v20.2h-3.6v-14.2
			h-5V202.9z"/>
	</g>
	<g>
		<path class="st2" d="M111.7,242c0.7,0,1.4-0.1,2-0.2s1.2-0.3,1.8-0.6c0.5-0.3,1-0.6,1.4-1s0.6-0.9,0.7-1.6h2.7v20.2h-3.6v-14.2h-5
			V242z"/>
		<path class="st2" d="M141.1,258.8h-13.8c0-1.7,0.4-3.1,1.2-4.4s1.9-2.3,3.2-3.3c0.7-0.5,1.3-0.9,2-1.4c0.7-0.5,1.4-0.9,2-1.5
			c0.6-0.5,1.1-1.1,1.5-1.7c0.4-0.6,0.6-1.3,0.6-2.1c0-0.4,0-0.8-0.1-1.2c-0.1-0.4-0.3-0.8-0.5-1.2c-0.2-0.4-0.6-0.7-1-0.9
			s-1-0.4-1.7-0.4c-0.7,0-1.2,0.1-1.6,0.4s-0.8,0.6-1,1.1c-0.3,0.5-0.5,1-0.6,1.6c-0.1,0.6-0.2,1.3-0.2,2h-3.3
			c0-1.1,0.1-2.1,0.4-3.1c0.3-1,0.7-1.8,1.3-2.5c0.6-0.7,1.3-1.2,2.2-1.6c0.9-0.4,1.9-0.6,3-0.6c1.2,0,2.3,0.2,3.1,0.6
			c0.8,0.4,1.5,0.9,2,1.5c0.5,0.6,0.9,1.3,1.1,2c0.2,0.7,0.3,1.4,0.3,2.1c0,0.8-0.1,1.5-0.4,2.2c-0.2,0.7-0.6,1.3-1,1.8
			c-0.4,0.5-0.9,1.1-1.4,1.5c-0.5,0.5-1.1,0.9-1.7,1.3c-0.6,0.4-1.2,0.8-1.7,1.2c-0.6,0.4-1.1,0.7-1.6,1.1s-0.9,0.7-1.3,1.1
			c-0.4,0.4-0.6,0.8-0.8,1.3h9.8V258.8z"/>
	</g>
	<g>
		<path class="st2" d="M111.7,281c0.7,0,1.4-0.1,2-0.2s1.2-0.3,1.8-0.6c0.5-0.3,1-0.6,1.4-1s0.6-0.9,0.7-1.6h2.7v20.2h-3.6v-14.2h-5
			V281z"/>
		<path class="st2" d="M132.8,286.1c0.5,0,1.1,0,1.6-0.1c0.5-0.1,1-0.3,1.4-0.5c0.4-0.2,0.8-0.6,1-1c0.3-0.4,0.4-0.9,0.4-1.6
			c0-0.9-0.3-1.6-0.9-2.1s-1.3-0.8-2.3-0.8c-0.6,0-1.1,0.1-1.5,0.3c-0.4,0.2-0.8,0.5-1.1,0.9c-0.3,0.4-0.5,0.8-0.6,1.3
			c-0.1,0.5-0.2,1-0.2,1.5h-3.3c0-1,0.2-1.9,0.5-2.7c0.3-0.8,0.8-1.6,1.3-2.2c0.6-0.6,1.3-1.1,2.1-1.4c0.8-0.3,1.7-0.5,2.7-0.5
			c0.8,0,1.6,0.1,2.3,0.3c0.8,0.2,1.4,0.6,2,1c0.6,0.4,1.1,1,1.5,1.7s0.5,1.5,0.5,2.4c0,1-0.2,1.9-0.7,2.7s-1.2,1.3-2.2,1.7v0.1
			c1.2,0.2,2.1,0.8,2.7,1.7c0.6,0.9,1,2,1,3.3c0,1-0.2,1.8-0.6,2.6c-0.4,0.8-0.9,1.4-1.6,1.9c-0.7,0.5-1.4,0.9-2.3,1.2
			c-0.9,0.3-1.8,0.4-2.7,0.4c-1.2,0-2.2-0.2-3.1-0.5c-0.9-0.3-1.6-0.8-2.2-1.4c-0.6-0.6-1-1.4-1.3-2.2s-0.5-1.8-0.5-2.9h3.3
			c0,1.2,0.3,2.3,0.9,3.1s1.6,1.2,2.9,1.2c1.1,0,2-0.3,2.8-0.9c0.7-0.6,1.1-1.5,1.1-2.7c0-0.8-0.2-1.4-0.5-1.9
			c-0.3-0.5-0.7-0.8-1.2-1.1c-0.5-0.2-1.1-0.4-1.7-0.4s-1.3-0.1-1.9-0.1V286.1z"/>
	</g>
	<g>
		<path class="st2" d="M111.7,320.1c0.7,0,1.4-0.1,2-0.2s1.2-0.3,1.8-0.6c0.5-0.3,1-0.6,1.4-1s0.6-0.9,0.7-1.6h2.7v20.2h-3.6v-14.2
			h-5V320.1z"/>
		<path class="st2" d="M141.2,332.2h-2.6v4.8h-3.1v-4.8h-8.7v-3.3l8.7-12.1h3.1v12.8h2.6V332.2z M129.4,329.6h6.1v-8.9h-0.1
			L129.4,329.6z"/>
	</g>
	<g>
		<path class="st2" d="M111.7,359.2c0.7,0,1.4-0.1,2-0.2s1.2-0.3,1.8-0.6c0.5-0.3,1-0.6,1.4-1s0.6-0.9,0.7-1.6h2.7V376h-3.6v-14.2
			h-5V359.2z"/>
		<path class="st2" d="M129.7,355.8h10.4v2.9h-8l-1,5.1l0.1,0.1c0.4-0.5,1-0.9,1.7-1.1s1.4-0.4,2-0.4c1,0,1.9,0.2,2.7,0.5
			c0.8,0.3,1.5,0.8,2,1.4c0.5,0.6,0.9,1.3,1.2,2.1c0.3,0.8,0.4,1.7,0.4,2.7c0,0.8-0.1,1.6-0.4,2.5c-0.3,0.9-0.7,1.6-1.2,2.3
			c-0.6,0.7-1.3,1.3-2.2,1.7c-0.9,0.5-1.9,0.7-3.2,0.7c-1,0-1.9-0.1-2.7-0.4s-1.6-0.6-2.2-1.2c-0.6-0.5-1.1-1.2-1.5-1.9
			s-0.6-1.6-0.6-2.7h3.3c0.1,1.1,0.5,1.9,1.1,2.5c0.7,0.6,1.5,0.9,2.6,0.9c0.7,0,1.3-0.1,1.8-0.3c0.5-0.2,0.9-0.5,1.2-1
			c0.3-0.4,0.5-0.9,0.6-1.4c0.1-0.5,0.2-1.1,0.2-1.7c0-0.6-0.1-1.1-0.2-1.6c-0.2-0.5-0.4-1-0.7-1.3s-0.7-0.7-1.2-0.9
			s-1.1-0.3-1.7-0.3c-0.7,0-1.3,0.1-1.9,0.4c-0.6,0.3-1,0.7-1.3,1.5h-3.3L129.7,355.8z"/>
	</g>
	<g>
		<path class="st2" d="M111.7,398.2c0.7,0,1.4-0.1,2-0.2s1.2-0.3,1.8-0.6c0.5-0.3,1-0.6,1.4-1s0.6-0.9,0.7-1.6h2.7v20.2h-3.6v-14.2
			h-5V398.2z"/>
		<path class="st2" d="M137.6,400c-0.1-0.8-0.4-1.5-0.9-2c-0.5-0.5-1.2-0.8-2.1-0.8c-0.6,0-1.1,0.1-1.5,0.3
			c-0.4,0.2-0.8,0.5-1.1,0.9c-0.3,0.4-0.5,0.8-0.7,1.3c-0.2,0.5-0.3,1-0.4,1.5c-0.1,0.5-0.2,1-0.2,1.5c0,0.5-0.1,1-0.1,1.4l0.1,0.1
			c0.4-0.8,1.1-1.4,1.8-1.8c0.8-0.4,1.6-0.6,2.5-0.6c1,0,1.9,0.2,2.7,0.5c0.8,0.3,1.5,0.8,2,1.4s1,1.3,1.3,2.1
			c0.3,0.8,0.4,1.7,0.4,2.7c0,1-0.2,1.9-0.5,2.7c-0.3,0.8-0.8,1.6-1.4,2.2c-0.6,0.6-1.3,1.1-2.1,1.5c-0.8,0.3-1.7,0.5-2.7,0.5
			c-1.5,0-2.7-0.3-3.6-0.8c-1-0.5-1.7-1.3-2.2-2.2c-0.5-1-0.9-2.1-1.1-3.3c-0.2-1.3-0.3-2.7-0.3-4.1c0-1.2,0.1-2.4,0.4-3.7
			c0.3-1.2,0.7-2.4,1.3-3.4c0.6-1,1.4-1.8,2.4-2.5c1-0.6,2.2-1,3.6-1c0.8,0,1.6,0.1,2.3,0.4c0.7,0.3,1.3,0.6,1.9,1.1
			c0.5,0.5,1,1.1,1.3,1.7c0.3,0.7,0.5,1.4,0.6,2.2H137.6z M134.4,412.7c0.6,0,1.1-0.1,1.6-0.4c0.4-0.2,0.8-0.6,1.1-0.9
			c0.3-0.4,0.5-0.8,0.7-1.3c0.1-0.5,0.2-1,0.2-1.6s-0.1-1.1-0.2-1.6c-0.1-0.5-0.4-0.9-0.7-1.3c-0.3-0.4-0.7-0.7-1.1-0.9
			c-0.4-0.2-1-0.3-1.6-0.3c-0.6,0-1.1,0.1-1.6,0.3c-0.5,0.2-0.8,0.5-1.1,0.9c-0.3,0.4-0.5,0.8-0.7,1.3c-0.2,0.5-0.2,1-0.2,1.6
			s0.1,1.1,0.2,1.6s0.4,0.9,0.7,1.3c0.3,0.4,0.7,0.7,1.1,0.9C133.3,412.6,133.8,412.7,134.4,412.7z"/>
	</g>
	<g>
		<path class="st3" d="M271,357.9c-0.4-0.1-0.8-0.4-1.1-0.8c-1.4,2.2-2,4.2-1.5,6c2.2,7.5,8.8,13,16.7,13.8
			C277.6,374.6,272,366.7,271,357.9 M269.5,353.5c-0.5-0.3-0.9-0.6-1.2-0.9c-0.5,1.9-0.7,3.8-0.7,5.9c0,0.4,0,0.8,0.1,1.2
			c0.3-1.2,0.9-2.5,1.7-3.7C269.3,355.2,269.3,354.3,269.5,353.5 M269.8,352.3c0.2-0.4,0.5-0.9,0.8-1.2c0.2-0.3,0.5-0.5,0.8-0.7
			c0.7-3.3,2.2-6.3,4.4-8.6c-3.3,2.3-5.8,5.7-7.1,9.5C268.8,351.6,269.3,352,269.8,352.3 M298.2,369.6c-1.6-0.2-3.8-0.6-4.8-0.9
			c-1.1-0.4-2-1.3-2.5-2.4c-0.2-0.5-0.4-1.1-0.4-1.8c0-0.4,0-0.9,0.2-1.5c-6-1.8-12.4-4.4-16.8-6.7c-0.2,0.3-0.3,0.5-0.5,0.8
			c-0.3,0.4-0.7,0.7-1.1,0.8c0.4,3.7,1.7,7.3,3.7,10.4c2.7,4.2,6.4,7,10.4,7.9c1.4,0.3,3.2,0.7,4.9,0.4c6.1-1.4,11.1-5.6,13.5-11.1
			c-0.3,0-0.6,0.1-0.9,0.1C302.4,369.6,299.4,369.7,298.2,369.6 M306.3,356.9c-0.1-2.2-0.5-4.2-1.2-6.1c-0.9-2.3-3.9-4-7.8-4.9
			c-7.3-1.6-16.8,1.1-22.9,6.2c0.2,0.9,0.2,2-0.1,3c4.4,2.4,10.7,4.9,16.7,6.7c1.4-3.2,4.1-3.9,6.2-3.3c1.5,0.4,2.5,0.6,3.2,0.7
			l0.8,0.2c1,0.2,1.9,0.9,2.4,1.8c0.4,0.7,0.7,1.7,0.5,3.1c0.7,0,1.1-0.2,1.2-0.3C306,361.8,306.4,359.4,306.3,356.9 M302.9,364.3
			c0.2-1.2,0-2-0.3-2.5c-0.4-0.6-1-1.1-1.7-1.3l-0.7-0.2c-0.7-0.1-1.7-0.3-3.2-0.7c-2.1-0.5-3.8,0.4-4.8,2.5c1,0.3,2,0.6,3,0.8
			c0.1-0.8,0.2-1.3,0.2-1.3c0-0.3,0.3-0.6,0.6-0.5c0.3,0,0.6,0.3,0.6,0.6c0,0,0,0.6-0.2,1.5c0.2,0,0.4,0.1,0.6,0.1
			c0.2,0,0.4,0.1,0.6,0.1c0.2-0.8,0.3-1.5,0.3-1.5c0.1-0.3,0.3-0.5,0.7-0.5c0.3,0,0.5,0.3,0.5,0.7c0,0.1-0.1,0.8-0.3,1.6
			c0.4,0.1,0.8,0.1,1.1,0.2c0.1-0.7,0.2-1.3,0.2-1.3c0-0.3,0.3-0.6,0.6-0.6c0.3,0,0.6,0.3,0.6,0.6c0,0,0,0.6-0.2,1.4
			C301.6,364.2,302.3,364.3,302.9,364.3 M292,365.7c0.5,1,1.3,1.6,1.9,1.8c0.8,0.3,2.8,0.7,4.5,0.9c1.9,0.2,3.3-0.8,4.2-2.9
			c-0.6,0-1.3-0.1-2-0.2c-0.1,0.4-0.3,0.8-0.5,1.2c-0.2,0.3-0.5,0.4-0.8,0.2c-0.3-0.2-0.4-0.5-0.2-0.8c0.1-0.2,0.3-0.5,0.3-0.8
			c-0.4-0.1-0.7-0.1-1.1-0.2c-0.1,0.5-0.3,1-0.4,1.3c-0.1,0.3-0.5,0.4-0.8,0.3c-0.3-0.1-0.4-0.5-0.3-0.8c0.1-0.3,0.2-0.7,0.3-1.1
			c-0.2,0-0.4-0.1-0.6-0.1c-0.2-0.1-0.4-0.1-0.6-0.1c-0.1,0.3-0.2,0.7-0.4,1.1c-0.1,0.3-0.5,0.4-0.8,0.3c-0.3-0.1-0.4-0.5-0.3-0.8
			c0.1-0.3,0.2-0.6,0.3-0.9c-1-0.2-2-0.5-3-0.8C291.5,364.3,291.7,365.2,292,365.7 M272.6,351.1c-0.3,0-0.8,0-1.3,0.5
			c-0.8,0.9-1.2,2.1-1.1,3.6c0,0.4,0.1,0.6,0.2,0.9c0.2,0.5,0.7,0.9,1,1c0.4,0.1,0.9-0.2,1.3-0.7c0.9-1.1,1.3-3.1,0.9-4.4
			C273.2,351.5,272.9,351.1,272.6,351.1"/>
		<path class="st3" d="M290.9,321.5c0,6.5-2.8,11.9-4.4,13.5c-5,5-9.1,1.4-9.2,6.4c-2.3,2.1-3.9,5.2-4.7,8.8c0.1,0,0.1,0,0.2,0
			c0.5,0.1,0.9,0.4,1.2,0.8c6.4-5.2,16.1-7.9,23.6-6.2c2.4,0.5,4.4,1.4,5.9,2.8c-2.3-3.7-5.8-6.6-9.9-8.1c-1-0.3-2.7-0.8-2.7-3.9
			c0-6,6.5-1.3,10.8-7.8c0.2-0.3-0.1-0.6-0.3-0.3c-1.3,1.3-4.5,2.2-6.2,2.2c-1.7,0-2.3-0.4-2.3-0.4c1.6-3.2,3.6-5.9,3.6-5.9
			c-4-4,2.7-25.9,20.5-25.9c0-5.1-0.5-9.1-1.2-12c-0.4,0.1-3.8,0.9-3.9,0.2c-0.1-0.6,2.5-2,3.4-2.4c-0.9-3-1.7-4.5-1.7-4.5
			c-15.2,4.8-12.2,17.4-15.9,17.4c-2.4,0-4.3-1.9-5-2.6c-9.1-9.1-4.9-15.1-4.9-27.2c0-8.1-3.2-11.2-9-11.2c-5.8,0-7.9,2.5-7.9,2.5
			s8,0.3,8,8.7c0,8.8-9.9,11.2-9.9,22.4C268.8,307.2,290.9,306.9,290.9,321.5 M280.3,266.3c0-1.1-0.1-2.1-0.3-2.9
			c0,0,1.7-0.1,1.7-2.2c0-1.8-1.2-2.9-1.5-2.9c-0.2,0-0.3,0.3-0.9,0.3c-1.3,0-1.4-1.7-1.4-1.7c0.2,0,0.4,0,0.6,0
			c3.8,0,7.3,1.2,7.3,9.5c0,3.1-0.3,5.8-0.6,8.3c-0.2,2.4-0.5,4.6-0.4,6.8c0,0-6.6-0.8-6.6-5.8C278.3,272.3,280.3,271.5,280.3,266.3
			 M271,357.9c-0.4-0.1-0.8-0.4-1.1-0.8c-1.4,2.2-2,4.2-1.5,6c2.2,7.5,8.8,13,16.7,13.8C277.6,374.6,272,366.7,271,357.9
			 M269.5,353.5c-0.5-0.3-0.9-0.6-1.2-0.9c-0.5,1.9-0.7,3.8-0.7,5.9c0,0.4,0,0.8,0.1,1.2c0.3-1.2,0.9-2.5,1.7-3.7
			C269.3,355.2,269.3,354.3,269.5,353.5 M269.8,352.3c0.2-0.4,0.5-0.9,0.8-1.2c0.2-0.3,0.5-0.5,0.8-0.7c0.7-3.3,2.2-6.3,4.4-8.6
			c-3.3,2.3-5.8,5.7-7.1,9.5C268.8,351.6,269.3,352,269.8,352.3 M298.2,369.6c-1.6-0.2-3.8-0.6-4.8-0.9c-1.1-0.4-2-1.3-2.5-2.4
			c-0.2-0.5-0.4-1.1-0.4-1.8c0-0.4,0-0.9,0.2-1.5c-6-1.8-12.4-4.4-16.8-6.7c-0.2,0.3-0.3,0.5-0.5,0.8c-0.3,0.4-0.7,0.7-1.1,0.8
			c0.4,3.7,1.7,7.3,3.7,10.4c2.7,4.2,6.4,7,10.4,7.9c1.4,0.3,3.2,0.7,4.9,0.4c6.1-1.4,11.1-5.6,13.5-11.1c-0.3,0-0.6,0.1-0.9,0.1
			C302.4,369.6,299.4,369.7,298.2,369.6 M305.1,350.7c-0.9-2.3-3.9-4-7.8-4.9c-7.3-1.6-16.8,1.1-22.9,6.2c0.2,0.9,0.2,2-0.1,3
			c4.4,2.4,10.7,4.9,16.7,6.7c1.4-3.2,4.1-3.9,6.2-3.3c1.5,0.4,2.5,0.6,3.2,0.7l0.8,0.2c1,0.2,1.9,0.9,2.4,1.8
			c0.4,0.7,0.7,1.7,0.5,3.1c0.7,0,1.1-0.2,1.2-0.3c0.8-2.2,1.2-4.7,1.1-7.2C306.2,354.7,305.8,352.7,305.1,350.7 M292,365.7
			c0.5,1,1.3,1.6,1.9,1.8c0.8,0.3,2.8,0.7,4.5,0.9c1.9,0.2,3.3-0.8,4.2-2.9c-0.6,0-1.3-0.1-2-0.2c-0.1,0.4-0.3,0.8-0.5,1.2
			c-0.2,0.3-0.5,0.4-0.8,0.2c-0.3-0.2-0.4-0.5-0.2-0.8c0.1-0.2,0.3-0.5,0.3-0.8c-0.4-0.1-0.7-0.1-1.1-0.2c-0.1,0.5-0.3,1-0.4,1.3
			c-0.1,0.3-0.5,0.4-0.8,0.3c-0.3-0.1-0.4-0.5-0.3-0.8c0.1-0.3,0.2-0.7,0.3-1.1c-0.2,0-0.4-0.1-0.6-0.1c-0.2-0.1-0.4-0.1-0.6-0.1
			c-0.1,0.3-0.2,0.7-0.4,1.1c-0.1,0.3-0.5,0.4-0.8,0.3c-0.3-0.1-0.4-0.5-0.3-0.8c0.1-0.3,0.2-0.6,0.3-0.9c-1-0.2-2-0.5-3-0.8
			C291.5,364.3,291.7,365.2,292,365.7 M302.9,364.3c0.2-1.2,0-2-0.3-2.5c-0.4-0.6-1-1.1-1.7-1.3l-0.7-0.2c-0.7-0.1-1.7-0.3-3.2-0.7
			c-2.1-0.5-3.8,0.4-4.8,2.5c1,0.3,2,0.6,3,0.8c0.1-0.8,0.2-1.3,0.2-1.3c0-0.3,0.3-0.6,0.6-0.5c0.3,0,0.6,0.3,0.6,0.6
			c0,0,0,0.6-0.2,1.5c0.2,0,0.4,0.1,0.6,0.1c0.2,0,0.4,0.1,0.6,0.1c0.2-0.8,0.3-1.5,0.3-1.5c0.1-0.3,0.3-0.5,0.7-0.5
			c0.3,0,0.5,0.3,0.5,0.7c0,0.1-0.1,0.8-0.3,1.6c0.4,0.1,0.8,0.1,1.1,0.2c0.1-0.7,0.2-1.3,0.2-1.3c0-0.3,0.3-0.6,0.6-0.6
			c0.3,0,0.6,0.3,0.6,0.6c0,0,0,0.6-0.2,1.4C301.6,364.2,302.3,364.3,302.9,364.3 M272.6,351.1c-0.3,0-0.8,0-1.3,0.5
			c-0.8,0.9-1.2,2.1-1.1,3.6c0,0.4,0.1,0.6,0.2,0.9c0.2,0.5,0.7,0.9,1,1c0.4,0.1,0.9-0.2,1.3-0.7c0.9-1.1,1.3-3.1,0.9-4.4
			C273.2,351.5,272.9,351.1,272.6,351.1"/>
		<path class="st3" d="M257.4,374.6c1.5,1,3.1,1.9,3.1,1.9l-0.6,1.4c-0.2-0.9-1.1-1.3-2.2-2l-3.6,5.2c-0.4,0.6-1.3,2-1.4,2.5
			c0,0-0.6-0.4-1.1-0.8c-0.6-0.4-1.1-0.8-1.1-0.8c0.5-0.1,1.5-1.5,2-2.3l3.5-5c-1.3-1-1.8-1.2-2.8-1.3l1.3-0.9
			C254.5,372.5,255.7,373.5,257.4,374.6"/>
		<path class="st3" d="M259.7,387.6c-2.5-1.2-2.9-4-1.6-6.6c1.2-2.6,3.6-4.1,6.1-2.9c2.5,1.2,2.9,4,1.6,6.6
			C264.6,387.3,262.2,388.8,259.7,387.6 M263.9,378.9c-1.6-0.8-2.9,1-3.8,3.1c-1,2-1.6,4.1,0,4.9c1.6,0.8,2.9-1.1,3.8-3.1
			C264.8,381.8,265.5,379.6,263.9,378.9"/>
		<path class="st3" d="M271,380.8c1.7,0.5,3.1,0.8,3.1,0.8l-0.1,1.5c-0.5-0.7-0.7-0.8-2.1-1.2l-1.8,5.9c-0.1,0.5-0.8,2.6-0.6,3
			c0,0-0.5-0.1-1.3-0.3c-0.9-0.2-1.3-0.4-1.3-0.4c0.5-0.3,1-2.1,1.2-2.8l1.8-6c-1.5-0.5-1.9-0.5-2.6-0.2l0.9-1.3
			C268.1,379.9,269.1,380.3,271,380.8"/>
		<path class="st3" d="M278,382.4c1.7,0.3,3.3,0.4,3.3,0.4l0.1,1.5c-0.6-0.6-0.9-0.7-2.5-1l-1,6.1c-0.1,0.6-0.4,2.7-0.1,3
			c0,0-0.6-0.1-1.4-0.2c-0.8-0.1-1.3-0.2-1.3-0.2c0.4-0.3,0.7-2.3,0.8-2.9l1-6.2c-1.4-0.3-1.7-0.2-2.4,0.2l0.6-1.5
			C275,381.8,276.3,382.1,278,382.4"/>
		<path class="st3" d="M284.2,388.2l-0.1,4.1c2.1,0,3.6-0.1,4.3-1l-0.3,1.8c0,0-1.2,0-2.9,0c-1.9,0-3.4-0.1-3.4-0.1
			c0.3-0.3,0.4-2.3,0.4-2.9l0.2-4c0-1.1,0.1-2.8-0.2-3.1c1.6,0.1,1.4,0.1,2.8,0.2c1.9,0.1,2.9,0,2.9,0l0.2,1.5
			c-0.7-0.6-1.8-0.7-3.6-0.7l-0.1,3.4l2.7,0c0.2,0,0.3,0.1,0.3,0.4c0,0.3,0,0.4-0.3,0.4L284.2,388.2z"/>
		<path class="st3" d="M296.2,389.4c0.2,1.5,0.3,2.6,0.7,2.8c-0.1,0.1-0.4,0.3-0.7,0.4c-0.4,0-0.8-0.2-1.1-0.5l-4.8-5.6l0.2,3.6
			c0.1,0.5,0.1,2.7,0.5,2.9l-1.6,0.1c0.3-0.3,0.2-2.4,0.1-2.9l-0.2-4c-0.1-0.6-0.2-2.8-0.5-3.1l1.5,0l5,5.9l-0.4-3.4
			c-0.1-0.6-0.4-2.6-0.7-2.9c0,0,0.2,0,0.8-0.1c0.6-0.1,0.8-0.1,0.8-0.1c-0.3,0.3,0,2.4,0.1,3L296.2,389.4z"/>
		<path class="st3" d="M305.3,387.3c0.2,0.7,0.5,2.5,1,2.8c0,0-0.8,0.2-1.2,0.4c-0.4,0.1-1.3,0.4-1.3,0.4c0.2-0.4-0.3-2.5-0.4-3.1
			l-0.5-1.9l-3.1,0.8l0.4,1.9c0.1,0.6,0.4,2.7,0.8,2.9c0,0-0.4,0.1-1.3,0.3c-0.8,0.1-1.3,0.2-1.3,0.2c0.2-0.4-0.1-2.3-0.2-2.9
			l-0.7-4c-0.1-0.7-0.5-2.6-0.9-2.8c0,0,0.4-0.1,1.3-0.2c0.9-0.2,1.3-0.3,1.3-0.3c-0.2,0.4,0.2,2.2,0.3,2.9l0.2,1.3l3-0.7l-0.3-1.3
			c-0.2-0.7-0.6-2.3-1-2.6c0,0,0.4-0.1,1.3-0.4c0.8-0.2,1.2-0.4,1.2-0.4c-0.2,0.5,0.3,2.1,0.5,2.9L305.3,387.3z"/>
		<path class="st3" d="M310.9,384.9l-3,1.2l0.1,1.7c0.1,0.6,0.1,1.1,0.2,1.4c0.1,0.1,0.2,0.2,0.3,0.3c0,0-0.3,0.1-0.8,0.3
			c-0.5,0.2-0.8,0.3-0.8,0.3c0.2-0.3,0.2-0.7,0.2-1.3l-0.3-7.8c0-0.3,0-0.6-0.1-0.8c-0.1-0.2-0.2-0.3-0.3-0.4
			c0.3-0.2,0.8-0.5,1.2-0.7c0.7-0.3,1-0.3,1.5,0.3l4.4,5.5c0.8,1,1.5,1.7,2,1.9c0,0-0.4,0.2-1.3,0.6c-0.8,0.4-1.4,0.6-1.4,0.6
			c0.1-0.2,0.1-0.4,0-0.6c-0.1-0.3-0.6-0.8-0.8-1.2L310.9,384.9z M310.4,384.3l-2.7-3.7l0.2,4.7L310.4,384.3z"/>
		<path class="st3" d="M323.5,382.1c-0.6,0.4-1.1,0.7-1.1,0.7c0-0.6-1.2-2.1-1.5-2.5l-2.6-3.4l2.1,6.7c-0.1,0.1-0.2,0.3-0.4,0.4
			c-0.4,0.3-0.8,0.3-1.2,0l-4.9-4.1l1.7,3.2c0.4,0.8,1.2,2.5,1.8,2.7c0,0-0.3,0.2-0.8,0.4c-0.4,0.2-0.7,0.3-0.7,0.3
			c0.1-0.5-0.7-1.9-1.2-2.8l-1.9-3.6c-0.6-1.1-1.2-2.2-1.8-2.4c0.4-0.2,0.6-0.3,1.2-0.6c0.5-0.2,1-0.5,1-0.5l5.6,4.7l-2.2-6.7
			c0,0,0.3-0.2,0.9-0.6c0.6-0.4,1.1-0.7,1.1-0.7c0,0.6,1.2,2.1,1.6,2.7l2.4,3.1c0.5,0.6,1.5,2,2.1,2.2
			C324.7,381.2,324.1,381.7,323.5,382.1"/>
		<path class="st3" d="M266.6,394.3c0.5,0.2,1.2,0.4,1.2,0.4c-0.6,0.4-1.1,2-1.4,2.9l-1.3,3.6c-0.4,1-0.9,2.4-0.7,2.9
			c0,0-0.7-0.2-1.3-0.4c-0.5-0.2-0.8-0.3-1.3-0.5c0.6-0.2,1.2-2.3,1.4-2.8l0.6-1.7l-3.1-1.3l-0.9,1.9c-0.3,0.7-1,2.2-0.8,2.6
			c0,0-0.5-0.2-1.3-0.6c-0.9-0.4-1.2-0.6-1.2-0.6c0.7-0.3,1.1-1.4,1.6-2.5l1.6-3.6c0.6-1.2,1-2.3,1-3c0,0,0.3,0.2,1.1,0.5
			c0.6,0.3,1,0.4,1.3,0.6c-0.5,0.2-1.2,2-1.6,2.8l-0.5,1l3,1.2l0.5-1.1c0.2-0.6,1-2.3,0.8-2.9C265.3,393.8,265.9,394,266.6,394.3"/>
		<path class="st3" d="M270.1,405.9c-2.7-0.7-3.6-3.3-2.8-6c0.7-2.7,2.8-4.6,5.5-3.9c2.7,0.7,3.6,3.3,2.8,6
			C274.8,404.7,272.8,406.6,270.1,405.9 M272.5,396.8c-1.7-0.5-2.6,1.5-3.2,3.6c-0.5,2.1-0.7,4.3,1,4.7c1.7,0.4,2.6-1.5,3.2-3.6
			C274,399.4,274.2,397.2,272.5,396.8"/>
		<path class="st3" d="M277.4,406.8c0,0,0.2-0.2,0.3-0.6c0.2-0.5,0.3-1.6,0.4-2.4l0.8-5.8c-1.6-0.2-2-0.1-2.7,0.3l0.7-1.5
			c0.5,0.1,1.6,0.2,3,0.4c0.9,0.1,3.6,0.4,3.6,0.4l0.1,1.5c-0.6-0.7-1.2-0.7-2.5-0.9l-0.8,5.9c-0.1,0.5-0.4,2.4-0.1,3
			c-0.3,0-0.9-0.1-1.3-0.1C278.3,407,277.7,406.9,277.4,406.8"/>
		<path class="st3" d="M290.2,404.8c0,1.8-1.4,3-3.6,3c-1.7,0-2.6-0.7-2.9-1l0.4-1.7c0.5,1.1,1.4,1.8,2.4,1.9c1,0,1.9-0.6,1.9-1.6
			c0-0.7-0.4-1.2-2.1-2.1c-1.7-0.9-2.3-1.7-2.3-3c0-1.7,1.5-2.6,3.3-2.6c1.3,0,2.2,0.4,2.8,0.7l-0.4,1.5c-0.8-1.1-1.5-1.4-2.4-1.5
			c-0.8,0-1.4,0.4-1.4,1.3c0,1,1.1,1.5,2.5,2.3C289.8,402.9,290.2,403.8,290.2,404.8"/>
		<path class="st3" d="M298.2,399.4c0.1,0.2,0.1,0.5,0.1,0.7c0,0.2,0,0.4,0,0.6c-0.1,0.6-0.3,1.2-0.8,1.7c-0.7,0.7-1.6,1.1-2.8,1.1
			c-0.4,0-0.6-0.1-0.6-0.4v-0.1c0,0,0-0.1,0.1-0.1h0.1c0.4,0,0.9-0.2,1.3-0.7c0.4-0.5,0.5-1.2,0.5-2c-0.1-0.8-0.3-1.3-0.8-1.7
			c-0.4-0.4-1-0.5-1.5-0.4c0,0-0.2,0-0.5,0.1c0,0-0.2,0-0.1,0.2l0.6,6.1c0.1,0.5,0.2,2.4,0.6,2.8c0,0-0.5,0.1-1.4,0.1
			c-0.7,0.1-1.3,0.1-1.3,0.1c0.2-0.5,0.2-1.2,0.1-2l-0.5-4.8c0-0.5-0.1-2.4-0.6-2.9c0,0,1.2-0.2,3.4-0.4c1.2-0.1,2.1,0,2.9,0.6
			C297.7,398.4,298.1,398.9,298.2,399.4"/>
		<path class="st3" d="M307.3,401.4c0.5,2.1-0.5,3.9-2.7,4.4c-1.5,0.4-3.8-0.2-4.4-2.9l-0.7-3.2c-0.2-0.9-0.5-2.5-1-2.9
			c0,0,0.6-0.1,1.5-0.3c0.9-0.2,1.3-0.3,1.3-0.3c-0.2,0.4,0,1.8,0.2,2.9l1,4c0.2,0.7,0.4,1.2,0.8,1.5c0.3,0.2,0.7,0.3,1.1,0.2
			c0.4-0.1,0.8-0.3,1-0.7c0.2-0.4,0.2-1,0.1-1.7l-1.1-4c-0.3-1.1-0.6-2.5-1-2.7c0,0,0.4-0.1,1.3-0.4c0.6-0.2,1-0.3,1.3-0.4
			c-0.2,0.6,0.3,2.5,0.5,3L307.3,401.4z"/>
		<path class="st3" d="M317.1,400.6c0.2,0.1,0.4,0.1,0.6,0.1c0,0.1-0.1,0.4-0.4,0.6c-0.9,0.9-1.7,0.8-2,0.6
			c-1.5-0.6-4.1-2.8-4.2-3.1c0,0,0-0.1,0-0.1l0.1,0c0.4-0.2,0.8-0.6,1-1c0.3-0.6,0.2-1.2-0.1-1.9c-0.3-0.7-0.8-1.2-1.2-1.3
			c-0.6-0.2-1.1,0-1.3,0.1c0,0-0.4,0.1-0.5,0.2c0,0-0.1,0.1,0,0.3l1.9,5.5c0.3,0.8,0.8,2.4,1.3,2.7c0,0-0.5,0.2-1.3,0.5
			c-0.8,0.3-1.3,0.4-1.3,0.4c0.2-0.6-0.4-2.3-0.6-2.7l-1.2-3.7c-0.3-0.9-0.9-2.5-1.3-2.8c0,0,0.9-0.3,2.9-1.1
			c1.1-0.5,2.1-0.6,3.1-0.4c0.6,0.2,1,0.5,1.3,0.9c0.1,0.2,0.2,0.3,0.3,0.5c0.1,0.2,0.1,0.4,0.2,0.5c0.1,0.6,0,1.2-0.3,1.7
			c0,0-0.3,0.6-0.9,1C313.2,398.2,315.2,399.9,317.1,400.6"/>
		<rect x="219.6" y="250.2" class="st4" width="138.9" height="165.6"/>
	</g>
	<g>
		<path class="st1" d="M394.7,112.8h26.2v7.4h-20.1l-2.6,12.9l0.1,0.1c1.1-1.3,2.5-2.2,4.2-2.9c1.7-0.7,3.4-1,5.1-1
			c2.5,0,4.8,0.4,6.7,1.3c2,0.8,3.6,2,5,3.6c1.4,1.5,2.4,3.3,3.1,5.4c0.7,2.1,1.1,4.3,1.1,6.7c0,2-0.3,4.1-1,6.3
			c-0.7,2.1-1.7,4.1-3.1,5.9c-1.4,1.8-3.2,3.2-5.5,4.3c-2.2,1.1-4.9,1.7-8,1.7c-2.5,0-4.7-0.3-6.8-1c-2.1-0.7-3.9-1.6-5.5-2.9
			c-1.6-1.3-2.9-2.9-3.8-4.8c-0.9-1.9-1.5-4.1-1.6-6.7h8.3c0.2,2.8,1.2,4.9,2.8,6.3c1.6,1.5,3.8,2.2,6.5,2.2c1.7,0,3.2-0.3,4.4-0.9
			c1.2-0.6,2.2-1.4,2.9-2.4c0.7-1,1.3-2.2,1.6-3.5c0.3-1.4,0.5-2.8,0.5-4.3c0-1.4-0.2-2.7-0.6-4c-0.4-1.3-1-2.4-1.7-3.4
			c-0.8-1-1.8-1.7-3-2.3c-1.2-0.6-2.7-0.9-4.3-0.9c-1.7,0-3.4,0.3-4.9,1c-1.5,0.7-2.6,1.9-3.3,3.7h-8.3L394.7,112.8z"/>
		<path class="st1" d="M426.5,135.4h4.7V127h6.2v8.4h5.6v4.6h-5.6v15c0,0.7,0,1.2,0.1,1.7c0.1,0.5,0.2,0.9,0.4,1.2
			c0.2,0.3,0.5,0.6,0.9,0.7c0.4,0.2,0.9,0.2,1.6,0.2c0.4,0,0.9,0,1.3,0c0.4,0,0.9-0.1,1.3-0.2v4.8c-0.7,0.1-1.4,0.1-2,0.2
			c-0.7,0.1-1.3,0.1-2,0.1c-1.6,0-2.9-0.2-3.9-0.5s-1.8-0.8-2.3-1.4s-0.9-1.3-1.1-2.2c-0.2-0.9-0.3-1.9-0.4-3.1v-16.5h-4.7V135.4z"
			/>
		<path class="st1" d="M447.4,124.8h6.2v14.4h0.1c0.8-1.3,1.9-2.3,3.4-3.2c1.5-0.8,3.2-1.3,5-1.3c3.1,0,5.5,0.8,7.3,2.4
			c1.8,1.6,2.7,4,2.7,7.2v19.3h-6.2v-17.6c-0.1-2.2-0.5-3.8-1.4-4.8c-0.9-1-2.2-1.5-4.1-1.5c-1,0-2,0.2-2.8,0.6
			c-0.8,0.4-1.5,0.9-2.1,1.6s-1,1.5-1.4,2.4s-0.5,1.9-0.5,2.9v16.5h-6.2V124.8z"/>
	</g>
	<g>
		<path class="st2" d="M351.2,360.1c-1.8,0-3.4-0.2-4.9-0.7c-1.5-0.5-2.8-1.2-3.9-2.2c-1.1-0.9-1.9-2.1-2.6-3.5
			c-0.6-1.4-0.9-2.9-0.9-4.6c0-2.2,0.6-4,1.7-5.5s2.7-2.5,4.6-3v-0.1c-1.6-0.6-2.8-1.5-3.6-2.8s-1.3-2.7-1.3-4.4c0-3,0.9-5.3,2.8-7
			c1.9-1.7,4.5-2.5,8-2.5s6.1,0.8,8,2.5s2.8,4,2.8,7c0,1.7-0.4,3.2-1.3,4.4s-2.1,2.2-3.6,2.8v0.1c2,0.5,3.5,1.5,4.6,3
			s1.7,3.3,1.7,5.5c0,1.7-0.3,3.2-0.9,4.6c-0.6,1.4-1.5,2.5-2.6,3.5s-2.4,1.7-3.9,2.2S352.9,360.1,351.2,360.1z M351.2,355.6
			c1.9,0,3.5-0.6,4.7-1.7s1.9-2.7,1.9-4.8c0-1.9-0.6-3.4-1.9-4.5c-1.3-1.1-2.8-1.6-4.7-1.6c-1.9,0-3.5,0.5-4.7,1.6
			c-1.3,1.1-1.9,2.6-1.9,4.5c0,2.1,0.6,3.6,1.9,4.8C347.7,355.1,349.3,355.6,351.2,355.6z M351.2,328.4c-1.5,0-2.8,0.5-3.9,1.4
			c-1.1,0.9-1.6,2.2-1.6,3.9c0,1.7,0.5,2.9,1.5,3.8c1,0.9,2.3,1.3,3.9,1.3c1.6,0,2.9-0.4,3.9-1.3c1-0.9,1.5-2.1,1.5-3.8
			c0-1.7-0.5-3-1.6-3.9C354,328.9,352.7,328.4,351.2,328.4z"/>
		<path class="st2" d="M365.3,338.9h3.4v-6.1h4.5v6.1h4.1v3.4h-4.1v10.9c0,0.5,0,0.9,0.1,1.2c0,0.3,0.1,0.6,0.3,0.9
			c0.1,0.2,0.4,0.4,0.7,0.5c0.3,0.1,0.7,0.2,1.2,0.2c0.3,0,0.6,0,1,0s0.6-0.1,1-0.1v3.5c-0.5,0.1-1,0.1-1.5,0.2
			c-0.5,0.1-1,0.1-1.5,0.1c-1.2,0-2.1-0.1-2.9-0.3c-0.7-0.2-1.3-0.6-1.7-1c-0.4-0.4-0.7-1-0.8-1.6s-0.2-1.4-0.3-2.3v-12.1h-3.4
			V338.9z"/>
		<path class="st2" d="M380.5,331.1h4.5v10.5h0.1c0.6-0.9,1.4-1.7,2.5-2.3c1.1-0.6,2.3-0.9,3.7-0.9c2.2,0,4,0.6,5.3,1.7
			c1.3,1.2,1.9,2.9,1.9,5.2v14.1H394v-12.9c-0.1-1.6-0.4-2.8-1-3.5c-0.6-0.7-1.6-1.1-3-1.1c-0.8,0-1.5,0.1-2.1,0.4
			c-0.6,0.3-1.1,0.7-1.5,1.2c-0.4,0.5-0.8,1.1-1,1.7c-0.2,0.7-0.4,1.4-0.4,2.1v12.1h-4.5V331.1z"/>
	</g>
	<g>
		<path class="st0" d="M289.1,18.8c24.7,0,48.6,5.1,71,15.1c4.7,19,7.6,38.8,7.7,51.8c0,0.2,0,0.5,0,0.7c0,12.8-1.8,25.3-5.5,37.2
			c-3.6,11.7-8.9,22.7-15.8,32.9c-6.8,10-15.2,19.1-24.9,27.2c-10.3,8.6-22.5,16.3-32.5,20.7c-10.1-4.4-22.2-12.1-32.5-20.7
			c-9.7-8.1-18.1-17.2-24.9-27.2c-6.9-10.2-12.2-21.2-15.8-32.9c-3.6-11.9-5.5-24.4-5.5-37.2c0-0.2,0-0.5,0-0.7
			c0.1-13,3-32.8,7.7-51.8C240.5,23.9,264.4,18.8,289.1,18.8"/>
		<path class="st5" d="M289.1,91.9c5.5,0,10.6,1.4,15.1,3.9H350c0.1-3.2,0-6.8,0-10.2c-0.3-14-4.3-37.8-8.4-54.2
			c-16.3-5.3-33.7-8.4-52.5-8.4L289.1,91.9z"/>
		<path class="st6" d="M289.1,23.1c-18.4,0-35.3,2.7-52.5,8.3c-4.2,17-7.7,39.6-8.2,50.4c-0.8,15.9,0.4,27.3,3.6,39.9
			c1.8,7,4.2,13.7,7.2,20.4c3.3-1.7,6.7-3.9,10.1-6.4c3.6-2.7,6.7-6.1,9.3-9.3c-0.1-1.2-0.2-2.4-0.2-3.6c0-1.9,0.2-3.7,0.5-5.5
			c-6.3,0.2-10,0.3-12.8,0.3c-3.4,0-6.5-2.4-8-6h-1.6c-1.2,0-3.2-1-3.2-4.9c0-3.9,2-4.9,3.2-4.9h1.6c1.5-3.7,4.6-6,8-6H274
			c4.5-2.5,9.6-3.9,15.1-3.9L289.1,23.1z"/>
		<path class="st7" d="M261.2,177.6c-8.7-8.6-15.8-18.2-21.5-28.4c-5.8-10.3-9.8-21.8-12.3-33.4c-2.5-11.8-3.3-23.8-2.4-36.5
			c0.8-11.9,3.9-30,7.8-46.7c-3.7,1.3-7.4,2.8-11.1,4.3c-4.1,16.4-7,37.3-7,48.7c-0.1,12.7,1.7,25,5.3,36.6
			c3.7,12.1,8.6,22,15.2,31.7c6.6,9.6,14.7,18.5,24.1,26.3c8.8,7.3,18.8,13.7,29.8,19.1l0,0C278.7,193,269.3,185.7,261.2,177.6"/>
		<path class="st7" d="M317,177.6c8.7-8.6,15.8-18.2,21.5-28.4c5.8-10.3,9.8-21.8,12.2-33.4c2.5-11.8,3.3-23.8,2.4-36.5
			c-0.8-11.9-3.9-30-7.8-46.8c3.7,1.3,7.4,2.8,11.1,4.3c4.1,16.4,7,37.3,7,48.7c0.1,12.7-1.7,25-5.3,36.6
			c-3.4,11.2-8.6,21.9-15.2,31.7c-6.6,9.6-14.7,18.5-24.1,26.3c-8.8,7.3-18.8,13.7-29.8,19.1l0,0C299.5,193,308.9,185.7,317,177.6"
			/>
		<path class="st8" d="M289.1,93.4c-16.2,0-29.3,13.1-29.3,29.3c0,16.2,13.1,29.3,29.3,29.3c16.2,0,29.3-13.1,29.3-29.3
			C318.4,106.6,305.3,93.4,289.1,93.4"/>
		<path class="st6" d="M289.1,153.6c-10,0-18.8-4.7-24.5-12.1c-6.9,3.9-14.1,7-21.1,9.2c5.5,9.6,12.3,18.6,20.4,26.8
			c7.4,7.4,15.8,14.2,25.1,20.2V153.6z"/>
		<path class="st8" d="M245.9,116.1c-3.2,0-5.9-2.5-7-6h-2.7c-0.7,0-1.7-0.8-1.7-3.3c0-2.5,1-3.4,1.7-3.4h2.7c1.1-3.5,3.8-6,7-6
			h25.7c-6.2,4.3-10.8,10.8-12.6,18.4C253.3,116,249,116.1,245.9,116.1"/>
		<path class="st8" d="M360.8,33.3C339,23.5,315,18,289.1,18c-25.9,0-49.9,5.5-71.7,15.3c-5,20.3-7.7,40.1-7.8,52.3
			c-0.1,13.1,1.8,25.9,5.5,38.1c3.6,11.7,8.9,22.9,15.9,33.1c6.8,10,15.3,19.2,25,27.4c9.2,7.6,21.7,16,33,20.9
			c11.4-4.9,23.8-13.3,33-20.9c9.8-8.1,18.2-17.3,25-27.4c7-10.2,12.3-21.3,15.9-33.1c3.7-12.2,5.6-25,5.5-38.1
			C368.5,73.3,365.8,53.6,360.8,33.3 M342.9,153.9c-6.6,9.6-14.7,18.5-24.1,26.3c-8.8,7.3-18.8,13.7-29.8,19.1
			c-10.9-5.4-21-11.9-29.7-19.1c-9.4-7.8-17.5-16.7-24.1-26.3c-0.5-0.8-1-1.5-1.5-2.3c9.6-1.6,20.2-5.7,30-11.3
			c-2.4-3.5-4.2-7.6-5-11.9c-2.5,3-5.4,6.1-8.7,8.6c-5.4,4-11.9,8-19,10.2c-4.6-7.9-8.3-16.2-11-25c-3.5-11.6-5.3-23.9-5.3-36.6
			c0.1-11.4,2.9-32.2,7-48.7c21.3-9.2,43.9-13.9,67.3-13.9c23.4,0,46,4.7,67.3,13.9c4.1,16.4,7,37.3,7,48.7c0,3.9-0.1,7.9-0.5,11.7
			h-56.4c7,4.8,11.9,12.4,13.1,21.2l10.7-2.6c2.4-0.5,3.4-2.2,3.7-3.7l27-1.8c-0.8,4-1.8,7.9-2.9,11.7
			C354.7,133.5,349.6,144.1,342.9,153.9"/>
		<path class="st0" d="M291,130.9v15.8c7.4-0.6,13.8-4.5,17.8-10.3l-13.7-7.9C294,129.7,292.6,130.5,291,130.9"/>
		<path class="st0" d="M287.1,98.9c-7.4,0.6-13.8,4.5-17.8,10.3L283,117c1.1-1.2,2.5-2,4.2-2.4V98.9z"/>
		<path class="st0" d="M289.1,118.5c-2.4,0-4.3,1.9-4.3,4.3c0,2.4,1.9,4.3,4.3,4.3c2.4,0,4.3-1.9,4.3-4.3
			C293.3,120.4,291.4,118.5,289.1,118.5"/>
		<path class="st0" d="M291,98.9v15.8c1.6,0.4,3,1.2,4.1,2.4l13.7-7.9C304.8,103.4,298.4,99.4,291,98.9"/>
		<path class="st0" d="M287.1,130.9c-1.3-0.3-2.5-0.9-3.5-1.8c-0.2-0.2-0.5-0.4-0.7-0.6l-13.7,7.9c0.3,0.5,0.7,0.9,1,1.3
			c4,5,10,8.4,16.8,8.9V130.9z"/>
		<path class="st0" d="M297.1,125.2l13.7,7.9c2.7-5.5,3.4-13.4,0-20.6l-13.7,7.9C297.5,121.8,297.6,123.5,297.1,125.2"/>
		<path class="st8" d="M271.6,108.7l11.1,6.4c0.8-0.7,1.8-1.3,2.8-1.6v-12.9C280.1,101.4,275.1,104.3,271.6,108.7"/>
		<path class="st8" d="M292.6,100.6l0,12.9c1,0.4,2,0.9,2.8,1.6l11.2-6.4C303.1,104.3,298.1,101.4,292.6,100.6"/>
		<path class="st8" d="M311.4,120.4c-0.2-2-0.7-3.9-1.4-5.7l-11.2,6.4c0.1,0.5,0.1,1.1,0.1,1.6c0,0.2,0,0.4,0,0.6
			c3.2-0.9,6.5-1.7,9.9-2.4C309.6,120.8,310.5,120.6,311.4,120.4"/>
		<path class="st5" d="M289.1,197.8c9.3-6,17.8-12.8,25.1-20.3c8.6-8.7,15.8-18.3,21.4-28.5c5.7-10.4,9.7-21.9,12.1-33.5
			c0.2-0.9,0.4-1.7,0.5-2.6l-13,0.9c-0.7,1.8-2.2,3.2-4.4,3.7l0,0c-0.1,0-4.9,1.2-11,2.6c0.1,0.9,0.1,1.8,0.1,2.7
			c0,17.1-13.8,30.9-30.8,30.9V197.8z"/>
		<path class="st8" d="M291.8,122.8c0-1.5-1.2-2.8-2.8-2.8c-1.5,0-2.7,1.2-2.7,2.8c0,1.5,1.2,2.8,2.7,2.8
			C290.6,125.5,291.8,124.3,291.8,122.8"/>
		<path class="st5" d="M292.5,144.9c5.5-0.8,10.5-3.7,14-8.1l-11.2-6.5c-0.8,0.7-1.8,1.2-2.8,1.6C292.5,132,292.6,144.9,292.5,144.9
			"/>
		<path class="st6" d="M271.6,136.9l11.2-6.5c0.8,0.7,1.8,1.2,2.8,1.6l0,12.9C280.1,144.1,275.1,141.2,271.6,136.9"/>
		<path class="st5" d="M311.5,122.8c0-0.3,0-0.6,0-0.9c-0.8,0.2-1.7,0.4-2.4,0.5c-3.4,0.7-6.7,1.6-9.7,2.4l10.6,6.1
			C311,128.3,311.5,125.6,311.5,122.8"/>
		<path class="st0" d="M267.4,112.5c-3.2,6.7-3,14.2,0,20.6l13.6-7.9c-0.5-1.5-0.5-3.2,0-4.8L267.4,112.5z"/>
		<path class="st8" d="M268.2,130.9l11.1-6.5c-0.2-1.1-0.2-2.2,0-3.3l-11.2-6.4C266.1,119.9,266.1,125.7,268.2,130.9"/>
		<path class="st8" d="M300.2,72.5c0,0.6-0.2,2.6-0.2,3.2h8.9c-0.5-2.4-0.7-5.7-0.8-8.1l-0.1-5.1c0-0.5,0.1-0.9,0.4-1.2
			c0.3-0.3,0.6-0.4,1-0.4c0.4,0,1.1,0,1.2,1.4l0.2,5.5c0.1,2.5,0.1,5.9-0.2,8h8.7c-0.1-0.7-0.4-2.5-0.4-3c1.1,2.3,3.4,3.5,6.5,3.5
			c1.9,0,3.3-0.7,4.3-1.3c0,0.1,0.5,0.9,0.5,0.9h16c-0.7-2.4-1.2-5.8-1.4-8.2l-2.2-17.9l-8.3-1.3c0.7,2.2,1.2,5.7,1.4,8.1
			c0,0,1.2,11.5,1.2,11.5c0.2,2.1,0.5,4.3,0.4,6.6v0.3l-0.3-0.8c-0.6-1.4-0.9-3.4-1.1-6c0,0-0.3-3.7-0.3-3.7
			c-0.4-5.8-3.6-8.5-10.6-8.5c-1.2,0-4.1,0.3-5.9,0.8l0.5,6.6l1.9-1.1c1.5-0.9,2.7-1.3,4.1-1.3c1.1,0,1.8,0.4,2.1,1.2
			c-1.4,0.2-2.8,0.6-4.4,1.3c-2.5,1.1-4.1,2.7-4.7,4.6c0,0,0-0.1,0-0.2c0,0-0.3-6.1-0.3-6.1c-0.1-3.9-2.6-6.4-6.4-6.4
			c-1.8,0-3.3,0.5-4.7,1.5c-0.1-0.2-0.2-0.5-0.2-0.7l-0.3-0.7l-7.1-0.3c0.3,1.3,0.8,4.9,0.9,6.3c-0.4-1.9-1.4-4-3.3-5.3
			c-1.5-1-3.3-1.5-5.3-1.5c-2.6,0-5.3,1.1-7.1,3c-1.8,1.8-2.8,4.3-2.9,7.3c-0.7-0.7-1.6-1.4-2.7-1.9l-3.3-1.6l-0.2-0.1
			c-0.8-0.4-0.8-0.5-0.8-0.7c0-0.3,0.8-0.7,1.9-0.7c1.3,0,3.3,0.7,4.9,1.7l0.1-5.9c-1.2-0.5-2.8-0.9-5.1-0.9c-1.2,0-3.5,0.2-5.6,1.3
			c-0.5,0.3-1,0.7-1.5,1.1l0.1-1.7c-1.9-0.2-3.9-0.3-6.4,2c0-0.2-0.2-0.9-0.3-1.4l-7.7,0.5c0.6,2.1,0.6,5.2,0.5,8l-0.1,2.9l0,0.3
			c-0.1,1.5-0.2,3.1-0.3,4.6c-0.6-2-1.3-4.7-1.9-7l-3.8-17.1l-10.8,1.5c0.1,0.2,0.2,0.8,0.3,1.3c0.1,0.7,0.1,2.2-1,5.2
			c-1.7,5.1-4.2,12.6-6.6,17.7c-0.3,0.7-0.9,1.9-0.9,1.9h8.4c0.1-1.3,0.7-3.5,1.2-5.1c1.2,0,4.2-0.1,5.6-0.2c0.3,1.2,0.6,3,0.7,4
			l0.1,1.3h17c-0.4-2.7-0.2-6.4-0.1-8.5c0.1-2.4,0.6-3.9,1.6-4.9c0.7-0.8,1.7-1,2.3-1c-0.1,3.2,2,4.7,3.9,5.6l3.3,1.7
			c1.2,0.6,1.2,0.9,1.2,1.2c0,0.6-1,0.9-1.9,0.9c-1.7,0-4.1-1.2-6.8-4l-0.2,7.6c2.1,1.2,4.7,1.6,7.1,1.6c3.9,0,8-1.7,9.1-5.3
			c1.9,3.6,5.7,5.3,9.4,5.3C295.6,75.9,298.1,74.8,300.2,72.5 M242,65c0.4-1.3,0.8-2.3,1.5-4.4c0.5,2.1,0.7,3.3,0.9,4.3
			C243.5,64.9,243.1,64.9,242,65 M289.5,63L289.5,63c0-2.6,1-3.6,1.9-3.7c0.3,0,1-0.1,1.3,1.1c0.1,0.5,0.2,0.8,0.2,1.1
			c0,0.7-0.4,0.8-0.8,1l0,0c0,0-1.3,0.5-2.5,1C289.5,63.3,289.5,63.2,289.5,63 M298.3,68.3c-1.6,1.4-2.8,2.3-4.7,2.2
			c-1.5,0-2.5-1-3-2.2c1.7-0.6,7.9-3,9.7-3.6c0,1.3,0,3.1,0,3.1v0c0,1,0,2.1,0,3c0,0,0,0,0,0L298.3,68.3z M327.2,70.7
			c-1.5,0.1-1.8-0.9-1.8-1.7c0-0.8,0.3-1.9,2.6-2.5c0.1,0.8,0.1,1.6,0.1,1.6l0,0.7c0,0.5,0.1,1,0.1,1.5
			C328,70.6,327.6,70.7,327.2,70.7"/>
		<path class="st0" d="M280.2,56.4c-0.7-0.3-2-0.5-3.8-0.5c-1.5,0-3.4,0.3-4.9,1.1c-1.7,1-2.9,2.5-3,4.2c-0.2,2.5,1.2,3.6,3.1,4.6
			c1.3,0.7,2.6,1.3,3.3,1.7c1.1,0.6,2,1.2,1.9,2.5c-0.1,1.2-1.2,2.1-3.2,2.1c-1.6,0-4-1-5.6-2.4l-0.1,3.8c1.4,0.7,3.7,1.1,5.7,1.1
			c3.6,0,8-1.6,8.1-5.8c0.1-3-2.1-4.2-3.4-4.8c-1.3-0.6-2.6-1.3-3.3-1.6c-0.6-0.3-1.8-0.7-1.7-2.1c0.1-1.3,1.6-1.9,3.2-1.9
			c1.3,0,2.6,0.4,3.6,0.9L280.2,56.4z"/>
		<path class="st0" d="M248.3,49.5l-8.2,1.2c0.2,1.2-0.1,3.2-1,5.8c-1.7,5-4.5,13.1-6.7,17.9h5.1c0.3-1.5,0.7-3.1,1.4-5.1l7.7-0.2
			c0.3,1.5,0.9,3.9,1,5.3h6.8c-0.8-2-1.9-6.1-2.6-9L248.3,49.5z M240.1,66.3l3.7-10.8l2.2,10.6L240.1,66.3z"/>
		<path class="st0" d="M268,56.5l-0.2,3.6c-1.2-0.2-2.8,0.1-4,1.4c-1.1,1.2-1.8,2.8-2,5.8c-0.1,2.4-0.2,5,0,7.2H256
			c0.4-2.2,0.5-4.8,0.7-7.2l0.2-2.9c0.1-2.4,0.1-4.6-0.2-6.8l5.1-0.3c0.2,0.9,0.4,2,0.3,3.3C264.2,57.1,266.4,56.4,268,56.5"/>
		<path class="st0" d="M341.2,50.7l-5.3-0.9c0.5,2.2,0.7,4,1,6.3l1.2,11.5c0.3,2.4,0.5,4.6,0.4,6.7h5.7c-0.5-2.2-0.8-4.4-1-6.7
			L341.2,50.7z"/>
		<path class="st0" d="M317.6,74.4c-0.3-2.2-0.5-4.3-0.6-6.7l-0.3-6.1c-0.1-3.2-2-5.1-5.1-5.1c-1.7,0-3.7,0.5-5.4,2.7
			c0-0.5-0.3-2-0.6-2.7l-4.6-0.2c0.4,2.2,0.5,4.5,0.6,6.9l0.1,4.5c0.1,2.4,0,4.6-0.2,6.7h5.9c-0.3-2.2-0.5-4.3-0.6-6.7l-0.1-5.1
			c-0.1-1.8,1.3-3,2.7-3c1.6,0,2.4,1.1,2.5,2.7l0.2,5.5c0.1,2.4,0.1,4.6,0,6.7H317.6z"/>
		<path class="st0" d="M335.7,74.4c-0.7-1.7-1.1-4-1.2-6.4l-0.3-3.7c-0.3-4.3-2.1-7.3-9.3-7.3c-1.2,0-3,0.2-4.5,0.5l0.2,3.3
			c1.4-0.9,3-1.5,4.8-1.5c1.9,0,3.5,0.8,3.7,3.6c-1.8,0.2-3.6,0.5-5.5,1.4c-2.2,1-4.4,2.7-4.2,5.7c0.2,3.3,2.7,4.7,5.9,4.7
			c2.4,0,4-1.2,4.9-2.1c0.2,0.6,0.4,1.2,0.7,1.7H335.7z M327.2,72c-1.6,0.1-3.1-0.8-3.1-2.9c0-1.9,1.3-3.6,5.2-4.2l0.2,3.1
			c0.1,1.1,0.1,1.8,0.2,2.9C329.1,71.6,328.2,72,327.2,72"/>
		<path class="st0" d="M296.1,57c-1.3-0.9-2.9-1.3-4.5-1.3c-3.8,0-8.8,2.7-8.7,9.7c0.1,7,5.5,9.2,9.3,9.2c3.3,0,5.4-1.2,7-2.9
			l-1.2-1.5c-0.9,0.7-2.3,1.7-4.5,1.7c-2.4,0-4-1.8-4.7-4.3l10.5-3.9C299,60.1,297.8,58.1,296.1,57 M292.5,63.8l-4.2,1.6
			c-0.1-0.7-0.2-1.5-0.2-2.3c0-4.3,2.3-5,3.1-5.1c1.3-0.1,2.3,0.6,2.8,2.1C294.4,61.8,294.3,63.1,292.5,63.8"/>
	</g>
	<g>
	</g>
	<g>
	</g>
	<g>
	</g>
	<g>
	</g>
	<g>
	</g>
	<g>
	</g>
</g>
</svg>
