<?xml version="1.0" encoding="utf-8"?>
<!-- Generator: Adobe Illustrator 21.0.2, SVG Export Plug-In . SVG Version: 6.00 Build 0)  -->
<!DOCTYPE svg PUBLIC "-//W3C//DTD SVG 1.1//EN" "http://www.w3.org/Graphics/SVG/1.1/DTD/svg11.dtd">
<svg version="1.1" id="Layer_1" xmlns="http://www.w3.org/2000/svg" xmlns:xlink="http://www.w3.org/1999/xlink" x="0px" y="0px"
	 viewBox="0 0 486 285" style="enable-background:new 0 0 486 285;" xml:space="preserve">
<style type="text/css">
	.st0{fill:#FFFFFF;}
	.st1{fill:#DA3644;}
	.st2{fill:#ADACAC;}
	.st3{fill:#D93644;}
	.st4{fill:#1C2C4D;}
	.st5{fill:none;}
	.st6{fill:#C9123F;}
	.st7{fill:#E00B1E;}
	.st8{fill:#153C66;}
	.st9{fill:#9F833A;}
</style>
<rect x="-0.4" y="-0.2" class="st0" width="486" height="285"/>
<g>
	<path class="st1" d="M48.9,34.2h7.6v1.9h-5.4v2.4h4.7v1.8h-4.7v4.5h-2.2V34.2z"/>
	<path class="st1" d="M60,44.9h-2.2V34.2H60V44.9z"/>
	<path class="st1" d="M62,34.2h2.3l4.2,7.4v-7.4h2.1v10.6h-2.2l-4.3-7.5v7.5H62V34.2z"/>
	<path class="st1" d="M75.7,34.2h2.5L82,44.9h-2.4l-0.7-2.2H75l-0.7,2.2h-2.3L75.7,34.2z M75.6,40.8h2.7L77,36.7L75.6,40.8z"/>
	<path class="st1" d="M83.3,34.2h2.2v8.7h5.3v1.9h-7.5V34.2z"/>
	<path class="st1" d="M96.2,34.2h2.2v8.7h5.3v1.9h-7.5V34.2z"/>
	<path class="st1" d="M113.1,36.1h-5.6v2.3h5.2v1.8h-5.2v2.7h5.9v1.9h-8V34.2h7.8V36.1z"/>
	<path class="st1" d="M118.1,34.2h2.5l3.8,10.6H122l-0.7-2.2h-3.9l-0.7,2.2h-2.3L118.1,34.2z M118,40.8h2.7l-1.3-4.2L118,40.8z"/>
	<path class="st1" d="M132.9,37.5c-0.2-0.7-0.6-1.2-1.2-1.5c-0.4-0.2-0.8-0.2-1.2-0.2c-0.9,0-1.6,0.3-2.1,1
		c-0.5,0.6-0.8,1.6-0.8,2.9c0,1.3,0.3,2.2,0.9,2.8c0.6,0.5,1.3,0.8,2,0.8c0.7,0,1.4-0.2,1.8-0.6c0.5-0.4,0.8-1,0.9-1.7h-2.5v-1.8
		h4.4v5.7h-1.5l-0.2-1.3c-0.4,0.5-0.8,0.9-1.2,1.1c-0.6,0.4-1.3,0.5-2.2,0.5c-1.4,0-2.6-0.5-3.5-1.5c-0.9-1-1.4-2.3-1.4-4
		c0-1.7,0.5-3.1,1.4-4.1s2.2-1.6,3.8-1.6c1.4,0,2.4,0.3,3.3,1c0.8,0.7,1.3,1.5,1.4,2.6H132.9z"/>
	<path class="st1" d="M137.2,34.2h2.3v6.5c0,0.7,0.1,1.3,0.3,1.6c0.3,0.6,0.9,0.9,1.8,0.9c0.9,0,1.5-0.3,1.7-0.9
		c0.2-0.3,0.3-0.9,0.3-1.6v-6.5h2.3v6.5c0,1.1-0.2,2-0.5,2.6c-0.7,1.2-1.9,1.7-3.7,1.7s-3.1-0.6-3.7-1.7c-0.3-0.6-0.5-1.5-0.5-2.6
		V34.2z"/>
	<path class="st1" d="M155.7,36.1h-5.6v2.3h5.2v1.8h-5.2v2.7h5.9v1.9h-8V34.2h7.8V36.1z"/>
	<path class="st1" d="M56,56.3c-0.6,0.5-1.5,0.8-2.7,0.8h-2.2v3.8H49V50.2h4.6c1.1,0,1.9,0.3,2.5,0.8s0.9,1.4,0.9,2.5
		C57,54.9,56.7,55.7,56,56.3z M54.4,52.4c-0.3-0.2-0.7-0.4-1.2-0.4h-2v3.1h2c0.5,0,0.9-0.1,1.2-0.4c0.3-0.3,0.4-0.7,0.4-1.2
		C54.8,53.1,54.6,52.7,54.4,52.4z"/>
	<path class="st1" d="M58.8,50.2H61v8.7h5.3v1.9h-7.5V50.2z"/>
	<path class="st1" d="M70.8,50.2h2.5l3.8,10.6h-2.4L74,58.7h-3.9l-0.7,2.2H67L70.8,50.2z M70.7,56.8h2.7L72,52.7L70.7,56.8z"/>
	<path class="st1" d="M79.4,51.3c0.9-0.9,1.9-1.3,3.3-1.3c1.8,0,3.1,0.6,3.9,1.8c0.5,0.7,0.7,1.3,0.7,2h-2.2
		c-0.1-0.5-0.3-0.9-0.5-1.2c-0.4-0.5-1-0.7-1.8-0.7c-0.8,0-1.4,0.3-1.9,1c-0.5,0.7-0.7,1.6-0.7,2.8s0.2,2.1,0.7,2.7
		c0.5,0.6,1.1,0.9,1.8,0.9c0.8,0,1.3-0.3,1.7-0.8c0.2-0.3,0.4-0.7,0.5-1.2h2.2c-0.2,1.2-0.7,2.1-1.5,2.8s-1.8,1.1-3,1.1
		c-1.5,0-2.7-0.5-3.6-1.5c-0.9-1-1.3-2.3-1.3-4C78,53.8,78.5,52.3,79.4,51.3z"/>
	<path class="st1" d="M91.1,60.9h-2.2V50.2h2.2V60.9z"/>
	<path class="st1" d="M93.2,50.2h2.3l4.2,7.4v-7.4h2.1v10.6h-2.2l-4.3-7.5v7.5h-2.1V50.2z"/>
	<path class="st1" d="M111,53.5c-0.2-0.7-0.6-1.2-1.2-1.5c-0.4-0.2-0.8-0.2-1.2-0.2c-0.9,0-1.6,0.3-2.1,1c-0.5,0.6-0.8,1.6-0.8,2.9
		c0,1.3,0.3,2.2,0.9,2.8c0.6,0.5,1.3,0.8,2,0.8c0.7,0,1.4-0.2,1.8-0.6c0.5-0.4,0.8-1,0.9-1.7h-2.5v-1.8h4.4v5.7h-1.5l-0.2-1.3
		c-0.4,0.5-0.8,0.9-1.2,1.1c-0.6,0.4-1.3,0.5-2.2,0.5c-1.4,0-2.6-0.5-3.5-1.5c-0.9-1-1.4-2.3-1.4-4c0-1.7,0.5-3.1,1.4-4.1
		s2.2-1.6,3.8-1.6c1.4,0,2.4,0.3,3.3,1c0.8,0.7,1.3,1.5,1.4,2.6H111z"/>
	<path class="st1" d="M116.9,57.6c0.1,0.5,0.2,0.8,0.4,1.1c0.4,0.4,1,0.7,1.9,0.7c0.5,0,1-0.1,1.3-0.2c0.6-0.2,0.9-0.6,0.9-1.2
		c0-0.4-0.2-0.6-0.5-0.8c-0.3-0.2-0.8-0.4-1.5-0.5l-1.1-0.3c-1.1-0.2-1.9-0.5-2.3-0.8c-0.7-0.5-1.1-1.3-1.1-2.3c0-1,0.4-1.7,1.1-2.4
		c0.7-0.6,1.7-0.9,3.1-0.9c1.1,0,2.1,0.3,2.9,0.9c0.8,0.6,1.2,1.5,1.3,2.6h-2.1c0-0.6-0.3-1.1-0.9-1.4c-0.4-0.2-0.8-0.3-1.3-0.3
		c-0.6,0-1.1,0.1-1.4,0.3c-0.3,0.2-0.5,0.6-0.5,1c0,0.4,0.2,0.7,0.5,0.8c0.2,0.1,0.7,0.3,1.4,0.4l1.9,0.4c0.8,0.2,1.4,0.4,1.8,0.8
		c0.6,0.5,0.9,1.2,0.9,2.2c0,1-0.4,1.8-1.1,2.4c-0.8,0.6-1.8,1-3.2,1c-1.4,0-2.5-0.3-3.3-0.9s-1.2-1.5-1.2-2.6H116.9z"/>
</g>
<g>
	<g>
		<path class="st2" d="M50.3,101.9c0,0.9,0.4,1.6,1.1,1.9c0.3,0.2,0.7,0.3,1.2,0.3c0.8,0,1.5-0.3,2-1c0.6-0.7,1-2,1.2-4.1
			c-0.4,0.6-0.8,1-1.4,1.2c-0.5,0.2-1.1,0.4-1.8,0.4c-1.3,0-2.3-0.4-3-1.2s-1.1-1.8-1.1-3.1c0-1.2,0.4-2.3,1.1-3.2
			c0.7-0.9,1.8-1.4,3.3-1.4c1.9,0,3.3,0.9,4,2.6c0.4,1,0.6,2.2,0.6,3.6c0,1.6-0.2,3.1-0.7,4.3c-0.8,2.1-2.2,3.1-4.1,3.1
			c-1.3,0-2.3-0.3-3-1c-0.7-0.7-1-1.5-1-2.6H50.3z M54.7,98.5c0.5-0.4,0.8-1.2,0.8-2.3c0-1-0.2-1.7-0.7-2.2
			c-0.5-0.5-1.1-0.7-1.9-0.7c-0.8,0-1.5,0.3-2,0.8c-0.5,0.5-0.7,1.3-0.7,2.2c0,0.9,0.2,1.6,0.6,2.1c0.4,0.5,1.1,0.8,2,0.8
			C53.5,99.2,54.1,99,54.7,98.5z"/>
		<path class="st2" d="M67.1,92.9c0.6,0.8,0.9,1.6,0.9,2.4h-1.7c-0.1-0.5-0.3-0.9-0.5-1.2c-0.4-0.6-1-0.8-1.8-0.8
			c-0.9,0-1.7,0.4-2.2,1.3c-0.6,0.9-0.9,2.1-0.9,3.7c0.4-0.6,0.9-1,1.5-1.3c0.5-0.2,1.1-0.4,1.8-0.4c1.1,0,2.1,0.4,2.9,1.1
			c0.8,0.7,1.2,1.8,1.2,3.2c0,1.2-0.4,2.3-1.2,3.2c-0.8,0.9-1.9,1.4-3.4,1.4c-1.2,0-2.3-0.5-3.2-1.4s-1.4-2.5-1.4-4.8
			c0-1.7,0.2-3.1,0.6-4.2c0.8-2.2,2.2-3.3,4.3-3.3C65.5,91.8,66.5,92.2,67.1,92.9z M65.8,103.1c0.4-0.6,0.7-1.3,0.7-2.1
			c0-0.7-0.2-1.3-0.6-2c-0.4-0.6-1.1-0.9-2.1-0.9c-0.7,0-1.4,0.2-1.9,0.7c-0.5,0.5-0.8,1.2-0.8,2.2c0,0.8,0.2,1.6,0.7,2.1
			c0.5,0.6,1.2,0.9,2.1,0.9C64.7,104,65.4,103.7,65.8,103.1z"/>
	</g>
</g>
<g>
	<g>
		<path class="st2" d="M50.1,127c0,0.8,0.4,1.4,1,1.8c0.3,0.2,0.7,0.3,1.1,0.3c0.7,0,1.4-0.3,1.9-0.9c0.5-0.6,0.9-1.9,1.1-3.7
			c-0.3,0.5-0.8,0.9-1.3,1.1c-0.5,0.2-1,0.3-1.6,0.3c-1.2,0-2.1-0.4-2.8-1.1c-0.7-0.7-1-1.7-1-2.8c0-1.1,0.3-2.1,1-2.9
			c0.7-0.8,1.7-1.3,3-1.3c1.8,0,3,0.8,3.7,2.4c0.4,0.9,0.6,2,0.6,3.3c0,1.5-0.2,2.8-0.7,4c-0.7,1.9-2,2.9-3.8,2.9
			c-1.2,0-2.1-0.3-2.7-0.9c-0.6-0.6-0.9-1.4-0.9-2.4H50.1z M54.1,123.9c0.5-0.4,0.8-1.1,0.8-2.1c0-0.9-0.2-1.6-0.7-2
			c-0.5-0.4-1-0.7-1.7-0.7c-0.8,0-1.3,0.3-1.8,0.8c-0.4,0.5-0.7,1.2-0.7,2c0,0.8,0.2,1.4,0.6,1.9c0.4,0.5,1,0.7,1.9,0.7
			C53.1,124.5,53.6,124.3,54.1,123.9z"/>
		<path class="st2" d="M66.7,118v1.3c-0.4,0.4-0.9,1-1.6,2c-0.7,0.9-1.2,2-1.7,3.1c-0.5,1.1-0.9,2-1.1,2.9c-0.2,0.6-0.4,1.5-0.6,2.7
			h-1.7c0.4-2.3,1.2-4.7,2.6-7c0.8-1.4,1.6-2.5,2.5-3.5h-6.8V118H66.7z"/>
	</g>
</g>
<g>
	<g>
		<path class="st2" d="M50.3,151.6c0,0.9,0.4,1.6,1.1,1.9c0.3,0.2,0.7,0.3,1.2,0.3c0.8,0,1.5-0.3,2-1c0.6-0.7,1-2,1.2-4.1
			c-0.4,0.6-0.8,1-1.4,1.2c-0.5,0.2-1.1,0.4-1.8,0.4c-1.3,0-2.3-0.4-3-1.2s-1.1-1.8-1.1-3.1c0-1.2,0.4-2.3,1.1-3.2
			c0.7-0.9,1.8-1.4,3.3-1.4c1.9,0,3.3,0.9,4,2.6c0.4,1,0.6,2.2,0.6,3.6c0,1.6-0.2,3.1-0.7,4.3c-0.8,2.1-2.2,3.1-4.1,3.1
			c-1.3,0-2.3-0.3-3-1c-0.7-0.7-1-1.5-1-2.6H50.3z M54.7,148.2c0.5-0.4,0.8-1.2,0.8-2.3c0-1-0.2-1.7-0.7-2.2
			c-0.5-0.5-1.1-0.7-1.9-0.7c-0.8,0-1.5,0.3-2,0.8c-0.5,0.5-0.7,1.3-0.7,2.2c0,0.9,0.2,1.6,0.6,2.1c0.4,0.5,1.1,0.8,2,0.8
			C53.5,148.9,54.1,148.7,54.7,148.2z"/>
		<path class="st2" d="M60.2,147c-0.5-0.5-0.7-1.1-0.7-1.9c0-1,0.4-1.8,1.1-2.6s1.7-1.1,3.1-1.1c1.3,0,2.3,0.3,3,1
			c0.7,0.7,1.1,1.5,1.1,2.4c0,0.8-0.2,1.5-0.6,2c-0.2,0.3-0.6,0.6-1.1,0.9c0.6,0.3,1,0.5,1.3,0.9c0.6,0.6,0.9,1.4,0.9,2.4
			c0,1.2-0.4,2.2-1.2,3c-0.8,0.8-1.9,1.2-3.3,1.2c-1.3,0-2.4-0.4-3.3-1.1c-0.9-0.7-1.3-1.7-1.3-3.1c0-0.8,0.2-1.5,0.6-2s1-1,1.7-1.3
			C60.8,147.5,60.5,147.3,60.2,147z M65.6,153.1c0.5-0.4,0.8-1,0.8-1.9c0-0.9-0.3-1.5-0.8-2c-0.5-0.4-1.2-0.7-2-0.7
			c-0.8,0-1.5,0.2-2,0.7s-0.8,1.1-0.8,1.9c0,0.7,0.2,1.3,0.7,1.8c0.5,0.5,1.2,0.8,2.1,0.8C64.5,153.7,65.1,153.5,65.6,153.1z
			 M65.3,146.5c0.4-0.4,0.6-0.9,0.6-1.5c0-0.5-0.2-1-0.6-1.4s-1-0.6-1.8-0.6c-0.8,0-1.4,0.2-1.7,0.6s-0.5,0.9-0.5,1.5
			c0,0.6,0.2,1.1,0.7,1.5c0.5,0.4,1,0.5,1.6,0.5C64.3,147.1,64.9,146.9,65.3,146.5z"/>
	</g>
</g>
<g>
	<g>
		<path class="st3" d="M49.5,168.4c0.8-0.8,1.8-1.2,3-1.2c1.9,0,3.2,0.8,3.9,2.5c0.4,0.9,0.6,2.2,0.6,3.7c0,1.5-0.2,2.7-0.6,3.8
			c-0.7,1.9-2.1,2.9-4,2.9c-0.9,0-1.8-0.3-2.5-0.8s-1.2-1.4-1.3-2.4H51c0.1,0.4,0.2,0.7,0.5,0.9c0.3,0.2,0.6,0.3,1,0.3
			c0.8,0,1.4-0.4,1.7-1.3c0.2-0.5,0.3-1.2,0.3-2.1c-0.2,0.3-0.5,0.5-0.7,0.6c-0.5,0.3-1,0.4-1.7,0.4c-1,0-1.9-0.3-2.6-1
			c-0.8-0.7-1.1-1.7-1.1-2.9C48.3,170.3,48.7,169.2,49.5,168.4z M53.6,173.3c0.6-0.4,0.8-1,0.8-1.8c0-0.7-0.2-1.3-0.5-1.7
			s-0.8-0.6-1.3-0.6c-0.4,0-0.8,0.1-1.1,0.4c-0.5,0.4-0.7,1-0.7,1.9c0,0.7,0.1,1.3,0.4,1.7c0.3,0.4,0.8,0.6,1.4,0.6
			C52.9,173.6,53.3,173.5,53.6,173.3z"/>
		<path class="st3" d="M59.2,168.4c0.8-0.8,1.8-1.2,3-1.2c1.9,0,3.2,0.8,3.9,2.5c0.4,0.9,0.6,2.2,0.6,3.7c0,1.5-0.2,2.7-0.6,3.8
			c-0.7,1.9-2.1,2.9-4,2.9c-0.9,0-1.8-0.3-2.5-0.8s-1.2-1.4-1.3-2.4h2.4c0.1,0.4,0.2,0.7,0.5,0.9c0.3,0.2,0.6,0.3,1,0.3
			c0.8,0,1.4-0.4,1.7-1.3c0.2-0.5,0.3-1.2,0.3-2.1c-0.2,0.3-0.5,0.5-0.7,0.6c-0.5,0.3-1,0.4-1.7,0.4c-1,0-1.9-0.3-2.6-1
			c-0.8-0.7-1.1-1.7-1.1-2.9C58,170.3,58.4,169.2,59.2,168.4z M63.3,173.3c0.6-0.4,0.8-1,0.8-1.8c0-0.7-0.2-1.3-0.5-1.7
			s-0.8-0.6-1.3-0.6c-0.4,0-0.8,0.1-1.1,0.4c-0.5,0.4-0.7,1-0.7,1.9c0,0.7,0.1,1.3,0.4,1.7c0.3,0.4,0.8,0.6,1.4,0.6
			C62.7,173.6,63,173.5,63.3,173.3z"/>
	</g>
</g>
<g>
	<path class="st2" d="M56.7,193.3c0.6,1.1,0.9,2.6,0.9,4.5c0,1.8-0.3,3.3-0.8,4.5c-0.8,1.7-2.1,2.6-3.8,2.6c-1.6,0-2.8-0.7-3.6-2.1
		c-0.7-1.2-1-2.7-1-4.7c0-1.5,0.2-2.8,0.6-3.9c0.7-2,2.1-3,4-3C54.7,191.2,55.9,191.9,56.7,193.3z M55,202.2
		c0.5-0.8,0.8-2.2,0.8-4.3c0-1.5-0.2-2.8-0.6-3.7s-1.1-1.5-2.2-1.5c-1,0-1.7,0.5-2.2,1.4s-0.7,2.3-0.7,4.1c0,1.4,0.1,2.5,0.4,3.3
		c0.4,1.3,1.2,1.9,2.3,1.9C53.8,203.4,54.5,203,55,202.2z"/>
	<path class="st2" d="M67.3,193.3c0.6,1.1,0.9,2.6,0.9,4.5c0,1.8-0.3,3.3-0.8,4.5c-0.8,1.7-2.1,2.6-3.8,2.6c-1.6,0-2.8-0.7-3.6-2.1
		c-0.7-1.2-1-2.7-1-4.7c0-1.5,0.2-2.8,0.6-3.9c0.7-2,2.1-3,4-3C65.3,191.2,66.5,191.9,67.3,193.3z M65.6,202.2
		c0.5-0.8,0.8-2.2,0.8-4.3c0-1.5-0.2-2.8-0.6-3.7s-1.1-1.5-2.2-1.5c-1,0-1.7,0.5-2.2,1.4s-0.7,2.3-0.7,4.1c0,1.4,0.1,2.5,0.4,3.3
		c0.4,1.3,1.2,1.9,2.3,1.9C64.4,203.4,65.1,203,65.6,202.2z"/>
</g>
<g>
	<path class="st2" d="M56.7,218.2c0.6,1.1,0.9,2.6,0.9,4.5c0,1.8-0.3,3.3-0.8,4.5c-0.8,1.7-2.1,2.6-3.8,2.6c-1.6,0-2.8-0.7-3.6-2.1
		c-0.7-1.2-1-2.7-1-4.7c0-1.5,0.2-2.8,0.6-3.9c0.7-2,2.1-3,4-3C54.7,216,55.9,216.7,56.7,218.2z M55,227c0.5-0.8,0.8-2.2,0.8-4.3
		c0-1.5-0.2-2.8-0.6-3.7s-1.1-1.5-2.2-1.5c-1,0-1.7,0.5-2.2,1.4s-0.7,2.3-0.7,4.1c0,1.4,0.1,2.5,0.4,3.3c0.4,1.3,1.2,1.9,2.3,1.9
		C53.8,228.2,54.5,227.8,55,227z"/>
	<path class="st2" d="M60.2,219.9v-1.3c1.2-0.1,2.1-0.3,2.5-0.6c0.5-0.3,0.8-0.9,1.1-2h1.3v13.3h-1.8v-9.4H60.2z"/>
</g>
<g>
	<path class="st2" d="M56.7,243c0.6,1.1,0.9,2.6,0.9,4.5c0,1.8-0.3,3.3-0.8,4.5c-0.8,1.7-2.1,2.6-3.8,2.6c-1.6,0-2.8-0.7-3.6-2.1
		c-0.7-1.2-1-2.7-1-4.7c0-1.5,0.2-2.8,0.6-3.9c0.7-2,2.1-3,4-3C54.7,240.9,55.9,241.6,56.7,243z M55,251.9c0.5-0.8,0.8-2.2,0.8-4.3
		c0-1.5-0.2-2.8-0.6-3.7s-1.1-1.5-2.2-1.5c-1,0-1.7,0.5-2.2,1.4s-0.7,2.3-0.7,4.1c0,1.4,0.1,2.5,0.4,3.3c0.4,1.3,1.2,1.9,2.3,1.9
		C53.8,253,54.5,252.7,55,251.9z"/>
	<path class="st2" d="M59.7,251.2c0.4-0.8,1.2-1.6,2.4-2.3l1.8-1c0.8-0.5,1.4-0.9,1.7-1.2c0.5-0.5,0.8-1.1,0.8-1.8
		c0-0.8-0.2-1.4-0.7-1.9s-1.1-0.7-1.9-0.7c-1.1,0-1.9,0.4-2.4,1.3c-0.2,0.5-0.4,1.1-0.4,1.9h-1.7c0-1.2,0.2-2.1,0.6-2.8
		c0.7-1.3,2-1.9,3.8-1.9c1.5,0,2.6,0.4,3.3,1.2c0.7,0.8,1.1,1.7,1.1,2.8c0,1.1-0.4,2-1.1,2.7c-0.4,0.4-1.2,1-2.3,1.6l-1.3,0.7
		c-0.6,0.3-1.1,0.7-1.4,1c-0.6,0.5-1,1.1-1.2,1.8h7.3v1.6H59C59.1,253.1,59.3,252.1,59.7,251.2z"/>
</g>
<g>
	<path class="st2" d="M88.5,94c0.6,1.1,0.9,2.6,0.9,4.5c0,1.8-0.3,3.3-0.8,4.5c-0.8,1.7-2.1,2.6-3.8,2.6c-1.6,0-2.8-0.7-3.6-2.1
		c-0.7-1.2-1-2.7-1-4.7c0-1.5,0.2-2.8,0.6-3.9c0.7-2,2.1-3,4-3C86.5,91.8,87.8,92.5,88.5,94z M86.9,102.8c0.5-0.8,0.8-2.2,0.8-4.3
		c0-1.5-0.2-2.8-0.6-3.7s-1.1-1.5-2.2-1.5c-1,0-1.7,0.5-2.2,1.4S82,97,82,98.8c0,1.4,0.1,2.5,0.4,3.3c0.4,1.3,1.2,1.9,2.3,1.9
		C85.6,104,86.3,103.6,86.9,102.8z"/>
	<path class="st2" d="M91.8,104.2c-0.7-0.9-1.1-1.9-1.1-3.2h1.8c0.1,0.9,0.2,1.5,0.5,1.9c0.4,0.7,1.2,1.1,2.4,1.1
		c0.9,0,1.6-0.2,2.1-0.7s0.8-1.1,0.8-1.8c0-0.9-0.3-1.6-0.8-1.9C96.8,99.2,96,99,95,99c-0.1,0-0.2,0-0.3,0c-0.1,0-0.2,0-0.3,0v-1.5
		c0.2,0,0.3,0,0.4,0c0.1,0,0.2,0,0.4,0c0.6,0,1.1-0.1,1.5-0.3c0.7-0.3,1.1-1,1.1-1.9c0-0.7-0.2-1.2-0.7-1.5c-0.5-0.4-1-0.5-1.6-0.5
		c-1.1,0-1.9,0.4-2.3,1.1c-0.2,0.4-0.4,1-0.4,1.8H91c0-1,0.2-1.8,0.6-2.5c0.7-1.2,1.9-1.9,3.6-1.9c1.4,0,2.4,0.3,3.2,0.9
		s1.1,1.5,1.1,2.6c0,0.8-0.2,1.5-0.7,2c-0.3,0.3-0.6,0.6-1.1,0.7c0.7,0.2,1.2,0.6,1.6,1.1s0.6,1.2,0.6,2c0,1.3-0.4,2.3-1.3,3.1
		s-2,1.2-3.6,1.2C93.6,105.5,92.5,105.1,91.8,104.2z"/>
</g>
<g>
	<path class="st2" d="M88.5,118.8c0.6,1.1,0.9,2.6,0.9,4.5c0,1.8-0.3,3.3-0.8,4.5c-0.8,1.7-2.1,2.6-3.8,2.6c-1.6,0-2.8-0.7-3.6-2.1
		c-0.7-1.2-1-2.7-1-4.7c0-1.5,0.2-2.8,0.6-3.9c0.7-2,2.1-3,4-3C86.5,116.7,87.8,117.4,88.5,118.8z M86.9,127.7
		c0.5-0.8,0.8-2.2,0.8-4.3c0-1.5-0.2-2.8-0.6-3.7s-1.1-1.5-2.2-1.5c-1,0-1.7,0.5-2.2,1.4s-0.7,2.3-0.7,4.1c0,1.4,0.1,2.5,0.4,3.3
		c0.4,1.3,1.2,1.9,2.3,1.9C85.6,128.8,86.3,128.5,86.9,127.7z"/>
	<path class="st2" d="M96.6,130v-3.3h-5.8v-1.6l6.1-8.5h1.4v8.6h2v1.5h-2v3.3H96.6z M96.5,125.3v-6.1l-4.3,6.1H96.5z"/>
</g>
<g>
	<path class="st2" d="M88.5,143.6c0.6,1.1,0.9,2.6,0.9,4.5c0,1.8-0.3,3.3-0.8,4.5c-0.8,1.7-2.1,2.6-3.8,2.6c-1.6,0-2.8-0.7-3.6-2.1
		c-0.7-1.2-1-2.7-1-4.7c0-1.5,0.2-2.8,0.6-3.9c0.7-2,2.1-3,4-3C86.5,141.5,87.8,142.2,88.5,143.6z M86.9,152.5
		c0.5-0.8,0.8-2.2,0.8-4.3c0-1.5-0.2-2.8-0.6-3.7S86,143,84.9,143c-1,0-1.7,0.5-2.2,1.4s-0.7,2.3-0.7,4.1c0,1.4,0.1,2.5,0.4,3.3
		c0.4,1.3,1.2,1.9,2.3,1.9C85.6,153.7,86.3,153.3,86.9,152.5z"/>
	<path class="st2" d="M92.6,151.4c0.1,1,0.6,1.6,1.3,2c0.4,0.2,0.9,0.3,1.4,0.3c1,0,1.7-0.3,2.2-0.9c0.5-0.6,0.7-1.3,0.7-2.1
		c0-0.9-0.3-1.7-0.9-2.2c-0.6-0.5-1.2-0.8-2-0.8c-0.6,0-1.1,0.1-1.5,0.3s-0.8,0.5-1.1,0.9l-1.5-0.1l1-7.2h6.9v1.6h-5.7l-0.6,3.7
		c0.3-0.2,0.6-0.4,0.9-0.5c0.5-0.2,1.1-0.3,1.7-0.3c1.2,0,2.3,0.4,3.1,1.2c0.9,0.8,1.3,1.8,1.3,3c0,1.3-0.4,2.4-1.2,3.3
		c-0.8,1-2,1.4-3.7,1.4c-1.1,0-2-0.3-2.9-0.9c-0.8-0.6-1.3-1.5-1.4-2.8H92.6z"/>
</g>
<g>
	<path class="st2" d="M88.5,168.5c0.6,1.1,0.9,2.6,0.9,4.5c0,1.8-0.3,3.3-0.8,4.5c-0.8,1.7-2.1,2.6-3.8,2.6c-1.6,0-2.8-0.7-3.6-2.1
		c-0.7-1.2-1-2.7-1-4.7c0-1.5,0.2-2.8,0.6-3.9c0.7-2,2.1-3,4-3C86.5,166.4,87.8,167.1,88.5,168.5z M86.9,177.4
		c0.5-0.8,0.8-2.2,0.8-4.3c0-1.5-0.2-2.8-0.6-3.7s-1.1-1.5-2.2-1.5c-1,0-1.7,0.5-2.2,1.4s-0.7,2.3-0.7,4.1c0,1.4,0.1,2.5,0.4,3.3
		c0.4,1.3,1.2,1.9,2.3,1.9C85.6,178.5,86.3,178.1,86.9,177.4z"/>
	<path class="st2" d="M98.9,167.5c0.6,0.8,0.9,1.6,0.9,2.4h-1.7c-0.1-0.5-0.3-0.9-0.5-1.2c-0.4-0.6-1-0.8-1.8-0.8
		c-0.9,0-1.7,0.4-2.2,1.3c-0.6,0.9-0.9,2.1-0.9,3.7c0.4-0.6,0.9-1,1.5-1.3c0.5-0.2,1.1-0.4,1.8-0.4c1.1,0,2.1,0.4,2.9,1.1
		c0.8,0.7,1.2,1.8,1.2,3.2c0,1.2-0.4,2.3-1.2,3.2c-0.8,0.9-1.9,1.4-3.4,1.4c-1.2,0-2.3-0.5-3.2-1.4s-1.4-2.5-1.4-4.8
		c0-1.7,0.2-3.1,0.6-4.2c0.8-2.2,2.2-3.3,4.3-3.3C97.3,166.3,98.3,166.7,98.9,167.5z M97.7,177.6c0.4-0.6,0.7-1.3,0.7-2.1
		c0-0.7-0.2-1.3-0.6-2c-0.4-0.6-1.1-0.9-2.1-0.9c-0.7,0-1.4,0.2-1.9,0.7c-0.5,0.5-0.8,1.2-0.8,2.2c0,0.8,0.2,1.6,0.7,2.1
		c0.5,0.6,1.2,0.9,2.1,0.9C96.6,178.5,97.2,178.2,97.7,177.6z"/>
</g>
<g>
	<path class="st2" d="M88.5,193.3c0.6,1.1,0.9,2.6,0.9,4.5c0,1.8-0.3,3.3-0.8,4.5c-0.8,1.7-2.1,2.6-3.8,2.6c-1.6,0-2.8-0.7-3.6-2.1
		c-0.7-1.2-1-2.7-1-4.7c0-1.5,0.2-2.8,0.6-3.9c0.7-2,2.1-3,4-3C86.5,191.2,87.8,191.9,88.5,193.3z M86.9,202.2
		c0.5-0.8,0.8-2.2,0.8-4.3c0-1.5-0.2-2.8-0.6-3.7s-1.1-1.5-2.2-1.5c-1,0-1.7,0.5-2.2,1.4s-0.7,2.3-0.7,4.1c0,1.4,0.1,2.5,0.4,3.3
		c0.4,1.3,1.2,1.9,2.3,1.9C85.6,203.4,86.3,203,86.9,202.2z"/>
	<path class="st2" d="M100.2,191.4v1.5c-0.4,0.4-1,1.1-1.7,2.2c-0.7,1-1.3,2.1-1.9,3.3c-0.5,1.2-0.9,2.2-1.2,3.2
		c-0.2,0.6-0.4,1.6-0.7,3h-1.9c0.4-2.5,1.4-5.1,2.8-7.6c0.9-1.5,1.7-2.8,2.7-3.8h-7.4v-1.7H100.2z"/>
</g>
<g>
	<path class="st2" d="M88.5,218.2c0.6,1.1,0.9,2.6,0.9,4.5c0,1.8-0.3,3.3-0.8,4.5c-0.8,1.7-2.1,2.6-3.8,2.6c-1.6,0-2.8-0.7-3.6-2.1
		c-0.7-1.2-1-2.7-1-4.7c0-1.5,0.2-2.8,0.6-3.9c0.7-2,2.1-3,4-3C86.5,216,87.8,216.7,88.5,218.2z M86.9,227c0.5-0.8,0.8-2.2,0.8-4.3
		c0-1.5-0.2-2.8-0.6-3.7s-1.1-1.5-2.2-1.5c-1,0-1.7,0.5-2.2,1.4S82,221.2,82,223c0,1.4,0.1,2.5,0.4,3.3c0.4,1.3,1.2,1.9,2.3,1.9
		C85.6,228.2,86.3,227.8,86.9,227z"/>
	<path class="st2" d="M92.1,221.6c-0.5-0.5-0.7-1.1-0.7-1.9c0-1,0.4-1.8,1.1-2.6s1.7-1.1,3.1-1.1c1.3,0,2.3,0.3,3,1
		c0.7,0.7,1.1,1.5,1.1,2.4c0,0.8-0.2,1.5-0.6,2c-0.2,0.3-0.6,0.6-1.1,0.9c0.6,0.3,1,0.5,1.3,0.9c0.6,0.6,0.9,1.4,0.9,2.4
		c0,1.2-0.4,2.2-1.2,3c-0.8,0.8-1.9,1.2-3.3,1.2c-1.3,0-2.4-0.4-3.3-1.1c-0.9-0.7-1.3-1.7-1.3-3.1c0-0.8,0.2-1.5,0.6-2s1-1,1.7-1.3
		C92.7,222.1,92.3,221.8,92.1,221.6z M97.5,227.6c0.5-0.4,0.8-1,0.8-1.9c0-0.9-0.3-1.5-0.8-2c-0.5-0.4-1.2-0.7-2-0.7
		c-0.8,0-1.5,0.2-2,0.7s-0.8,1.1-0.8,1.9c0,0.7,0.2,1.3,0.7,1.8c0.5,0.5,1.2,0.8,2.1,0.8C96.3,228.2,96.9,228,97.5,227.6z M97.2,221
		c0.4-0.4,0.6-0.9,0.6-1.5c0-0.5-0.2-1-0.6-1.4s-1-0.6-1.8-0.6c-0.8,0-1.4,0.2-1.7,0.6s-0.5,0.9-0.5,1.5c0,0.6,0.2,1.1,0.7,1.5
		c0.5,0.4,1,0.5,1.6,0.5C96.2,221.6,96.7,221.4,97.2,221z"/>
</g>
<g>
	<path class="st2" d="M88.5,243c0.6,1.1,0.9,2.6,0.9,4.5c0,1.8-0.3,3.3-0.8,4.5c-0.8,1.7-2.1,2.6-3.8,2.6c-1.6,0-2.8-0.7-3.6-2.1
		c-0.7-1.2-1-2.7-1-4.7c0-1.5,0.2-2.8,0.6-3.9c0.7-2,2.1-3,4-3C86.5,240.9,87.8,241.6,88.5,243z M86.9,251.9
		c0.5-0.8,0.8-2.2,0.8-4.3c0-1.5-0.2-2.8-0.6-3.7s-1.1-1.5-2.2-1.5c-1,0-1.7,0.5-2.2,1.4s-0.7,2.3-0.7,4.1c0,1.4,0.1,2.5,0.4,3.3
		c0.4,1.3,1.2,1.9,2.3,1.9C85.6,253,86.3,252.7,86.9,251.9z"/>
	<path class="st2" d="M92.8,251c0,0.9,0.4,1.6,1.1,1.9c0.3,0.2,0.7,0.3,1.2,0.3c0.8,0,1.5-0.3,2-1c0.6-0.7,1-2,1.2-4.1
		c-0.4,0.6-0.8,1-1.4,1.2c-0.5,0.2-1.1,0.4-1.8,0.4c-1.3,0-2.3-0.4-3-1.2s-1.1-1.8-1.1-3.1c0-1.2,0.4-2.3,1.1-3.2
		c0.7-0.9,1.8-1.4,3.3-1.4c1.9,0,3.3,0.9,4,2.6c0.4,1,0.6,2.2,0.6,3.6c0,1.6-0.2,3.1-0.7,4.3c-0.8,2.1-2.2,3.1-4.1,3.1
		c-1.3,0-2.3-0.3-3-1c-0.7-0.7-1-1.5-1-2.6H92.8z M97.1,247.6c0.5-0.4,0.8-1.2,0.8-2.3c0-1-0.2-1.7-0.7-2.2
		c-0.5-0.5-1.1-0.7-1.9-0.7c-0.8,0-1.5,0.3-2,0.8c-0.5,0.5-0.7,1.3-0.7,2.2c0,0.9,0.2,1.6,0.6,2.1c0.4,0.5,1.1,0.8,2,0.8
		C96,248.2,96.6,248,97.1,247.6z"/>
</g>
<g>
	<path class="st2" d="M112.3,95.7v-1.3c1.2-0.1,2.1-0.3,2.5-0.6c0.5-0.3,0.8-0.9,1.1-2h1.3v13.3h-1.8v-9.4H112.3z"/>
	<path class="st2" d="M130,94c0.6,1.1,0.9,2.6,0.9,4.5c0,1.8-0.3,3.3-0.8,4.5c-0.8,1.7-2.1,2.6-3.8,2.6c-1.6,0-2.8-0.7-3.6-2.1
		c-0.7-1.2-1-2.7-1-4.7c0-1.5,0.2-2.8,0.6-3.9c0.7-2,2.1-3,4-3C128,91.8,129.2,92.5,130,94z M128.3,102.8c0.5-0.8,0.8-2.2,0.8-4.3
		c0-1.5-0.2-2.8-0.6-3.7s-1.1-1.5-2.2-1.5c-1,0-1.7,0.5-2.2,1.4s-0.7,2.3-0.7,4.1c0,1.4,0.1,2.5,0.4,3.3c0.4,1.3,1.2,1.9,2.3,1.9
		C127.1,104,127.8,103.6,128.3,102.8z"/>
</g>
<g>
	<path class="st2" d="M112.3,120.6v-1.3c1.2-0.1,2.1-0.3,2.5-0.6c0.5-0.3,0.8-0.9,1.1-2h1.3V130h-1.8v-9.4H112.3z"/>
	<path class="st2" d="M121.5,120.6v-1.3c1.2-0.1,2.1-0.3,2.5-0.6c0.5-0.3,0.8-0.9,1.1-2h1.3V130h-1.8v-9.4H121.5z"/>
</g>
<g>
	<path class="st2" d="M112.3,145.4v-1.3c1.2-0.1,2.1-0.3,2.5-0.6c0.5-0.3,0.8-0.9,1.1-2h1.3v13.3h-1.8v-9.4H112.3z"/>
	<path class="st2" d="M122.4,151.8c0.4-0.8,1.2-1.6,2.4-2.3l1.8-1c0.8-0.5,1.4-0.9,1.7-1.2c0.5-0.5,0.8-1.1,0.8-1.8
		c0-0.8-0.2-1.4-0.7-1.9s-1.1-0.7-1.9-0.7c-1.1,0-1.9,0.4-2.4,1.3c-0.2,0.5-0.4,1.1-0.4,1.9H122c0-1.2,0.2-2.1,0.6-2.8
		c0.7-1.3,2-1.9,3.8-1.9c1.5,0,2.6,0.4,3.3,1.2c0.7,0.8,1.1,1.7,1.1,2.8c0,1.1-0.4,2-1.1,2.7c-0.4,0.4-1.2,1-2.3,1.6l-1.3,0.7
		c-0.6,0.3-1.1,0.7-1.4,1c-0.6,0.5-1,1.1-1.2,1.8h7.3v1.6h-9.2C121.8,153.7,122,152.7,122.4,151.8z"/>
</g>
<g>
	<path class="st2" d="M112.3,170.2V169c1.2-0.1,2.1-0.3,2.5-0.6c0.5-0.3,0.8-0.9,1.1-2h1.3v13.3h-1.8v-9.4H112.3z"/>
	<path class="st2" d="M122.6,178.7c-0.7-0.9-1.1-1.9-1.1-3.2h1.8c0.1,0.9,0.2,1.5,0.5,1.9c0.4,0.7,1.2,1.1,2.4,1.1
		c0.9,0,1.6-0.2,2.1-0.7s0.8-1.1,0.8-1.8c0-0.9-0.3-1.6-0.8-1.9c-0.6-0.4-1.3-0.5-2.3-0.5c-0.1,0-0.2,0-0.3,0c-0.1,0-0.2,0-0.3,0
		V172c0.2,0,0.3,0,0.4,0c0.1,0,0.2,0,0.4,0c0.6,0,1.1-0.1,1.5-0.3c0.7-0.3,1.1-1,1.1-1.9c0-0.7-0.2-1.2-0.7-1.5
		c-0.5-0.4-1-0.5-1.6-0.5c-1.1,0-1.9,0.4-2.3,1.1c-0.2,0.4-0.4,1-0.4,1.8h-1.7c0-1,0.2-1.8,0.6-2.5c0.7-1.2,1.9-1.9,3.6-1.9
		c1.4,0,2.4,0.3,3.2,0.9s1.1,1.5,1.1,2.6c0,0.8-0.2,1.5-0.7,2c-0.3,0.3-0.6,0.6-1.1,0.7c0.7,0.2,1.2,0.6,1.6,1.1s0.6,1.2,0.6,2
		c0,1.3-0.4,2.3-1.3,3.1s-2,1.2-3.6,1.2C124.5,180,123.3,179.6,122.6,178.7z"/>
</g>
<g>
	<path class="st2" d="M112.3,195.1v-1.3c1.2-0.1,2.1-0.3,2.5-0.6c0.5-0.3,0.8-0.9,1.1-2h1.3v13.3h-1.8v-9.4H112.3z"/>
	<path class="st2" d="M127.4,204.5v-3.3h-5.8v-1.6l6.1-8.5h1.4v8.6h2v1.5h-2v3.3H127.4z M127.4,199.8v-6.1l-4.3,6.1H127.4z"/>
</g>
<g>
	<path class="st2" d="M112.3,219.9v-1.3c1.2-0.1,2.1-0.3,2.5-0.6c0.5-0.3,0.8-0.9,1.1-2h1.3v13.3h-1.8v-9.4H112.3z"/>
	<path class="st2" d="M123.5,226c0.1,1,0.6,1.6,1.3,2c0.4,0.2,0.9,0.3,1.4,0.3c1,0,1.7-0.3,2.2-0.9c0.5-0.6,0.7-1.3,0.7-2.1
		c0-0.9-0.3-1.7-0.9-2.2c-0.6-0.5-1.2-0.8-2-0.8c-0.6,0-1.1,0.1-1.5,0.3s-0.8,0.5-1.1,0.9l-1.5-0.1l1-7.2h6.9v1.6h-5.7l-0.6,3.7
		c0.3-0.2,0.6-0.4,0.9-0.5c0.5-0.2,1.1-0.3,1.7-0.3c1.2,0,2.3,0.4,3.1,1.2c0.9,0.8,1.3,1.8,1.3,3c0,1.3-0.4,2.4-1.2,3.3
		c-0.8,1-2,1.4-3.7,1.4c-1.1,0-2-0.3-2.9-0.9c-0.8-0.6-1.3-1.5-1.4-2.8H123.5z"/>
</g>
<g>
	<path class="st2" d="M112.3,244.8v-1.3c1.2-0.1,2.1-0.3,2.5-0.6c0.5-0.3,0.8-0.9,1.1-2h1.3v13.3h-1.8v-9.4H112.3z"/>
	<path class="st2" d="M129.8,242c0.6,0.8,0.9,1.6,0.9,2.4H129c-0.1-0.5-0.3-0.9-0.5-1.2c-0.4-0.6-1-0.8-1.8-0.8
		c-0.9,0-1.7,0.4-2.2,1.3c-0.6,0.9-0.9,2.1-0.9,3.7c0.4-0.6,0.9-1,1.5-1.3c0.5-0.2,1.1-0.4,1.8-0.4c1.1,0,2.1,0.4,2.9,1.1
		c0.8,0.7,1.2,1.8,1.2,3.2c0,1.2-0.4,2.3-1.2,3.2c-0.8,0.9-1.9,1.4-3.4,1.4c-1.2,0-2.3-0.5-3.2-1.4s-1.4-2.5-1.4-4.8
		c0-1.7,0.2-3.1,0.6-4.2c0.8-2.2,2.2-3.3,4.3-3.3C128.2,240.8,129.2,241.2,129.8,242z M128.5,252.2c0.4-0.6,0.7-1.3,0.7-2.1
		c0-0.7-0.2-1.3-0.6-2c-0.4-0.6-1.1-0.9-2.1-0.9c-0.7,0-1.4,0.2-1.9,0.7c-0.5,0.5-0.8,1.2-0.8,2.2c0,0.8,0.2,1.6,0.7,2.1
		c0.5,0.6,1.2,0.9,2.1,0.9C127.4,253.1,128.1,252.8,128.5,252.2z"/>
</g>
<g>
	<path class="st4" d="M270.1,232c-0.3-0.1-0.5-0.2-0.7-0.5c-0.9,1.4-1.3,2.6-0.9,3.7c1.4,4.6,5.5,8,10.3,8.5
		C274.2,242.3,270.7,237.5,270.1,232 M269.2,229.3c-0.3-0.2-0.5-0.4-0.7-0.6c-0.3,1.2-0.5,2.4-0.4,3.6c0,0.3,0,0.5,0.1,0.7
		c0.2-0.7,0.5-1.5,1-2.3C269.1,230.3,269.1,229.8,269.2,229.3 M269.4,228.6c0.1-0.3,0.3-0.5,0.5-0.7c0.1-0.2,0.3-0.3,0.5-0.4
		c0.5-2.1,1.4-3.9,2.7-5.3c-2,1.4-3.6,3.5-4.4,5.9C268.8,228.1,269.1,228.4,269.4,228.6 M286.9,239.2c-1-0.1-2.4-0.4-3-0.6
		c-0.7-0.2-1.2-0.8-1.6-1.5c-0.1-0.3-0.3-0.7-0.3-1.1c0-0.3,0-0.6,0.1-0.9c-3.7-1.1-7.6-2.7-10.4-4.2c-0.1,0.2-0.2,0.3-0.3,0.5
		c-0.2,0.2-0.4,0.4-0.7,0.5c0.3,2.3,1,4.5,2.3,6.4c1.7,2.6,3.9,4.3,6.4,4.9c0.9,0.2,2,0.4,3,0.2c3.8-0.8,6.9-3.4,8.4-6.9
		c-0.2,0-0.4,0-0.6,0.1C289.5,239.2,287.7,239.3,286.9,239.2 M291.9,231.4c-0.1-1.3-0.3-2.6-0.8-3.8c-0.6-1.4-2.4-2.5-4.8-3
		c-4.5-1-10.4,0.7-14.1,3.8c0.1,0.6,0.1,1.3-0.1,1.9c2.7,1.5,6.6,3,10.3,4.2c0.9-2,2.5-2.4,3.8-2.1c0.9,0.2,1.5,0.4,2,0.4l0.5,0.1
		c0.6,0.1,1.2,0.6,1.5,1.1c0.2,0.4,0.4,1,0.3,1.9c0.5,0,0.7-0.1,0.7-0.2C291.8,234.4,292,232.9,291.9,231.4 M289.8,236
		c0.1-0.7,0-1.3-0.2-1.6c-0.2-0.4-0.6-0.7-1-0.8l-0.5-0.1c-0.4-0.1-1-0.2-2-0.4c-1.3-0.3-2.4,0.3-3,1.6c0.6,0.2,1.2,0.3,1.8,0.5
		c0.1-0.5,0.1-0.8,0.1-0.8c0-0.2,0.2-0.4,0.4-0.3c0.2,0,0.4,0.2,0.3,0.4c0,0,0,0.4-0.1,0.9c0.1,0,0.2,0.1,0.3,0.1
		c0.1,0,0.2,0.1,0.4,0.1c0.1-0.5,0.2-0.9,0.2-1c0-0.2,0.2-0.3,0.4-0.3c0.2,0,0.3,0.2,0.3,0.4c0,0-0.1,0.5-0.2,1
		c0.2,0,0.5,0.1,0.7,0.1c0.1-0.4,0.1-0.8,0.1-0.8c0-0.2,0.2-0.4,0.4-0.4c0.2,0,0.4,0.2,0.3,0.4c0,0,0,0.4-0.1,0.9
		C289,235.9,289.5,236,289.8,236 M283.1,236.9c0.3,0.6,0.8,1,1.1,1.1c0.5,0.2,1.8,0.4,2.8,0.6c1.1,0.1,2.1-0.5,2.6-1.8
		c-0.4,0-0.8-0.1-1.2-0.1c-0.1,0.3-0.2,0.5-0.3,0.7c-0.1,0.2-0.3,0.2-0.5,0.1c-0.2-0.1-0.2-0.3-0.1-0.5c0.1-0.1,0.2-0.3,0.2-0.5
		c-0.2,0-0.4-0.1-0.7-0.1c-0.1,0.3-0.2,0.6-0.3,0.8c-0.1,0.2-0.3,0.3-0.5,0.2c-0.2-0.1-0.3-0.3-0.2-0.5c0.1-0.2,0.1-0.4,0.2-0.7
		c-0.1,0-0.2-0.1-0.4-0.1c-0.1,0-0.2-0.1-0.4-0.1c-0.1,0.2-0.1,0.4-0.2,0.7c-0.1,0.2-0.3,0.3-0.5,0.2c-0.2-0.1-0.3-0.3-0.2-0.5
		c0.1-0.2,0.1-0.4,0.2-0.5c-0.6-0.1-1.2-0.3-1.9-0.5C282.8,236,282.9,236.5,283.1,236.9 M271.1,227.8c-0.2,0-0.5,0-0.8,0.3
		c-0.5,0.6-0.7,1.3-0.7,2.2c0,0.2,0,0.4,0.1,0.5c0.1,0.3,0.4,0.6,0.6,0.6c0.2,0,0.5-0.1,0.8-0.4c0.6-0.7,0.8-1.9,0.5-2.7
		C271.5,228.1,271.3,227.8,271.1,227.8"/>
	<path class="st4" d="M282.4,209.6c0,4-1.7,7.3-2.7,8.3c-3.1,3.1-5.6,0.8-5.7,3.9c-1.4,1.3-2.4,3.2-2.9,5.4c0,0,0.1,0,0.1,0
		c0.3,0.1,0.5,0.2,0.7,0.5c3.9-3.2,10-4.9,14.6-3.8c1.5,0.3,2.7,0.9,3.7,1.7c-1.4-2.3-3.6-4.1-6.1-5c-0.6-0.2-1.7-0.5-1.7-2.4
		c0-3.7,4-0.8,6.7-4.8c0.1-0.2-0.1-0.4-0.2-0.2c-0.8,0.8-2.8,1.4-3.8,1.4c-1,0-1.4-0.2-1.4-0.2c1-2,2.2-3.6,2.2-3.6
		c-2.5-2.5,1.7-16,12.6-16c0-3.1-0.3-5.6-0.7-7.4c-0.3,0.1-2.3,0.5-2.4,0.1c-0.1-0.4,1.5-1.2,2.1-1.5c-0.5-1.9-1.1-2.8-1.1-2.8
		c-9.4,3-7.5,10.8-9.8,10.8c-1.5,0-2.7-1.2-3.1-1.6c-5.6-5.6-3-9.3-3-16.8c0-5-1.9-6.9-5.6-6.9s-4.9,1.6-4.9,1.6s4.9,0.2,4.9,5.4
		c0,5.4-6.1,6.9-6.1,13.8C268.7,200.7,282.4,200.5,282.4,209.6 M275.9,175.4c0-0.7-0.1-1.3-0.2-1.8c0,0,1.1-0.1,1.1-1.4
		c0-1.1-0.7-1.8-0.9-1.8c-0.1,0-0.2,0.2-0.5,0.2c-0.8,0-0.9-1-0.9-1c0.1,0,0.2,0,0.4,0c2.3,0,4.5,0.7,4.5,5.9c0,1.9-0.2,3.6-0.3,5.1
		c-0.1,1.5-0.3,2.9-0.3,4.2c0,0-4.1-0.5-4.1-3.6C274.6,179.2,275.9,178.7,275.9,175.4 M270.1,232c-0.3-0.1-0.5-0.2-0.7-0.5
		c-0.9,1.4-1.3,2.6-0.9,3.7c1.4,4.6,5.5,8,10.3,8.5C274.2,242.3,270.7,237.5,270.1,232 M269.2,229.3c-0.3-0.2-0.5-0.4-0.7-0.6
		c-0.3,1.2-0.5,2.4-0.4,3.6c0,0.3,0,0.5,0.1,0.7c0.2-0.7,0.5-1.5,1-2.3C269.1,230.3,269.1,229.8,269.2,229.3 M269.4,228.6
		c0.1-0.3,0.3-0.5,0.5-0.7c0.1-0.2,0.3-0.3,0.5-0.4c0.5-2.1,1.4-3.9,2.7-5.3c-2,1.4-3.6,3.5-4.4,5.9
		C268.8,228.1,269.1,228.4,269.4,228.6 M286.9,239.2c-1-0.1-2.4-0.4-3-0.6c-0.7-0.2-1.2-0.8-1.6-1.5c-0.1-0.3-0.3-0.7-0.3-1.1
		c0-0.3,0-0.6,0.1-0.9c-3.7-1.1-7.6-2.7-10.4-4.2c-0.1,0.2-0.2,0.3-0.3,0.5c-0.2,0.2-0.4,0.4-0.7,0.5c0.3,2.3,1,4.5,2.3,6.4
		c1.7,2.6,3.9,4.3,6.4,4.9c0.9,0.2,2,0.4,3,0.2c3.8-0.8,6.9-3.4,8.4-6.9c-0.2,0-0.4,0-0.6,0.1C289.5,239.2,287.7,239.3,286.9,239.2
		 M291.2,227.6c-0.6-1.4-2.4-2.5-4.8-3c-4.5-1-10.4,0.7-14.1,3.8c0.1,0.6,0.1,1.3-0.1,1.9c2.7,1.5,6.6,3,10.3,4.2
		c0.9-2,2.5-2.4,3.8-2.1c0.9,0.2,1.5,0.4,2,0.4l0.5,0.1c0.6,0.1,1.2,0.6,1.5,1.1c0.2,0.4,0.4,1,0.3,1.9c0.5,0,0.7-0.1,0.7-0.2
		c0.5-1.4,0.7-2.9,0.7-4.4C291.9,230,291.6,228.8,291.2,227.6 M283.1,236.9c0.3,0.6,0.8,1,1.1,1.1c0.5,0.2,1.8,0.4,2.8,0.6
		c1.1,0.1,2.1-0.5,2.6-1.8c-0.4,0-0.8-0.1-1.2-0.1c-0.1,0.3-0.2,0.5-0.3,0.7c-0.1,0.2-0.3,0.2-0.5,0.1c-0.2-0.1-0.2-0.3-0.1-0.5
		c0.1-0.1,0.2-0.3,0.2-0.5c-0.2,0-0.4-0.1-0.7-0.1c-0.1,0.3-0.2,0.6-0.3,0.8c-0.1,0.2-0.3,0.3-0.5,0.2c-0.2-0.1-0.3-0.3-0.2-0.5
		c0.1-0.2,0.1-0.4,0.2-0.7c-0.1,0-0.2-0.1-0.4-0.1c-0.1,0-0.2-0.1-0.4-0.1c-0.1,0.2-0.1,0.4-0.2,0.7c-0.1,0.2-0.3,0.3-0.5,0.2
		c-0.2-0.1-0.3-0.3-0.2-0.5c0.1-0.2,0.1-0.4,0.2-0.5c-0.6-0.1-1.2-0.3-1.9-0.5C282.8,236,282.9,236.5,283.1,236.9 M289.8,236
		c0.1-0.7,0-1.3-0.2-1.6c-0.2-0.4-0.6-0.7-1-0.8l-0.5-0.1c-0.4-0.1-1-0.2-2-0.4c-1.3-0.3-2.4,0.3-3,1.6c0.6,0.2,1.2,0.3,1.8,0.5
		c0.1-0.5,0.1-0.8,0.1-0.8c0-0.2,0.2-0.4,0.4-0.3c0.2,0,0.4,0.2,0.3,0.4c0,0,0,0.4-0.1,0.9c0.1,0,0.2,0.1,0.3,0.1
		c0.1,0,0.2,0.1,0.4,0.1c0.1-0.5,0.2-0.9,0.2-1c0-0.2,0.2-0.3,0.4-0.3c0.2,0,0.3,0.2,0.3,0.4c0,0-0.1,0.5-0.2,1
		c0.2,0,0.5,0.1,0.7,0.1c0.1-0.4,0.1-0.8,0.1-0.8c0-0.2,0.2-0.4,0.4-0.4c0.2,0,0.4,0.2,0.3,0.4c0,0,0,0.4-0.1,0.9
		C289,235.9,289.5,236,289.8,236 M271.1,227.8c-0.2,0-0.5,0-0.8,0.3c-0.5,0.6-0.7,1.3-0.7,2.2c0,0.2,0,0.4,0.1,0.5
		c0.1,0.3,0.4,0.6,0.6,0.6c0.2,0,0.5-0.1,0.8-0.4c0.6-0.7,0.8-1.9,0.5-2.7C271.5,228.1,271.3,227.8,271.1,227.8"/>
	<path class="st4" d="M261.7,242.3c0.9,0.6,1.9,1.2,1.9,1.2l-0.3,0.9c-0.1-0.5-0.7-0.8-1.3-1.2l-2.2,3.2c-0.3,0.4-0.8,1.2-0.8,1.6
		c0,0-0.4-0.2-0.7-0.5c-0.4-0.3-0.7-0.5-0.7-0.5c0.3-0.1,0.9-0.9,1.3-1.4l2.2-3.1c-0.8-0.6-1.1-0.8-1.7-0.8l0.8-0.6
		C259.9,241.1,260.7,241.6,261.7,242.3"/>
	<path class="st4" d="M263.1,250.3c-1.6-0.7-1.8-2.5-1-4c0.8-1.6,2.2-2.5,3.8-1.8c1.5,0.7,1.8,2.4,1,4
		C266.2,250.2,264.7,251.1,263.1,250.3 M265.7,245c-1-0.5-1.8,0.6-2.4,1.9c-0.6,1.2-1,2.5,0,3c1,0.5,1.8-0.7,2.4-1.9
		C266.3,246.8,266.7,245.4,265.7,245"/>
	<path class="st4" d="M270.1,246.2c1,0.3,1.9,0.5,1.9,0.5l-0.1,0.9c-0.3-0.4-0.4-0.5-1.3-0.7l-1.1,3.7c-0.1,0.3-0.5,1.6-0.4,1.8
		c0,0-0.3-0.1-0.8-0.2c-0.5-0.1-0.8-0.3-0.8-0.3c0.3-0.2,0.6-1.3,0.7-1.7l1.1-3.7c-0.9-0.3-1.1-0.3-1.6-0.1l0.5-0.8
		C268.3,245.6,268.9,245.8,270.1,246.2"/>
	<path class="st4" d="M274.4,247.1c1,0.2,2,0.2,2,0.2l0,0.9c-0.4-0.3-0.5-0.5-1.6-0.6l-0.6,3.8c0,0.3-0.3,1.6-0.1,1.9
		c0,0-0.4,0-0.9-0.1c-0.5-0.1-0.8-0.1-0.8-0.1c0.2-0.2,0.4-1.4,0.5-1.8l0.6-3.8c-0.9-0.2-1.1-0.1-1.5,0.1l0.4-0.9
		C272.6,246.8,273.4,247,274.4,247.1"/>
	<path class="st4" d="M278.3,250.7l-0.1,2.5c1.3,0,2.2-0.1,2.6-0.6l-0.2,1.1c0,0-0.7,0-1.8,0c-1.2,0-2.1-0.1-2.1-0.1
		c0.2-0.2,0.2-1.4,0.2-1.8l0.1-2.5c0-0.7,0.1-1.7-0.1-1.9c1,0.1,0.8,0.1,1.7,0.1c1.2,0,1.8,0,1.8,0l0.1,0.9
		c-0.4-0.4-1.1-0.4-2.2-0.4l-0.1,2.1l1.7,0c0.2,0,0.2,0.1,0.2,0.3c0,0.2,0,0.3-0.2,0.3L278.3,250.7z"/>
	<path class="st4" d="M285.7,251.5c0.1,0.9,0.2,1.6,0.4,1.7c-0.1,0.1-0.2,0.2-0.4,0.2c-0.3,0-0.5-0.1-0.7-0.3l-3-3.4l0.1,2.2
		c0,0.3,0.1,1.6,0.3,1.8l-1,0c0.2-0.2,0.1-1.5,0.1-1.8l-0.1-2.5c0-0.3-0.1-1.7-0.3-1.9l0.9,0l3.1,3.6l-0.2-2.1
		c0-0.3-0.2-1.6-0.4-1.8c0,0,0.1,0,0.5-0.1c0.4-0.1,0.5-0.1,0.5-0.1c-0.2,0.2,0,1.5,0.1,1.8L285.7,251.5z"/>
	<path class="st4" d="M291.3,250.2c0.1,0.4,0.3,1.5,0.6,1.7c0,0-0.5,0.1-0.8,0.2c-0.3,0.1-0.8,0.2-0.8,0.2c0.1-0.2-0.2-1.6-0.2-1.9
		l-0.3-1.1l-1.9,0.5l0.2,1.2c0.1,0.4,0.3,1.6,0.5,1.8c0,0-0.3,0.1-0.8,0.2c-0.5,0.1-0.8,0.1-0.8,0.1c0.1-0.2,0-1.4-0.1-1.8l-0.5-2.5
		c-0.1-0.5-0.3-1.6-0.6-1.8c0,0,0.2,0,0.8-0.1c0.5-0.1,0.8-0.2,0.8-0.2c-0.1,0.3,0.1,1.4,0.2,1.8l0.1,0.8l1.9-0.5l-0.2-0.8
		c-0.1-0.4-0.3-1.4-0.6-1.6c0,0,0.3-0.1,0.8-0.2c0.5-0.1,0.7-0.2,0.7-0.2c-0.1,0.3,0.2,1.3,0.3,1.8L291.3,250.2z"/>
	<path class="st4" d="M294.8,248.7l-1.9,0.7l0.1,1c0,0.3,0,0.7,0.1,0.8c0,0.1,0.1,0.1,0.2,0.2c0,0-0.2,0.1-0.5,0.2
		c-0.3,0.1-0.5,0.2-0.5,0.2c0.1-0.2,0.1-0.5,0.1-0.8l-0.2-4.8c0-0.2,0-0.3-0.1-0.5c-0.1-0.1-0.1-0.2-0.2-0.2
		c0.2-0.1,0.5-0.3,0.7-0.4c0.4-0.2,0.6-0.2,0.9,0.2l2.7,3.4c0.5,0.6,0.9,1.1,1.2,1.2c0,0-0.3,0.1-0.8,0.4c-0.5,0.2-0.9,0.4-0.9,0.4
		c0-0.1,0-0.2,0-0.4c-0.1-0.2-0.3-0.5-0.5-0.7L294.8,248.7z M294.4,248.3l-1.6-2.3l0.1,2.9L294.4,248.3z"/>
	<path class="st4" d="M302.6,246.9c-0.4,0.3-0.7,0.5-0.7,0.5c0-0.4-0.7-1.3-1-1.6l-1.6-2.1l1.3,4.1c-0.1,0.1-0.1,0.2-0.2,0.3
		c-0.3,0.2-0.5,0.2-0.7,0l-3.1-2.5l1.1,2c0.3,0.5,0.8,1.5,1.1,1.6c0,0-0.2,0.1-0.5,0.2c-0.3,0.1-0.4,0.2-0.4,0.2
		c0.1-0.3-0.4-1.1-0.7-1.7l-1.2-2.2c-0.4-0.7-0.8-1.4-1.1-1.5c0.3-0.1,0.3-0.2,0.7-0.4c0.3-0.1,0.6-0.3,0.6-0.3l3.4,2.9l-1.3-4.1
		c0,0,0.2-0.1,0.5-0.4c0.3-0.2,0.7-0.5,0.7-0.5c0,0.4,0.7,1.3,1,1.6l1.5,1.9c0.3,0.4,0.9,1.3,1.3,1.4
		C303.3,246.4,302.9,246.7,302.6,246.9"/>
	<path class="st4" d="M267.4,254.5c0.3,0.1,0.7,0.3,0.7,0.3c-0.4,0.3-0.7,1.3-0.9,1.8l-0.8,2.2c-0.2,0.6-0.6,1.5-0.5,1.8
		c0,0-0.4-0.1-0.8-0.3c-0.3-0.1-0.5-0.2-0.8-0.3c0.4-0.1,0.8-1.4,0.9-1.7l0.4-1l-1.9-0.8l-0.5,1.2c-0.2,0.4-0.6,1.3-0.5,1.6
		c0,0-0.3-0.1-0.8-0.4c-0.6-0.3-0.7-0.3-0.7-0.3c0.4-0.2,0.7-0.9,1-1.5l1-2.2c0.3-0.8,0.6-1.4,0.6-1.9c0,0,0.2,0.1,0.7,0.3
		c0.4,0.2,0.6,0.3,0.8,0.4c-0.3,0.1-0.7,1.2-1,1.7l-0.3,0.6l1.9,0.8l0.3-0.7c0.1-0.4,0.6-1.4,0.5-1.8
		C266.6,254.2,267,254.3,267.4,254.5"/>
	<path class="st4" d="M269.6,261.7c-1.7-0.4-2.2-2-1.8-3.7c0.4-1.7,1.7-2.8,3.4-2.4c1.6,0.4,2.2,2,1.8,3.7
		C272.5,260.9,271.2,262.1,269.6,261.7 M271,256c-1.1-0.3-1.6,0.9-2,2.2c-0.3,1.3-0.5,2.6,0.6,2.9c1.1,0.3,1.6-1,2-2.2
		C272,257.6,272.1,256.3,271,256"/>
	<path class="st4" d="M274.1,262.2c0,0,0.1-0.1,0.2-0.3c0.1-0.3,0.2-1,0.2-1.5l0.5-3.6c-1-0.1-1.2,0-1.7,0.2l0.4-0.9
		c0.3,0.1,1,0.1,1.8,0.2c0.6,0.1,2.2,0.2,2.2,0.2l0.1,0.9c-0.4-0.4-0.7-0.5-1.6-0.5l-0.5,3.6c0,0.3-0.2,1.5,0,1.9
		c-0.2,0-0.5-0.1-0.8-0.1C274.6,262.3,274.2,262.3,274.1,262.2"/>
	<path class="st4" d="M282,261c0,1.1-0.9,1.9-2.2,1.9c-1,0-1.6-0.4-1.8-0.6l0.2-1c0.3,0.7,0.9,1.1,1.5,1.1c0.6,0,1.1-0.4,1.2-1
		c0-0.5-0.2-0.7-1.3-1.3c-1-0.5-1.4-1.1-1.4-1.8c0-1.1,0.9-1.6,2-1.6c0.8,0,1.4,0.2,1.7,0.4l-0.2,0.9c-0.5-0.7-0.9-0.9-1.5-0.9
		c-0.5,0-0.9,0.3-0.9,0.8c0,0.6,0.7,0.9,1.5,1.4C281.8,259.8,282,260.4,282,261"/>
	<path class="st4" d="M286.9,257.7c0,0.1,0.1,0.3,0.1,0.4c0,0.1,0,0.3,0,0.4c0,0.4-0.2,0.8-0.5,1c-0.4,0.4-1,0.7-1.7,0.7
		c-0.3,0-0.3-0.1-0.4-0.3v0c0,0,0-0.1,0.1-0.1h0.1c0.2,0,0.5-0.1,0.8-0.4c0.2-0.3,0.3-0.7,0.3-1.2c0-0.5-0.2-0.8-0.5-1.1
		c-0.3-0.2-0.6-0.3-0.9-0.3c0,0-0.1,0-0.3,0c0,0-0.1,0-0.1,0.1l0.4,3.7c0,0.3,0.1,1.5,0.4,1.7c0,0-0.3,0-0.9,0.1
		c-0.4,0-0.8,0.1-0.8,0.1c0.1-0.3,0.1-0.7,0.1-1.2l-0.3-3c0-0.3-0.1-1.5-0.4-1.8c0,0,0.7-0.1,2.1-0.2c0.7-0.1,1.3,0,1.8,0.4
		C286.6,257,286.8,257.3,286.9,257.7"/>
	<path class="st4" d="M292.5,258.9c0.3,1.3-0.3,2.4-1.7,2.7c-1,0.2-2.3-0.1-2.7-1.8l-0.5-2c-0.1-0.6-0.3-1.5-0.6-1.8
		c0,0,0.4-0.1,0.9-0.2c0.6-0.1,0.8-0.2,0.8-0.2c-0.1,0.2,0,1.1,0.1,1.8l0.6,2.5c0.1,0.5,0.2,0.8,0.5,1c0.2,0.1,0.4,0.2,0.7,0.1
		c0.2,0,0.5-0.2,0.6-0.4c0.1-0.3,0.1-0.6,0-1.1l-0.7-2.5c-0.2-0.7-0.4-1.5-0.6-1.7c0,0,0.3-0.1,0.8-0.2c0.4-0.1,0.6-0.2,0.8-0.2
		c-0.1,0.4,0.2,1.5,0.3,1.9L292.5,258.9z"/>
	<path class="st4" d="M298.6,258.4c0.1,0,0.3,0.1,0.4,0c0,0.1-0.1,0.2-0.2,0.4c-0.5,0.6-1,0.5-1.2,0.4c-0.9-0.4-2.5-1.8-2.6-1.9
		c0,0,0,0,0-0.1l0.1,0c0.2-0.1,0.5-0.4,0.6-0.6c0.2-0.4,0.1-0.7,0-1.2c-0.2-0.4-0.5-0.7-0.8-0.8c-0.4-0.1-0.7,0-0.8,0.1
		c0,0-0.2,0.1-0.3,0.1c0,0,0,0,0,0.2l1.2,3.4c0.2,0.5,0.5,1.5,0.8,1.6c0,0-0.3,0.1-0.8,0.3c-0.5,0.2-0.8,0.3-0.8,0.3
		c0.1-0.4-0.3-1.4-0.4-1.7l-0.8-2.3c-0.2-0.6-0.5-1.5-0.8-1.7c0,0,0.6-0.2,1.8-0.7c0.7-0.3,1.3-0.4,1.9-0.2c0.4,0.1,0.6,0.3,0.8,0.6
		c0.1,0.1,0.1,0.2,0.2,0.3c0,0.1,0.1,0.2,0.1,0.3c0.1,0.3,0,0.7-0.2,1.1c0,0-0.2,0.4-0.6,0.6C296.2,256.9,297.4,257.9,298.6,258.4"
		/>
	<rect x="238.4" y="165.5" class="st5" width="85.8" height="102.3"/>
</g>
<g>
	<path class="st1" d="M376.6,60.7c2.4,0,4.7,0.4,6.7,1.1c2,0.7,3.8,1.7,5.2,3.1c1.4,1.3,2.6,2.9,3.4,4.8c0.8,1.9,1.2,3.9,1.2,6.2
		c0,1.9-0.3,3.8-0.9,5.4c-0.6,1.7-1.3,3.2-2.3,4.8c-1,1.5-2.1,3-3.4,4.4c-1.3,1.4-2.6,2.9-4.1,4.3l-12,12.2c1.2-0.3,2.3-0.6,3.5-0.8
		c1.1-0.2,2.2-0.3,3.2-0.3h13.6c1,0,1.7,0.3,2.3,0.8c0.6,0.5,0.9,1.3,0.9,2.2v5.4h-36.3v-3c0-0.6,0.1-1.2,0.4-1.9
		c0.3-0.7,0.7-1.3,1.2-1.8l16-16.1c1.3-1.4,2.5-2.7,3.6-3.9c1.1-1.2,1.9-2.5,2.7-3.7c0.7-1.2,1.2-2.5,1.6-3.7s0.6-2.6,0.6-4
		c0-1.3-0.2-2.4-0.5-3.3c-0.4-1-0.9-1.8-1.6-2.4c-0.7-0.7-1.5-1.2-2.4-1.5c-0.9-0.3-2-0.5-3.2-0.5c-1.1,0-2.1,0.2-3,0.5
		c-0.9,0.3-1.7,0.7-2.4,1.3s-1.3,1.2-1.8,1.9c-0.5,0.7-0.9,1.5-1.1,2.4c-0.4,1.1-1,1.9-1.6,2.2c-0.7,0.4-1.6,0.5-2.9,0.3l-4.8-0.8
		c0.4-2.5,1.1-4.8,2.1-6.7c1-1.9,2.4-3.5,3.9-4.8c1.6-1.3,3.4-2.2,5.4-2.9C372,61,374.2,60.7,376.6,60.7z"/>
	<path class="st1" d="M401,114.2V87.6h2.8c0.7,0,1.1,0.3,1.2,1l0.4,2.9c1.2-1.3,2.4-2.3,3.9-3.1c1.4-0.8,3.1-1.2,5-1.2
		c1.5,0,2.7,0.2,3.8,0.7c1.1,0.5,2,1.2,2.8,2s1.3,1.9,1.7,3.2c0.4,1.2,0.6,2.6,0.6,4.1v16.9h-4.7V97.3c0-2-0.5-3.6-1.4-4.7
		s-2.3-1.7-4.2-1.7c-1.4,0-2.7,0.3-3.9,1c-1.2,0.7-2.3,1.6-3.3,2.7v19.6H401z"/>
	<path class="st1" d="M449.4,114.2c-0.7,0-1.1-0.3-1.3-1l-0.4-3.2c-1.1,1.4-2.4,2.5-3.9,3.3c-1.5,0.8-3.1,1.2-5,1.2
		c-1.5,0-2.9-0.3-4.1-0.9c-1.2-0.6-2.3-1.4-3.2-2.6c-0.9-1.1-1.5-2.6-2-4.2s-0.7-3.6-0.7-5.8c0-2,0.3-3.8,0.8-5.5
		c0.5-1.7,1.3-3.2,2.3-4.4c1-1.2,2.2-2.2,3.6-2.9c1.4-0.7,3-1.1,4.8-1.1c1.6,0,3,0.3,4.2,0.8c1.2,0.6,2.2,1.3,3.1,2.3V75.5h4.7v38.6
		H449.4z M440.3,110.8c1.5,0,2.9-0.3,4-1c1.1-0.7,2.2-1.7,3.2-3V93.9c-0.9-1.2-1.8-2-2.8-2.4c-1-0.5-2.1-0.7-3.4-0.7
		c-2.5,0-4.4,0.9-5.7,2.6c-1.3,1.8-2,4.3-2,7.6c0,1.7,0.1,3.2,0.4,4.4c0.3,1.2,0.7,2.2,1.3,3c0.6,0.8,1.3,1.4,2.1,1.7
		C438.3,110.6,439.3,110.8,440.3,110.8z"/>
</g>
<g>
	<path class="st2" d="M323.7,229.9h6.1v-17.5c0-0.7,0-1.4,0.1-2.1l-4.3,3.6c-0.2,0.2-0.5,0.3-0.7,0.4c-0.2,0-0.5,0.1-0.7,0
		c-0.2,0-0.4-0.1-0.6-0.2c-0.2-0.1-0.3-0.2-0.4-0.3l-1.6-2.2l9.2-7.8h4.2v26.3h5.4v3.9h-16.7V229.9z"/>
	<path class="st2" d="M347.9,229.9h6.1v-17.5c0-0.7,0-1.4,0.1-2.1l-4.3,3.6c-0.2,0.2-0.5,0.3-0.7,0.4c-0.2,0-0.5,0.1-0.7,0
		c-0.2,0-0.4-0.1-0.6-0.2c-0.2-0.1-0.3-0.2-0.4-0.3l-1.6-2.2l9.2-7.8h4.2v26.3h5.4v3.9h-16.7V229.9z"/>
	<path class="st2" d="M374.3,234.1c-1.3,0-2.2-0.4-2.9-1.1c-0.7-0.7-1-1.7-1-3.1v-9.8h-1.9c-0.2,0-0.3,0-0.4-0.1
		c-0.1-0.1-0.2-0.3-0.2-0.5v-1.1l2.6-0.3l0.6-5c0-0.2,0.1-0.3,0.2-0.4c0.1-0.1,0.3-0.2,0.4-0.2h1.4v5.5h4.6v2h-4.6v9.6
		c0,0.7,0.2,1.2,0.5,1.5c0.3,0.3,0.7,0.5,1.3,0.5c0.3,0,0.6,0,0.8-0.1s0.4-0.2,0.6-0.3c0.2-0.1,0.3-0.2,0.4-0.3
		c0.1-0.1,0.2-0.1,0.3-0.1c0.1,0,0.3,0.1,0.4,0.3l0.8,1.3c-0.5,0.5-1.1,0.8-1.8,1.1C375.7,233.9,375,234.1,374.3,234.1z"/>
	<path class="st2" d="M380.7,233.8v-23.3h2.8v9.4c0.7-0.7,1.4-1.3,2.3-1.7s1.8-0.7,2.9-0.7c0.9,0,1.6,0.1,2.3,0.4s1.2,0.7,1.7,1.2
		s0.8,1.2,1,1.9s0.3,1.6,0.3,2.5v10.2h-2.8v-10.2c0-1.2-0.3-2.2-0.8-2.8c-0.6-0.7-1.4-1-2.5-1c-0.8,0-1.6,0.2-2.3,0.6
		c-0.7,0.4-1.4,0.9-2,1.6v11.8H380.7z"/>
</g>
<g>
	<path class="st0" d="M281,14.1c17.7,0,34.9,3.6,51,10.8c3.3,13.6,5.5,27.9,5.5,37.2c0,0.2,0,0.3,0,0.5c0,9.2-1.3,18.2-3.9,26.7
		c-2.6,8.4-6.4,16.3-11.3,23.6c-4.9,7.2-10.9,13.7-17.9,19.5c-7.4,6.2-16.1,11.7-23.4,14.9c-7.2-3.2-16-8.7-23.4-14.9
		c-7-5.8-13-12.4-17.9-19.5c-5-7.3-8.8-15.2-11.3-23.6c-2.6-8.5-3.9-17.5-3.9-26.7c0-0.2,0-0.3,0-0.5c0-9.3,2.2-23.5,5.5-37.2
		C246.1,17.7,263.3,14.1,281,14.1"/>
	<path class="st6" d="M281,66.6c3.9,0,7.6,1,10.8,2.8h32.9c0.1-2.3,0-4.9,0-7.3c-0.2-10.1-3.1-27.1-6-38.9c-11.7-3.8-24.2-6-37.7-6
		L281,66.6z"/>
	<path class="st7" d="M281,17.2c-13.2,0-25.4,2-37.7,5.9c-3,12.2-5.5,28.4-5.9,36.2c-0.6,11.4,0.3,19.6,2.6,28.7
		c1.3,5.1,3,9.8,5.1,14.6c2.3-1.2,4.8-2.8,7.2-4.6c2.6-1.9,4.8-4.4,6.7-6.7c-0.1-0.8-0.1-1.7-0.1-2.6c0-1.3,0.1-2.6,0.3-3.9
		c-4.6,0.2-7.1,0.2-9.2,0.2c-2.5,0-4.7-1.7-5.8-4.3h-1.2c-0.9,0-2.3-0.7-2.3-3.5c0-2.8,1.5-3.5,2.3-3.5h1.2c1.1-2.6,3.3-4.3,5.8-4.3
		h20.2c3.2-1.8,6.9-2.8,10.8-2.8L281,17.2z"/>
	<path class="st8" d="M260.9,128.1c-6.2-6.2-11.4-13.1-15.4-20.4c-4.1-7.4-7.1-15.7-8.8-24c-1.8-8.5-2.3-17.1-1.7-26.2
		c0.6-8.6,2.8-21.5,5.6-33.6c-2.7,0.9-5.3,2-7.9,3.1c-2.9,11.8-5,26.8-5,35c0,9.1,1.3,18,3.8,26.3c2.7,8.7,6.2,15.8,10.9,22.7
		c4.7,6.9,10.5,13.3,17.3,18.9c6.3,5.2,13.5,9.9,21.4,13.7l0,0C273.5,139.2,266.7,133.9,260.9,128.1"/>
	<path class="st8" d="M301,128.1c6.2-6.2,11.4-13.1,15.4-20.4c4.1-7.4,7.1-15.7,8.8-24c1.8-8.5,2.3-17.1,1.8-26.2
		c-0.6-8.6-2.8-21.6-5.6-33.6c2.7,0.9,5.3,2,8,3.1c2.9,11.8,5,26.8,5,35c0,9.1-1.3,18-3.8,26.3c-2.5,8.1-6.2,15.7-10.9,22.7
		c-4.7,6.9-10.5,13.3-17.3,18.9c-6.3,5.2-13.5,9.9-21.4,13.7l0,0C288.4,139.2,295.2,133.9,301,128.1"/>
	<path class="st9" d="M281,67.7c-11.6,0-21.1,9.4-21.1,21.1c0,11.6,9.4,21.1,21.1,21.1c11.6,0,21.1-9.4,21.1-21.1
		C302,77.1,292.6,67.7,281,67.7"/>
	<path class="st7" d="M281,110.9c-7.2,0-13.5-3.4-17.6-8.7c-5,2.8-10.1,5.1-15.1,6.6c3.9,6.9,8.8,13.4,14.7,19.3
		c5.3,5.3,11.3,10.2,18,14.5V110.9z"/>
	<path class="st9" d="M250,84c-2.3,0-4.2-1.8-5-4.3H243c-0.5,0-1.2-0.6-1.2-2.4c0-1.8,0.7-2.4,1.2-2.4h1.9c0.8-2.5,2.7-4.3,5-4.3
		h18.4c-4.5,3.1-7.8,7.8-9,13.2C255.3,83.9,252.2,84,250,84"/>
	<path class="st9" d="M332.4,24.5c-15.6-7-32.9-11-51.5-11c-18.6,0-35.8,4-51.5,11c-3.6,14.6-5.5,28.8-5.6,37.6
		c0,9.4,1.3,18.6,4,27.4c2.6,8.4,6.4,16.4,11.4,23.7c4.9,7.2,11,13.8,18,19.6c6.6,5.5,15.6,11.5,23.7,15c8.2-3.5,17.1-9.5,23.7-15
		c7-5.8,13.1-12.4,18-19.6c5-7.3,8.8-15.3,11.4-23.7c2.7-8.7,4-17.9,4-27.4C338,53.3,336,39.1,332.4,24.5 M319.6,111.1
		c-4.7,6.9-10.5,13.3-17.3,18.9c-6.3,5.2-13.5,9.9-21.4,13.7c-7.8-3.9-15.1-8.5-21.4-13.7c-6.8-5.6-12.6-12-17.3-18.9
		c-0.4-0.5-0.7-1.1-1.1-1.7c6.9-1.2,14.5-4.1,21.5-8.1c-1.8-2.5-3-5.4-3.6-8.6c-1.8,2.2-3.9,4.4-6.3,6.1c-3.9,2.9-8.6,5.8-13.6,7.3
		c-3.3-5.6-6-11.7-7.9-17.9c-2.5-8.3-3.8-17.1-3.8-26.3c0-8.2,2.1-23.1,5-34.9c15.3-6.6,31.6-10,48.3-10c16.8,0,33.1,3.4,48.3,10
		c2.9,11.8,5,26.8,5,34.9c0,2.8-0.1,5.6-0.3,8.4h-40.5c5,3.5,8.5,8.9,9.4,15.2l7.7-1.8c1.7-0.4,2.4-1.6,2.6-2.6l19.4-1.3
		c-0.6,2.9-1.3,5.7-2.1,8.4C328.1,96.4,324.4,104.1,319.6,111.1"/>
	<path class="st0" d="M282.4,94.6v11.3c5.3-0.4,9.9-3.2,12.8-7.4l-9.8-5.7C284.5,93.7,283.5,94.3,282.4,94.6"/>
	<path class="st0" d="M279.6,71.6c-5.3,0.4-9.9,3.2-12.8,7.4l9.8,5.7c0.8-0.8,1.8-1.4,3-1.7V71.6z"/>
	<path class="st0" d="M281,85.7c-1.7,0-3.1,1.4-3.1,3.1c0,1.7,1.4,3.1,3.1,3.1c1.7,0,3.1-1.4,3.1-3.1C284,87.1,282.7,85.7,281,85.7"
		/>
	<path class="st0" d="M282.4,71.6v11.3c1.2,0.3,2.2,0.9,3,1.7l9.8-5.7C292.3,74.8,287.7,72,282.4,71.6"/>
	<path class="st0" d="M279.6,94.6c-0.9-0.2-1.8-0.7-2.5-1.3c-0.2-0.1-0.3-0.3-0.5-0.4l-9.8,5.7c0.2,0.3,0.5,0.6,0.7,0.9
		c2.9,3.6,7.2,6,12.1,6.4V94.6z"/>
	<path class="st0" d="M286.7,90.5l9.8,5.7c1.9-4,2.5-9.6,0-14.8l-9.8,5.7C287,88.1,287.1,89.3,286.7,90.5"/>
	<path class="st9" d="M268.4,78.6l8,4.6c0.6-0.5,1.3-0.9,2-1.2v-9.2C274.5,73.4,270.9,75.5,268.4,78.6"/>
	<path class="st9" d="M283.5,72.8l0,9.3c0.7,0.3,1.4,0.6,2,1.1l8-4.6C291,75.5,287.4,73.4,283.5,72.8"/>
	<path class="st9" d="M297,87.1c-0.1-1.4-0.5-2.8-1-4.1l-8,4.6c0.1,0.4,0.1,0.8,0.1,1.2c0,0.1,0,0.3,0,0.5c2.3-0.6,4.7-1.2,7.1-1.7
		C295.7,87.4,296.4,87.2,297,87.1"/>
	<path class="st6" d="M281,142.6c6.7-4.3,12.8-9.2,18.1-14.5c6.2-6.2,11.3-13.1,15.4-20.5c4.1-7.5,7-15.8,8.7-24.1
		c0.1-0.6,0.3-1.3,0.4-1.9l-9.3,0.7c-0.5,1.3-1.6,2.3-3.2,2.6l0,0c-0.1,0-3.5,0.9-7.9,1.9c0.1,0.6,0.1,1.3,0.1,1.9
		c0,12.2-9.9,22.2-22.1,22.2V142.6z"/>
	<path class="st9" d="M282.9,88.7c0-1.1-0.9-2-2-2c-1.1,0-2,0.9-2,2c0,1.1,0.9,2,2,2C282,90.7,282.9,89.8,282.9,88.7"/>
	<path class="st6" d="M283.5,104.7c4-0.6,7.5-2.7,10.1-5.8l-8.1-4.6c-0.6,0.5-1.3,0.9-2,1.2C283.5,95.4,283.5,104.7,283.5,104.7"/>
	<path class="st7" d="M268.4,98.9l8-4.6c0.6,0.5,1.3,0.9,2,1.2l0,9.3C274.5,104.1,270.9,102,268.4,98.9"/>
	<path class="st6" d="M297.1,88.8c0-0.2,0-0.4,0-0.7c-0.6,0.1-1.2,0.3-1.7,0.4c-2.4,0.5-4.8,1.1-6.9,1.7l7.6,4.4
		C296.7,92.7,297.1,90.8,297.1,88.8"/>
	<path class="st0" d="M265.4,81.4c-2.3,4.8-2.1,10.2,0,14.8l9.8-5.7c-0.3-1.1-0.3-2.3,0-3.4L265.4,81.4z"/>
	<path class="st9" d="M265.9,94.6l8-4.6c-0.1-0.8-0.1-1.6,0-2.4l-8-4.6C264.5,86.7,264.5,90.8,265.9,94.6"/>
	<path class="st9" d="M289,52.7c0,0.4-0.1,1.9-0.2,2.3h6.4c-0.4-1.7-0.5-4.1-0.6-5.8l-0.1-3.7c0-0.4,0.1-0.6,0.3-0.9
		c0.2-0.2,0.4-0.3,0.7-0.3c0.3,0,0.8,0,0.8,1l0.1,3.9c0.1,1.8,0.1,4.2-0.1,5.7h6.2c-0.1-0.5-0.3-1.8-0.3-2.2
		c0.8,1.7,2.5,2.5,4.7,2.5c1.3,0,2.4-0.5,3.1-0.9c0,0.1,0.3,0.6,0.3,0.6h11.5c-0.5-1.7-0.8-4.1-1-5.9l-1.6-12.9l-5.9-0.9
		c0.5,1.6,0.8,4.1,1,5.8c0,0,0.9,8.2,0.9,8.2c0.2,1.5,0.3,3.1,0.3,4.7v0.2l-0.2-0.6c-0.4-1-0.7-2.4-0.8-4.3c0,0-0.2-2.6-0.2-2.6
		c-0.3-4.2-2.6-6.1-7.6-6.1c-0.9,0-3,0.2-4.3,0.6l0.3,4.8l1.3-0.8c1.1-0.7,2-0.9,2.9-0.9c0.8,0,1.3,0.3,1.5,0.8
		c-1,0.2-2,0.4-3.2,0.9c-1.8,0.8-2.9,1.9-3.4,3.3c0,0,0-0.1,0-0.1c0,0-0.2-4.4-0.2-4.4c-0.1-2.8-1.9-4.6-4.6-4.6
		c-1.3,0-2.4,0.4-3.3,1c-0.1-0.2-0.1-0.3-0.2-0.5l-0.2-0.5l-5.1-0.2c0.2,0.9,0.5,3.5,0.6,4.5c-0.3-1.4-1-2.9-2.4-3.8
		c-1-0.7-2.4-1.1-3.8-1.1c-1.9,0-3.8,0.8-5.1,2.1c-1.3,1.3-2,3.1-2.1,5.2c-0.5-0.5-1.1-1-1.9-1.4l-2.4-1.1l-0.1-0.1
		c-0.6-0.3-0.6-0.3-0.6-0.5c0-0.2,0.6-0.5,1.3-0.5c1,0,2.4,0.5,3.5,1.2l0.1-4.2c-0.8-0.4-2-0.7-3.7-0.7c-0.9,0-2.5,0.1-4,0.9
		c-0.4,0.2-0.7,0.5-1.1,0.8l0.1-1.2c-1.4-0.2-2.8-0.2-4.6,1.5c0-0.1-0.1-0.7-0.2-1l-5.5,0.3c0.4,1.5,0.5,3.7,0.3,5.7l-0.1,2.1l0,0.2
		c-0.1,1.1-0.1,2.2-0.2,3.3c-0.5-1.4-1-3.4-1.3-5l-2.7-12.3l-7.8,1.1c0.1,0.2,0.2,0.6,0.2,0.9c0.1,0.5,0,1.6-0.7,3.7
		c-1.3,3.6-3,9-4.8,12.7c-0.2,0.5-0.6,1.4-0.6,1.4h6.1c0.1-0.9,0.5-2.5,0.9-3.7c0.8,0,3-0.1,4.1-0.1c0.2,0.9,0.4,2.1,0.5,2.9
		l0.1,0.9h12.2c-0.3-1.9-0.2-4.6-0.1-6.1c0.1-1.7,0.4-2.8,1.2-3.5c0.5-0.6,1.2-0.7,1.7-0.7c-0.1,2.3,1.4,3.3,2.8,4l2.4,1.2
		c0.9,0.4,0.8,0.7,0.8,0.8c0,0.5-0.7,0.6-1.4,0.6c-1.3,0-3-0.9-4.9-2.9l-0.1,5.4c1.5,0.9,3.4,1.2,5.1,1.2c2.8,0,5.7-1.2,6.5-3.8
		c1.4,2.6,4.1,3.8,6.8,3.8C285.6,55.1,287.4,54.3,289,52.7 M247.1,47.2c0.3-0.9,0.6-1.6,1.1-3.2c0.3,1.5,0.5,2.3,0.7,3.1
		C248.2,47.2,247.9,47.2,247.1,47.2 M281.2,45.9L281.2,45.9c0-1.9,0.7-2.6,1.3-2.7c0.2,0,0.7-0.1,1,0.8c0.1,0.3,0.1,0.6,0.1,0.8
		c0,0.5-0.3,0.6-0.6,0.7l0,0c0,0-0.9,0.4-1.8,0.7C281.2,46.1,281.2,46,281.2,45.9 M287.6,49.6c-1.1,1-2,1.6-3.4,1.6
		c-1.1,0-1.8-0.7-2.2-1.6c1.2-0.4,5.7-2.1,7-2.6c0,0.9,0,2.2,0,2.2v0c0,0.7,0,1.5,0,2.2c0,0,0,0,0,0L287.6,49.6z M308.4,51.4
		c-1.1,0-1.3-0.7-1.3-1.2c0-0.5,0.2-1.4,1.9-1.8c0,0.6,0.1,1.2,0.1,1.2l0,0.5c0,0.4,0,0.7,0.1,1.1C308.9,51.3,308.7,51.4,308.4,51.4
		"/>
	<path class="st0" d="M274.6,41.1c-0.5-0.2-1.4-0.4-2.7-0.4c-1.1,0-2.4,0.2-3.5,0.8c-1.2,0.7-2.1,1.8-2.2,3
		c-0.1,1.8,0.9,2.6,2.2,3.3c0.9,0.5,1.8,0.9,2.4,1.2c0.8,0.4,1.4,0.9,1.3,1.8c-0.1,0.9-0.9,1.5-2.3,1.5c-1.2,0-2.8-0.7-4-1.7
		l-0.1,2.7c1,0.5,2.6,0.8,4.1,0.8c2.6,0,5.7-1.2,5.8-4.2c0-2.1-1.5-3-2.5-3.5c-0.9-0.4-1.9-0.9-2.4-1.1c-0.4-0.2-1.3-0.5-1.2-1.5
		c0.1-0.9,1.1-1.4,2.3-1.4c1,0,1.9,0.3,2.6,0.7L274.6,41.1z"/>
	<path class="st0" d="M251.7,36.2l-5.9,0.8c0.1,0.8-0.1,2.3-0.7,4.2c-1.2,3.6-3.2,9.4-4.8,12.8h3.7c0.2-1.1,0.5-2.2,1-3.7l5.5-0.1
		c0.2,1.1,0.6,2.8,0.7,3.8h4.9c-0.6-1.4-1.4-4.4-1.9-6.5L251.7,36.2z M245.8,48.2l2.7-7.7l1.6,7.6L245.8,48.2z"/>
	<path class="st0" d="M265.9,41.1l-0.1,2.6c-0.9-0.1-2,0.1-2.9,1c-0.8,0.8-1.3,2-1.4,4.1c-0.1,1.7-0.2,3.6,0,5.2h-4.2
		c0.3-1.6,0.4-3.4,0.5-5.1l0.1-2.1c0.1-1.7,0.1-3.3-0.2-4.9l3.7-0.2c0.2,0.6,0.3,1.4,0.2,2.4C263.1,41.6,264.7,41.1,265.9,41.1"/>
	<path class="st0" d="M318.4,37l-3.8-0.6c0.4,1.6,0.5,2.8,0.7,4.6l0.9,8.2c0.2,1.7,0.3,3.3,0.3,4.8h4.1c-0.4-1.6-0.5-3.1-0.7-4.8
		L318.4,37z"/>
	<path class="st0" d="M301.4,54c-0.2-1.6-0.3-3.1-0.4-4.8l-0.2-4.4c-0.1-2.3-1.4-3.7-3.6-3.7c-1.2,0-2.7,0.4-3.9,2
		c0-0.3-0.2-1.4-0.5-1.9l-3.3-0.2c0.3,1.6,0.4,3.2,0.4,4.9l0,3.2c0.1,1.7,0,3.3-0.1,4.8h4.2c-0.2-1.6-0.3-3.1-0.4-4.8l-0.1-3.7
		c-0.1-1.3,0.9-2.1,1.9-2.2c1.2,0,1.7,0.8,1.8,1.9l0.1,3.9c0.1,1.7,0.1,3.3,0,4.8H301.4z"/>
	<path class="st0" d="M314.4,54c-0.5-1.2-0.8-2.9-0.9-4.6l-0.2-2.6c-0.2-3.1-1.5-5.2-6.7-5.2c-0.9,0-2.2,0.1-3.2,0.4l0.2,2.4
		c1-0.6,2.1-1.1,3.5-1.1c1.4,0,2.5,0.6,2.7,2.6c-1.3,0.1-2.6,0.4-4,1c-1.6,0.7-3.2,2-3,4.1c0.2,2.4,2,3.4,4.2,3.4
		c1.7,0,2.9-0.9,3.5-1.5c0.1,0.4,0.3,0.9,0.5,1.2H314.4z M308.4,52.3c-1.2,0.1-2.2-0.6-2.3-2.1c0-1.4,0.9-2.6,3.7-3l0.2,2.2
		c0.1,0.8,0.1,1.3,0.2,2.1C309.7,52,309.1,52.3,308.4,52.3"/>
	<path class="st0" d="M286,41.5c-0.9-0.6-2.1-0.9-3.2-0.9c-2.7,0-6.4,1.9-6.3,7c0.1,5.1,4,6.6,6.7,6.6c2.4,0,3.9-0.8,5-2.1l-0.8-1.1
		c-0.6,0.5-1.6,1.3-3.3,1.2c-1.7,0-2.8-1.3-3.4-3.1l7.5-2.8C288.1,43.8,287.2,42.3,286,41.5 M283.4,46.4l-3,1.2
		c-0.1-0.5-0.1-1.1-0.1-1.7c0-3.1,1.7-3.6,2.2-3.6c0.9-0.1,1.7,0.4,2,1.5C284.8,44.9,284.7,45.9,283.4,46.4"/>
</g>
<g>
</g>
<g>
</g>
<g>
</g>
<g>
</g>
<g>
</g>
<g>
</g>
</svg>
