<?xml version="1.0" encoding="utf-8"?>
<!-- Generator: Adobe Illustrator 21.0.2, SVG Export Plug-In . SVG Version: 6.00 Build 0)  -->
<!DOCTYPE svg PUBLIC "-//W3C//DTD SVG 1.1//EN" "http://www.w3.org/Graphics/SVG/1.1/DTD/svg11.dtd">
<svg version="1.1" id="Layer_1" xmlns="http://www.w3.org/2000/svg" xmlns:xlink="http://www.w3.org/1999/xlink" x="0px" y="0px"
	 viewBox="0 0 1271.8 1102.5" style="enable-background:new 0 0 1271.8 1102.5;" xml:space="preserve">
<style type="text/css">
	.st0{fill:#55ACEE;}
</style>
<path class="st0" d="M52.9,681.8l350.8,363.3c72.1,74.7,191.1,76.7,265.7,4.7c74.7-72.1,76.8-191.1,4.7-265.7l-43.3-44.9h469.1
	c94.6,0,171.9-77.4,171.9-171.9v-32c0-94.6-77.4-171.9-171.9-171.9H630.8l43.3-44.9c72.1-74.7,70-193.6-4.7-265.7
	C632.9,17.5,585.9,0,538.9,0c-49.2,0-98.4,19.2-135.2,57.4L52.9,420.7C-17.6,493.8-17.6,608.8,52.9,681.8z"/>
<g>
</g>
<g>
</g>
<g>
</g>
<g>
</g>
<g>
</g>
<g>
</g>
</svg>
