<svg xmlns="http://www.w3.org/2000/svg" viewBox="0 0 210.62 27.73"><defs><style>.a{fill:#fff;}.b{fill:#cc123e;}.c{fill:#e20e1d;}.d{fill:#173c66;}.e{fill:#a2863c;}.f{fill:#da3744;}.g{fill:none;stroke:#da3744;stroke-miterlimit:10;stroke-width:0.64px;}</style></defs><title>arsenal</title><path class="a" d="M11.64.44A25.39,25.39,0,0,1,22,2.65a36.26,36.26,0,0,1,1.13,7.59v.1a18.58,18.58,0,0,1-.8,5.45,17.88,17.88,0,0,1-2.31,4.82,19.34,19.34,0,0,1-3.65,4,21.45,21.45,0,0,1-4.77,3,21.42,21.42,0,0,1-4.77-3,19.27,19.27,0,0,1-3.65-4A17.82,17.82,0,0,1,.91,15.79a18.58,18.58,0,0,1-.8-5.45v-.1A36.26,36.26,0,0,1,1.24,2.65,25.39,25.39,0,0,1,11.64.44"/><path class="b" d="M11.64,11.15a4.52,4.52,0,0,1,2.21.57h6.72c0-.47,0-1,0-1.5a44,44,0,0,0-1.22-7.94,24.78,24.78,0,0,0-7.7-1.22Z"/><path class="c" d="M11.65,1.07A24.53,24.53,0,0,0,4,2.28,47.73,47.73,0,0,0,2.75,9.67a18.59,18.59,0,0,0,.52,5.85,18.05,18.05,0,0,0,1.05,3,11.24,11.24,0,0,0,1.47-.94,7.42,7.42,0,0,0,1.36-1.37,4.94,4.94,0,0,1,0-.52,4.62,4.62,0,0,1,.07-.8c-.93,0-1.46,0-1.87,0A1.32,1.32,0,0,1,4.14,14H3.91c-.18,0-.47-.15-.47-.72s.3-.72.47-.72h.23a1.32,1.32,0,0,1,1.18-.88H9.44a4.49,4.49,0,0,1,2.21-.57Z"/><path class="d" d="M7.55,23.7A18.58,18.58,0,0,1,4.4,19.55a17.52,17.52,0,0,1-1.8-4.89,19.61,19.61,0,0,1-.36-5.34A47.91,47.91,0,0,1,3.4,2.47c-.54.19-1.09.4-1.62.63a35.82,35.82,0,0,0-1,7.13,18,18,0,0,0,.77,5.36,16.58,16.58,0,0,0,2.23,4.64,18.76,18.76,0,0,0,3.53,3.85,22.33,22.33,0,0,0,4.36,2.8h0A22.29,22.29,0,0,1,7.55,23.7"/><path class="d" d="M15.73,23.7a18.59,18.59,0,0,0,3.15-4.16,17.44,17.44,0,0,0,1.79-4.89A19.52,19.52,0,0,0,21,9.32a48,48,0,0,0-1.15-6.85q.82.29,1.62.64a36,36,0,0,1,1,7.13,18,18,0,0,1-.77,5.36,17.13,17.13,0,0,1-2.23,4.64A18.68,18.68,0,0,1,16,24.09a22.33,22.33,0,0,1-4.36,2.8h0a22.38,22.38,0,0,0,4.09-3.19"/><path class="e" d="M11.64,11.37a4.3,4.3,0,1,0,4.3,4.3,4.3,4.3,0,0,0-4.3-4.3"/><path class="c" d="M11.64,20.2a4.52,4.52,0,0,1-3.59-1.77A15.39,15.39,0,0,1,5,19.77,18.66,18.66,0,0,0,8,23.7a22.16,22.16,0,0,0,3.68,3Z"/><path class="e" d="M5.31,14.69a1.13,1.13,0,0,1-1-.88H3.9c-.1,0-.25-.12-.25-.49s.15-.49.25-.49h.39a1.13,1.13,0,0,1,1-.88H9.07a4.52,4.52,0,0,0-1.84,2.7c-.83,0-1.47,0-1.92,0"/><path class="e" d="M22.14,2.56a25.72,25.72,0,0,0-21,0A36.31,36.31,0,0,0,0,10.23a18.78,18.78,0,0,0,.81,5.58,17.92,17.92,0,0,0,2.33,4.84,19.44,19.44,0,0,0,3.67,4,21.66,21.66,0,0,0,4.84,3.06,21.57,21.57,0,0,0,4.84-3.06,19.44,19.44,0,0,0,3.67-4,17.92,17.92,0,0,0,2.33-4.84,18.78,18.78,0,0,0,.81-5.58,36.3,36.3,0,0,0-1.14-7.67M19.53,20.23A18.75,18.75,0,0,1,16,24.09a22.36,22.36,0,0,1-4.36,2.8,22.35,22.35,0,0,1-4.36-2.8,18.74,18.74,0,0,1-3.53-3.85l-.22-.34a13.89,13.89,0,0,0,4.39-1.65,4.46,4.46,0,0,1-.73-1.75,7.41,7.41,0,0,1-1.28,1.25,9.4,9.4,0,0,1-2.78,1.5,16.93,16.93,0,0,1-1.61-3.66,18,18,0,0,1-.77-5.36,35.83,35.83,0,0,1,1-7.13,25,25,0,0,1,19.73,0,36,36,0,0,1,1,7.13q0,.87-.07,1.72H14.2a4.52,4.52,0,0,1,1.92,3.11l1.57-.37a.65.65,0,0,0,.54-.54l4-.27a17,17,0,0,1-.43,1.71,17.14,17.14,0,0,1-2.23,4.64"/><path class="a" d="M11.93,16.86v2.31a3.5,3.5,0,0,0,2.61-1.5l-2-1.16a1.21,1.21,0,0,1-.6.35"/><path class="a" d="M11.36,12.17a3.51,3.51,0,0,0-2.61,1.51l2,1.16a1.23,1.23,0,0,1,.61-.35Z"/><path class="a" d="M11.64,15a.63.63,0,1,0,.62.62.62.62,0,0,0-.62-.62"/><path class="a" d="M11.93,12.17v2.31a1.22,1.22,0,0,1,.61.35l2-1.16a3.52,3.52,0,0,0-2.61-1.51"/><path class="a" d="M11.36,16.86a1.21,1.21,0,0,1-.51-.26l-.1-.09-2,1.16.15.19a3.51,3.51,0,0,0,2.46,1.31Z"/><path class="a" d="M12.81,16l2,1.16a3.53,3.53,0,0,0,0-3l-2,1.16a1.22,1.22,0,0,1,0,.7"/><path class="e" d="M9.08,13.61l1.63.94a1.41,1.41,0,0,1,.42-.24V12.42a3.24,3.24,0,0,0-2.05,1.18"/><path class="e" d="M12.15,12.43v1.89a1.39,1.39,0,0,1,.41.23l1.64-.94a3.22,3.22,0,0,0-2-1.18"/><path class="e" d="M14.92,15.33a3.15,3.15,0,0,0-.21-.84l-1.64.94a1.35,1.35,0,0,1,0,.24s0,.06,0,.09c.46-.13,1-.25,1.44-.35l.38-.08"/><path class="b" d="M11.64,26.67a22.11,22.11,0,0,0,3.68-3,18.69,18.69,0,0,0,3.13-4.18,17.51,17.51,0,0,0,1.77-4.91c0-.13.05-.26.08-.39l-1.9.14a.87.87,0,0,1-.65.54h0l-1.61.39c0,.13,0,.26,0,.39a4.52,4.52,0,0,1-4.52,4.52Z"/><path class="e" d="M12,15.67a.4.4,0,1,0-.4.4.4.4,0,0,0,.4-.4"/><path class="b" d="M12.15,18.92a3.24,3.24,0,0,0,2.05-1.18l-1.64-.95a1.35,1.35,0,0,1-.41.24v1.89"/><path class="c" d="M9.08,17.74l1.64-.95a1.38,1.38,0,0,0,.41.24v1.89a3.23,3.23,0,0,1-2-1.18"/><path class="b" d="M14.93,15.67s0-.09,0-.13l-.36.08c-.5.1-1,.23-1.41.35l1.55.89a3.21,3.21,0,0,0,.22-1.18"/><path class="a" d="M8.46,14.17a3.52,3.52,0,0,0,0,3l2-1.16a1.23,1.23,0,0,1,0-.7Z"/><path class="e" d="M8.58,16.86l1.63-.95a1.31,1.31,0,0,1,0-.48l-1.64-.94a3.23,3.23,0,0,0,0,2.37"/><path class="e" d="M13.28,8.31c0,.09,0,.39,0,.47h1.3a7.72,7.72,0,0,1-.12-1.19l0-.75a.24.24,0,0,1,.06-.18.2.2,0,0,1,.14-.06c.06,0,.16,0,.17.21l0,.8a7.29,7.29,0,0,1,0,1.17H16c0-.11-.06-.37-.06-.44a1,1,0,0,0,1,.51,1.16,1.16,0,0,0,.64-.19l.07.13H20a7.74,7.74,0,0,1-.21-1.21L19.45,5l-1.21-.19a7.88,7.88,0,0,1,.21,1.19l.18,1.68a8.17,8.17,0,0,1,.06,1v0l0-.12a2.94,2.94,0,0,1-.17-.88l-.05-.54c-.06-.85-.53-1.24-1.55-1.24A4.1,4.1,0,0,0,16,6l.07,1,.27-.17a1.09,1.09,0,0,1,.6-.19.31.31,0,0,1,.31.17,2.49,2.49,0,0,0-.65.19,1.19,1.19,0,0,0-.69.67v0l0-.89A.89.89,0,0,0,15,5.77a1.15,1.15,0,0,0-.68.21l0-.1-.05-.1-1-.05a8,8,0,0,1,.13.92,1.24,1.24,0,0,0-.48-.78A1.35,1.35,0,0,0,12,5.65a1.49,1.49,0,0,0-1,.44,1.55,1.55,0,0,0-.42,1.07,1.3,1.3,0,0,0-.39-.28l-.48-.23h0c-.12-.05-.12-.07-.12-.1s.12-.1.27-.1a1.49,1.49,0,0,1,.71.25l0-.86a1.79,1.79,0,0,0-.75-.14A1.73,1.73,0,0,0,9,5.87,1.28,1.28,0,0,0,8.75,6V5.78a1,1,0,0,0-.94.3,1.59,1.59,0,0,0-.05-.21l-1.13.07A4,4,0,0,1,6.72,7.1l0,.43v.05c0,.23,0,.45,0,.67-.09-.29-.2-.69-.27-1l-.56-2.5L4.22,5a.94.94,0,0,1,0,.19,1.76,1.76,0,0,1-.14.76c-.26.74-.62,1.84-1,2.6L3,8.79H4.26A3.86,3.86,0,0,1,4.44,8l.83,0a5.42,5.42,0,0,1,.1.58v.19H7.87a6.72,6.72,0,0,1,0-1.24,1.06,1.06,0,0,1,.24-.72.47.47,0,0,1,.34-.15A.86.86,0,0,0,9,7.5l.49.25c.18.09.17.14.17.17S9.5,8,9.37,8a1.62,1.62,0,0,1-1-.59l0,1.11a2.17,2.17,0,0,0,1,.24A1.33,1.33,0,0,0,10.72,8a1.63,1.63,0,0,0,2.56.28M4.74,7.2,5,6.55l.13.63H4.74m7-.28h0c0-.38.14-.53.27-.54s.15,0,.2.16a.66.66,0,0,1,0,.16c0,.1-.05.12-.12.15h0L11.7,7s0,0,0-.07M13,7.69A1,1,0,0,1,12.3,8a.51.51,0,0,1-.45-.32l1.42-.53c0,.19,0,.45,0,.45h0c0,.15,0,.3,0,.45h0ZM17.23,8A.23.23,0,0,1,17,7.8c0-.11,0-.28.38-.37l0,.24v.11c0,.08,0,.15,0,.22a.29.29,0,0,1-.16.05"/><path class="a" d="M10.34,6a1.6,1.6,0,0,0-.55-.08A1.52,1.52,0,0,0,9.06,6a.82.82,0,0,0-.44.61.66.66,0,0,0,.46.67l.49.25c.15.08.29.18.27.36s-.18.31-.47.31a1.37,1.37,0,0,1-.81-.35v.56a2.09,2.09,0,0,0,.84.16c.52,0,1.17-.24,1.18-.85a.74.74,0,0,0-.5-.7l-.48-.23c-.09,0-.27-.11-.25-.31s.23-.28.46-.28a1.12,1.12,0,0,1,.53.13Z"/><path class="a" d="M5.66,4.95l-1.2.17A2,2,0,0,1,4.31,6c-.25.74-.66,1.92-1,2.62h.75a4.26,4.26,0,0,1,.21-.74l1.12,0a6.87,6.87,0,0,1,.14.77h1a10.42,10.42,0,0,1-.38-1.32ZM4.46,7.41,5,5.82l.33,1.55Z"/><path class="a" d="M8.56,6l0,.53a.68.68,0,0,0-.59.2,1.24,1.24,0,0,0-.29.84,7.77,7.77,0,0,0,0,1.05H6.79a9.38,9.38,0,0,0,.1-1l0-.43a4.51,4.51,0,0,0,0-1l.75,0a1.59,1.59,0,0,1,0,.48c.33-.49.65-.6.89-.59"/><path class="a" d="M19.28,5.12,18.5,5a7,7,0,0,1,.15.93l.18,1.68a8.35,8.35,0,0,1,.06,1h.84a8.69,8.69,0,0,1-.15-1Z"/><path class="a" d="M15.82,8.59a7.92,7.92,0,0,1-.08-1l0-.89A.7.7,0,0,0,14.95,6a1,1,0,0,0-.8.4A1.62,1.62,0,0,0,14.06,6l-.68,0a7.23,7.23,0,0,1,.09,1V7.6a7.79,7.79,0,0,1,0,1h.86a7.92,7.92,0,0,1-.08-1l0-.75a.41.41,0,0,1,.4-.44c.24,0,.36.15.36.39l0,.8a8.33,8.33,0,0,1,0,1Z"/><path class="a" d="M18.47,8.59a3.23,3.23,0,0,1-.18-.94l-.05-.54c0-.64-.31-1.07-1.36-1.07a3.33,3.33,0,0,0-.66.08l0,.49a1.31,1.31,0,0,1,.7-.22.49.49,0,0,1,.54.53,2.53,2.53,0,0,0-.81.21.88.88,0,0,0-.62.84c0,.49.4.69.86.69a1,1,0,0,0,.72-.31,1.17,1.17,0,0,0,.1.25Zm-1.24-.35a.41.41,0,0,1-.46-.43c0-.28.18-.52.76-.62l0,.46c0,.16,0,.27,0,.42a.5.5,0,0,1-.36.17"/><path class="a" d="M12.67,6A1.14,1.14,0,0,0,12,5.84a1.28,1.28,0,0,0-1.28,1.42A1.3,1.3,0,0,0,12.1,8.61a1.29,1.29,0,0,0,1-.43L13,8a1,1,0,0,1-.67.25.77.77,0,0,1-.69-.63L13.14,7a1.23,1.23,0,0,0-.47-1m-.53,1-.61.23a2.74,2.74,0,0,1,0-.34c0-.64.34-.73.45-.74a.37.37,0,0,1,.4.31c.07.25.05.44-.22.54"/><path class="f" d="M113.28,11.54c0-1.56-.92-1.8-.92-1.8s-.22-.3-.45-.28c0,0,0,.24,0,.24a2.07,2.07,0,0,0-.63.09,3.91,3.91,0,0,0-.68.52s0,0,0-.09-.64-.23-.7-.24-.27-.34-.27-.34l-.14-.06,0-.1-.11-.11s0-.33-.25-.33a4,4,0,0,1-.52-.05l-.12-.1-.6-.1s-.4-.21-.4-.38.63-.39.63-.76-.88-.53-.88-.53l-.31-.2,0-.14s-.08-.07-.08-.11.05-.07.05-.12-.08-.07-.08-.1.1-.15.1-.15.44-.09.44-.47-.44-.54-.44-.76,0-.61,0-.61.07-.09.07-.13-.06-.05-.06-.05h-.25l0-.08-.15,0h0l-.15,0,0,.08h-.25s-.06,0-.06.05.07.13.07.13,0,.39,0,.61-.44.44-.44.76.44.47.44.47.1.12.1.15-.08,0-.08.1.05.08.05.12-.08.11-.08.11l0,.14-.31.2s-.88.06-.88.53.63.6.63.76-.4.38-.4.38l-.6.1-.12.1a4,4,0,0,1-.52.05c-.21,0-.25.33-.25.33l-.11.11,0,.1-.14.06s-.21.33-.27.34-.71.11-.7.24,0,.09,0,.09a3.92,3.92,0,0,0-.68-.52,2.07,2.07,0,0,0-.63-.09s0-.24,0-.24c-.23,0-.45.28-.45.28s-.9.23-.92,1.8a3,3,0,0,0,2,2.86s-.06.31.09.4.37-.08.37-.08a1.21,1.21,0,0,1,.5.63,3.4,3.4,0,0,1,.09.7s-.3.14-.34.26a.38.38,0,0,0,.07.33c.07.09.38.08.38.08s-.26.33-.22.54c0,0-.08,0-.09.05a1.08,1.08,0,0,0,0,.13,2,2,0,0,0-.55,1.22c0,1.88,2.75,2.19,2.75,2.19s.11.16.09.2a1.86,1.86,0,0,0-.06.29l-1.25.16,0,.35-.22.17-.28.39-.45.21-.06.12.11.29,0,.16-.16,1.18-.4.56-.37.41-.3.44s-.54.15-.54.6c0,1.19,5.68,1.36,5.68,1.36h0s5.68-.17,5.68-1.36c0-.46-.54-.6-.54-.6l-.3-.44-.37-.41-.4-.56-.16-1.18,0-.16.11-.29-.06-.12-.45-.21-.28-.39-.22-.17,0-.35-1.25-.16a1.85,1.85,0,0,0-.06-.29s.09-.2.09-.2,2.75-.31,2.75-2.19a2,2,0,0,0-.55-1.22,1.07,1.07,0,0,0,0-.13s-.08,0-.09-.05c0-.21-.22-.54-.22-.54s.31,0,.38-.08a.38.38,0,0,0,.07-.33c0-.12-.34-.26-.34-.26a3.41,3.41,0,0,1,.09-.7,1.21,1.21,0,0,1,.5-.63s.22.17.37.08.09-.4.09-.4A3,3,0,0,0,113.28,11.54Zm-10.2,4.65s-.11-1.91-1.18-2a.32.32,0,0,0-.31-.4c-.21,0-.15.13-.26.13a2.59,2.59,0,0,1-1.28-2.34c0-.34.12-1.4.75-1.4,1,0,1,.7,1,1a.44.44,0,0,0-.41.42.42.42,0,0,0,.39.3c.36,0,.48-.61.48-.61l.09.1.06.18.17.13.11.31.22.18a8,8,0,0,1,.4,1.78C103.45,15,103.31,16.19,103.08,16.19Zm8.38-2.25c-.1,0,0-.13-.25-.13a.32.32,0,0,0-.31.4c-1.08.07-1.15,2-1.18,2-.23,0-.37-1.15-.27-2.21a7.94,7.94,0,0,1,.4-1.78l.22-.18.11-.31.17-.13.06-.18.09-.1s.12.56.48.61a.41.41,0,0,0,.39-.3.44.44,0,0,0-.41-.42c0-.3,0-1,1-1,.63,0,.79,1.06.75,1.4A2.59,2.59,0,0,1,111.46,13.94Z"/><path class="f" d="M132.74,11.54c0-1.56-.92-1.8-.92-1.8s-.22-.3-.45-.28c0,0,0,.24,0,.24a2.07,2.07,0,0,0-.63.09,3.91,3.91,0,0,0-.68.52s0,0,0-.09-.64-.23-.7-.24-.27-.34-.27-.34l-.14-.06,0-.1-.11-.11s0-.33-.25-.33A4,4,0,0,1,128,9l-.12-.1-.6-.1s-.4-.21-.4-.38.63-.39.63-.76-.88-.53-.88-.53l-.31-.2,0-.14s-.08-.07-.08-.11.05-.07.05-.12-.08-.07-.08-.1.1-.15.1-.15.44-.09.44-.47-.44-.54-.44-.76,0-.61,0-.61.07-.09.07-.13-.06-.05-.06-.05h-.25l0-.08-.15,0h0l-.15,0,0,.08h-.25s-.06,0-.06.05.07.13.07.13,0,.39,0,.61-.44.44-.44.76.44.47.44.47.1.12.1.15-.08,0-.08.1.05.08.05.12-.08.11-.08.11l0,.14-.31.2s-.88.06-.88.53.63.6.63.76-.4.38-.4.38l-.6.1-.12.1a4,4,0,0,1-.52.05c-.21,0-.25.33-.25.33l-.11.11,0,.1-.14.06s-.21.33-.27.34-.71.11-.7.24,0,.09,0,.09A3.92,3.92,0,0,0,121,9.8a2.07,2.07,0,0,0-.63-.09s0-.24,0-.24c-.23,0-.45.28-.45.28s-.9.23-.92,1.8a3,3,0,0,0,2,2.86s-.06.31.09.4.37-.08.37-.08a1.21,1.21,0,0,1,.5.63,3.4,3.4,0,0,1,.09.7s-.3.14-.34.26a.38.38,0,0,0,.07.33c.07.09.38.08.38.08s-.26.33-.22.54c0,0-.08,0-.09.05a1.08,1.08,0,0,0,0,.13,2,2,0,0,0-.55,1.22c0,1.88,2.75,2.19,2.75,2.19s.11.16.09.2a1.86,1.86,0,0,0-.06.29l-1.25.16,0,.35-.22.17-.28.39-.45.21-.06.12.11.29,0,.16-.16,1.18-.4.56-.37.41-.3.44s-.54.15-.54.6c0,1.19,5.68,1.36,5.68,1.36h0s5.68-.17,5.68-1.36c0-.46-.54-.6-.54-.6l-.3-.44-.37-.41-.4-.56-.16-1.18,0-.16.11-.29-.06-.12-.45-.21-.28-.39-.22-.17,0-.35-1.25-.16a1.85,1.85,0,0,0-.06-.29s.09-.2.09-.2,2.75-.31,2.75-2.19a2,2,0,0,0-.55-1.22,1.07,1.07,0,0,0,0-.13s-.08,0-.09-.05c0-.21-.22-.54-.22-.54s.31,0,.38-.08a.38.38,0,0,0,.07-.33c0-.12-.34-.26-.34-.26a3.41,3.41,0,0,1,.09-.7,1.21,1.21,0,0,1,.5-.63s.22.17.37.08.09-.4.09-.4A3,3,0,0,0,132.74,11.54Zm-10.2,4.65s-.11-1.91-1.18-2a.32.32,0,0,0-.31-.4c-.21,0-.15.13-.26.13a2.59,2.59,0,0,1-1.28-2.34c0-.34.12-1.4.75-1.4,1,0,1,.7,1,1a.44.44,0,0,0-.41.42.42.42,0,0,0,.39.3c.36,0,.48-.61.48-.61l.09.1.06.18.17.13.11.31.22.18a8,8,0,0,1,.4,1.78C122.92,15,122.78,16.19,122.54,16.19Zm8.38-2.25c-.1,0,0-.13-.25-.13a.32.32,0,0,0-.31.4c-1.08.07-1.15,2-1.18,2-.23,0-.37-1.15-.27-2.21a7.94,7.94,0,0,1,.4-1.78l.22-.18.11-.31.17-.13.06-.18.09-.1s.12.56.48.61a.41.41,0,0,0,.39-.3.44.44,0,0,0-.41-.42c0-.3,0-1,1-1,.63,0,.79,1.06.75,1.4A2.59,2.59,0,0,1,130.93,13.94Z"/><path class="f" d="M152.21,11.54c0-1.56-.92-1.8-.92-1.8s-.22-.3-.45-.28c0,0,0,.24,0,.24a2.07,2.07,0,0,0-.63.09,3.91,3.91,0,0,0-.68.52s0,0,0-.09-.64-.23-.7-.24-.27-.34-.27-.34l-.14-.06,0-.1-.11-.11s0-.33-.25-.33A4,4,0,0,1,147.5,9l-.12-.1-.6-.1s-.4-.21-.4-.38S147,8,147,7.65s-.88-.53-.88-.53l-.31-.2,0-.14s-.08-.07-.08-.11.05-.07.05-.12-.08-.07-.08-.1.1-.15.1-.15.44-.09.44-.47-.44-.54-.44-.76,0-.61,0-.61.07-.09.07-.13-.06-.05-.06-.05h-.25l0-.08-.15,0h0l-.15,0,0,.08h-.25s-.06,0-.06.05.07.13.07.13,0,.39,0,.61-.44.44-.44.76.44.47.44.47.1.12.1.15-.08,0-.08.1.05.08.05.12-.08.11-.08.11l0,.14-.31.2s-.88.06-.88.53.63.6.63.76-.4.38-.4.38l-.6.1-.12.1a4,4,0,0,1-.52.05c-.21,0-.25.33-.25.33l-.11.11,0,.1-.14.06s-.21.33-.27.34-.71.11-.7.24,0,.09,0,.09a3.92,3.92,0,0,0-.68-.52,2.07,2.07,0,0,0-.63-.09s0-.24,0-.24c-.23,0-.45.28-.45.28s-.9.23-.92,1.8a3,3,0,0,0,2,2.86s-.06.31.09.4.37-.08.37-.08a1.21,1.21,0,0,1,.5.63,3.4,3.4,0,0,1,.09.7s-.3.14-.34.26a.38.38,0,0,0,.07.33c.07.09.38.08.38.08s-.26.33-.22.54c0,0-.08,0-.09.05a1.08,1.08,0,0,0,0,.13,2,2,0,0,0-.55,1.22c0,1.88,2.75,2.19,2.75,2.19s.11.16.09.2a1.86,1.86,0,0,0-.06.29l-1.25.16,0,.35-.22.17-.28.39-.45.21-.06.12.11.29,0,.16-.16,1.18-.4.56-.37.41-.3.44s-.54.15-.54.6c0,1.19,5.68,1.36,5.68,1.36h0s5.68-.17,5.68-1.36c0-.46-.54-.6-.54-.6l-.3-.44-.37-.41-.4-.56-.16-1.18,0-.16.11-.29-.06-.12-.45-.21L148.6,22l-.22-.17,0-.35-1.25-.16A1.85,1.85,0,0,0,147,21s.09-.2.09-.2,2.75-.31,2.75-2.19a2,2,0,0,0-.55-1.22,1.07,1.07,0,0,0,0-.13s-.08,0-.09-.05c0-.21-.22-.54-.22-.54s.31,0,.38-.08a.38.38,0,0,0,.07-.33c0-.12-.34-.26-.34-.26a3.41,3.41,0,0,1,.09-.7,1.21,1.21,0,0,1,.5-.63s.22.17.37.08.09-.4.09-.4A3,3,0,0,0,152.21,11.54ZM142,16.19s-.11-1.91-1.18-2a.32.32,0,0,0-.31-.4c-.21,0-.15.13-.26.13A2.59,2.59,0,0,1,139,11.6c0-.34.12-1.4.75-1.4,1,0,1,.7,1,1a.44.44,0,0,0-.41.42.42.42,0,0,0,.39.3c.36,0,.48-.61.48-.61l.09.1.06.18.17.13.11.31.22.18a8,8,0,0,1,.4,1.78C142.39,15,142.25,16.19,142,16.19Zm8.38-2.25c-.1,0,0-.13-.25-.13a.32.32,0,0,0-.31.4c-1.08.07-1.15,2-1.18,2-.23,0-.37-1.15-.27-2.21a7.94,7.94,0,0,1,.4-1.78L149,12l.11-.31.17-.13.06-.18.09-.1s.12.56.48.61a.41.41,0,0,0,.39-.3.44.44,0,0,0-.41-.42c0-.3,0-1,1-1,.63,0,.79,1.06.75,1.4A2.59,2.59,0,0,1,150.4,13.94Z"/><path class="f" d="M171.68,11.54c0-1.56-.92-1.8-.92-1.8s-.22-.3-.45-.28c0,0,0,.24,0,.24a2.07,2.07,0,0,0-.63.09,3.91,3.91,0,0,0-.68.52s0,0,0-.09-.64-.23-.7-.24-.27-.34-.27-.34l-.14-.06,0-.1-.11-.11s0-.33-.25-.33A4,4,0,0,1,167,9l-.12-.1-.6-.1s-.4-.21-.4-.38.63-.39.63-.76-.88-.53-.88-.53l-.31-.2,0-.14s-.08-.07-.08-.11.05-.07.05-.12-.08-.07-.08-.1.1-.15.1-.15.44-.09.44-.47-.44-.54-.44-.76,0-.61,0-.61.07-.09.07-.13-.06-.05-.06-.05H165l0-.08-.15,0h0l-.15,0,0,.08h-.25s-.06,0-.06.05.07.13.07.13,0,.39,0,.61-.44.44-.44.76.44.47.44.47.1.12.1.15-.08,0-.08.1.05.08.05.12-.08.11-.08.11l0,.14-.31.2s-.88.06-.88.53.63.6.63.76-.4.38-.4.38l-.6.1-.12.1a4,4,0,0,1-.52.05c-.21,0-.25.33-.25.33l-.11.11,0,.1-.14.06s-.21.33-.27.34-.71.11-.7.24,0,.09,0,.09a3.92,3.92,0,0,0-.68-.52,2.07,2.07,0,0,0-.63-.09s0-.24,0-.24c-.23,0-.45.28-.45.28s-.9.23-.92,1.8a3,3,0,0,0,2,2.86s-.06.31.09.4.37-.08.37-.08a1.21,1.21,0,0,1,.5.63,3.4,3.4,0,0,1,.09.7s-.3.14-.34.26a.38.38,0,0,0,.07.33c.07.09.38.08.38.08s-.26.33-.22.54c0,0-.08,0-.09.05a1.08,1.08,0,0,0,0,.13,2,2,0,0,0-.55,1.22c0,1.88,2.75,2.19,2.75,2.19s.11.16.09.2a1.86,1.86,0,0,0-.06.29l-1.25.16,0,.35-.22.17-.28.39-.45.21-.06.12.11.29,0,.16-.16,1.18-.4.56-.37.41-.3.44s-.54.15-.54.6c0,1.19,5.68,1.36,5.68,1.36h0s5.68-.17,5.68-1.36c0-.46-.54-.6-.54-.6l-.3-.44-.37-.41-.4-.56-.16-1.18,0-.16.11-.29-.06-.12-.45-.21-.28-.39-.22-.17,0-.35-1.25-.16a1.85,1.85,0,0,0-.06-.29s.09-.2.09-.2,2.75-.31,2.75-2.19a2,2,0,0,0-.55-1.22,1.07,1.07,0,0,0,0-.13s-.08,0-.09-.05c0-.21-.22-.54-.22-.54s.31,0,.38-.08a.38.38,0,0,0,.07-.33c0-.12-.34-.26-.34-.26a3.41,3.41,0,0,1,.09-.7,1.21,1.21,0,0,1,.5-.63s.22.17.37.08.09-.4.09-.4A3,3,0,0,0,171.68,11.54Zm-10.2,4.65s-.11-1.91-1.18-2a.32.32,0,0,0-.31-.4c-.21,0-.15.13-.26.13a2.59,2.59,0,0,1-1.28-2.34c0-.34.12-1.4.75-1.4,1,0,1,.7,1,1a.44.44,0,0,0-.41.42.42.42,0,0,0,.39.3c.36,0,.48-.61.48-.61l.09.1.06.18.17.13.11.31.22.18a8,8,0,0,1,.4,1.78C161.86,15,161.71,16.19,161.48,16.19Zm8.38-2.25c-.1,0,0-.13-.25-.13a.32.32,0,0,0-.31.4c-1.08.07-1.15,2-1.18,2-.23,0-.37-1.15-.27-2.21a7.94,7.94,0,0,1,.4-1.78l.22-.18.11-.31.17-.13.06-.18.09-.1s.12.56.48.61a.41.41,0,0,0,.39-.3.44.44,0,0,0-.41-.42c0-.3,0-1,1-1,.63,0,.79,1.06.75,1.4A2.59,2.59,0,0,1,169.87,13.94Z"/><path class="f" d="M191.15,11.54c0-1.56-.92-1.8-.92-1.8s-.22-.3-.45-.28c0,0,0,.24,0,.24a2.07,2.07,0,0,0-.63.09,3.91,3.91,0,0,0-.68.52s0,0,0-.09-.64-.23-.7-.24-.27-.34-.27-.34l-.14-.06,0-.1-.11-.11s0-.33-.25-.33a4,4,0,0,1-.52-.05l-.12-.1-.6-.1s-.4-.21-.4-.38S186,8,186,7.65s-.88-.53-.88-.53l-.31-.2,0-.14s-.08-.07-.08-.11.05-.07.05-.12-.08-.07-.08-.1.1-.15.1-.15.44-.09.44-.47-.44-.54-.44-.76,0-.61,0-.61.07-.09.07-.13-.06-.05-.06-.05h-.25l0-.08-.15,0h0l-.15,0,0,.08h-.25s-.06,0-.06.05.07.13.07.13,0,.39,0,.61-.44.44-.44.76.44.47.44.47.1.12.1.15-.08,0-.08.1.05.08.05.12-.08.11-.08.11l0,.14-.31.2s-.88.06-.88.53.63.6.63.76-.4.38-.4.38l-.6.1-.12.1a4,4,0,0,1-.52.05c-.21,0-.25.33-.25.33l-.11.11,0,.1-.14.06s-.21.33-.27.34-.71.11-.7.24,0,.09,0,.09a3.92,3.92,0,0,0-.68-.52,2.07,2.07,0,0,0-.63-.09s0-.24,0-.24c-.23,0-.45.28-.45.28s-.9.23-.92,1.8a3,3,0,0,0,2,2.86s-.06.31.09.4.37-.08.37-.08a1.21,1.21,0,0,1,.5.63,3.4,3.4,0,0,1,.09.7s-.3.14-.34.26a.38.38,0,0,0,.07.33c.07.09.38.08.38.08s-.26.33-.22.54c0,0-.08,0-.09.05a1.08,1.08,0,0,0,0,.13,2,2,0,0,0-.55,1.22c0,1.88,2.75,2.19,2.75,2.19s.11.16.09.2a1.86,1.86,0,0,0-.06.29l-1.25.16,0,.35L181,22l-.28.39-.45.21-.06.12.11.29,0,.16-.16,1.18-.4.56-.37.41-.3.44s-.54.15-.54.6c0,1.19,5.68,1.36,5.68,1.36h0s5.68-.17,5.68-1.36c0-.46-.54-.6-.54-.6l-.3-.44-.37-.41-.4-.56-.16-1.18,0-.16.11-.29-.06-.12-.45-.21-.28-.39-.22-.17,0-.35L186,21.34A1.85,1.85,0,0,0,186,21s.09-.2.09-.2,2.75-.31,2.75-2.19a2,2,0,0,0-.55-1.22,1.07,1.07,0,0,0,0-.13s-.08,0-.09-.05c0-.21-.22-.54-.22-.54s.31,0,.38-.08a.38.38,0,0,0,.07-.33c0-.12-.34-.26-.34-.26a3.41,3.41,0,0,1,.09-.7,1.21,1.21,0,0,1,.5-.63s.22.17.37.08.09-.4.09-.4A3,3,0,0,0,191.15,11.54ZM181,16.19s-.11-1.91-1.18-2a.32.32,0,0,0-.31-.4c-.21,0-.15.13-.26.13a2.59,2.59,0,0,1-1.28-2.34c0-.34.12-1.4.75-1.4,1,0,1,.7,1,1a.44.44,0,0,0-.41.42.42.42,0,0,0,.39.3c.36,0,.48-.61.48-.61l.09.1.06.18.17.13.11.31.22.18a8,8,0,0,1,.4,1.78C181.33,15,181.18,16.19,181,16.19Zm8.38-2.25c-.1,0,0-.13-.25-.13a.32.32,0,0,0-.31.4c-1.08.07-1.15,2-1.18,2-.23,0-.37-1.15-.27-2.21a7.94,7.94,0,0,1,.4-1.78l.22-.18.11-.31.17-.13.06-.18.09-.1s.12.56.48.61a.41.41,0,0,0,.39-.3.44.44,0,0,0-.41-.42c0-.3,0-1,1-1,.63,0,.79,1.06.75,1.4A2.59,2.59,0,0,1,189.34,13.94Z"/><path class="f" d="M210.62,11.54c0-1.56-.92-1.8-.92-1.8s-.22-.3-.45-.28c0,0,0,.24,0,.24a2.07,2.07,0,0,0-.63.09,3.91,3.91,0,0,0-.68.52s0,0,0-.09-.64-.23-.7-.24-.27-.34-.27-.34l-.14-.06,0-.1-.11-.11s0-.33-.25-.33a4,4,0,0,1-.52-.05l-.12-.1-.6-.1s-.4-.21-.4-.38.63-.39.63-.76-.88-.53-.88-.53l-.31-.2,0-.14s-.08-.07-.08-.11.05-.07.05-.12-.08-.07-.08-.1.1-.15.1-.15.44-.09.44-.47-.44-.54-.44-.76,0-.61,0-.61.07-.09.07-.13-.06-.05-.06-.05H204l0-.08-.15,0h0l-.15,0,0,.08h-.25s-.06,0-.06.05.07.13.07.13,0,.39,0,.61-.44.44-.44.76.44.47.44.47.1.12.1.15-.08,0-.08.1.05.08.05.12-.08.11-.08.11l0,.14-.31.2s-.88.06-.88.53.63.6.63.76-.4.38-.4.38l-.6.1-.12.1a4,4,0,0,1-.52.05c-.21,0-.25.33-.25.33l-.11.11,0,.1-.14.06s-.21.33-.27.34-.71.11-.7.24,0,.09,0,.09a3.92,3.92,0,0,0-.68-.52,2.07,2.07,0,0,0-.63-.09s0-.24,0-.24c-.23,0-.45.28-.45.28s-.9.23-.92,1.8a3,3,0,0,0,2,2.86s-.06.31.09.4.37-.08.37-.08a1.21,1.21,0,0,1,.5.63,3.4,3.4,0,0,1,.09.7s-.3.14-.34.26a.38.38,0,0,0,.07.33c.07.09.38.08.38.08s-.26.33-.22.54c0,0-.08,0-.09.05a1.08,1.08,0,0,0,0,.13,2,2,0,0,0-.55,1.22c0,1.88,2.75,2.19,2.75,2.19s.11.16.09.2a1.86,1.86,0,0,0-.06.29l-1.25.16,0,.35-.22.17-.28.39-.45.21-.06.12.11.29,0,.16-.16,1.18-.4.56-.37.41-.3.44s-.54.15-.54.6c0,1.19,5.68,1.36,5.68,1.36h0s5.68-.17,5.68-1.36c0-.46-.54-.6-.54-.6l-.3-.44-.37-.41-.4-.56-.16-1.18,0-.16.11-.29-.06-.12-.45-.21L207,22l-.22-.17,0-.35-1.25-.16a1.85,1.85,0,0,0-.06-.29s.09-.2.09-.2,2.75-.31,2.75-2.19a2,2,0,0,0-.55-1.22,1.07,1.07,0,0,0,0-.13s-.08,0-.09-.05c0-.21-.22-.54-.22-.54s.31,0,.38-.08a.38.38,0,0,0,.07-.33c0-.12-.34-.26-.34-.26a3.41,3.41,0,0,1,.09-.7,1.21,1.21,0,0,1,.5-.63s.22.17.37.08.09-.4.09-.4A3,3,0,0,0,210.62,11.54Zm-10.2,4.65s-.11-1.91-1.18-2a.32.32,0,0,0-.31-.4c-.21,0-.15.13-.26.13a2.59,2.59,0,0,1-1.28-2.34c0-.34.12-1.4.75-1.4,1,0,1,.7,1,1a.44.44,0,0,0-.41.42.42.42,0,0,0,.39.3c.36,0,.48-.61.48-.61l.09.1.06.18.17.13.11.31.22.18a8,8,0,0,1,.4,1.78C200.8,15,200.65,16.19,200.42,16.19Zm8.38-2.25c-.1,0,0-.13-.25-.13a.32.32,0,0,0-.31.4c-1.08.07-1.15,2-1.18,2-.23,0-.37-1.15-.27-2.21a7.94,7.94,0,0,1,.4-1.78l.22-.18.11-.31.17-.13.06-.18.09-.1s.12.56.48.61a.41.41,0,0,0,.39-.3.44.44,0,0,0-.41-.42c0-.3,0-1,1-1,.63,0,.79,1.06.75,1.4A2.59,2.59,0,0,1,208.81,13.94Z"/><path class="f" d="M43.56,27.72s5.07.1,5.07-1.14c0-.52-2.67-3.19-2.67-3.19,1.62-1.12,6.48-15.3,1.5-15.3-.79,0-1.38-.29-1.38-1A6.41,6.41,0,0,1,46.94,5H41.06a6.41,6.41,0,0,1,.86,2.12c0,.7-.6,1-1.38,1-5,0-.12,14.19,1.5,15.3,0,0-2.67,2.67-2.67,3.19,0,1.24,5.07,1.14,5.07,1.14Z"/><path class="g" d="M46.43,5l5,0S50.3,23.36,46,23.39"/><path class="g" d="M46.53,5l-10,0S37.67,23.36,42,23.39"/><polyline class="f" points="44 4.98 41.89 4.98 40.52 1.09 41.21 2.28 41.61 0.68 42.78 2.02 43.98 0.52"/><circle class="f" cx="40.52" cy="1.12" r="0.3"/><circle class="f" cx="41.6" cy="0.61" r="0.3"/><polyline class="f" points="43.97 4.98 46.08 4.98 47.45 1.09 46.76 2.28 46.36 0.68 45.19 2.02 43.98 0.52"/><circle class="f" cx="47.45" cy="1.12" r="0.3"/><circle class="f" cx="46.37" cy="0.61" r="0.3"/><circle class="f" cx="44" cy="0.3" r="0.3"/><path class="f" d="M64,27.72s5.07.1,5.07-1.14c0-.52-2.67-3.19-2.67-3.19,1.62-1.12,6.48-15.3,1.5-15.3-.79,0-1.38-.29-1.38-1A6.41,6.41,0,0,1,67.41,5H61.53a6.41,6.41,0,0,1,.86,2.12c0,.7-.6,1-1.38,1-5,0-.12,14.19,1.5,15.3,0,0-2.67,2.67-2.67,3.19,0,1.24,5.07,1.14,5.07,1.14Z"/><path class="g" d="M66.9,5l5,0s-1.13,18.38-5.44,18.41"/><path class="g" d="M67,5,57,5s1.13,18.38,5.44,18.41"/><polyline class="f" points="64.47 4.98 62.36 4.98 60.99 1.09 61.68 2.28 62.08 0.68 63.25 2.02 64.45 0.52"/><circle class="f" cx="60.99" cy="1.12" r="0.3"/><circle class="f" cx="62.07" cy="0.61" r="0.3"/><polyline class="f" points="64.44 4.98 66.55 4.98 67.92 1.09 67.23 2.28 66.83 0.68 65.66 2.02 64.45 0.52"/><circle class="f" cx="67.92" cy="1.12" r="0.3"/><circle class="f" cx="66.84" cy="0.61" r="0.3"/><circle class="f" cx="64.47" cy="0.3" r="0.3"/><path class="f" d="M84.5,27.72s5.07.1,5.07-1.14c0-.52-2.67-3.19-2.67-3.19,1.62-1.12,6.48-15.3,1.5-15.3-.79,0-1.38-.29-1.38-1A6.41,6.41,0,0,1,87.88,5H82a6.41,6.41,0,0,1,.86,2.12c0,.7-.6,1-1.38,1-5,0-.12,14.19,1.5,15.3,0,0-2.67,2.67-2.67,3.19,0,1.24,5.07,1.14,5.07,1.14Z"/><path class="g" d="M87.37,5l5,0s-1.13,18.38-5.44,18.41"/><path class="g" d="M87.47,5l-10,0s1.13,18.38,5.44,18.41"/><polyline class="f" points="84.94 4.98 82.83 4.98 81.46 1.09 82.15 2.28 82.55 0.68 83.72 2.02 84.92 0.52"/><circle class="f" cx="81.46" cy="1.12" r="0.3"/><circle class="f" cx="82.54" cy="0.61" r="0.3"/><polyline class="f" points="84.91 4.98 87.02 4.98 88.39 1.09 87.7 2.28 87.3 0.68 86.13 2.02 84.92 0.52"/><circle class="f" cx="88.39" cy="1.12" r="0.3"/><circle class="f" cx="87.31" cy="0.61" r="0.3"/><circle class="f" cx="84.94" cy="0.3" r="0.3"/></svg>