<?xml version="1.0" encoding="utf-8"?>
<!-- Generator: Adobe Illustrator 21.0.2, SVG Export Plug-In . SVG Version: 6.00 Build 0)  -->
<!DOCTYPE svg PUBLIC "-//W3C//DTD SVG 1.1//EN" "http://www.w3.org/Graphics/SVG/1.1/DTD/svg11.dtd">
<svg version="1.1" id="Layer_1" xmlns="http://www.w3.org/2000/svg" xmlns:xlink="http://www.w3.org/1999/xlink" x="0px" y="0px"
	 viewBox="0 0 699.9 154.5" style="enable-background:new 0 0 699.9 154.5;" xml:space="preserve">
<style type="text/css">
	.st0{fill:#1C2C4D;}
	.st1{fill-rule:evenodd;clip-rule:evenodd;fill:#F7323F;}
	.st2{fill:#ADADAD;}
</style>
<g>
	<path class="st0" d="M59.8,104.4c-0.4-0.1-0.8-0.4-1.1-0.8c-1.4,2.2-2,4.2-1.5,6c2.2,7.5,8.9,13.1,16.8,13.8
		C66.4,121.2,60.8,113.3,59.8,104.4 M58.3,100c-0.5-0.3-0.9-0.6-1.2-0.9c-0.5,1.9-0.7,3.9-0.7,5.9c0,0.4,0,0.8,0.1,1.2
		c0.3-1.2,0.9-2.5,1.7-3.7C58.1,101.7,58.1,100.8,58.3,100 M58.6,98.8c0.2-0.4,0.5-0.9,0.8-1.2c0.2-0.3,0.5-0.5,0.8-0.7
		c0.7-3.4,2.2-6.3,4.4-8.6c-3.3,2.3-5.8,5.7-7.1,9.5C57.6,98.1,58.1,98.5,58.6,98.8 M87.1,116.1c-1.6-0.2-3.9-0.6-4.8-0.9
		c-1.1-0.4-2-1.3-2.5-2.4c-0.2-0.5-0.4-1.1-0.4-1.8c0-0.4,0-0.9,0.2-1.5c-6-1.8-12.4-4.4-16.9-6.8c-0.2,0.3-0.3,0.5-0.5,0.8
		c-0.3,0.4-0.7,0.7-1.1,0.8c0.4,3.7,1.7,7.3,3.7,10.5c2.7,4.2,6.4,7,10.4,8c1.4,0.3,3.3,0.7,4.9,0.4c6.1-1.4,11.1-5.6,13.6-11.2
		c-0.3,0-0.6,0.1-0.9,0.1C91.3,116.1,88.3,116.2,87.1,116.1 M95.2,103.4c-0.1-2.2-0.5-4.2-1.2-6.1c-0.9-2.3-3.9-4-7.8-4.9
		c-7.3-1.6-16.8,1.1-22.9,6.2c0.2,0.9,0.2,2-0.1,3.1c4.4,2.4,10.8,4.9,16.8,6.7c1.4-3.3,4.1-3.9,6.2-3.4c1.5,0.4,2.5,0.6,3.2,0.7
		l0.8,0.2c1,0.2,1.9,0.9,2.4,1.8c0.4,0.7,0.7,1.7,0.5,3.1c0.7,0,1.1-0.2,1.2-0.3C94.9,108.3,95.3,105.9,95.2,103.4 M91.8,110.8
		c0.2-1.2,0-2-0.3-2.5c-0.4-0.6-1-1.1-1.7-1.3l-0.7-0.2c-0.7-0.1-1.7-0.3-3.3-0.7c-2.1-0.5-3.8,0.4-4.8,2.5c1,0.3,2,0.6,3,0.8
		c0.1-0.8,0.2-1.3,0.2-1.3c0-0.3,0.3-0.6,0.6-0.5c0.3,0,0.6,0.3,0.6,0.6c0,0,0,0.6-0.2,1.5c0.2,0,0.4,0.1,0.6,0.1
		c0.2,0,0.4,0.1,0.6,0.1c0.2-0.8,0.3-1.5,0.3-1.5c0.1-0.3,0.3-0.5,0.7-0.5c0.3,0,0.5,0.3,0.5,0.7c0,0.1-0.1,0.8-0.3,1.6
		c0.4,0.1,0.8,0.1,1.1,0.2c0.1-0.7,0.2-1.3,0.2-1.3c0-0.3,0.3-0.6,0.6-0.6c0.3,0,0.6,0.3,0.6,0.6c0,0,0,0.6-0.2,1.4
		C90.5,110.7,91.2,110.8,91.8,110.8 M80.8,112.3c0.5,1,1.3,1.6,1.9,1.8c0.8,0.3,2.9,0.7,4.6,0.9c1.9,0.2,3.3-0.8,4.2-3
		c-0.6,0-1.3-0.1-2-0.2c-0.1,0.4-0.3,0.8-0.5,1.2c-0.2,0.3-0.5,0.4-0.8,0.2c-0.3-0.2-0.4-0.5-0.2-0.8c0.1-0.2,0.3-0.5,0.3-0.8
		c-0.4-0.1-0.7-0.1-1.1-0.2c-0.1,0.5-0.3,1-0.4,1.3c-0.1,0.3-0.5,0.4-0.8,0.3s-0.4-0.5-0.3-0.8c0.1-0.3,0.2-0.7,0.3-1.1
		c-0.2,0-0.4-0.1-0.6-0.1c-0.2-0.1-0.4-0.1-0.6-0.1c-0.1,0.3-0.2,0.7-0.4,1.1c-0.1,0.3-0.5,0.4-0.8,0.3c-0.3-0.1-0.4-0.5-0.3-0.8
		c0.1-0.3,0.2-0.6,0.3-0.9c-1-0.2-2-0.5-3.1-0.8C80.4,110.9,80.6,111.7,80.8,112.3 M61.4,97.6c-0.3,0-0.8,0-1.3,0.5
		c-0.8,0.9-1.2,2.1-1.1,3.6c0,0.4,0.1,0.6,0.2,0.9c0.2,0.5,0.7,0.9,1,1c0.4,0.1,0.9-0.2,1.3-0.7c0.9-1.1,1.3-3.1,0.9-4.4
		C62,98,61.7,97.6,61.4,97.6"/>
	<path class="st0" d="M79.7,67.9c0,6.6-2.8,11.9-4.4,13.5c-5,5-9.2,1.4-9.2,6.4c-2.3,2.1-3.9,5.2-4.7,8.8c0.1,0,0.1,0,0.2,0
		c0.5,0.1,0.9,0.4,1.2,0.8c6.4-5.2,16.2-7.9,23.7-6.2c2.4,0.5,4.4,1.4,5.9,2.8c-2.3-3.7-5.8-6.6-10-8.1c-1-0.3-2.8-0.8-2.8-4
		c0-6,6.5-1.3,10.9-7.9c0.2-0.3-0.1-0.6-0.3-0.3c-1.3,1.3-4.5,2.2-6.2,2.2c-1.7,0-2.3-0.4-2.3-0.4c1.6-3.2,3.6-5.9,3.6-5.9
		c-4-4,2.7-26,20.5-26c0-5.1-0.5-9.1-1.2-12c-0.4,0.1-3.8,0.9-3.9,0.2c-0.1-0.6,2.5-2,3.4-2.4c-0.9-3.1-1.7-4.5-1.7-4.5
		C87,29.7,90,42.3,86.3,42.3c-2.4,0-4.3-1.9-5-2.6c-9.1-9.1-4.9-15.2-4.9-27.3c0-8.2-3.2-11.2-9-11.2s-8,2.5-8,2.5s8,0.3,8,8.7
		c0,8.8-9.9,11.3-9.9,22.5C57.6,53.6,79.7,53.2,79.7,67.9 M69.2,12.5c0-1.1-0.1-2.1-0.3-3c0,0,1.7-0.1,1.7-2.2c0-1.8-1.2-3-1.5-3
		c-0.2,0-0.3,0.3-0.9,0.3c-1.3,0-1.4-1.7-1.4-1.7c0.2,0,0.4,0,0.6,0c3.8,0,7.4,1.2,7.4,9.6c0,3.1-0.3,5.9-0.6,8.3
		c-0.2,2.4-0.5,4.7-0.4,6.8c0,0-6.7-0.8-6.7-5.8C67.1,18.6,69.2,17.8,69.2,12.5 M59.8,104.4c-0.4-0.1-0.8-0.4-1.1-0.8
		c-1.4,2.2-2,4.2-1.5,6c2.2,7.5,8.9,13.1,16.8,13.8C66.4,121.2,60.8,113.3,59.8,104.4 M58.3,100c-0.5-0.3-0.9-0.6-1.2-0.9
		c-0.5,1.9-0.7,3.9-0.7,5.9c0,0.4,0,0.8,0.1,1.2c0.3-1.2,0.9-2.5,1.7-3.7C58.1,101.7,58.1,100.8,58.3,100 M58.6,98.8
		c0.2-0.4,0.5-0.9,0.8-1.2c0.2-0.3,0.5-0.5,0.8-0.7c0.7-3.4,2.2-6.3,4.4-8.6c-3.3,2.3-5.8,5.7-7.1,9.5
		C57.6,98.1,58.1,98.5,58.6,98.8 M87.1,116.1c-1.6-0.2-3.9-0.6-4.8-0.9c-1.1-0.4-2-1.3-2.5-2.4c-0.2-0.5-0.4-1.1-0.4-1.8
		c0-0.4,0-0.9,0.2-1.5c-6-1.8-12.4-4.4-16.9-6.8c-0.2,0.3-0.3,0.5-0.5,0.8c-0.3,0.4-0.7,0.7-1.1,0.8c0.4,3.7,1.7,7.3,3.7,10.5
		c2.7,4.2,6.4,7,10.4,8c1.4,0.3,3.3,0.7,4.9,0.4c6.1-1.4,11.1-5.6,13.6-11.2c-0.3,0-0.6,0.1-0.9,0.1
		C91.3,116.1,88.3,116.2,87.1,116.1 M94,97.2c-0.9-2.3-3.9-4-7.8-4.9c-7.3-1.6-16.8,1.1-22.9,6.2c0.2,0.9,0.2,2-0.1,3.1
		c4.4,2.4,10.8,4.9,16.8,6.7c1.4-3.3,4.1-3.9,6.2-3.4c1.5,0.4,2.5,0.6,3.2,0.7l0.8,0.2c1,0.2,1.9,0.9,2.4,1.8
		c0.4,0.7,0.7,1.7,0.5,3.1c0.7,0,1.1-0.2,1.2-0.3c0.8-2.2,1.2-4.7,1.1-7.2C95.1,101.2,94.7,99.2,94,97.2 M80.8,112.3
		c0.5,1,1.3,1.6,1.9,1.8c0.8,0.3,2.9,0.7,4.6,0.9c1.9,0.2,3.3-0.8,4.2-3c-0.6,0-1.3-0.1-2-0.2c-0.1,0.4-0.3,0.8-0.5,1.2
		c-0.2,0.3-0.5,0.4-0.8,0.2c-0.3-0.2-0.4-0.5-0.2-0.8c0.1-0.2,0.3-0.5,0.3-0.8c-0.4-0.1-0.7-0.1-1.1-0.2c-0.1,0.5-0.3,1-0.4,1.3
		c-0.1,0.3-0.5,0.4-0.8,0.3s-0.4-0.5-0.3-0.8c0.1-0.3,0.2-0.7,0.3-1.1c-0.2,0-0.4-0.1-0.6-0.1c-0.2-0.1-0.4-0.1-0.6-0.1
		c-0.1,0.3-0.2,0.7-0.4,1.1c-0.1,0.3-0.5,0.4-0.8,0.3c-0.3-0.1-0.4-0.5-0.3-0.8c0.1-0.3,0.2-0.6,0.3-0.9c-1-0.2-2-0.5-3.1-0.8
		C80.4,110.9,80.6,111.7,80.8,112.3 M91.8,110.8c0.2-1.2,0-2-0.3-2.5c-0.4-0.6-1-1.1-1.7-1.3l-0.7-0.2c-0.7-0.1-1.7-0.3-3.3-0.7
		c-2.1-0.5-3.8,0.4-4.8,2.5c1,0.3,2,0.6,3,0.8c0.1-0.8,0.2-1.3,0.2-1.3c0-0.3,0.3-0.6,0.6-0.5c0.3,0,0.6,0.3,0.6,0.6
		c0,0,0,0.6-0.2,1.5c0.2,0,0.4,0.1,0.6,0.1c0.2,0,0.4,0.1,0.6,0.1c0.2-0.8,0.3-1.5,0.3-1.5c0.1-0.3,0.3-0.5,0.7-0.5
		c0.3,0,0.5,0.3,0.5,0.7c0,0.1-0.1,0.8-0.3,1.6c0.4,0.1,0.8,0.1,1.1,0.2c0.1-0.7,0.2-1.3,0.2-1.3c0-0.3,0.3-0.6,0.6-0.6
		c0.3,0,0.6,0.3,0.6,0.6c0,0,0,0.6-0.2,1.4C90.5,110.7,91.2,110.8,91.8,110.8 M61.4,97.6c-0.3,0-0.8,0-1.3,0.5
		c-0.8,0.9-1.2,2.1-1.1,3.6c0,0.4,0.1,0.6,0.2,0.9c0.2,0.5,0.7,0.9,1,1c0.4,0.1,0.9-0.2,1.3-0.7c0.9-1.1,1.3-3.1,0.9-4.4
		C62,98,61.7,97.6,61.4,97.6"/>
	<path class="st0" d="M46.1,121.1c1.5,1,3.1,1.9,3.1,1.9l-0.6,1.4c-0.2-0.9-1.1-1.3-2.2-2l-3.6,5.3c-0.4,0.6-1.3,2-1.4,2.6
		c0,0-0.6-0.4-1.1-0.8c-0.6-0.4-1.1-0.8-1.1-0.8c0.5-0.1,1.5-1.5,2-2.3l3.5-5c-1.3-1-1.8-1.2-2.8-1.3l1.3-0.9
		C43.3,119.1,44.5,120,46.1,121.1"/>
	<path class="st0" d="M48.5,134.2c-2.5-1.2-2.9-4-1.6-6.6c1.2-2.6,3.6-4.1,6.1-2.9c2.5,1.2,2.9,4,1.6,6.6
		C53.4,133.9,51,135.4,48.5,134.2 M52.6,125.5c-1.6-0.8-2.9,1-3.8,3.1c-1,2-1.6,4.1,0,4.9c1.6,0.8,2.9-1.1,3.9-3.1
		C53.6,128.4,54.3,126.2,52.6,125.5"/>
	<path class="st0" d="M59.8,127.4c1.7,0.5,3.1,0.8,3.1,0.8l-0.1,1.5c-0.5-0.7-0.7-0.8-2.1-1.2l-1.8,5.9c-0.1,0.5-0.8,2.6-0.6,3
		c0,0-0.5-0.1-1.3-0.3c-0.9-0.2-1.3-0.4-1.3-0.4c0.5-0.3,1-2.1,1.2-2.8l1.8-6c-1.5-0.5-1.9-0.5-2.6-0.2l0.9-1.3
		C56.9,126.5,57.9,126.9,59.8,127.4"/>
	<path class="st0" d="M66.8,129c1.7,0.3,3.3,0.4,3.3,0.4l0.1,1.5c-0.6-0.6-0.9-0.7-2.5-1l-1,6.1c-0.1,0.6-0.4,2.7-0.1,3
		c0,0-0.6-0.1-1.4-0.2c-0.8-0.1-1.3-0.2-1.3-0.2c0.4-0.3,0.7-2.3,0.8-2.9l1-6.2c-1.4-0.3-1.7-0.2-2.4,0.2l0.6-1.5
		C63.8,128.4,65.1,128.7,66.8,129"/>
	<path class="st0" d="M73,134.8l-0.1,4.1c2.1,0,3.6-0.1,4.3-1l-0.3,1.8c0,0-1.2,0-2.9,0c-1.9,0-3.4-0.1-3.4-0.1
		c0.3-0.3,0.4-2.3,0.4-2.9l0.2-4c0-1.1,0.1-2.8-0.2-3.2c1.6,0.1,1.4,0.1,2.8,0.2c1.9,0.1,2.9,0,2.9,0l0.2,1.5
		c-0.7-0.6-1.8-0.7-3.6-0.7l-0.1,3.4l2.8,0c0.2,0,0.3,0.1,0.3,0.4c0,0.3,0,0.4-0.3,0.4L73,134.8z"/>
	<path class="st0" d="M85,136c0.2,1.5,0.3,2.6,0.7,2.8c-0.1,0.1-0.4,0.3-0.7,0.4c-0.4,0-0.8-0.2-1.1-0.5l-4.9-5.6l0.2,3.6
		c0.1,0.5,0.1,2.7,0.5,3l-1.6,0.1c0.3-0.3,0.2-2.4,0.1-2.9l-0.2-4c-0.1-0.6-0.2-2.8-0.5-3.1l1.5,0l5,5.9l-0.4-3.4
		c-0.1-0.6-0.4-2.6-0.7-2.9c0,0,0.2,0,0.8-0.1c0.6-0.1,0.8-0.1,0.8-0.1c-0.3,0.3,0,2.4,0.1,3L85,136z"/>
	<path class="st0" d="M94.2,133.9c0.2,0.7,0.5,2.5,1,2.8c0,0-0.8,0.2-1.2,0.4c-0.4,0.1-1.3,0.4-1.3,0.4c0.2-0.4-0.3-2.5-0.4-3.1
		l-0.5-1.9l-3.1,0.8l0.4,1.9c0.1,0.6,0.4,2.7,0.8,2.9c0,0-0.4,0.1-1.3,0.3c-0.8,0.1-1.3,0.2-1.3,0.2c0.2-0.4-0.1-2.3-0.2-2.9l-0.7-4
		c-0.1-0.7-0.5-2.6-0.9-2.9c0,0,0.4-0.1,1.3-0.2c0.9-0.2,1.3-0.3,1.3-0.3c-0.2,0.4,0.2,2.2,0.3,2.9l0.2,1.3l3-0.7l-0.3-1.3
		c-0.2-0.7-0.6-2.3-1-2.7c0,0,0.4-0.1,1.3-0.4c0.8-0.2,1.2-0.4,1.2-0.4c-0.2,0.5,0.3,2.1,0.5,2.9L94.2,133.9z"/>
	<path class="st0" d="M99.9,131.5l-3,1.2l0.1,1.7c0.1,0.6,0.1,1.1,0.2,1.4c0.1,0.1,0.2,0.2,0.3,0.3c0,0-0.3,0.1-0.8,0.3
		c-0.5,0.2-0.8,0.3-0.8,0.3c0.2-0.3,0.2-0.7,0.2-1.3l-0.3-7.9c0-0.3,0-0.6-0.1-0.8c-0.1-0.2-0.2-0.3-0.3-0.4
		c0.3-0.2,0.8-0.5,1.2-0.7c0.7-0.3,1-0.3,1.5,0.3l4.4,5.5c0.8,1,1.5,1.7,2,1.9c0,0-0.4,0.2-1.3,0.6c-0.8,0.4-1.4,0.6-1.4,0.6
		c0.1-0.2,0.1-0.4,0-0.6c-0.1-0.3-0.6-0.8-0.8-1.2L99.9,131.5z M99.3,130.9l-2.7-3.7l0.2,4.7L99.3,130.9z"/>
	<path class="st0" d="M112.5,128.7c-0.6,0.4-1.1,0.7-1.1,0.7c0-0.6-1.2-2.1-1.5-2.5l-2.6-3.4l2.1,6.7c-0.1,0.1-0.2,0.3-0.4,0.4
		c-0.4,0.3-0.8,0.3-1.2,0l-5-4.1l1.7,3.2c0.4,0.8,1.2,2.5,1.8,2.7c0,0-0.3,0.2-0.8,0.4c-0.4,0.2-0.7,0.3-0.7,0.3
		c0.1-0.5-0.7-1.9-1.2-2.8l-1.9-3.6c-0.6-1.1-1.2-2.2-1.8-2.4c0.4-0.2,0.6-0.3,1.2-0.6c0.5-0.2,1-0.5,1-0.5l5.6,4.7l-2.2-6.7
		c0,0,0.3-0.2,0.9-0.6c0.6-0.4,1.1-0.7,1.1-0.7c0,0.6,1.2,2.1,1.6,2.7l2.4,3.1c0.5,0.6,1.5,2,2.1,2.2
		C113.7,127.8,113.1,128.2,112.5,128.7"/>
	<path class="st0" d="M55.4,140.9c0.5,0.2,1.2,0.4,1.2,0.4c-0.6,0.4-1.1,2-1.4,2.9l-1.3,3.6c-0.4,1-0.9,2.4-0.7,2.9
		c0,0-0.7-0.2-1.3-0.4c-0.5-0.2-0.8-0.3-1.3-0.5c0.6-0.2,1.2-2.3,1.4-2.8l0.6-1.7l-3.1-1.3l-0.9,1.9c-0.3,0.7-1,2.2-0.8,2.6
		c0,0-0.5-0.2-1.3-0.6c-0.9-0.4-1.2-0.6-1.2-0.6c0.7-0.3,1.1-1.4,1.6-2.5l1.6-3.6c0.6-1.2,1-2.3,1-3c0,0,0.3,0.2,1.1,0.5
		c0.6,0.3,1,0.4,1.3,0.6c-0.5,0.2-1.2,2-1.6,2.8l-0.5,1l3,1.2l0.5-1.1c0.2-0.6,1-2.3,0.8-3C54.1,140.4,54.7,140.6,55.4,140.9"/>
	<path class="st0" d="M58.9,152.5c-2.7-0.7-3.6-3.3-2.9-6.1c0.7-2.7,2.8-4.6,5.5-3.9c2.7,0.7,3.6,3.3,2.9,6.1
		C63.6,151.4,61.6,153.3,58.9,152.5 M61.3,143.4c-1.7-0.5-2.6,1.5-3.2,3.6c-0.5,2.1-0.7,4.3,1,4.7c1.7,0.4,2.6-1.5,3.2-3.6
		C62.8,146,63,143.9,61.3,143.4"/>
	<path class="st0" d="M66.2,153.5c0,0,0.2-0.2,0.3-0.6c0.2-0.5,0.3-1.6,0.4-2.4l0.8-5.9c-1.6-0.2-2-0.1-2.7,0.3l0.7-1.5
		c0.5,0.1,1.6,0.2,3,0.4c0.9,0.1,3.6,0.4,3.6,0.4l0.1,1.5c-0.6-0.7-1.2-0.7-2.6-0.9l-0.8,5.9c-0.1,0.5-0.4,2.5-0.1,3
		c-0.3,0-0.9-0.1-1.3-0.1C67.1,153.7,66.5,153.6,66.2,153.5"/>
	<path class="st0" d="M79.1,151.5c0,1.8-1.4,3.1-3.6,3c-1.7,0-2.6-0.7-3-1l0.4-1.7c0.5,1.1,1.4,1.8,2.4,1.9c1,0,1.9-0.6,1.9-1.6
		c0-0.7-0.4-1.2-2.1-2.1c-1.7-0.9-2.3-1.7-2.3-3c0-1.7,1.5-2.6,3.3-2.6c1.3,0,2.2,0.4,2.8,0.7l-0.4,1.5c-0.8-1.1-1.5-1.4-2.4-1.5
		c-0.8,0-1.4,0.4-1.4,1.3c0,1,1.1,1.5,2.5,2.3C78.7,149.6,79.1,150.5,79.1,151.5"/>
	<path class="st0" d="M87.1,146.1c0.1,0.2,0.1,0.5,0.1,0.7c0,0.2,0,0.4,0,0.6c-0.1,0.6-0.3,1.2-0.8,1.7c-0.7,0.7-1.6,1.1-2.8,1.1
		c-0.4,0-0.6-0.1-0.6-0.4v-0.1c0,0,0-0.1,0.1-0.1h0.1c0.4,0,0.9-0.2,1.3-0.7c0.4-0.5,0.5-1.2,0.5-2c-0.1-0.8-0.3-1.3-0.8-1.7
		c-0.4-0.4-1-0.5-1.5-0.4c0,0-0.2,0-0.5,0.1c0,0-0.2,0-0.1,0.2l0.6,6.1c0.1,0.5,0.2,2.4,0.6,2.8c0,0-0.5,0.1-1.4,0.1
		c-0.7,0.1-1.3,0.1-1.3,0.1c0.2-0.5,0.2-1.2,0.1-2l-0.5-4.8c0-0.5-0.1-2.4-0.6-2.9c0,0,1.2-0.2,3.4-0.4c1.2-0.1,2.1,0,2.9,0.6
		C86.6,145,87,145.5,87.1,146.1"/>
	<path class="st0" d="M96.2,148c0.5,2.1-0.5,3.9-2.7,4.4c-1.5,0.4-3.8-0.2-4.4-2.9l-0.7-3.2c-0.2-0.9-0.5-2.5-1-2.9
		c0,0,0.6-0.1,1.5-0.3c0.9-0.2,1.3-0.3,1.3-0.3c-0.2,0.4,0,1.8,0.2,2.9l1,4.1c0.2,0.7,0.4,1.2,0.8,1.5c0.3,0.2,0.7,0.3,1.1,0.2
		c0.4-0.1,0.8-0.3,1-0.7c0.2-0.4,0.2-1,0.1-1.7l-1.1-4.1c-0.3-1.1-0.6-2.5-1-2.8c0,0,0.4-0.1,1.3-0.4c0.6-0.2,1-0.3,1.3-0.4
		c-0.2,0.6,0.3,2.5,0.5,3L96.2,148z"/>
	<path class="st0" d="M106.1,147.2c0.2,0.1,0.4,0.1,0.6,0.1c0,0.1-0.1,0.4-0.4,0.6c-0.9,0.9-1.7,0.8-2,0.6c-1.5-0.6-4.1-2.9-4.2-3.1
		c0,0,0-0.1,0-0.1l0.1,0c0.4-0.2,0.8-0.6,1-1c0.3-0.6,0.2-1.2-0.1-1.9c-0.3-0.7-0.8-1.2-1.2-1.3c-0.6-0.2-1.1,0-1.3,0.1
		c0,0-0.4,0.1-0.5,0.2c0,0-0.1,0.1,0,0.3l1.9,5.5c0.3,0.8,0.8,2.4,1.3,2.7c0,0-0.5,0.2-1.3,0.5c-0.8,0.3-1.3,0.4-1.3,0.4
		c0.2-0.6-0.4-2.3-0.6-2.8l-1.2-3.7c-0.3-0.9-0.9-2.5-1.3-2.8c0,0,0.9-0.3,3-1.1c1.1-0.5,2.1-0.6,3.1-0.4c0.6,0.2,1,0.5,1.3,0.9
		c0.1,0.2,0.2,0.3,0.3,0.5c0.1,0.2,0.1,0.4,0.2,0.5c0.1,0.6,0,1.2-0.3,1.7c0,0-0.3,0.6-0.9,1C102.2,144.8,104.2,146.5,106.1,147.2"
		/>
</g>
<g>
	<path class="st1" d="M481.4,93c2.6-2.8,11.2-7,22.2-0.1c5.7,3.6,16.7,9,30.9,0c10.9-7,19.6-2.7,22.2,0.1l0,7.7
		c-2.6-2.8-6.3-4.3-10.6-4.3c0,0-5.3-0.3-11.1,3.1c-16.7,9.9-27.3,2.4-32,0c-7-3.5-11.1-3.1-11.1-3.1c-4.3,0-8,1.5-10.6,4.3
		L481.4,93L481.4,93z"/>
	<path class="st1" d="M481.4,103.7c2.6-2.8,11.2-7.9,22.2-1c5.7,3.6,16.7,9,30.9,0c10.9-7,19.6-1.9,22.2,0.9l0,8.5
		c-2.6-2.8-6.3-5.8-10.6-5.8c0,0-5.3-0.3-11.1,3.1c-16.7,9.9-27.3,2.4-32,0c-7-3.5-11.1-3.1-11.1-3.1c-4.3,0-8,3.1-10.6,5.9
		L481.4,103.7L481.4,103.7z"/>
	<path class="st1" d="M517.5,141.2c0,0-0.2,6.4,7.3,6.5c0.4,0,1.1,0,1.5-0.1v4.4c-0.7,0.1-1.4,0.2-2.2,0.2c-4.8,0-9.7-2.2-11.3-6.5
		c-0.7-2-0.6-4.5-0.6-4.5l0-5.6c0-1.5-0.6-2.3-1.7-2.3h-0.1v12.5h-5.3v-26.9h6.2c4.3,0,6.2,1.5,6.2,4.9v2.8c0,2.8-1.4,4.3-4.1,4.5
		v0.2c3.1,0.2,4.1,1.4,4.1,4.5L517.5,141.2z M512.2,128.1v-4.3c0-1.2-0.4-1.5-1.8-1.5v7.4h0.3C511.8,129.6,512.2,129.2,512.2,128.1
		L512.2,128.1L512.2,128.1z"/>
	<path class="st1" d="M491.8,125.2v14.2c0,4.7,1.5,6.9,6.2,6.9c4.7,0,6.2-2.2,6.2-6.9v-14.2c0-4.7-1.5-7-6.2-7
		C493.4,118.3,491.8,120.5,491.8,125.2L491.8,125.2z M497.1,123.4c0-0.9,0.3-1.3,0.9-1.3c0.7,0,0.9,0.4,0.9,1.3V141
		c0,0.9-0.3,1.3-0.9,1.3c-0.7,0-0.9-0.4-0.9-1.3V123.4L497.1,123.4z"/>
	<polygon class="st1" points="481.4,145.8 486.7,145.8 486.7,132.7 491.2,132.7 491.2,128.8 486.7,128.8 486.7,122.6 491.3,122.6 
		491.3,118.9 481.4,118.9 481.4,145.8 	"/>
	<path class="st1" d="M518.4,125.2c0-4.7,1.5-7,6.2-7c4.7,0,6.2,2.2,6.2,7v7.5h-7.1v8.3c0,0.9,0.2,1.3,0.9,1.3
		c0.7,0,0.9-0.4,0.9-1.3v-5.4h5.3v3.9c0,4.7-1.5,6.9-6.2,6.9c-4.7,0-6.2-2.2-6.2-6.9V125.2z M523.7,123.4v5.4h1.8v-5.4
		c0-0.9-0.2-1.3-0.9-1.3C524,122.1,523.7,122.5,523.7,123.4L523.7,123.4L523.7,123.4z"/>
	<path class="st1" d="M531.7,123.7v2.4c0,0.2,0,0.3,0,0.4c0,1.3,0.1,2.5,1.4,4l4.8,5.5c0.6,0.7,0.9,1.3,0.9,2.2v2.8
		c0,0.9-0.2,1.3-0.9,1.3c-0.7,0-0.9-0.4-0.9-1.3v-5.4h-5.3v5c0,3.8,2.1,5.8,6.2,5.8c4,0,6.2-1.9,6.2-5.4v-3.1c0-1.7,0-3-1.3-4.4
		l-5.1-5.7c-0.5-0.6-0.7-1.1-0.7-1.9v-2.4c0-0.9,0.3-1.3,0.9-1.3c0.7,0,0.9,0.4,0.9,1.3v4.8h5.3v-4.4c0-3.5-2.2-5.5-6.2-5.5
		C533.9,118.3,531.7,120.4,531.7,123.7L531.7,123.7z"/>
	<polygon class="st1" points="548,145.8 553.3,145.8 553.3,122.7 556.7,122.7 556.7,118.9 544.6,118.9 544.6,122.7 548,122.7 
		548,145.8 	"/>
	<path class="st1" d="M527.7,68.8c1.2,0.7,3.1,1.5,4.6,1.6c5.1,0.5,10.5-2,13.1-6.1c8.2,2.2,14.5-3.2,15.7-9.1
		c0.2-0.9,0.3-1.7,0.3-2.5c0-3.9-1.9-6.9-5.2-9.2c1.3-6.6-1.6-9.5-4.5-10.7c0.7-2.4-0.4-5.6-2.9-8.2c-1.4-1.4-3.1-2.4-4.7-2.9
		c1.7-6.3-0.5-12.4-7.6-14.3c-1.8-0.5-3.7-0.4-5.3,0c-2.6-4.4-7.5-7.4-13-7.4c-5.4,0-10.2,2.9-12.8,7.2c-3-0.6-6.2,0.1-8.8,2.2
		c-3.9,3.1-5.2,8.3-3.5,12.7c-2.9,0.3-5.5,1.8-6.8,4.4c-1,2.1-0.9,4.5,0,6.6c-3,1.5-5.1,4.3-5.1,7.6c0,0.8,0.1,1.5,0.3,2.2
		c-3.3,2.2-5.6,5.9-5.6,10.2c0,6.7,5.5,12.2,12.3,12.2c1.7,0,3.2-0.3,4.7-0.9c2,3.9,6.1,6.6,10.8,6.6c2.6,0,4.9-0.9,6.9-2.2v16.4
		c-11.9-6.7-17.4-6.5-19.2-6.5c-2.9-0.1-8,1.2-9.9,3.6v7.7c2-2.4,7.6-4.1,11.8-3.9c2.1,0.1,6.7,1.1,11.5,3.8c7,4,12.4,4.8,12.4,4.8
		V58.2c-2,2.6-5.8,4.3-10.2,4.3c-5.6,0-10.3-2.9-11.4-6.7c-0.7,0.8-1.6,1.5-2.7,1.9c-3.1,1.2-6.5-0.2-7.5-3.1
		c-1-2.9,0.7-6.1,3.8-7.3c0.4-0.1,0.8-0.2,1.1-0.3c-2.1-1.9-3-4.4-2-6.5c1-2.1,3.5-3,6.4-2.5c-1-1.1-1.5-2.5-1.5-4
		c0-3.7,3.5-6.8,7.8-6.8c0.3,0,0.6,0,0.9,0c-1.3-1.4-2.1-3.3-2.1-5.4c0-4.4,3.5-7.9,7.8-7.9c1.2,0,2.3,0.3,3.3,0.7
		c0.5-3.6,3.8-6.4,7.8-6.4c4,0,7.3,2.8,7.8,6.5c1.1-0.7,2.5-0.9,3.8-0.9c4.3,0,7.7,3.7,7.7,8.2c0,2.1-0.7,3.9-1.9,5.3
		c0.3,0,0.5,0,0.8,0c4.2,0,7.7,3,7.7,6.6c0,1.2-0.4,2.4-1,3.3c2.4,0,4.7,1.3,5.5,3.6c0.7,1.8,0.2,3.8-0.9,5.3c0.1,0,0.2,0,0.2,0
		c3.2,0.6,5.3,3.6,4.7,6.7c-0.5,3.1-3.5,5.2-6.7,4.7c-1.7-0.3-3.1-1.3-3.9-2.6c-0.7,4.1-5.4,7.2-11.1,7.2c-4,0-8-1.6-10-3.9l0,36.5
		c0,0,5.4-0.8,12.4-4.8c4.8-2.7,9.4-3.7,11.5-3.8c4.2-0.2,9.6,1.3,11.6,3.7v-7.7c-2-2.4-6.8-3.5-9.7-3.4c-1.9,0-7.4-0.2-19.3,6.5
		L527.7,68.8L527.7,68.8z"/>
	<path class="st1" d="M481.4,93c2.6-2.8,11.2-7,22.2-0.1c5.7,3.6,16.7,9,30.9,0c10.9-7,19.6-2.7,22.2,0.1l0,7.7
		c-2.6-2.8-6.3-4.3-10.6-4.3c0,0-5.3-0.3-11.1,3.1c-16.7,9.9-27.3,2.4-32,0c-7-3.5-11.1-3.1-11.1-3.1c-4.3,0-8,1.5-10.6,4.3
		L481.4,93L481.4,93z"/>
	<path class="st1" d="M481.4,103.7c2.6-2.8,11.2-7.9,22.2-1c5.7,3.6,16.7,9,30.9,0c10.9-7,19.6-1.9,22.2,0.9l0,8.5
		c-2.6-2.8-6.3-5.8-10.6-5.8c0,0-5.3-0.3-11.1,3.1c-16.7,9.9-27.3,2.4-32,0c-7-3.5-11.1-3.1-11.1-3.1c-4.3,0-8,3.1-10.6,5.9
		L481.4,103.7L481.4,103.7z"/>
	<path class="st1" d="M517.5,141.2c0,0-0.2,6.4,7.3,6.5c0.4,0,1.1,0,1.5-0.1v4.4c-0.7,0.1-1.4,0.2-2.2,0.2c-4.8,0-9.7-2.2-11.3-6.5
		c-0.7-2-0.6-4.5-0.6-4.5l0-5.6c0-1.5-0.6-2.3-1.7-2.3h-0.1v12.5h-5.3v-26.9h6.2c4.3,0,6.2,1.5,6.2,4.9v2.8c0,2.8-1.4,4.3-4.1,4.5
		v0.2c3.1,0.2,4.1,1.4,4.1,4.5L517.5,141.2z M512.2,128.1v-4.3c0-1.2-0.4-1.5-1.8-1.5v7.4h0.3C511.8,129.6,512.2,129.2,512.2,128.1
		L512.2,128.1L512.2,128.1z"/>
	<path class="st1" d="M491.8,125.2v14.2c0,4.7,1.5,6.9,6.2,6.9c4.7,0,6.2-2.2,6.2-6.9v-14.2c0-4.7-1.5-7-6.2-7
		C493.4,118.3,491.8,120.5,491.8,125.2L491.8,125.2z M497.1,123.4c0-0.9,0.3-1.3,0.9-1.3c0.7,0,0.9,0.4,0.9,1.3V141
		c0,0.9-0.3,1.3-0.9,1.3c-0.7,0-0.9-0.4-0.9-1.3V123.4L497.1,123.4z"/>
	<polygon class="st1" points="481.4,145.8 486.7,145.8 486.7,132.7 491.2,132.7 491.2,128.8 486.7,128.8 486.7,122.6 491.3,122.6 
		491.3,118.9 481.4,118.9 481.4,145.8 	"/>
	<path class="st1" d="M518.4,125.2c0-4.7,1.5-7,6.2-7c4.7,0,6.2,2.2,6.2,7v7.5h-7.1v8.3c0,0.9,0.2,1.3,0.9,1.3
		c0.7,0,0.9-0.4,0.9-1.3v-5.4h5.3v3.9c0,4.7-1.5,6.9-6.2,6.9c-4.7,0-6.2-2.2-6.2-6.9V125.2z M523.7,123.4v5.4h1.8v-5.4
		c0-0.9-0.2-1.3-0.9-1.3C524,122.1,523.7,122.5,523.7,123.4L523.7,123.4L523.7,123.4z"/>
	<path class="st1" d="M531.7,123.7v2.4c0,0.2,0,0.3,0,0.4c0,1.3,0.1,2.5,1.4,4l4.8,5.5c0.6,0.7,0.9,1.3,0.9,2.2v2.8
		c0,0.9-0.2,1.3-0.9,1.3c-0.7,0-0.9-0.4-0.9-1.3v-5.4h-5.3v5c0,3.8,2.1,5.8,6.2,5.8c4,0,6.2-1.9,6.2-5.4v-3.1c0-1.7,0-3-1.3-4.4
		l-5.1-5.7c-0.5-0.6-0.7-1.1-0.7-1.9v-2.4c0-0.9,0.3-1.3,0.9-1.3c0.7,0,0.9,0.4,0.9,1.3v4.8h5.3v-4.4c0-3.5-2.2-5.5-6.2-5.5
		C533.9,118.3,531.7,120.4,531.7,123.7L531.7,123.7z"/>
	<polygon class="st1" points="548,145.8 553.3,145.8 553.3,122.7 556.7,122.7 556.7,118.9 544.6,118.9 544.6,122.7 548,122.7 
		548,145.8 	"/>
	<path class="st1" d="M527.7,68.8c1.2,0.7,3.1,1.5,4.6,1.6c5.1,0.5,10.5-2,13.1-6.1c8.2,2.2,14.5-3.2,15.7-9.1
		c0.2-0.9,0.3-1.7,0.3-2.5c0-3.9-1.9-6.9-5.2-9.2c1.3-6.6-1.6-9.5-4.5-10.7c0.7-2.4-0.4-5.6-2.9-8.2c-1.4-1.4-3.1-2.4-4.7-2.9
		c1.7-6.3-0.5-12.4-7.6-14.3c-1.8-0.5-3.7-0.4-5.3,0c-2.6-4.4-7.5-7.4-13-7.4c-5.4,0-10.2,2.9-12.8,7.2c-3-0.6-6.2,0.1-8.8,2.2
		c-3.9,3.1-5.2,8.3-3.5,12.7c-2.9,0.3-5.5,1.8-6.8,4.4c-1,2.1-0.9,4.5,0,6.6c-3,1.5-5.1,4.3-5.1,7.6c0,0.8,0.1,1.5,0.3,2.2
		c-3.3,2.2-5.6,5.9-5.6,10.2c0,6.7,5.5,12.2,12.3,12.2c1.7,0,3.2-0.3,4.7-0.9c2,3.9,6.1,6.6,10.8,6.6c2.6,0,4.9-0.9,6.9-2.2v16.4
		c-11.9-6.7-17.4-6.5-19.2-6.5c-2.9-0.1-8,1.2-9.9,3.6v7.7c2-2.4,7.6-4.1,11.8-3.9c2.1,0.1,6.7,1.1,11.5,3.8c7,4,12.4,4.8,12.4,4.8
		V58.2c-2,2.6-5.8,4.3-10.2,4.3c-5.6,0-10.3-2.9-11.4-6.7c-0.7,0.8-1.6,1.5-2.7,1.9c-3.1,1.2-6.5-0.2-7.5-3.1
		c-1-2.9,0.7-6.1,3.8-7.3c0.4-0.1,0.8-0.2,1.1-0.3c-2.1-1.9-3-4.4-2-6.5c1-2.1,3.5-3,6.4-2.5c-1-1.1-1.5-2.5-1.5-4
		c0-3.7,3.5-6.8,7.8-6.8c0.3,0,0.6,0,0.9,0c-1.3-1.4-2.1-3.3-2.1-5.4c0-4.4,3.5-7.9,7.8-7.9c1.2,0,2.3,0.3,3.3,0.7
		c0.5-3.6,3.8-6.4,7.8-6.4c4,0,7.3,2.8,7.8,6.5c1.1-0.7,2.5-0.9,3.8-0.9c4.3,0,7.7,3.7,7.7,8.2c0,2.1-0.7,3.9-1.9,5.3
		c0.3,0,0.5,0,0.8,0c4.2,0,7.7,3,7.7,6.6c0,1.2-0.4,2.4-1,3.3c2.4,0,4.7,1.3,5.5,3.6c0.7,1.8,0.2,3.8-0.9,5.3c0.1,0,0.2,0,0.2,0
		c3.2,0.6,5.3,3.6,4.7,6.7c-0.5,3.1-3.5,5.2-6.7,4.7c-1.7-0.3-3.1-1.3-3.9-2.6c-0.7,4.1-5.4,7.2-11.1,7.2c-4,0-8-1.6-10-3.9l0,36.5
		c0,0,5.4-0.8,12.4-4.8c4.8-2.7,9.4-3.7,11.5-3.8c4.2-0.2,9.6,1.3,11.6,3.7v-7.7c-2-2.4-6.8-3.5-9.7-3.4c-1.9,0-7.4-0.2-19.3,6.5
		L527.7,68.8L527.7,68.8z"/>
</g>
<g>
	<path class="st2" d="M171.6,118.5c4.1-9.8,13.8-20.1,29.1-31C214,78,222.6,71.2,226.5,67c6-6.4,9-13.4,9-21
		c0-6.2-1.7-11.4-5.2-15.5c-3.4-4.1-8.4-6.2-14.8-6.2c-8.8,0-14.7,3.3-17.9,9.8c-1.8,3.8-2.9,9.8-3.2,18h-28
		c0.5-12.5,2.7-22.6,6.8-30.2C180.9,7.3,194.6,0,214.3,0c15.5,0,27.9,4.3,37,12.9c9.2,8.6,13.8,20,13.8,34.1
		c0,10.9-3.2,20.5-9.7,28.9c-4.3,5.6-11.2,11.8-21,18.7l-11.6,8.2c-7.2,5.1-12.2,8.8-14.8,11.1c-2.7,2.3-4.9,5-6.7,8h64v25.4H164.9
		C165.1,136.8,167.4,127.2,171.6,118.5z"/>
</g>
<g>
	<path class="st2" d="M607.9,45.5V25.9c9.1-0.4,15.4-1,19.1-1.8c5.8-1.3,10.5-3.8,14.1-7.7c2.5-2.6,4.4-6.1,5.6-10.5
		c0.7-2.6,1.1-4.6,1.1-5.9h24.1v146.6h-29.5V45.5H607.9z"/>
</g>
<g>
</g>
<g>
</g>
<g>
</g>
<g>
</g>
<g>
</g>
<g>
</g>
</svg>
