<?xml version="1.0" encoding="utf-8"?>
<!-- Generator: Adobe Illustrator 21.0.2, SVG Export Plug-In . SVG Version: 6.00 Build 0)  -->
<!DOCTYPE svg PUBLIC "-//W3C//DTD SVG 1.1//EN" "http://www.w3.org/Graphics/SVG/1.1/DTD/svg11.dtd">
<svg version="1.1" id="Layer_1" xmlns="http://www.w3.org/2000/svg" xmlns:xlink="http://www.w3.org/1999/xlink" x="0px" y="0px"
	 viewBox="0 0 2058.8 789.5" style="enable-background:new 0 0 2058.8 789.5;" xml:space="preserve">
<style type="text/css">
	.st0{fill:#1C2C4D;}
	.st1{fill-rule:evenodd;clip-rule:evenodd;fill:#F7323F;}
	.st2{fill:#C6C6C5;}
</style>
<g>
	<g>
		<path class="st0" d="M102.1,510.6c-2.1-0.6-4-1.8-5.4-3.8c-7.2,11-10.1,20.9-7.5,29.8c11,37.1,43.8,64.6,83.1,68.3
			C134.7,593.4,106.9,554.2,102.1,510.6 M94.3,488.5c-2.3-1.6-4.4-3.2-5.8-4.6c-2.6,9.3-3.7,19.1-3.3,29.1c0.1,2.1,0.2,4,0.4,6
			c1.5-6,4.3-12.2,8.4-18.5C93.3,496.9,93.4,492.6,94.3,488.5 M96.2,482.8c1-2.2,2.3-4.3,3.8-6c1.2-1.4,2.4-2.6,3.8-3.4
			c3.6-16.6,11.1-31.4,22-42.6c-16.3,11.6-28.8,28.1-35.3,47.2C91.2,479.2,93.5,481,96.2,482.8 M237.1,568.3
			c-8.2-0.9-19.1-3-23.8-4.7c-5.2-1.8-10-6.2-12.5-11.8c-1.1-2.3-2.1-5.4-2.2-9.1c-0.1-2.2,0.1-4.7,0.8-7.3
			c-29.8-9.1-61.4-21.8-83.4-33.5c-0.8,1.4-1.7,2.7-2.6,3.9c-1.7,2-3.5,3.3-5.5,4.2c2.1,18.3,8.4,36.2,18.5,51.8
			c13.4,20.7,31.7,34.9,51.5,39.3c6.9,1.6,16.1,3.5,24.3,1.8c30.3-6.7,55.1-27.7,67.1-55.3c-1.4,0.2-3,0.4-4.7,0.4
			C257.7,568.3,243.1,569,237.1,568.3 M277.2,505.2c-0.4-10.7-2.6-20.8-6.2-30.3c-4.5-11.6-19.2-19.8-38.7-24.2
			c-36-8.2-83.3,5.2-113.4,30.6c1.2,4.6,0.9,10.1-0.7,15.1c21.7,11.7,53.2,24.3,82.9,33.4c7-16.1,20.4-19.1,30.9-16.6
			c7.5,1.9,12.3,2.9,15.8,3.5l3.9,0.9c5,1.1,9.3,4.5,11.9,9.1c1.8,3.3,3.5,8.4,2.4,15.5c3.7-0.2,5.4-0.9,5.8-1.3
			C275.8,529.8,277.7,517.7,277.2,505.2 M260.2,542.2c1.2-6-0.1-10.1-1.5-12.5c-1.8-3.2-4.8-5.5-8.2-6.3l-3.7-0.8
			c-3.4-0.6-8.4-1.7-16.1-3.6c-10.2-2.6-19,2.1-23.8,12.5c5,1.4,9.9,2.8,14.7,4c0.7-3.8,0.9-6.3,0.9-6.4c0.1-1.6,1.5-2.8,3-2.7
			c1.6,0.1,2.8,1.4,2.8,3c0,0.2-0.2,3.2-1.1,7.4c0.9,0.2,1.9,0.5,2.8,0.7c1,0.2,2,0.4,2.8,0.6c0.9-4.1,1.4-7.6,1.4-7.7
			c0.3-1.6,1.7-2.7,3.3-2.4c1.6,0.2,2.7,1.7,2.4,3.3c0,0.3-0.6,3.8-1.4,8c2,0.4,3.8,0.7,5.6,1c0.6-3.5,0.8-6.4,0.8-6.4
			c0.1-1.6,1.5-2.9,3-2.8c1.6,0.1,2.9,1.5,2.8,3.1c0,0.2-0.1,3.2-0.8,7C253.9,541.8,257.3,542,260.2,542.2 M206,549.3
			c2.3,4.9,6.3,7.8,9.2,8.8c3.9,1.3,14.1,3.5,22.5,4.5c9.2,1,16.5-4.2,20.6-14.6c-3.1-0.2-6.5-0.6-9.9-1c-0.6,2.1-1.5,4.1-2.6,6
			c-0.8,1.4-2.6,1.8-4,1.1c-1.4-0.8-1.8-2.6-1.1-4c0.7-1.2,1.3-2.6,1.7-4.1c-1.8-0.3-3.6-0.6-5.4-1c-0.6,2.5-1.3,4.8-2.1,6.5
			c-0.7,1.5-2.4,2.1-3.9,1.5c-1.5-0.6-2.1-2.3-1.5-3.8c0.6-1.3,1.1-3.3,1.7-5.2c-0.9-0.2-1.9-0.4-2.8-0.6c-1-0.3-2-0.5-3-0.7
			c-0.5,1.7-1.1,3.5-1.9,5.2c-0.6,1.5-2.3,2.2-3.8,1.6c-1.6-0.6-2.2-2.3-1.6-3.8c0.6-1.5,1.2-3,1.6-4.4c-5-1.2-10-2.6-15.1-4.1
			C203.7,542.4,204.8,546.6,206,549.3 M109.8,476.5c-1.3-0.2-3.9-0.2-6.5,2.6c-4,4.5-6,10.4-5.7,17.8c0.1,1.8,0.4,2.9,0.9,4.4
			c1,2.7,3.3,4.5,4.9,4.7c2,0.4,4.3-0.8,6.3-3.3c4.5-5.4,6.5-15.3,4.3-21.6C113.1,478.5,111.6,476.9,109.8,476.5"/>
		<path class="st0" d="M200.6,329.9c0,32.5-13.8,58.9-21.8,66.9c-24.8,24.8-45.3,6.7-45.5,31.6c-11.3,10.2-19.4,25.7-23.4,43.5
			c0.3,0,0.5,0.1,0.8,0.1c2.3,0.4,4.3,1.8,5.8,3.9c31.5-25.7,80.1-39.2,117.2-30.8c11.8,2.7,21.8,7,29.3,13.7
			c-11.3-18.4-28.8-32.6-49.3-40.1c-4.9-1.7-13.6-3.8-13.6-19.6c0-29.6,32.4-6.6,53.7-38.8c1.1-1.6-0.5-3-1.7-1.7
			c-6.5,6.5-22.3,10.9-30.7,10.9c-8.4,0-11.6-1.9-11.6-1.9c7.9-15.8,17.8-29.2,17.8-29.2c-19.8-19.8,13.5-128.7,101.7-128.7
			c0-25.3-2.6-44.9-5.9-59.5c-2.1,0.4-18.7,4.4-19.4,0.9c-0.7-3,12.3-9.8,16.7-12c-4.3-15.1-8.6-22.2-8.6-22.2
			c-75.6,23.8-60.4,86.4-78.8,86.4c-12,0-21.4-9.3-24.7-12.7c-45.2-45.2-24.1-75-24.1-135c0-40.4-15.7-55.5-44.7-55.5
			s-39.3,12.5-39.3,12.5s39.7,1.3,39.7,43c0,43.7-49.1,55.7-49.1,111.1C90.9,258.8,200.6,257.1,200.6,329.9 M148.3,55.5
			c0-5.4-0.6-10.2-1.6-14.6c0,0,8.6-0.4,8.6-10.9c0-8.7-5.8-14.6-7.4-14.6c-1.2,0-1.6,1.3-4.3,1.3c-6.6,0-7.1-8.4-7.1-8.4
			c1-0.1,2-0.1,3-0.1c18.9,0,36.4,5.7,36.4,47.3c0,15.3-1.4,29-2.8,41c-1.2,11.9-2.4,23-2.1,33.8c0,0-33-3.9-33-28.6
			C138.2,85.6,148.3,81.7,148.3,55.5 M102.1,510.6c-2.1-0.6-4-1.8-5.4-3.8c-7.2,11-10.1,20.9-7.5,29.8c11,37.1,43.8,64.6,83.1,68.3
			C134.7,593.4,106.9,554.2,102.1,510.6 M94.3,488.5c-2.3-1.6-4.4-3.2-5.8-4.6c-2.6,9.3-3.7,19.1-3.3,29.1c0.1,2.1,0.2,4,0.4,6
			c1.5-6,4.3-12.2,8.4-18.5C93.3,496.9,93.4,492.6,94.3,488.5 M96.2,482.8c1-2.2,2.3-4.3,3.8-6c1.2-1.4,2.4-2.6,3.8-3.4
			c3.6-16.6,11.1-31.4,22-42.6c-16.3,11.6-28.8,28.1-35.3,47.2C91.2,479.2,93.5,481,96.2,482.8 M237.1,568.3
			c-8.2-0.9-19.1-3-23.8-4.7c-5.2-1.8-10-6.2-12.5-11.8c-1.1-2.3-2.1-5.4-2.2-9.1c-0.1-2.2,0.1-4.7,0.8-7.3
			c-29.8-9.1-61.4-21.8-83.4-33.5c-0.8,1.4-1.7,2.7-2.6,3.9c-1.7,2-3.5,3.3-5.5,4.2c2.1,18.3,8.4,36.2,18.5,51.8
			c13.4,20.7,31.7,34.9,51.5,39.3c6.9,1.6,16.1,3.5,24.3,1.8c30.3-6.7,55.1-27.7,67.1-55.3c-1.4,0.2-3,0.4-4.7,0.4
			C257.7,568.3,243.1,569,237.1,568.3 M271.1,474.9c-4.5-11.6-19.2-19.8-38.7-24.2c-36-8.2-83.3,5.2-113.4,30.6
			c1.2,4.6,0.9,10.1-0.7,15.1c21.7,11.7,53.2,24.3,82.9,33.4c7-16.1,20.4-19.1,30.9-16.6c7.5,1.9,12.3,2.9,15.8,3.5l3.9,0.9
			c5,1.1,9.3,4.5,11.9,9.1c1.8,3.3,3.5,8.4,2.4,15.5c3.7-0.2,5.4-0.9,5.8-1.3c3.9-11.1,5.8-23.2,5.3-35.7
			C276.8,494.5,274.6,484.4,271.1,474.9 M206,549.3c2.3,4.9,6.3,7.8,9.2,8.8c3.9,1.3,14.1,3.5,22.5,4.5c9.2,1,16.5-4.2,20.6-14.6
			c-3.1-0.2-6.5-0.6-9.9-1c-0.6,2.1-1.5,4.1-2.6,6c-0.8,1.4-2.6,1.8-4,1.1c-1.4-0.8-1.8-2.6-1.1-4c0.7-1.2,1.3-2.6,1.7-4.1
			c-1.8-0.3-3.6-0.6-5.4-1c-0.6,2.5-1.3,4.8-2.1,6.5c-0.7,1.5-2.4,2.1-3.9,1.5c-1.5-0.6-2.1-2.3-1.5-3.8c0.6-1.3,1.1-3.3,1.7-5.2
			c-0.9-0.2-1.9-0.4-2.8-0.6c-1-0.3-2-0.5-3-0.7c-0.5,1.7-1.1,3.5-1.9,5.2c-0.6,1.5-2.3,2.2-3.8,1.6c-1.6-0.6-2.2-2.3-1.6-3.8
			c0.6-1.5,1.2-3,1.6-4.4c-5-1.2-10-2.6-15.1-4.1C203.7,542.4,204.8,546.6,206,549.3 M260.2,542.2c1.2-6-0.1-10.1-1.5-12.5
			c-1.8-3.2-4.8-5.5-8.2-6.3l-3.7-0.8c-3.4-0.6-8.4-1.7-16.1-3.6c-10.2-2.6-19,2.1-23.8,12.5c5,1.4,9.9,2.8,14.7,4
			c0.7-3.8,0.9-6.3,0.9-6.4c0.1-1.6,1.5-2.8,3-2.7c1.6,0.1,2.8,1.4,2.8,3c0,0.2-0.2,3.2-1.1,7.4c0.9,0.2,1.9,0.5,2.8,0.7
			c1,0.2,2,0.4,2.8,0.6c0.9-4.1,1.4-7.6,1.4-7.7c0.3-1.6,1.7-2.7,3.3-2.4c1.6,0.2,2.7,1.7,2.4,3.3c0,0.3-0.6,3.8-1.4,8
			c2,0.4,3.8,0.7,5.6,1c0.6-3.5,0.8-6.4,0.8-6.4c0.1-1.6,1.5-2.9,3-2.8c1.6,0.1,2.9,1.5,2.8,3.1c0,0.2-0.1,3.2-0.8,7
			C253.9,541.8,257.3,542,260.2,542.2 M109.8,476.5c-1.3-0.2-3.9-0.2-6.5,2.6c-4,4.5-6,10.4-5.7,17.8c0.1,1.8,0.4,2.9,0.9,4.4
			c1,2.7,3.3,4.5,4.9,4.7c2,0.4,4.3-0.8,6.3-3.3c4.5-5.4,6.5-15.3,4.3-21.6C113.1,478.5,111.6,476.9,109.8,476.5"/>
		<path class="st0" d="M34.2,593.2c7.4,4.9,15.2,9.3,15.2,9.3l-2.8,7c-1-4.3-5.2-6.6-10.7-10l-18,26c-2.2,3.1-6.5,9.9-6.8,12.6
			c0,0-3-1.8-5.7-3.8c-2.8-2.1-5.5-4-5.5-4c2.7-0.7,7.3-7.5,10.1-11.3l17.5-25c-6.6-5-9.1-6.1-13.8-6.3l6.2-4.7
			C20.1,583,26,587.8,34.2,593.2"/>
		<path class="st0" d="M45.9,657.6c-12.5-6-14.2-19.7-8-32.5c6.2-13,17.9-20.2,30.3-14.2c12.4,5.9,14.2,19.6,8,32.5
			C70.1,656.3,58.4,663.6,45.9,657.6 M66.5,614.5c-8-3.8-14.3,5.2-19,15.2c-4.8,9.9-7.8,20.5,0.1,24.3c8,3.8,14.3-5.3,19.1-15.2
			C71.4,628.9,74.5,618.3,66.5,614.5"/>
		<path class="st0" d="M101.7,624.1c8.4,2.4,15.3,4,15.3,4l-0.7,7.5c-2.3-3.3-3.3-4-10.6-5.9l-8.7,29.3c-0.7,2.7-4.2,12.9-3,14.8
			c0,0-2.4-0.6-6.4-1.6c-4.4-1.2-6.5-2.1-6.5-2.1c2.3-1.5,5.1-10.2,6-13.7l8.8-29.6c-7.4-2.5-9.2-2.6-12.8-1l4.3-6.4
			C87.6,619.5,92.5,621.4,101.7,624.1"/>
		<path class="st0" d="M136.6,631.9c8.3,1.3,16.2,2,16.2,2l0.3,7.6c-3-2.8-4.3-3.7-12.5-4.7l-4.8,30.2c-0.4,2.8-2.1,13.3-0.7,15
			c0,0-2.9-0.3-6.9-0.9c-4-0.6-6.5-1.1-6.5-1.1c2-1.5,3.5-11.4,3.9-14.2l4.9-30.6c-7.2-1.4-8.6-0.9-12,1.1l3-7.2
			C121.6,629.1,128.3,630.6,136.6,631.9"/>
		<path class="st0" d="M167.4,660.6l-0.6,20.3c10.6,0.1,17.9-0.5,21.2-5.1l-1.6,9.1c0,0-5.9,0.1-14.5,0c-9.5-0.1-16.9-0.7-16.9-0.7
			c1.6-1.6,2-11.5,2-14.2l0.9-19.9c0.1-5.2,0.6-13.8-1.2-15.6c7.7,0.5,6.7,0.5,13.8,0.8c9.3,0.4,14.5,0.1,14.5,0.1l1.1,7.6
			c-3.5-3-9-3.3-17.9-3.4l-0.5,17l13.6,0.1c1.2,0,1.3,0.7,1.3,2.1c0,1.3,0,2.1-1.3,2.1L167.4,660.6z"/>
		<path class="st0" d="M226.8,666.7c0.8,7.4,1.6,12.7,3.3,13.7c-0.4,0.7-1.8,1.7-3.5,1.9c-2.1,0.2-3.8-0.9-5.2-2.6l-24-27.6
			l0.9,17.7c0.3,2.7,0.6,13.2,2.3,14.6l-8,0.4c1.3-1.7,1-11.7,0.7-14.5l-1.1-19.8c-0.3-2.8-0.9-13.8-2.6-15.2l7.4-0.2l24.7,29.3
			l-2-16.9c-0.4-2.8-1.8-12.8-3.5-14.3c0,0,0.9-0.1,3.8-0.4c3-0.4,4.1-0.6,4.1-0.6c-1.4,1.7,0.2,12,0.5,14.8L226.8,666.7z"/>
		<path class="st0" d="M272.1,656.2c0.9,3.4,2.6,12.3,5,14c0,0-3.8,1.1-6.1,1.8c-2.1,0.6-6.7,1.8-6.7,1.8c1.1-1.9-1.3-12.5-2-15.2
			l-2.3-9.2l-15.4,3.8l1.8,9.4c0.5,3,2.1,13.3,4.2,14.5c0,0-2.1,0.4-6.6,1.4c-3.8,0.7-6.4,1.1-6.4,1.1c1.2-1.9-0.4-11.3-0.9-14.4
			l-3.7-19.8c-0.7-3.7-2.4-13-4.5-14.1c0,0,2-0.4,6.4-1.2c4.4-0.9,6.5-1.4,6.5-1.4c-1.1,2.2,0.8,11.1,1.3,14.2l1.2,6.3l15-3.7
			l-1.6-6.4c-0.9-3.4-2.8-11.6-4.8-13.1c0,0,2.1-0.6,6.2-1.8c4.2-1.2,6-1.8,6-1.8c-0.9,2.3,1.5,10.2,2.5,14.3L272.1,656.2z"/>
		<path class="st0" d="M300.1,644.5l-15,5.9l0.6,8.2c0.4,2.8,0.4,5.3,0.9,6.8c0.4,0.7,0.8,1.2,1.3,1.4c0,0-1.6,0.6-4.1,1.4
			c-2.6,0.9-4,1.3-4,1.3c0.9-1.6,1.1-3.7,1.1-6.3l-1.3-38.9c-0.1-1.4-0.2-2.8-0.7-3.9c-0.4-1-1.1-1.5-1.6-1.9c1.7-1.1,3.8-2.3,6-3.3
			c3.4-1.4,4.9-1.3,7.4,1.6l21.9,27.2c4,5.2,7.5,8.6,9.8,9.4c0,0-2.2,1-6.5,2.9c-4.2,1.8-7,2.9-7,2.9c0.3-0.9,0.4-1.8-0.2-3.2
			c-0.6-1.5-2.8-4.1-4.2-6L300.1,644.5z M297.3,641.3l-13.3-18.4L285,646L297.3,641.3z"/>
		<path class="st0" d="M362.7,630.4c-3.1,2.1-5.2,3.6-5.2,3.6c-0.2-3-6-10.3-7.7-12.5l-12.8-16.8l10.3,33.1
			c-0.4,0.6-1.1,1.6-1.8,2.1c-2.1,1.6-4.1,1.3-5.9-0.1l-24.5-20.3l8.6,15.8c2.1,4,6.2,12.3,8.9,13.2c0,0-1.7,0.9-3.8,1.9
			c-2.1,1.1-3.5,1.6-3.5,1.6c0.5-2.3-3.5-9.2-5.8-13.7l-9.5-17.9c-2.9-5.4-6.1-10.9-8.9-12.1c2.1-1,2.8-1.3,5.8-2.8
			c2.6-1.2,4.8-2.4,4.8-2.4l27.6,23.5l-10.8-33.2c0,0,1.5-1,4.3-2.8s5.2-3.7,5.2-3.7c0.2,3,5.9,10.6,8,13.3l11.9,15.3
			c2.5,3.2,7.2,10.1,10.6,11C368.4,626.2,365.7,628.3,362.7,630.4"/>
		<path class="st0" d="M80.1,690.9c2.6,0.9,5.9,2.1,5.9,2.1c-2.8,2.1-5.4,10.1-7,14.4l-6.4,17.8c-1.8,4.8-4.7,11.8-3.7,14.3
			c0,0-3.5-1.2-6.4-2.2c-2.5-0.9-3.8-1.3-6.5-2.5c3.2-0.9,6.2-11.3,7.1-13.9l3-8.3l-15.5-6.4l-4.4,9.5c-1.4,3.3-4.9,10.8-4.1,13
			c0,0-2.7-1.1-6.7-2.9c-4.7-2.1-5.7-2.8-5.7-2.8c3.3-1.6,5.3-6.9,7.8-12.3l8-17.8c2.8-6.1,5.2-11.4,5-14.9c0,0,1.4,0.9,5.4,2.6
			c3.1,1.4,4.8,2.1,6.5,2.8c-2.6,1-6,10-7.9,14l-2.3,5l15,6.2l2.3-5.7c1.1-3,4.8-11.6,4-14.6C73.7,688.5,76.7,689.7,80.1,690.9"/>
		<path class="st0" d="M97.4,748.6c-13.4-3.5-17.7-16.4-14.1-30C87,705,97.1,696,110.4,699.4c13.3,3.5,17.7,16.4,14.1,30
			C120.9,742.9,110.8,752.1,97.4,748.6 M109.4,703.3c-8.5-2.3-13,7.6-15.7,17.9c-2.7,10.4-3.7,21.2,4.8,23.5c8.6,2.2,13-7.7,15.7-18
			C116.9,716.3,117.9,705.6,109.4,703.3"/>
		<path class="st0" d="M133.7,753.4c0,0,0.9-0.9,1.4-2.8c0.9-2.7,1.3-7.7,2-11.7l3.8-29c-8-1-10-0.4-13.5,1.7l3.3-7.4
			c2.5,0.6,7.9,1.1,14.7,2c4.5,0.6,17.8,1.8,17.8,1.8l0.5,7.4c-3-3.4-6-3.7-12.6-4.3l-3.8,29.1c-0.4,2.7-1.8,12.1-0.4,14.9
			c-1.6-0.1-4.3-0.5-6.5-0.7C138.1,754.1,135.1,753.6,133.7,753.4"/>
		<path class="st0" d="M197.3,743.3c0.1,8.7-7,15.1-17.9,14.9c-8.4-0.1-12.9-3.6-14.6-5l1.8-8.3c2.6,5.2,6.9,9.1,11.9,9.2
			c5.1,0.1,9.2-3,9.3-8.1c0-3.7-2-5.9-10.6-10.3c-8.2-4.3-11.3-8.5-11.3-14.8c0-8.6,7.4-12.9,16.2-12.9c6.5,0,10.9,2,13.8,3.5
			l-1.8,7.6c-4-5.2-7.4-7.2-11.8-7.2c-4.2-0.1-7.2,2.2-7.2,6.5c0.1,4.8,5.2,7.3,12.3,11.2C195.5,733.9,197.3,738.5,197.3,743.3"/>
		<path class="st0" d="M237.1,716.6c0.3,1,0.5,2.3,0.6,3.3c0.1,0.9,0.1,2.1,0.1,3.2c-0.3,2.8-1.6,6.1-3.8,8.4
			c-3.4,3.5-7.8,5.2-13.7,5.5c-2.2,0.1-2.8-0.6-2.9-2.1v-0.4c0-0.1-0.1-0.6,0.4-0.7h0.6c1.8-0.2,4.3-0.8,6.4-3.3
			c1.9-2.6,2.6-6,2.3-9.7c-0.4-3.8-1.5-6.6-4.1-8.6c-2.2-1.8-4.8-2.3-7.5-2.1c0,0-1.1,0.1-2.3,0.3c0,0-0.8,0-0.7,0.8l2.9,30.1
			c0.3,2.6,1,11.9,3.2,13.8c0,0-2.5,0.3-7.2,0.6c-3.5,0.3-6.3,0.4-6.3,0.4c0.9-2.3,0.8-5.7,0.6-9.7l-2.3-23.8
			c-0.2-2.7-0.7-12-2.9-14.2c0,0,6-0.9,16.9-1.9c5.7-0.6,10.5,0.1,14.5,2.9C234.5,711.3,236.3,713.9,237.1,716.6"/>
		<path class="st0" d="M282.1,726.3c2.3,10.4-2.6,19.3-13.3,22c-7.7,1.9-18.6-0.9-21.7-14.3l-3.7-15.7c-1-4.5-2.6-12.3-5.2-14.3
			c0,0,2.8-0.4,7.3-1.3c4.5-0.9,6.6-1.3,6.6-1.3c-1.2,1.9,0.1,9.1,1.2,14.5l4.8,20.1c0.9,3.7,2,6.2,4.1,7.7c1.5,1.1,3.5,1.4,5.7,1
			c1.9-0.3,4-1.4,5-3.4c1.1-2.1,1.1-5,0.3-8.6l-5.4-20.1c-1.4-5.5-3.1-12.4-4.9-13.6c0,0,2.1-0.6,6.3-1.8c3-0.9,5-1.4,6.3-1.9
			c-1.2,3,1.7,12.3,2.3,15L282.1,726.3z"/>
		<path class="st0" d="M330.8,722.2c1.1,0.4,2.2,0.6,3.1,0.3c-0.1,0.6-0.7,1.9-1.8,3c-4.3,4.5-8.4,3.8-9.9,3.2
			c-7.6-2.9-20.2-14.1-20.7-15.3c0,0-0.1-0.4,0.1-0.5l0.5-0.1c2-0.9,4.2-3,5.1-5.2c1.4-3.1,1.2-5.9-0.3-9.3c-1.5-3.5-4-5.7-6.1-6.4
			c-3-0.9-5.2-0.1-6.7,0.4c0,0-1.8,0.6-2.3,1.2c0,0-0.4,0.3,0.1,1.5l9.6,27.3c1.4,4,4,11.8,6.2,13.2c0,0-2.6,1-6.5,2.4
			c-3.9,1.4-6.3,2.1-6.3,2.1c0.9-3-2.2-11.3-2.9-13.6l-6.2-18.4c-1.6-4.5-4.4-12.4-6.7-13.7c0,0,4.5-1.3,14.6-5.5
			c5.4-2.3,10.6-3.2,15.3-1.8c2.9,0.9,4.8,2.3,6.4,4.6c0.6,0.9,1.1,1.7,1.4,2.6c0.4,0.9,0.6,1.8,0.8,2.7c0.5,2.8,0.1,5.7-1.5,8.5
			c0,0-1.5,2.8-4.6,5C311.6,710.3,321.5,718.7,330.8,722.2"/>
	</g>
	<g>
		<path class="st1" d="M1335.3,501.3c12.7-13.7,54.6-34.3,107.9-0.6c27.7,17.5,81.4,44,150.4,0c53.2-33.9,95.3-13.1,108,0.6l0,37.6
			c-12.7-13.7-30.5-21.1-51.4-21.1c0,0-25.8-1.6-54,15.1c-81.2,48.2-132.7,11.4-155.5,0c-33.9-17-54-15.1-54-15.1
			c-20.9,0-38.7,7.4-51.4,21.1L1335.3,501.3L1335.3,501.3z"/>
		<path class="st1" d="M1335.3,553.5c12.7-13.7,54.6-38.4,107.9-4.7c27.7,17.5,81.4,44,150.4,0c53.2-33.9,95.3-9.5,108,4.2l0,41.3
			c-12.7-13.7-30.5-28.4-51.4-28.4c0,0-25.9-1.6-54,15.1c-81.2,48.2-132.7,11.4-155.5,0c-33.9-17-54-15.1-54-15.1
			c-20.9,0-38.7,15.2-51.4,28.9L1335.3,553.5L1335.3,553.5z"/>
		<path class="st1" d="M1510.8,736c0,0-0.9,31.2,35.6,31.8c2,0,5.5-0.1,7.3-0.3v21.3c-3.3,0.5-7,0.8-10.7,0.8
			c-23.3,0-47.1-10.7-54.9-31.6c-3.6-9.7-2.9-21.9-2.9-21.9l0-27.4c0-7.3-2.7-11.1-8.2-11.1h-0.4v60.7h-25.8V627.3h30.1
			c21,0,29.9,7.1,29.9,23.6v13.8c0,13.6-6.6,21.1-19.9,21.8v0.7c15.1,0.9,19.9,6.9,19.9,22L1510.8,736z M1485.2,672.2v-20.9
			c0-6-1.8-7.4-8.6-7.4v35.8h1.4C1483.4,679.6,1485.2,677.6,1485.2,672.2L1485.2,672.2L1485.2,672.2z"/>
		<path class="st1" d="M1385.9,658.2v69.1c0,23.1,7.4,33.8,30.1,33.8c22.8,0,30.1-10.7,30.1-33.8v-69.1c0-22.9-7.2-33.8-30.1-33.8
			C1393.5,624.4,1385.9,635.1,1385.9,658.2L1385.9,658.2z M1411.8,649.4c0-4.4,1.3-6.4,4.3-6.4c3.4,0,4.5,2,4.5,6.4v85.5
			c0,4.5-1.3,6.4-4.5,6.4c-3.2,0-4.3-2-4.3-6.4V649.4L1411.8,649.4z"/>
		<polygon class="st1" points="1335.3,758.2 1361.1,758.2 1361.1,694.5 1382.8,694.5 1382.8,675.6 1361.1,675.6 1361.1,645.5 
			1383.3,645.5 1383.3,627.3 1335.3,627.3 1335.3,758.2 		"/>
		<path class="st1" d="M1515.4,658.2c0-23.1,7.5-33.8,30.1-33.8c22.9,0,30.1,10.9,30.1,33.8v36.3h-34.4v40.4c0,4.4,1.1,6.4,4.3,6.4
			c3.2,0,4.5-1.8,4.5-6.4v-26.4h25.6v18.8c0,23.1-7.4,33.8-30.1,33.8c-22.8,0-30.1-10.7-30.1-33.8V658.2z M1541.3,649.4v26.2h8.8
			v-26.2c0-4.4-1.1-6.4-4.5-6.4C1542.5,643.1,1541.3,645.1,1541.3,649.4L1541.3,649.4L1541.3,649.4z"/>
		<path class="st1" d="M1580.1,650.7v11.8c0,0.7,0,1.3,0,2c0,6.2,0.4,12,6.6,19.3l23.3,26.7c2.9,3.3,4.5,6.2,4.5,10.5v13.8
			c0,4.4-1.1,6.4-4.3,6.4c-3.2,0-4.5-1.8-4.5-6.4v-26.4h-25.6v24.5c0,18.4,10.2,28,29.9,28c19.4,0,30.1-9.4,30.1-26.2v-15.3
			c0-8.2,0-14.5-6.5-21.6l-24.7-27.6c-2.3-2.7-3.2-5.5-3.2-9.3v-11.6c0-4.5,1.3-6.4,4.5-6.4c3.4,0,4.3,2,4.3,6.4v23.3h25.6v-21.5
			c0-17.1-10.6-26.9-29.9-26.9C1590.7,624.4,1580.1,634.5,1580.1,650.7L1580.1,650.7z"/>
		<polygon class="st1" points="1659.3,758.2 1684.9,758.2 1684.9,645.8 1701.6,645.8 1701.6,627.3 1642.8,627.3 1642.8,645.8 
			1659.3,645.8 1659.3,758.2 		"/>
		<path class="st1" d="M1560.3,383.6c6,3.4,15.3,7.1,22.6,7.8c24.9,2.3,51.2-9.6,63.5-29.8c40.1,10.5,70.4-15.6,76.3-44.1
			c0.9-4.3,1.3-8.4,1.3-12.3c0.1-18.9-9.3-33.6-25.5-44.7c6.5-32.2-7.8-46.2-21.9-52.2c3.4-11.4-1.9-27.4-14.2-39.9
			c-6.9-7-15-11.8-22.7-14c8.1-30.7-2.4-60.5-36.8-69.6c-8.6-2.3-17.8-2.1-26,0c-12.9-21.5-36.5-36-63.3-36
			c-26.5,0-49.5,14-62.5,35.1c-14.5-2.7-30,0.6-42.6,10.6c-19,15-25.1,40.4-16.9,61.9c-14.3,1.2-27,8.8-33.1,21.5
			c-4.9,10.2-4.4,21.8-0.1,32.2c-14.8,7.2-24.8,21-24.8,36.9c0,3.7,0.6,7.3,1.6,10.8c-16.3,10.6-27,28.8-27,49.6
			c0,32.7,26.8,59.3,60,59.3c8.1,0,15.8-1.6,22.8-4.5c9.8,19,29.7,32,52.7,32c12.5,0,24-4.3,33.6-10.8v80
			c-57.8-32.6-84.5-31.5-93.6-31.5c-14-0.7-38.7,6.1-48.4,17.7v37.5c9.7-11.6,36.9-20,57.4-19.1c10.4,0.5,32.7,5.1,56,18.5
			c34,19.5,60.3,23.2,60.3,23.2V332.1c-9.7,12.5-28.3,20.9-49.5,20.9c-27.4,0-50.2-14-55.5-32.6c-3.4,3.9-7.9,7.2-13.2,9.1
			c-15.3,5.6-31.7-1.1-36.7-15c-5-13.9,3.3-29.8,18.6-35.4c1.8-0.7,3.7-1.2,5.5-1.5c-10-9.3-14.4-21.6-9.8-31.4
			c4.6-10.1,17.2-14.6,31.1-12.4c-4.8-5.5-7.4-12.1-7.4-19.6c0-18.2,16.9-33,37.8-33c1.5,0,3.1,0.1,4.5,0.2
			c-6.4-6.9-10.3-16.2-10.3-26.4c0-21.2,16.9-38.5,37.8-38.5c5.7,0,11,1.3,15.9,3.6c2.7-17.5,18.6-31,37.9-31
			c19.6,0,35.7,13.9,38,31.8c5.5-3.3,11.9-4.6,18.7-4.6c20.8,0,37.7,17.8,37.7,39.7c0,10-3.2,18.8-9,25.8c1.3-0.1,2.6-0.2,3.9-0.2
			c20.6,0,37.3,14.5,37.3,32.3c0,5.9-1.8,11.5-5.1,16.2c11.9-0.2,22.7,6.5,26.7,17.6c3.2,8.9,1.2,18.5-4.5,25.9
			c0.4,0.1,0.8,0.1,1.2,0.2c15.4,2.7,25.7,17.3,23,32.6c-2.6,15.2-17.2,25.4-32.6,22.6c-8.1-1.5-14.9-6.3-19-12.7
			c-3.4,19.8-26.4,35-54.2,35c-19.7,0-39.1-7.6-48.8-19l0,177.4c0,0,26.2-3.7,60.3-23.2c23.3-13.3,45.6-18,56-18.5
			c20.5-0.9,46.6,6.3,56.3,18v-37.5c-9.7-11.6-33.3-17.3-47.3-16.6c-9.1,0-36.1-1.1-93.9,31.5L1560.3,383.6L1560.3,383.6z"/>
		<path class="st1" d="M1335.3,501.3c12.7-13.7,54.6-34.3,107.9-0.6c27.7,17.5,81.4,44,150.4,0c53.2-33.9,95.3-13.1,108,0.6l0,37.6
			c-12.7-13.7-30.5-21.1-51.4-21.1c0,0-25.8-1.6-54,15.1c-81.2,48.2-132.7,11.4-155.5,0c-33.9-17-54-15.1-54-15.1
			c-20.9,0-38.7,7.4-51.4,21.1L1335.3,501.3L1335.3,501.3z"/>
		<path class="st1" d="M1335.3,553.5c12.7-13.7,54.6-38.4,107.9-4.7c27.7,17.5,81.4,44,150.4,0c53.2-33.9,95.3-9.5,108,4.2l0,41.3
			c-12.7-13.7-30.5-28.4-51.4-28.4c0,0-25.9-1.6-54,15.1c-81.2,48.2-132.7,11.4-155.5,0c-33.9-17-54-15.1-54-15.1
			c-20.9,0-38.7,15.2-51.4,28.9L1335.3,553.5L1335.3,553.5z"/>
		<path class="st1" d="M1510.8,736c0,0-0.9,31.2,35.6,31.8c2,0,5.5-0.1,7.3-0.3v21.3c-3.3,0.5-7,0.8-10.7,0.8
			c-23.3,0-47.1-10.7-54.9-31.6c-3.6-9.7-2.9-21.9-2.9-21.9l0-27.4c0-7.3-2.7-11.1-8.2-11.1h-0.4v60.7h-25.8V627.3h30.1
			c21,0,29.9,7.1,29.9,23.6v13.8c0,13.6-6.6,21.1-19.9,21.8v0.7c15.1,0.9,19.9,6.9,19.9,22L1510.8,736z M1485.2,672.2v-20.9
			c0-6-1.8-7.4-8.6-7.4v35.8h1.4C1483.4,679.6,1485.2,677.6,1485.2,672.2L1485.2,672.2L1485.2,672.2z"/>
		<path class="st1" d="M1385.9,658.2v69.1c0,23.1,7.4,33.8,30.1,33.8c22.8,0,30.1-10.7,30.1-33.8v-69.1c0-22.9-7.2-33.8-30.1-33.8
			C1393.5,624.4,1385.9,635.1,1385.9,658.2L1385.9,658.2z M1411.8,649.4c0-4.4,1.3-6.4,4.3-6.4c3.4,0,4.5,2,4.5,6.4v85.5
			c0,4.5-1.3,6.4-4.5,6.4c-3.2,0-4.3-2-4.3-6.4V649.4L1411.8,649.4z"/>
		<polygon class="st1" points="1335.3,758.2 1361.1,758.2 1361.1,694.5 1382.8,694.5 1382.8,675.6 1361.1,675.6 1361.1,645.5 
			1383.3,645.5 1383.3,627.3 1335.3,627.3 1335.3,758.2 		"/>
		<path class="st1" d="M1515.4,658.2c0-23.1,7.5-33.8,30.1-33.8c22.9,0,30.1,10.9,30.1,33.8v36.3h-34.4v40.4c0,4.4,1.1,6.4,4.3,6.4
			c3.2,0,4.5-1.8,4.5-6.4v-26.4h25.6v18.8c0,23.1-7.4,33.8-30.1,33.8c-22.8,0-30.1-10.7-30.1-33.8V658.2z M1541.3,649.4v26.2h8.8
			v-26.2c0-4.4-1.1-6.4-4.5-6.4C1542.5,643.1,1541.3,645.1,1541.3,649.4L1541.3,649.4L1541.3,649.4z"/>
		<path class="st1" d="M1580.1,650.7v11.8c0,0.7,0,1.3,0,2c0,6.2,0.4,12,6.6,19.3l23.3,26.7c2.9,3.3,4.5,6.2,4.5,10.5v13.8
			c0,4.4-1.1,6.4-4.3,6.4c-3.2,0-4.5-1.8-4.5-6.4v-26.4h-25.6v24.5c0,18.4,10.2,28,29.9,28c19.4,0,30.1-9.4,30.1-26.2v-15.3
			c0-8.2,0-14.5-6.5-21.6l-24.7-27.6c-2.3-2.7-3.2-5.5-3.2-9.3v-11.6c0-4.5,1.3-6.4,4.5-6.4c3.4,0,4.3,2,4.3,6.4v23.3h25.6v-21.5
			c0-17.1-10.6-26.9-29.9-26.9C1590.7,624.4,1580.1,634.5,1580.1,650.7L1580.1,650.7z"/>
		<polygon class="st1" points="1659.3,758.2 1684.9,758.2 1684.9,645.8 1701.6,645.8 1701.6,627.3 1642.8,627.3 1642.8,645.8 
			1659.3,645.8 1659.3,758.2 		"/>
		<path class="st1" d="M1560.3,383.6c6,3.4,15.3,7.1,22.6,7.8c24.9,2.3,51.2-9.6,63.5-29.8c40.1,10.5,70.4-15.6,76.3-44.1
			c0.9-4.3,1.3-8.4,1.3-12.3c0.1-18.9-9.3-33.6-25.5-44.7c6.5-32.2-7.8-46.2-21.9-52.2c3.4-11.4-1.9-27.4-14.2-39.9
			c-6.9-7-15-11.8-22.7-14c8.1-30.7-2.4-60.5-36.8-69.6c-8.6-2.3-17.8-2.1-26,0c-12.9-21.5-36.5-36-63.3-36
			c-26.5,0-49.5,14-62.5,35.1c-14.5-2.7-30,0.6-42.6,10.6c-19,15-25.1,40.4-16.9,61.9c-14.3,1.2-27,8.8-33.1,21.5
			c-4.9,10.2-4.4,21.8-0.1,32.2c-14.8,7.2-24.8,21-24.8,36.9c0,3.7,0.6,7.3,1.6,10.8c-16.3,10.6-27,28.8-27,49.6
			c0,32.7,26.8,59.3,60,59.3c8.1,0,15.8-1.6,22.8-4.5c9.8,19,29.7,32,52.7,32c12.5,0,24-4.3,33.6-10.8v80
			c-57.8-32.6-84.5-31.5-93.6-31.5c-14-0.7-38.7,6.1-48.4,17.7v37.5c9.7-11.6,36.9-20,57.4-19.1c10.4,0.5,32.7,5.1,56,18.5
			c34,19.5,60.3,23.2,60.3,23.2V332.1c-9.7,12.5-28.3,20.9-49.5,20.9c-27.4,0-50.2-14-55.5-32.6c-3.4,3.9-7.9,7.2-13.2,9.1
			c-15.3,5.6-31.7-1.1-36.7-15c-5-13.9,3.3-29.8,18.6-35.4c1.8-0.7,3.7-1.2,5.5-1.5c-10-9.3-14.4-21.6-9.8-31.4
			c4.6-10.1,17.2-14.6,31.1-12.4c-4.8-5.5-7.4-12.1-7.4-19.6c0-18.2,16.9-33,37.8-33c1.5,0,3.1,0.1,4.5,0.2
			c-6.4-6.9-10.3-16.2-10.3-26.4c0-21.2,16.9-38.5,37.8-38.5c5.7,0,11,1.3,15.9,3.6c2.7-17.5,18.6-31,37.9-31
			c19.6,0,35.7,13.9,38,31.8c5.5-3.3,11.9-4.6,18.7-4.6c20.8,0,37.7,17.8,37.7,39.7c0,10-3.2,18.8-9,25.8c1.3-0.1,2.6-0.2,3.9-0.2
			c20.6,0,37.3,14.5,37.3,32.3c0,5.9-1.8,11.5-5.1,16.2c11.9-0.2,22.7,6.5,26.7,17.6c3.2,8.9,1.2,18.5-4.5,25.9
			c0.4,0.1,0.8,0.1,1.2,0.2c15.4,2.7,25.7,17.3,23,32.6c-2.6,15.2-17.2,25.4-32.6,22.6c-8.1-1.5-14.9-6.3-19-12.7
			c-3.4,19.8-26.4,35-54.2,35c-19.7,0-39.1-7.6-48.8-19l0,177.4c0,0,26.2-3.7,60.3-23.2c23.3-13.3,45.6-18,56-18.5
			c20.5-0.9,46.6,6.3,56.3,18v-37.5c-9.7-11.6-33.3-17.3-47.3-16.6c-9.1,0-36.1-1.1-93.9,31.5L1560.3,383.6L1560.3,383.6z"/>
	</g>
	<g>
		<path class="st2" d="M502.4,439.1c10.1-24,33.9-49.4,71.5-76.2c32.6-23.3,53.7-40,63.3-50.1c14.7-15.7,22.1-32.9,22.1-51.6
			c0-15.2-4.2-27.9-12.7-38c-8.4-10.1-20.5-15.1-36.2-15.1c-21.5,0-36.2,8-43.9,24.1c-4.5,9.3-7.1,24-7.9,44.2h-68.8
			c1.2-30.6,6.7-55.4,16.6-74.2c18.9-35.9,52.4-53.9,100.6-53.9c38.1,0,68.4,10.5,90.9,31.6c22.5,21.1,33.8,49,33.8,83.8
			c0,26.6-8,50.3-23.9,71c-10.4,13.7-27.6,29-51.5,45.9l-28.4,20.1c-17.7,12.6-29.9,21.7-36.4,27.3c-6.5,5.6-12,12.2-16.5,19.6
			h157.1v62.3H485.8C486.5,484,492,460.4,502.4,439.1z"/>
	</g>
	<g>
		<path class="st2" d="M1901.7,261.6v-48.2c22.3-1,37.9-2.5,46.8-4.5c14.2-3.1,25.8-9.4,34.7-18.9c6.1-6.5,10.7-15.1,13.9-25.8
			c1.8-6.5,2.7-11.3,2.7-14.4h59.1v359.9h-72.5V261.6H1901.7z"/>
	</g>
</g>
<g>
</g>
<g>
</g>
<g>
</g>
<g>
</g>
<g>
</g>
<g>
</g>
</svg>
